M48
; DRILL file {KiCad 8.0.3} date 2024-07-07T09:09:22+1000
; FORMAT={-:-/ absolute / inch / decimal}
; #@! TF.CreationDate,2024-07-07T09:09:22+10:00
; #@! TF.GenerationSoftware,Kicad,Pcbnew,8.0.3
; #@! TF.FileFunction,Plated,1,2,PTH
FMAT,2
INCH
; #@! TA.AperFunction,Plated,PTH,ViaDrill
T1C0.0157
; #@! TA.AperFunction,Plated,PTH,ComponentDrill
T2C0.0315
; #@! TA.AperFunction,Plated,PTH,ComponentDrill
T3C0.0354
; #@! TA.AperFunction,Plated,PTH,ComponentDrill
T4C0.0394
%
G90
G05
T1
X6.4698Y-2.8125
X6.6883Y-2.8284
X7.4213Y-2.8543
X7.5492Y-2.8413
X7.8813Y-2.6378
X7.9659Y-2.5591
X8.0044Y-3.0443
T2
X5.374Y-3.3071
X5.4724Y-3.3071
X6.8956Y-2.7236
X6.8956Y-2.8236
X6.8956Y-2.9236
X6.8956Y-3.0236
X7.1956Y-2.7236
X7.1956Y-2.8236
X7.1956Y-2.9236
X7.1956Y-3.0236
X8.563Y-2.1228
X8.563Y-2.5228
X8.563Y-2.6937
X8.563Y-3.0937
X8.563Y-3.2646
X8.563Y-3.6646
T3
X4.6684Y-3.192
X4.6684Y-3.4282
X4.8653Y-3.192
X4.8653Y-3.4282
X8.8386Y-2.3228
X8.8386Y-2.8937
X8.8386Y-3.4449
X8.9386Y-2.3228
X8.9386Y-2.8937
X8.9386Y-3.4449
T4
X4.677Y-1.937
X4.777Y-1.937
X4.877Y-1.937
X4.977Y-1.937
X5.037Y-3.837
X5.077Y-1.937
X5.1181Y-2.2047
X5.1181Y-2.3047
X5.1181Y-2.4047
X5.1181Y-2.5047
X5.1181Y-2.6047
X5.1181Y-2.7047
X5.1181Y-2.8047
X5.1181Y-2.9047
X5.137Y-3.837
X5.177Y-1.937
X5.237Y-3.837
X5.277Y-1.937
X5.337Y-3.837
X5.377Y-1.937
X5.437Y-3.837
X5.4528Y-2.2047
X5.4528Y-2.3047
X5.4528Y-2.4047
X5.4528Y-2.5047
X5.4528Y-2.6047
X5.4528Y-2.7047
X5.4528Y-2.8047
X5.4528Y-2.9047
X5.477Y-1.937
X5.537Y-3.837
X5.577Y-1.937
X5.637Y-3.837
X5.737Y-1.937
X5.737Y-3.837
X5.837Y-1.937
X5.937Y-1.937
X5.937Y-3.837
X6.037Y-1.937
X6.037Y-3.837
X6.137Y-1.937
X6.137Y-3.837
X6.237Y-1.937
X6.237Y-3.837
X6.337Y-1.937
X6.337Y-3.837
X6.437Y-1.937
X6.437Y-3.837
X6.537Y-3.837
X6.637Y-1.937
X6.637Y-3.837
X6.737Y-1.937
X6.837Y-1.937
X6.837Y-3.837
X6.937Y-1.937
X6.937Y-3.837
X7.037Y-1.937
X7.037Y-3.837
X7.137Y-1.937
X7.137Y-3.837
X7.237Y-1.937
X7.237Y-3.837
X7.3031Y-2.1457
X7.3031Y-2.2457
X7.3031Y-2.3457
X7.3031Y-2.4457
X7.337Y-1.937
X7.337Y-3.837
X7.437Y-3.837
X7.537Y-3.837
X7.637Y-1.937
X7.637Y-2.037
X7.637Y-2.137
X7.637Y-2.237
X7.637Y-2.337
X7.637Y-2.437
X7.637Y-2.537
X7.637Y-2.637
X7.637Y-2.737
X7.637Y-2.837
X7.637Y-2.937
X7.637Y-3.037
X7.637Y-3.137
X7.637Y-3.237
X7.637Y-3.337
X7.637Y-3.437
X7.637Y-3.537
X7.637Y-3.637
X7.737Y-1.937
X7.737Y-2.037
X7.737Y-2.137
X7.737Y-2.237
X7.737Y-2.337
X7.737Y-2.437
X7.737Y-2.537
X7.737Y-2.637
X7.737Y-2.737
X7.737Y-2.837
X7.737Y-2.937
X7.737Y-3.037
X7.737Y-3.137
X7.737Y-3.237
X7.737Y-3.337
X7.737Y-3.437
X7.737Y-3.537
X7.737Y-3.637
X8.1087Y-2.2661
X8.1087Y-2.3661
X8.1087Y-2.4661
X8.1087Y-2.5661
X8.1087Y-2.6661
X8.1087Y-2.7661
X8.1087Y-2.8661
X8.1087Y-2.9661
X8.1087Y-3.0661
X8.1087Y-3.1661
X8.1087Y-3.2661
X8.1087Y-3.3661
X8.2087Y-2.2661
X8.2087Y-2.3661
X8.2087Y-2.4661
X8.2087Y-2.5661
X8.2087Y-2.6661
X8.2087Y-2.7661
X8.2087Y-2.8661
X8.2087Y-2.9661
X8.2087Y-3.0661
X8.2087Y-3.1661
X8.2087Y-3.2661
X8.2087Y-3.3661
M30
