%TF.GenerationSoftware,KiCad,Pcbnew,8.0.3*%
%TF.CreationDate,2024-07-07T09:09:28+10:00*%
%TF.ProjectId,sd-card-shield,73642d63-6172-4642-9d73-6869656c642e,rev?*%
%TF.SameCoordinates,Original*%
%TF.FileFunction,Copper,L1,Top*%
%TF.FilePolarity,Positive*%
%FSLAX46Y46*%
G04 Gerber Fmt 4.6, Leading zero omitted, Abs format (unit mm)*
G04 Created by KiCad (PCBNEW 8.0.3) date 2024-07-07 09:09:28*
%MOMM*%
%LPD*%
G01*
G04 APERTURE LIST*
G04 Aperture macros list*
%AMRoundRect*
0 Rectangle with rounded corners*
0 $1 Rounding radius*
0 $2 $3 $4 $5 $6 $7 $8 $9 X,Y pos of 4 corners*
0 Add a 4 corners polygon primitive as box body*
4,1,4,$2,$3,$4,$5,$6,$7,$8,$9,$2,$3,0*
0 Add four circle primitives for the rounded corners*
1,1,$1+$1,$2,$3*
1,1,$1+$1,$4,$5*
1,1,$1+$1,$6,$7*
1,1,$1+$1,$8,$9*
0 Add four rect primitives between the rounded corners*
20,1,$1+$1,$2,$3,$4,$5,0*
20,1,$1+$1,$4,$5,$6,$7,0*
20,1,$1+$1,$6,$7,$8,$9,0*
20,1,$1+$1,$8,$9,$2,$3,0*%
G04 Aperture macros list end*
%TA.AperFunction,ComponentPad*%
%ADD10R,1.700000X1.700000*%
%TD*%
%TA.AperFunction,ComponentPad*%
%ADD11O,1.700000X1.700000*%
%TD*%
%TA.AperFunction,ComponentPad*%
%ADD12C,1.600000*%
%TD*%
%TA.AperFunction,ComponentPad*%
%ADD13O,1.600000X1.600000*%
%TD*%
%TA.AperFunction,ComponentPad*%
%ADD14R,1.800000X1.800000*%
%TD*%
%TA.AperFunction,ComponentPad*%
%ADD15C,1.800000*%
%TD*%
%TA.AperFunction,ComponentPad*%
%ADD16C,1.700000*%
%TD*%
%TA.AperFunction,ComponentPad*%
%ADD17RoundRect,0.250000X0.600000X0.600000X-0.600000X0.600000X-0.600000X-0.600000X0.600000X-0.600000X0*%
%TD*%
%TA.AperFunction,ComponentPad*%
%ADD18R,1.600000X1.600000*%
%TD*%
%TA.AperFunction,ViaPad*%
%ADD19C,0.600000*%
%TD*%
%TA.AperFunction,Conductor*%
%ADD20C,0.250000*%
%TD*%
G04 APERTURE END LIST*
D10*
%TO.P,J4,1,Pin_1*%
%TO.N,+5V*%
X185500000Y-54500000D03*
D11*
%TO.P,J4,2,Pin_2*%
%TO.N,Net-(J4-Pin_2)*%
X185500000Y-57040000D03*
%TO.P,J4,3,Pin_3*%
%TO.N,Net-(J4-Pin_3)*%
X185500000Y-59580000D03*
%TO.P,J4,4,Pin_4*%
%TO.N,GND*%
X185500000Y-62120000D03*
%TD*%
D10*
%TO.P,P1,1,Pin_1*%
%TO.N,GND*%
X193980000Y-92380000D03*
D11*
%TO.P,P1,2,Pin_2*%
X196520000Y-92380000D03*
%TO.P,P1,3,Pin_3*%
%TO.N,Net-(J1-Pin_5)*%
X193980000Y-89840000D03*
%TO.P,P1,4,Pin_4*%
%TO.N,Net-(J1-Pin_2)*%
X196520000Y-89840000D03*
%TO.P,P1,5,Pin_5*%
%TO.N,Net-(J1-Pin_4)*%
X193980000Y-87300000D03*
%TO.P,P1,6,Pin_6*%
%TO.N,Net-(J1-Pin_3)*%
X196520000Y-87300000D03*
%TO.P,P1,7,Pin_7*%
%TO.N,Net-(J3-Pin_14)*%
X193980000Y-84760000D03*
%TO.P,P1,8,Pin_8*%
%TO.N,Net-(J3-Pin_11)*%
X196520000Y-84760000D03*
%TO.P,P1,9,Pin_9*%
%TO.N,Net-(J3-Pin_16)*%
X193980000Y-82220000D03*
%TO.P,P1,10,Pin_10*%
%TO.N,Net-(J3-Pin_13)*%
X196520000Y-82220000D03*
%TO.P,P1,11,Pin_11*%
%TO.N,Net-(J3-Pin_18)*%
X193980000Y-79680000D03*
%TO.P,P1,12,Pin_12*%
%TO.N,Net-(J3-Pin_17)*%
X196520000Y-79680000D03*
%TO.P,P1,13,Pin_13*%
%TO.N,OPTION_1*%
X193980000Y-77140000D03*
%TO.P,P1,14,Pin_14*%
%TO.N,Net-(J3-Pin_21)*%
X196520000Y-77140000D03*
%TO.P,P1,15,Pin_15*%
%TO.N,OPTION_3*%
X193980000Y-74600000D03*
%TO.P,P1,16,Pin_16*%
%TO.N,OPTION_2*%
X196520000Y-74600000D03*
%TO.P,P1,17,Pin_17*%
%TO.N,GND*%
X193980000Y-72060000D03*
%TO.P,P1,18,Pin_18*%
%TO.N,OPTION_4*%
X196520000Y-72060000D03*
%TO.P,P1,19,Pin_19*%
%TO.N,DATA_1*%
X193980000Y-69520000D03*
%TO.P,P1,20,Pin_20*%
%TO.N,DATA_0*%
X196520000Y-69520000D03*
%TO.P,P1,21,Pin_21*%
%TO.N,DATA_3*%
X193980000Y-66980000D03*
%TO.P,P1,22,Pin_22*%
%TO.N,DATA_2*%
X196520000Y-66980000D03*
%TO.P,P1,23,Pin_23*%
%TO.N,DATA_5*%
X193980000Y-64440000D03*
%TO.P,P1,24,Pin_24*%
%TO.N,DATA_4*%
X196520000Y-64440000D03*
%TO.P,P1,25,Pin_25*%
%TO.N,DATA_7*%
X193980000Y-61900000D03*
%TO.P,P1,26,Pin_26*%
%TO.N,DATA_6*%
X196520000Y-61900000D03*
%TO.P,P1,27,Pin_27*%
%TO.N,unconnected-(P1-Pin_27-Pad27)*%
X193980000Y-59360000D03*
%TO.P,P1,28,Pin_28*%
%TO.N,unconnected-(P1-Pin_28-Pad28)*%
X196520000Y-59360000D03*
%TO.P,P1,29,Pin_29*%
%TO.N,unconnected-(P1-Pin_29-Pad29)*%
X193980000Y-56820000D03*
%TO.P,P1,30,Pin_30*%
%TO.N,unconnected-(P1-Pin_30-Pad30)*%
X196520000Y-56820000D03*
%TO.P,P1,31,Pin_31*%
%TO.N,Net-(P1-Pin_31)*%
X193980000Y-54280000D03*
%TO.P,P1,32,Pin_32*%
%TO.N,unconnected-(P1-Pin_32-Pad32)*%
X196520000Y-54280000D03*
%TO.P,P1,33,Pin_33*%
%TO.N,Net-(P1-Pin_33)*%
X193980000Y-51740000D03*
%TO.P,P1,34,Pin_34*%
%TO.N,Net-(P1-Pin_34)*%
X196520000Y-51740000D03*
%TO.P,P1,35,Pin_35*%
%TO.N,unconnected-(P1-Pin_35-Pad35)*%
X193980000Y-49200000D03*
%TO.P,P1,36,Pin_36*%
%TO.N,unconnected-(P1-Pin_36-Pad36)*%
X196520000Y-49200000D03*
%TD*%
D10*
%TO.P,P2,1,Pin_1*%
%TO.N,unconnected-(P2-Pin_1-Pad1)*%
X127940000Y-97460000D03*
D11*
%TO.P,P2,2,Pin_2*%
%TO.N,unconnected-(P2-Pin_2-Pad2)*%
X130480000Y-97460000D03*
%TO.P,P2,3,Pin_3*%
%TO.N,Net-(P2-Pin_3)*%
X133020000Y-97460000D03*
%TO.P,P2,4,Pin_4*%
%TO.N,+3V3*%
X135560000Y-97460000D03*
%TO.P,P2,5,Pin_5*%
%TO.N,+5V*%
X138100000Y-97460000D03*
%TO.P,P2,6,Pin_6*%
%TO.N,GND*%
X140640000Y-97460000D03*
%TO.P,P2,7,Pin_7*%
X143180000Y-97460000D03*
%TO.P,P2,8,Pin_8*%
%TO.N,+8V*%
X145720000Y-97460000D03*
%TD*%
D10*
%TO.P,P3,1,Pin_1*%
%TO.N,unconnected-(P3-Pin_1-Pad1)*%
X150800000Y-97460000D03*
D11*
%TO.P,P3,2,Pin_2*%
%TO.N,unconnected-(P3-Pin_2-Pad2)*%
X153340000Y-97460000D03*
%TO.P,P3,3,Pin_3*%
%TO.N,unconnected-(P3-Pin_3-Pad3)*%
X155880000Y-97460000D03*
%TO.P,P3,4,Pin_4*%
%TO.N,unconnected-(P3-Pin_4-Pad4)*%
X158420000Y-97460000D03*
%TO.P,P3,5,Pin_5*%
%TO.N,unconnected-(P3-Pin_5-Pad5)*%
X160960000Y-97460000D03*
%TO.P,P3,6,Pin_6*%
%TO.N,unconnected-(P3-Pin_6-Pad6)*%
X163500000Y-97460000D03*
%TO.P,P3,7,Pin_7*%
%TO.N,unconnected-(P3-Pin_7-Pad7)*%
X166040000Y-97460000D03*
%TO.P,P3,8,Pin_8*%
%TO.N,unconnected-(P3-Pin_8-Pad8)*%
X168580000Y-97460000D03*
%TD*%
D10*
%TO.P,P4,1,Pin_1*%
%TO.N,unconnected-(P4-Pin_1-Pad1)*%
X173660000Y-97460000D03*
D11*
%TO.P,P4,2,Pin_2*%
%TO.N,unconnected-(P4-Pin_2-Pad2)*%
X176200000Y-97460000D03*
%TO.P,P4,3,Pin_3*%
%TO.N,unconnected-(P4-Pin_3-Pad3)*%
X178740000Y-97460000D03*
%TO.P,P4,4,Pin_4*%
%TO.N,unconnected-(P4-Pin_4-Pad4)*%
X181280000Y-97460000D03*
%TO.P,P4,5,Pin_5*%
%TO.N,unconnected-(P4-Pin_5-Pad5)*%
X183820000Y-97460000D03*
%TO.P,P4,6,Pin_6*%
%TO.N,unconnected-(P4-Pin_6-Pad6)*%
X186360000Y-97460000D03*
%TO.P,P4,7,Pin_7*%
%TO.N,unconnected-(P4-Pin_7-Pad7)*%
X188900000Y-97460000D03*
%TO.P,P4,8,Pin_8*%
%TO.N,unconnected-(P4-Pin_8-Pad8)*%
X191440000Y-97460000D03*
%TD*%
D10*
%TO.P,P5,1,Pin_1*%
%TO.N,unconnected-(P5-Pin_1-Pad1)*%
X118796000Y-49200000D03*
D11*
%TO.P,P5,2,Pin_2*%
%TO.N,unconnected-(P5-Pin_2-Pad2)*%
X121336000Y-49200000D03*
%TO.P,P5,3,Pin_3*%
%TO.N,unconnected-(P5-Pin_3-Pad3)*%
X123876000Y-49200000D03*
%TO.P,P5,4,Pin_4*%
%TO.N,GND*%
X126416000Y-49200000D03*
%TO.P,P5,5,Pin_5*%
%TO.N,unconnected-(P5-Pin_5-Pad5)*%
X128956000Y-49200000D03*
%TO.P,P5,6,Pin_6*%
%TO.N,unconnected-(P5-Pin_6-Pad6)*%
X131496000Y-49200000D03*
%TO.P,P5,7,Pin_7*%
%TO.N,unconnected-(P5-Pin_7-Pad7)*%
X134036000Y-49200000D03*
%TO.P,P5,8,Pin_8*%
%TO.N,unconnected-(P5-Pin_8-Pad8)*%
X136576000Y-49200000D03*
%TO.P,P5,9,Pin_9*%
%TO.N,unconnected-(P5-Pin_9-Pad9)*%
X139116000Y-49200000D03*
%TO.P,P5,10,Pin_10*%
%TO.N,unconnected-(P5-Pin_10-Pad10)*%
X141656000Y-49200000D03*
%TD*%
D10*
%TO.P,P6,1,Pin_1*%
%TO.N,unconnected-(P6-Pin_1-Pad1)*%
X145720000Y-49200000D03*
D11*
%TO.P,P6,2,Pin_2*%
%TO.N,unconnected-(P6-Pin_2-Pad2)*%
X148260000Y-49200000D03*
%TO.P,P6,3,Pin_3*%
%TO.N,unconnected-(P6-Pin_3-Pad3)*%
X150800000Y-49200000D03*
%TO.P,P6,4,Pin_4*%
%TO.N,unconnected-(P6-Pin_4-Pad4)*%
X153340000Y-49200000D03*
%TO.P,P6,5,Pin_5*%
%TO.N,Net-(J4-Pin_3)*%
X155880000Y-49200000D03*
%TO.P,P6,6,Pin_6*%
%TO.N,Net-(J4-Pin_2)*%
X158420000Y-49200000D03*
%TO.P,P6,7,Pin_7*%
%TO.N,unconnected-(P6-Pin_7-Pad7)*%
X160960000Y-49200000D03*
%TO.P,P6,8,Pin_8*%
%TO.N,unconnected-(P6-Pin_8-Pad8)*%
X163500000Y-49200000D03*
%TD*%
D10*
%TO.P,P7,1,Pin_1*%
%TO.N,unconnected-(P7-Pin_1-Pad1)*%
X168580000Y-49200000D03*
D11*
%TO.P,P7,2,Pin_2*%
%TO.N,unconnected-(P7-Pin_2-Pad2)*%
X171120000Y-49200000D03*
%TO.P,P7,3,Pin_3*%
%TO.N,unconnected-(P7-Pin_3-Pad3)*%
X173660000Y-49200000D03*
%TO.P,P7,4,Pin_4*%
%TO.N,unconnected-(P7-Pin_4-Pad4)*%
X176200000Y-49200000D03*
%TO.P,P7,5,Pin_5*%
%TO.N,unconnected-(P7-Pin_5-Pad5)*%
X178740000Y-49200000D03*
%TO.P,P7,6,Pin_6*%
%TO.N,Net-(J1-Pin_1)*%
X181280000Y-49200000D03*
%TO.P,P7,7,Pin_7*%
%TO.N,Net-(J2-Pin_5)*%
X183820000Y-49200000D03*
%TO.P,P7,8,Pin_8*%
%TO.N,Net-(J2-Pin_6)*%
X186360000Y-49200000D03*
%TD*%
D12*
%TO.P,R3,1*%
%TO.N,Net-(LED3-K)*%
X217500000Y-64080000D03*
D13*
%TO.P,R3,2*%
%TO.N,Net-(P1-Pin_31)*%
X217500000Y-53920000D03*
%TD*%
D12*
%TO.P,R1,1*%
%TO.N,Net-(LED1-K)*%
X217500000Y-93080000D03*
D13*
%TO.P,R1,2*%
%TO.N,Net-(P1-Pin_33)*%
X217500000Y-82920000D03*
%TD*%
D10*
%TO.P,J1,1,Pin_1*%
%TO.N,Net-(J1-Pin_1)*%
X130000000Y-56000000D03*
D11*
%TO.P,J1,2,Pin_2*%
%TO.N,Net-(J1-Pin_2)*%
X130000000Y-58540000D03*
%TO.P,J1,3,Pin_3*%
%TO.N,Net-(J1-Pin_3)*%
X130000000Y-61080000D03*
%TO.P,J1,4,Pin_4*%
%TO.N,Net-(J1-Pin_4)*%
X130000000Y-63620000D03*
%TO.P,J1,5,Pin_5*%
%TO.N,Net-(J1-Pin_5)*%
X130000000Y-66160000D03*
%TO.P,J1,6,Pin_6*%
%TO.N,GND*%
X130000000Y-68700000D03*
%TO.P,J1,7,Pin_7*%
%TO.N,unconnected-(J1-Pin_7-Pad7)*%
X130000000Y-71240000D03*
%TO.P,J1,8,Pin_8*%
%TO.N,+5V*%
X130000000Y-73780000D03*
%TD*%
D14*
%TO.P,SW2,1,1*%
%TO.N,unconnected-(SW2-Pad1)*%
X118577500Y-81077500D03*
D15*
%TO.P,SW2,2,2*%
%TO.N,Net-(P2-Pin_3)*%
X123577500Y-81077500D03*
%TO.P,SW2,3,K*%
%TO.N,GND*%
X118577500Y-87077500D03*
%TO.P,SW2,4,A*%
%TO.N,unconnected-(SW2-A-Pad4)*%
X123577500Y-87077500D03*
%TD*%
D14*
%TO.P,LED1,1,K*%
%TO.N,Net-(LED1-K)*%
X224500000Y-87500000D03*
D15*
%TO.P,LED1,2,A*%
%TO.N,+5V*%
X227040000Y-87500000D03*
%TD*%
D16*
%TO.P,J3,24,Pin_24*%
%TO.N,GND*%
X205960000Y-57560000D03*
%TO.P,J3,23,Pin_23*%
X208500000Y-57560000D03*
%TO.P,J3,22,Pin_22*%
%TO.N,unconnected-(J3-Pin_22-Pad22)*%
X205960000Y-60100000D03*
%TO.P,J3,21,Pin_21*%
%TO.N,Net-(J3-Pin_21)*%
X208500000Y-60100000D03*
%TO.P,J3,20,Pin_20*%
%TO.N,unconnected-(J3-Pin_20-Pad20)*%
X205960000Y-62640000D03*
%TO.P,J3,19,Pin_19*%
%TO.N,unconnected-(J3-Pin_19-Pad19)*%
X208500000Y-62640000D03*
%TO.P,J3,18,Pin_18*%
%TO.N,Net-(J3-Pin_18)*%
X205960000Y-65180000D03*
%TO.P,J3,17,Pin_17*%
%TO.N,Net-(J3-Pin_17)*%
X208500000Y-65180000D03*
%TO.P,J3,16,Pin_16*%
%TO.N,Net-(J3-Pin_16)*%
X205960000Y-67720000D03*
%TO.P,J3,15,Pin_15*%
%TO.N,Net-(J3-Pin_11)*%
X208500000Y-67720000D03*
%TO.P,J3,14,Pin_14*%
%TO.N,Net-(J3-Pin_14)*%
X205960000Y-70260000D03*
%TO.P,J3,13,Pin_13*%
%TO.N,Net-(J3-Pin_13)*%
X208500000Y-70260000D03*
%TO.P,J3,12,Pin_12*%
%TO.N,unconnected-(J3-Pin_12-Pad12)*%
X205960000Y-72800000D03*
%TO.P,J3,11,Pin_11*%
%TO.N,Net-(J3-Pin_11)*%
X208500000Y-72800000D03*
%TO.P,J3,10,Pin_10*%
%TO.N,DATA_7*%
X205960000Y-75340000D03*
%TO.P,J3,9,Pin_9*%
%TO.N,DATA_6*%
X208500000Y-75340000D03*
%TO.P,J3,8,Pin_8*%
%TO.N,DATA_5*%
X205960000Y-77880000D03*
%TO.P,J3,7,Pin_7*%
%TO.N,DATA_4*%
X208500000Y-77880000D03*
%TO.P,J3,6,Pin_6*%
%TO.N,DATA_3*%
X205960000Y-80420000D03*
%TO.P,J3,5,Pin_5*%
%TO.N,DATA_2*%
X208500000Y-80420000D03*
%TO.P,J3,4,Pin_4*%
%TO.N,DATA_1*%
X205960000Y-82960000D03*
%TO.P,J3,3,Pin_3*%
%TO.N,DATA_0*%
X208500000Y-82960000D03*
%TO.P,J3,2,Pin_2*%
%TO.N,unconnected-(J3-Pin_2-Pad2)*%
X205960000Y-85500000D03*
D17*
%TO.P,J3,1,Pin_1*%
%TO.N,unconnected-(J3-Pin_1-Pad1)*%
X208500000Y-85500000D03*
%TD*%
D12*
%TO.P,C1,1*%
%TO.N,Net-(P2-Pin_3)*%
X136500000Y-84000000D03*
%TO.P,C1,2*%
%TO.N,GND*%
X139000000Y-84000000D03*
%TD*%
D10*
%TO.P,J2,1,Pin_1*%
%TO.N,unconnected-(J2-Pin_1-Pad1)*%
X138500000Y-56000000D03*
D11*
%TO.P,J2,2,Pin_2*%
%TO.N,unconnected-(J2-Pin_2-Pad2)*%
X138500000Y-58540000D03*
%TO.P,J2,3,Pin_3*%
%TO.N,unconnected-(J2-Pin_3-Pad3)*%
X138500000Y-61080000D03*
%TO.P,J2,4,Pin_4*%
%TO.N,unconnected-(J2-Pin_4-Pad4)*%
X138500000Y-63620000D03*
%TO.P,J2,5,Pin_5*%
%TO.N,Net-(J2-Pin_5)*%
X138500000Y-66160000D03*
%TO.P,J2,6,Pin_6*%
%TO.N,Net-(J2-Pin_6)*%
X138500000Y-68700000D03*
%TO.P,J2,7,Pin_7*%
%TO.N,GND*%
X138500000Y-71240000D03*
%TO.P,J2,8,Pin_8*%
%TO.N,+5V*%
X138500000Y-73780000D03*
%TD*%
D18*
%TO.P,SW1,1*%
%TO.N,OPTION_1*%
X182767500Y-76800000D03*
D13*
%TO.P,SW1,2*%
%TO.N,OPTION_2*%
X182767500Y-74260000D03*
%TO.P,SW1,3*%
%TO.N,OPTION_3*%
X182767500Y-71720000D03*
%TO.P,SW1,4*%
%TO.N,OPTION_4*%
X182767500Y-69180000D03*
%TO.P,SW1,5*%
%TO.N,GND*%
X175147500Y-69180000D03*
%TO.P,SW1,6*%
X175147500Y-71720000D03*
%TO.P,SW1,7*%
X175147500Y-74260000D03*
%TO.P,SW1,8*%
X175147500Y-76800000D03*
%TD*%
D12*
%TO.P,R2,1*%
%TO.N,Net-(LED2-K)*%
X217500000Y-78580000D03*
D13*
%TO.P,R2,2*%
%TO.N,Net-(P1-Pin_34)*%
X217500000Y-68420000D03*
%TD*%
D14*
%TO.P,LED3,1,K*%
%TO.N,Net-(LED3-K)*%
X224500000Y-59000000D03*
D15*
%TO.P,LED3,2,A*%
%TO.N,+5V*%
X227040000Y-59000000D03*
%TD*%
D14*
%TO.P,LED2,1,K*%
%TO.N,Net-(LED2-K)*%
X224500000Y-73500000D03*
D15*
%TO.P,LED2,2,A*%
%TO.N,+5V*%
X227040000Y-73500000D03*
%TD*%
D19*
%TO.N,Net-(J3-Pin_14)*%
X202334000Y-65000000D03*
%TO.N,Net-(J1-Pin_3)*%
X169883000Y-71842200D03*
%TO.N,Net-(J1-Pin_4)*%
X164333000Y-71437600D03*
%TO.N,DATA_7*%
X200186000Y-67000000D03*
%TO.N,DATA_3*%
X191750000Y-72168900D03*
%TO.N,DATA_0*%
X203313000Y-77325800D03*
%TO.N,GND*%
X188500000Y-72500000D03*
%TD*%
D20*
%TO.N,Net-(LED3-K)*%
X222580000Y-59000000D02*
X217500000Y-64080000D01*
X224500000Y-59000000D02*
X222580000Y-59000000D01*
%TO.N,Net-(J4-Pin_3)*%
X185132300Y-58403300D02*
X185500000Y-58403300D01*
X182549900Y-55820900D02*
X185132300Y-58403300D01*
X182549900Y-48759700D02*
X182549900Y-55820900D01*
X181765100Y-47974900D02*
X182549900Y-48759700D01*
X157914100Y-47974900D02*
X181765100Y-47974900D01*
X157056700Y-48832300D02*
X157914100Y-47974900D01*
X157056700Y-49200000D02*
X157056700Y-48832300D01*
X155880000Y-49200000D02*
X157056700Y-49200000D01*
X185500000Y-59580000D02*
X185500000Y-58403300D01*
%TO.N,Net-(J3-Pin_14)*%
X202334000Y-66634400D02*
X205960000Y-70260000D01*
X202334000Y-65000000D02*
X202334000Y-66634400D01*
%TO.N,Net-(J1-Pin_3)*%
X160298000Y-62256700D02*
X169883000Y-71842200D01*
X132353000Y-62256700D02*
X160298000Y-62256700D01*
X131177000Y-61080000D02*
X132353000Y-62256700D01*
X130000000Y-61080000D02*
X131177000Y-61080000D01*
%TO.N,Net-(J1-Pin_4)*%
X157692000Y-64796700D02*
X164333000Y-71437600D01*
X132353000Y-64796700D02*
X157692000Y-64796700D01*
X131177000Y-63620000D02*
X132353000Y-64796700D01*
X130000000Y-63620000D02*
X131177000Y-63620000D01*
%TO.N,+5V*%
X227040000Y-80959000D02*
X227040000Y-73500000D01*
X223770000Y-84229500D02*
X227040000Y-80959000D01*
X223770000Y-84229500D02*
X227040000Y-87500000D01*
X139677000Y-73780000D02*
X138500000Y-73780000D01*
X144382000Y-78485700D02*
X139677000Y-73780000D01*
X144382000Y-83582400D02*
X144382000Y-78485700D01*
X130000000Y-73780000D02*
X138500000Y-73780000D01*
X144382000Y-90000900D02*
X144382000Y-83582400D01*
X138100000Y-96283300D02*
X144382000Y-90000900D01*
X138100000Y-97460000D02*
X138100000Y-96283300D01*
X227040000Y-73500000D02*
X227040000Y-59000000D01*
X144382000Y-83582400D02*
X178957500Y-83582400D01*
X205565000Y-84229500D02*
X223770000Y-84229500D01*
X204918000Y-83582400D02*
X205565000Y-84229500D01*
X178957500Y-83582400D02*
X204918000Y-83582400D01*
X185867800Y-55676700D02*
X185500000Y-55676700D01*
X186676700Y-56485600D02*
X185867800Y-55676700D01*
X186676700Y-63627500D02*
X186676700Y-56485600D01*
X178957500Y-71346700D02*
X186676700Y-63627500D01*
X178957500Y-83582400D02*
X178957500Y-71346700D01*
X185500000Y-54500000D02*
X185500000Y-55676700D01*
%TO.N,Net-(P1-Pin_31)*%
X195157000Y-54280000D02*
X193980000Y-54280000D01*
X195157000Y-53912200D02*
X195157000Y-54280000D01*
X195966000Y-53103300D02*
X195157000Y-53912200D01*
X215557000Y-53103300D02*
X195966000Y-53103300D01*
X216373000Y-53920000D02*
X215557000Y-53103300D01*
X217500000Y-53920000D02*
X216373000Y-53920000D01*
%TO.N,DATA_6*%
X207230000Y-74070000D02*
X208500000Y-75340000D01*
X207230000Y-72405200D02*
X207230000Y-74070000D01*
X206355000Y-71530000D02*
X207230000Y-72405200D01*
X205568000Y-71530000D02*
X206355000Y-71530000D01*
X204785000Y-70746700D02*
X205568000Y-71530000D01*
X204785000Y-69785000D02*
X204785000Y-70746700D01*
X198077000Y-63076700D02*
X204785000Y-69785000D01*
X196520000Y-63076700D02*
X198077000Y-63076700D01*
X196520000Y-61900000D02*
X196520000Y-63076700D01*
%TO.N,DATA_7*%
X200186000Y-69566000D02*
X205960000Y-75340000D01*
X200186000Y-67000000D02*
X200186000Y-69566000D01*
%TO.N,DATA_4*%
X196520000Y-65616700D02*
X196520000Y-64440000D01*
X196888000Y-65616700D02*
X196520000Y-65616700D01*
X199561000Y-68289700D02*
X196888000Y-65616700D01*
X199561000Y-70621300D02*
X199561000Y-68289700D01*
X205456000Y-76516700D02*
X199561000Y-70621300D01*
X207137000Y-76516700D02*
X205456000Y-76516700D01*
X208500000Y-77880000D02*
X207137000Y-76516700D01*
%TO.N,DATA_5*%
X198427000Y-70346700D02*
X205960000Y-77880000D01*
X198427000Y-69738600D02*
X198427000Y-70346700D01*
X196938000Y-68250000D02*
X198427000Y-69738600D01*
X196125000Y-68250000D02*
X196938000Y-68250000D01*
X195157000Y-67281500D02*
X196125000Y-68250000D01*
X195157000Y-66425600D02*
X195157000Y-67281500D01*
X194348000Y-65616700D02*
X195157000Y-66425600D01*
X193980000Y-65616700D02*
X194348000Y-65616700D01*
X193980000Y-64440000D02*
X193980000Y-65616700D01*
%TO.N,DATA_2*%
X209711000Y-79208900D02*
X208500000Y-80420000D01*
X209711000Y-72252500D02*
X209711000Y-79208900D01*
X208989000Y-71530000D02*
X209711000Y-72252500D01*
X208106000Y-71530000D02*
X208989000Y-71530000D01*
X207137000Y-70560800D02*
X208106000Y-71530000D01*
X207137000Y-69729900D02*
X207137000Y-70560800D01*
X206397000Y-68990000D02*
X207137000Y-69729900D01*
X205447000Y-68990000D02*
X206397000Y-68990000D01*
X203703000Y-67245700D02*
X205447000Y-68990000D01*
X203703000Y-64812800D02*
X203703000Y-67245700D01*
X197068000Y-58178200D02*
X203703000Y-64812800D01*
X193455000Y-58178200D02*
X197068000Y-58178200D01*
X192741000Y-58891600D02*
X193455000Y-58178200D01*
X192741000Y-62382300D02*
X192741000Y-58891600D01*
X193492000Y-63132600D02*
X192741000Y-62382300D01*
X194352000Y-63132600D02*
X193492000Y-63132600D01*
X195343000Y-64124400D02*
X194352000Y-63132600D01*
X195343000Y-65803300D02*
X195343000Y-64124400D01*
X196520000Y-66980000D02*
X195343000Y-65803300D01*
%TO.N,DATA_3*%
X205198000Y-80420000D02*
X205960000Y-80420000D01*
X198108000Y-73330100D02*
X205198000Y-80420000D01*
X192911000Y-73330100D02*
X198108000Y-73330100D01*
X191750000Y-72168900D02*
X192911000Y-73330100D01*
%TO.N,DATA_0*%
X196520000Y-70696700D02*
X196520000Y-69520000D01*
X196858000Y-70696700D02*
X196520000Y-70696700D01*
X203313000Y-77152200D02*
X196858000Y-70696700D01*
X203313000Y-77325800D02*
X203313000Y-77152200D01*
%TO.N,OPTION_4*%
X182948000Y-69000000D02*
X182858000Y-69090000D01*
X191798000Y-69000000D02*
X182948000Y-69000000D01*
X193493000Y-70695000D02*
X191798000Y-69000000D01*
X194346000Y-70695000D02*
X193493000Y-70695000D01*
X195343000Y-71692200D02*
X194346000Y-70695000D01*
X195343000Y-72060000D02*
X195343000Y-71692200D01*
X196520000Y-72060000D02*
X195343000Y-72060000D01*
X182858000Y-69090000D02*
X182768000Y-69180000D01*
X182857500Y-69090000D02*
X182767500Y-69180000D01*
X182858000Y-69090000D02*
X182857500Y-69090000D01*
%TO.N,OPTION_2*%
X183894000Y-74260000D02*
X182768000Y-74260000D01*
X185411000Y-75776700D02*
X183894000Y-74260000D01*
X194534000Y-75776700D02*
X185411000Y-75776700D01*
X195343000Y-74967800D02*
X194534000Y-75776700D01*
X195343000Y-74600000D02*
X195343000Y-74967800D01*
X196520000Y-74600000D02*
X195343000Y-74600000D01*
X182768000Y-74260000D02*
X182767500Y-74260000D01*
%TO.N,OPTION_3*%
X183894000Y-71720000D02*
X182768000Y-71720000D01*
X186774000Y-74600000D02*
X183894000Y-71720000D01*
X193980000Y-74600000D02*
X186774000Y-74600000D01*
X182768000Y-71720000D02*
X182767500Y-71720000D01*
%TO.N,OPTION_1*%
X192463000Y-76800000D02*
X182768000Y-76800000D01*
X192803000Y-77140000D02*
X192463000Y-76800000D01*
X193980000Y-77140000D02*
X192803000Y-77140000D01*
X182768000Y-76800000D02*
X182767500Y-76800000D01*
%TO.N,Net-(J1-Pin_1)*%
X131177000Y-56000000D02*
X130000000Y-56000000D01*
X136800000Y-50376700D02*
X131177000Y-56000000D01*
X179294000Y-50376700D02*
X136800000Y-50376700D01*
X180103000Y-49567800D02*
X179294000Y-50376700D01*
X180103000Y-49200000D02*
X180103000Y-49567800D01*
X181280000Y-49200000D02*
X180103000Y-49200000D01*
%TO.N,GND*%
X188500000Y-72000000D02*
X188500000Y-72500000D01*
X190000000Y-70500000D02*
X188500000Y-72000000D01*
X192420000Y-70500000D02*
X190000000Y-70500000D01*
X193980000Y-72060000D02*
X192420000Y-70500000D01*
%TD*%
M02*
