%TF.GenerationSoftware,KiCad,Pcbnew,8.0.3*%
%TF.CreationDate,2024-07-07T09:09:28+10:00*%
%TF.ProjectId,sd-card-shield,73642d63-6172-4642-9d73-6869656c642e,rev?*%
%TF.SameCoordinates,Original*%
%TF.FileFunction,Legend,Bot*%
%TF.FilePolarity,Positive*%
%FSLAX46Y46*%
G04 Gerber Fmt 4.6, Leading zero omitted, Abs format (unit mm)*
G04 Created by KiCad (PCBNEW 8.0.3) date 2024-07-07 09:09:28*
%MOMM*%
%LPD*%
G01*
G04 APERTURE LIST*
G04 Aperture macros list*
%AMRoundRect*
0 Rectangle with rounded corners*
0 $1 Rounding radius*
0 $2 $3 $4 $5 $6 $7 $8 $9 X,Y pos of 4 corners*
0 Add a 4 corners polygon primitive as box body*
4,1,4,$2,$3,$4,$5,$6,$7,$8,$9,$2,$3,0*
0 Add four circle primitives for the rounded corners*
1,1,$1+$1,$2,$3*
1,1,$1+$1,$4,$5*
1,1,$1+$1,$6,$7*
1,1,$1+$1,$8,$9*
0 Add four rect primitives between the rounded corners*
20,1,$1+$1,$2,$3,$4,$5,0*
20,1,$1+$1,$4,$5,$6,$7,0*
20,1,$1+$1,$6,$7,$8,$9,0*
20,1,$1+$1,$8,$9,$2,$3,0*%
G04 Aperture macros list end*
%ADD10R,1.700000X1.700000*%
%ADD11O,1.700000X1.700000*%
%ADD12C,1.600000*%
%ADD13O,1.600000X1.600000*%
%ADD14C,3.200000*%
%ADD15R,1.800000X1.800000*%
%ADD16C,1.800000*%
%ADD17C,1.700000*%
%ADD18RoundRect,0.250000X0.600000X0.600000X-0.600000X0.600000X-0.600000X-0.600000X0.600000X-0.600000X0*%
%ADD19R,1.600000X1.600000*%
G04 APERTURE END LIST*
%LPC*%
D10*
%TO.C,J4*%
X185500000Y-54500000D03*
D11*
X185500000Y-57040000D03*
X185500000Y-59580000D03*
X185500000Y-62120000D03*
%TD*%
D10*
%TO.C,P1*%
X193980000Y-92380000D03*
D11*
X196520000Y-92380000D03*
X193980000Y-89840000D03*
X196520000Y-89840000D03*
X193980000Y-87300000D03*
X196520000Y-87300000D03*
X193980000Y-84760000D03*
X196520000Y-84760000D03*
X193980000Y-82220000D03*
X196520000Y-82220000D03*
X193980000Y-79680000D03*
X196520000Y-79680000D03*
X193980000Y-77140000D03*
X196520000Y-77140000D03*
X193980000Y-74600000D03*
X196520000Y-74600000D03*
X193980000Y-72060000D03*
X196520000Y-72060000D03*
X193980000Y-69520000D03*
X196520000Y-69520000D03*
X193980000Y-66980000D03*
X196520000Y-66980000D03*
X193980000Y-64440000D03*
X196520000Y-64440000D03*
X193980000Y-61900000D03*
X196520000Y-61900000D03*
X193980000Y-59360000D03*
X196520000Y-59360000D03*
X193980000Y-56820000D03*
X196520000Y-56820000D03*
X193980000Y-54280000D03*
X196520000Y-54280000D03*
X193980000Y-51740000D03*
X196520000Y-51740000D03*
X193980000Y-49200000D03*
X196520000Y-49200000D03*
%TD*%
D10*
%TO.C,P2*%
X127940000Y-97460000D03*
D11*
X130480000Y-97460000D03*
X133020000Y-97460000D03*
X135560000Y-97460000D03*
X138100000Y-97460000D03*
X140640000Y-97460000D03*
X143180000Y-97460000D03*
X145720000Y-97460000D03*
%TD*%
D10*
%TO.C,P3*%
X150800000Y-97460000D03*
D11*
X153340000Y-97460000D03*
X155880000Y-97460000D03*
X158420000Y-97460000D03*
X160960000Y-97460000D03*
X163500000Y-97460000D03*
X166040000Y-97460000D03*
X168580000Y-97460000D03*
%TD*%
D10*
%TO.C,P4*%
X173660000Y-97460000D03*
D11*
X176200000Y-97460000D03*
X178740000Y-97460000D03*
X181280000Y-97460000D03*
X183820000Y-97460000D03*
X186360000Y-97460000D03*
X188900000Y-97460000D03*
X191440000Y-97460000D03*
%TD*%
D10*
%TO.C,P5*%
X118796000Y-49200000D03*
D11*
X121336000Y-49200000D03*
X123876000Y-49200000D03*
X126416000Y-49200000D03*
X128956000Y-49200000D03*
X131496000Y-49200000D03*
X134036000Y-49200000D03*
X136576000Y-49200000D03*
X139116000Y-49200000D03*
X141656000Y-49200000D03*
%TD*%
D10*
%TO.C,P6*%
X145720000Y-49200000D03*
D11*
X148260000Y-49200000D03*
X150800000Y-49200000D03*
X153340000Y-49200000D03*
X155880000Y-49200000D03*
X158420000Y-49200000D03*
X160960000Y-49200000D03*
X163500000Y-49200000D03*
%TD*%
D10*
%TO.C,P7*%
X168580000Y-49200000D03*
D11*
X171120000Y-49200000D03*
X173660000Y-49200000D03*
X176200000Y-49200000D03*
X178740000Y-49200000D03*
X181280000Y-49200000D03*
X183820000Y-49200000D03*
X186360000Y-49200000D03*
%TD*%
D12*
%TO.C,R3*%
X217500000Y-64080000D03*
D13*
X217500000Y-53920000D03*
%TD*%
D12*
%TO.C,R1*%
X217500000Y-93080000D03*
D13*
X217500000Y-82920000D03*
%TD*%
D10*
%TO.C,J1*%
X130000000Y-56000000D03*
D11*
X130000000Y-58540000D03*
X130000000Y-61080000D03*
X130000000Y-63620000D03*
X130000000Y-66160000D03*
X130000000Y-68700000D03*
X130000000Y-71240000D03*
X130000000Y-73780000D03*
%TD*%
D14*
%TO.C,MH6*%
X196520000Y-97460000D03*
%TD*%
D15*
%TO.C,SW2*%
X118577500Y-81077500D03*
D16*
X123577500Y-81077500D03*
X118577500Y-87077500D03*
X123577500Y-87077500D03*
%TD*%
D15*
%TO.C,LED1*%
X224500000Y-87500000D03*
D16*
X227040000Y-87500000D03*
%TD*%
D17*
%TO.C,J3*%
X205960000Y-57560000D03*
X208500000Y-57560000D03*
X205960000Y-60100000D03*
X208500000Y-60100000D03*
X205960000Y-62640000D03*
X208500000Y-62640000D03*
X205960000Y-65180000D03*
X208500000Y-65180000D03*
X205960000Y-67720000D03*
X208500000Y-67720000D03*
X205960000Y-70260000D03*
X208500000Y-70260000D03*
X205960000Y-72800000D03*
X208500000Y-72800000D03*
X205960000Y-75340000D03*
X208500000Y-75340000D03*
X205960000Y-77880000D03*
X208500000Y-77880000D03*
X205960000Y-80420000D03*
X208500000Y-80420000D03*
X205960000Y-82960000D03*
X208500000Y-82960000D03*
X205960000Y-85500000D03*
D18*
X208500000Y-85500000D03*
%TD*%
D14*
%TO.C,MH1*%
X115240000Y-49200000D03*
%TD*%
D12*
%TO.C,C1*%
X136500000Y-84000000D03*
X139000000Y-84000000D03*
%TD*%
D10*
%TO.C,J2*%
X138500000Y-56000000D03*
D11*
X138500000Y-58540000D03*
X138500000Y-61080000D03*
X138500000Y-63620000D03*
X138500000Y-66160000D03*
X138500000Y-68700000D03*
X138500000Y-71240000D03*
X138500000Y-73780000D03*
%TD*%
D19*
%TO.C,SW1*%
X182767500Y-76800000D03*
D13*
X182767500Y-74260000D03*
X182767500Y-71720000D03*
X182767500Y-69180000D03*
X175147500Y-69180000D03*
X175147500Y-71720000D03*
X175147500Y-74260000D03*
X175147500Y-76800000D03*
%TD*%
D12*
%TO.C,R2*%
X217500000Y-78580000D03*
D13*
X217500000Y-68420000D03*
%TD*%
D15*
%TO.C,LED3*%
X224500000Y-59000000D03*
D16*
X227040000Y-59000000D03*
%TD*%
D15*
%TO.C,LED2*%
X224500000Y-73500000D03*
D16*
X227040000Y-73500000D03*
%TD*%
D14*
%TO.C,MH2*%
X113970000Y-97460000D03*
%TD*%
%TO.C,MH3*%
X166040000Y-64440000D03*
%TD*%
%TO.C,MH4*%
X166040000Y-92380000D03*
%TD*%
%TO.C,MH5*%
X190170000Y-49200000D03*
%TD*%
%LPD*%
M02*
