%TF.GenerationSoftware,KiCad,Pcbnew,8.0.3*%
%TF.CreationDate,2024-07-07T09:09:28+10:00*%
%TF.ProjectId,sd-card-shield,73642d63-6172-4642-9d73-6869656c642e,rev?*%
%TF.SameCoordinates,Original*%
%TF.FileFunction,Legend,Top*%
%TF.FilePolarity,Positive*%
%FSLAX46Y46*%
G04 Gerber Fmt 4.6, Leading zero omitted, Abs format (unit mm)*
G04 Created by KiCad (PCBNEW 8.0.3) date 2024-07-07 09:09:28*
%MOMM*%
%LPD*%
G01*
G04 APERTURE LIST*
G04 Aperture macros list*
%AMRoundRect*
0 Rectangle with rounded corners*
0 $1 Rounding radius*
0 $2 $3 $4 $5 $6 $7 $8 $9 X,Y pos of 4 corners*
0 Add a 4 corners polygon primitive as box body*
4,1,4,$2,$3,$4,$5,$6,$7,$8,$9,$2,$3,0*
0 Add four circle primitives for the rounded corners*
1,1,$1+$1,$2,$3*
1,1,$1+$1,$4,$5*
1,1,$1+$1,$6,$7*
1,1,$1+$1,$8,$9*
0 Add four rect primitives between the rounded corners*
20,1,$1+$1,$2,$3,$4,$5,0*
20,1,$1+$1,$4,$5,$6,$7,0*
20,1,$1+$1,$6,$7,$8,$9,0*
20,1,$1+$1,$8,$9,$2,$3,0*%
G04 Aperture macros list end*
%ADD10C,0.150000*%
%ADD11C,0.120000*%
%ADD12R,1.700000X1.700000*%
%ADD13O,1.700000X1.700000*%
%ADD14C,1.600000*%
%ADD15O,1.600000X1.600000*%
%ADD16C,3.200000*%
%ADD17R,1.800000X1.800000*%
%ADD18C,1.800000*%
%ADD19C,1.700000*%
%ADD20RoundRect,0.250000X0.600000X0.600000X-0.600000X0.600000X-0.600000X-0.600000X0.600000X-0.600000X0*%
%ADD21R,1.600000X1.600000*%
G04 APERTURE END LIST*
D10*
X231369819Y-89663220D02*
X230369819Y-89663220D01*
X230369819Y-89663220D02*
X230369819Y-89282268D01*
X230369819Y-89282268D02*
X230417438Y-89187030D01*
X230417438Y-89187030D02*
X230465057Y-89139411D01*
X230465057Y-89139411D02*
X230560295Y-89091792D01*
X230560295Y-89091792D02*
X230703152Y-89091792D01*
X230703152Y-89091792D02*
X230798390Y-89139411D01*
X230798390Y-89139411D02*
X230846009Y-89187030D01*
X230846009Y-89187030D02*
X230893628Y-89282268D01*
X230893628Y-89282268D02*
X230893628Y-89663220D01*
X230369819Y-88663220D02*
X231179342Y-88663220D01*
X231179342Y-88663220D02*
X231274580Y-88615601D01*
X231274580Y-88615601D02*
X231322200Y-88567982D01*
X231322200Y-88567982D02*
X231369819Y-88472744D01*
X231369819Y-88472744D02*
X231369819Y-88282268D01*
X231369819Y-88282268D02*
X231322200Y-88187030D01*
X231322200Y-88187030D02*
X231274580Y-88139411D01*
X231274580Y-88139411D02*
X231179342Y-88091792D01*
X231179342Y-88091792D02*
X230369819Y-88091792D01*
X231369819Y-87139411D02*
X231369819Y-87615601D01*
X231369819Y-87615601D02*
X230369819Y-87615601D01*
X231322200Y-86853696D02*
X231369819Y-86710839D01*
X231369819Y-86710839D02*
X231369819Y-86472744D01*
X231369819Y-86472744D02*
X231322200Y-86377506D01*
X231322200Y-86377506D02*
X231274580Y-86329887D01*
X231274580Y-86329887D02*
X231179342Y-86282268D01*
X231179342Y-86282268D02*
X231084104Y-86282268D01*
X231084104Y-86282268D02*
X230988866Y-86329887D01*
X230988866Y-86329887D02*
X230941247Y-86377506D01*
X230941247Y-86377506D02*
X230893628Y-86472744D01*
X230893628Y-86472744D02*
X230846009Y-86663220D01*
X230846009Y-86663220D02*
X230798390Y-86758458D01*
X230798390Y-86758458D02*
X230750771Y-86806077D01*
X230750771Y-86806077D02*
X230655533Y-86853696D01*
X230655533Y-86853696D02*
X230560295Y-86853696D01*
X230560295Y-86853696D02*
X230465057Y-86806077D01*
X230465057Y-86806077D02*
X230417438Y-86758458D01*
X230417438Y-86758458D02*
X230369819Y-86663220D01*
X230369819Y-86663220D02*
X230369819Y-86425125D01*
X230369819Y-86425125D02*
X230417438Y-86282268D01*
X230846009Y-85853696D02*
X230846009Y-85520363D01*
X231369819Y-85377506D02*
X231369819Y-85853696D01*
X231369819Y-85853696D02*
X230369819Y-85853696D01*
X230369819Y-85853696D02*
X230369819Y-85377506D01*
X172289160Y-74050057D02*
X172336779Y-74002438D01*
X172336779Y-74002438D02*
X172432017Y-73954819D01*
X172432017Y-73954819D02*
X172670112Y-73954819D01*
X172670112Y-73954819D02*
X172765350Y-74002438D01*
X172765350Y-74002438D02*
X172812969Y-74050057D01*
X172812969Y-74050057D02*
X172860588Y-74145295D01*
X172860588Y-74145295D02*
X172860588Y-74240533D01*
X172860588Y-74240533D02*
X172812969Y-74383390D01*
X172812969Y-74383390D02*
X172241541Y-74954819D01*
X172241541Y-74954819D02*
X172860588Y-74954819D01*
X231084104Y-61210839D02*
X231084104Y-60734649D01*
X231369819Y-61306077D02*
X230369819Y-60972744D01*
X230369819Y-60972744D02*
X231369819Y-60639411D01*
X231369819Y-59829887D02*
X231369819Y-60306077D01*
X231369819Y-60306077D02*
X230369819Y-60306077D01*
X230846009Y-59496553D02*
X230846009Y-59163220D01*
X231369819Y-59020363D02*
X231369819Y-59496553D01*
X231369819Y-59496553D02*
X230369819Y-59496553D01*
X230369819Y-59496553D02*
X230369819Y-59020363D01*
X231369819Y-58020363D02*
X230893628Y-58353696D01*
X231369819Y-58591791D02*
X230369819Y-58591791D01*
X230369819Y-58591791D02*
X230369819Y-58210839D01*
X230369819Y-58210839D02*
X230417438Y-58115601D01*
X230417438Y-58115601D02*
X230465057Y-58067982D01*
X230465057Y-58067982D02*
X230560295Y-58020363D01*
X230560295Y-58020363D02*
X230703152Y-58020363D01*
X230703152Y-58020363D02*
X230798390Y-58067982D01*
X230798390Y-58067982D02*
X230846009Y-58115601D01*
X230846009Y-58115601D02*
X230893628Y-58210839D01*
X230893628Y-58210839D02*
X230893628Y-58591791D01*
X230369819Y-57734648D02*
X230369819Y-57163220D01*
X231369819Y-57448934D02*
X230369819Y-57448934D01*
X172241541Y-71454819D02*
X172860588Y-71454819D01*
X172860588Y-71454819D02*
X172527255Y-71835771D01*
X172527255Y-71835771D02*
X172670112Y-71835771D01*
X172670112Y-71835771D02*
X172765350Y-71883390D01*
X172765350Y-71883390D02*
X172812969Y-71931009D01*
X172812969Y-71931009D02*
X172860588Y-72026247D01*
X172860588Y-72026247D02*
X172860588Y-72264342D01*
X172860588Y-72264342D02*
X172812969Y-72359580D01*
X172812969Y-72359580D02*
X172765350Y-72407200D01*
X172765350Y-72407200D02*
X172670112Y-72454819D01*
X172670112Y-72454819D02*
X172384398Y-72454819D01*
X172384398Y-72454819D02*
X172289160Y-72407200D01*
X172289160Y-72407200D02*
X172241541Y-72359580D01*
X172860588Y-77454819D02*
X172289160Y-77454819D01*
X172574874Y-77454819D02*
X172574874Y-76454819D01*
X172574874Y-76454819D02*
X172479636Y-76597676D01*
X172479636Y-76597676D02*
X172384398Y-76692914D01*
X172384398Y-76692914D02*
X172289160Y-76740533D01*
X231084104Y-76210839D02*
X231084104Y-75734649D01*
X231369819Y-76306077D02*
X230369819Y-75972744D01*
X230369819Y-75972744D02*
X231369819Y-75639411D01*
X231274580Y-74734649D02*
X231322200Y-74782268D01*
X231322200Y-74782268D02*
X231369819Y-74925125D01*
X231369819Y-74925125D02*
X231369819Y-75020363D01*
X231369819Y-75020363D02*
X231322200Y-75163220D01*
X231322200Y-75163220D02*
X231226961Y-75258458D01*
X231226961Y-75258458D02*
X231131723Y-75306077D01*
X231131723Y-75306077D02*
X230941247Y-75353696D01*
X230941247Y-75353696D02*
X230798390Y-75353696D01*
X230798390Y-75353696D02*
X230607914Y-75306077D01*
X230607914Y-75306077D02*
X230512676Y-75258458D01*
X230512676Y-75258458D02*
X230417438Y-75163220D01*
X230417438Y-75163220D02*
X230369819Y-75020363D01*
X230369819Y-75020363D02*
X230369819Y-74925125D01*
X230369819Y-74925125D02*
X230417438Y-74782268D01*
X230417438Y-74782268D02*
X230465057Y-74734649D01*
X230369819Y-74448934D02*
X230369819Y-73877506D01*
X231369819Y-74163220D02*
X230369819Y-74163220D01*
X231369819Y-73544172D02*
X230369819Y-73544172D01*
X230369819Y-73210839D02*
X231369819Y-72877506D01*
X231369819Y-72877506D02*
X230369819Y-72544173D01*
X231369819Y-72210839D02*
X230369819Y-72210839D01*
X230369819Y-71877506D02*
X230369819Y-71306078D01*
X231369819Y-71591792D02*
X230369819Y-71591792D01*
X230893628Y-70782268D02*
X231369819Y-70782268D01*
X230369819Y-71115601D02*
X230893628Y-70782268D01*
X230893628Y-70782268D02*
X230369819Y-70448935D01*
X205336779Y-93759875D02*
X205336779Y-92759875D01*
X205336779Y-92759875D02*
X205670112Y-93474160D01*
X205670112Y-93474160D02*
X206003445Y-92759875D01*
X206003445Y-92759875D02*
X206003445Y-93759875D01*
X206479636Y-93236065D02*
X206812969Y-93236065D01*
X206955826Y-93759875D02*
X206479636Y-93759875D01*
X206479636Y-93759875D02*
X206479636Y-92759875D01*
X206479636Y-92759875D02*
X206955826Y-92759875D01*
X207955826Y-93664636D02*
X207908207Y-93712256D01*
X207908207Y-93712256D02*
X207765350Y-93759875D01*
X207765350Y-93759875D02*
X207670112Y-93759875D01*
X207670112Y-93759875D02*
X207527255Y-93712256D01*
X207527255Y-93712256D02*
X207432017Y-93617017D01*
X207432017Y-93617017D02*
X207384398Y-93521779D01*
X207384398Y-93521779D02*
X207336779Y-93331303D01*
X207336779Y-93331303D02*
X207336779Y-93188446D01*
X207336779Y-93188446D02*
X207384398Y-92997970D01*
X207384398Y-92997970D02*
X207432017Y-92902732D01*
X207432017Y-92902732D02*
X207527255Y-92807494D01*
X207527255Y-92807494D02*
X207670112Y-92759875D01*
X207670112Y-92759875D02*
X207765350Y-92759875D01*
X207765350Y-92759875D02*
X207908207Y-92807494D01*
X207908207Y-92807494D02*
X207955826Y-92855113D01*
X208717731Y-93236065D02*
X208860588Y-93283684D01*
X208860588Y-93283684D02*
X208908207Y-93331303D01*
X208908207Y-93331303D02*
X208955826Y-93426541D01*
X208955826Y-93426541D02*
X208955826Y-93569398D01*
X208955826Y-93569398D02*
X208908207Y-93664636D01*
X208908207Y-93664636D02*
X208860588Y-93712256D01*
X208860588Y-93712256D02*
X208765350Y-93759875D01*
X208765350Y-93759875D02*
X208384398Y-93759875D01*
X208384398Y-93759875D02*
X208384398Y-92759875D01*
X208384398Y-92759875D02*
X208717731Y-92759875D01*
X208717731Y-92759875D02*
X208812969Y-92807494D01*
X208812969Y-92807494D02*
X208860588Y-92855113D01*
X208860588Y-92855113D02*
X208908207Y-92950351D01*
X208908207Y-92950351D02*
X208908207Y-93045589D01*
X208908207Y-93045589D02*
X208860588Y-93140827D01*
X208860588Y-93140827D02*
X208812969Y-93188446D01*
X208812969Y-93188446D02*
X208717731Y-93236065D01*
X208717731Y-93236065D02*
X208384398Y-93236065D01*
X205336779Y-95369819D02*
X205336779Y-94369819D01*
X205336779Y-94369819D02*
X205717731Y-94369819D01*
X205717731Y-94369819D02*
X205812969Y-94417438D01*
X205812969Y-94417438D02*
X205860588Y-94465057D01*
X205860588Y-94465057D02*
X205908207Y-94560295D01*
X205908207Y-94560295D02*
X205908207Y-94703152D01*
X205908207Y-94703152D02*
X205860588Y-94798390D01*
X205860588Y-94798390D02*
X205812969Y-94846009D01*
X205812969Y-94846009D02*
X205717731Y-94893628D01*
X205717731Y-94893628D02*
X205336779Y-94893628D01*
X206479636Y-95369819D02*
X206384398Y-95322200D01*
X206384398Y-95322200D02*
X206336779Y-95274580D01*
X206336779Y-95274580D02*
X206289160Y-95179342D01*
X206289160Y-95179342D02*
X206289160Y-94893628D01*
X206289160Y-94893628D02*
X206336779Y-94798390D01*
X206336779Y-94798390D02*
X206384398Y-94750771D01*
X206384398Y-94750771D02*
X206479636Y-94703152D01*
X206479636Y-94703152D02*
X206622493Y-94703152D01*
X206622493Y-94703152D02*
X206717731Y-94750771D01*
X206717731Y-94750771D02*
X206765350Y-94798390D01*
X206765350Y-94798390D02*
X206812969Y-94893628D01*
X206812969Y-94893628D02*
X206812969Y-95179342D01*
X206812969Y-95179342D02*
X206765350Y-95274580D01*
X206765350Y-95274580D02*
X206717731Y-95322200D01*
X206717731Y-95322200D02*
X206622493Y-95369819D01*
X206622493Y-95369819D02*
X206479636Y-95369819D01*
X207241541Y-95369819D02*
X207241541Y-94703152D01*
X207241541Y-94893628D02*
X207289160Y-94798390D01*
X207289160Y-94798390D02*
X207336779Y-94750771D01*
X207336779Y-94750771D02*
X207432017Y-94703152D01*
X207432017Y-94703152D02*
X207527255Y-94703152D01*
X207717732Y-94703152D02*
X208098684Y-94703152D01*
X207860589Y-94369819D02*
X207860589Y-95226961D01*
X207860589Y-95226961D02*
X207908208Y-95322200D01*
X207908208Y-95322200D02*
X208003446Y-95369819D01*
X208003446Y-95369819D02*
X208098684Y-95369819D01*
X119408207Y-90369819D02*
X119074874Y-89893628D01*
X118836779Y-90369819D02*
X118836779Y-89369819D01*
X118836779Y-89369819D02*
X119217731Y-89369819D01*
X119217731Y-89369819D02*
X119312969Y-89417438D01*
X119312969Y-89417438D02*
X119360588Y-89465057D01*
X119360588Y-89465057D02*
X119408207Y-89560295D01*
X119408207Y-89560295D02*
X119408207Y-89703152D01*
X119408207Y-89703152D02*
X119360588Y-89798390D01*
X119360588Y-89798390D02*
X119312969Y-89846009D01*
X119312969Y-89846009D02*
X119217731Y-89893628D01*
X119217731Y-89893628D02*
X118836779Y-89893628D01*
X119836779Y-89846009D02*
X120170112Y-89846009D01*
X120312969Y-90369819D02*
X119836779Y-90369819D01*
X119836779Y-90369819D02*
X119836779Y-89369819D01*
X119836779Y-89369819D02*
X120312969Y-89369819D01*
X120693922Y-90322200D02*
X120836779Y-90369819D01*
X120836779Y-90369819D02*
X121074874Y-90369819D01*
X121074874Y-90369819D02*
X121170112Y-90322200D01*
X121170112Y-90322200D02*
X121217731Y-90274580D01*
X121217731Y-90274580D02*
X121265350Y-90179342D01*
X121265350Y-90179342D02*
X121265350Y-90084104D01*
X121265350Y-90084104D02*
X121217731Y-89988866D01*
X121217731Y-89988866D02*
X121170112Y-89941247D01*
X121170112Y-89941247D02*
X121074874Y-89893628D01*
X121074874Y-89893628D02*
X120884398Y-89846009D01*
X120884398Y-89846009D02*
X120789160Y-89798390D01*
X120789160Y-89798390D02*
X120741541Y-89750771D01*
X120741541Y-89750771D02*
X120693922Y-89655533D01*
X120693922Y-89655533D02*
X120693922Y-89560295D01*
X120693922Y-89560295D02*
X120741541Y-89465057D01*
X120741541Y-89465057D02*
X120789160Y-89417438D01*
X120789160Y-89417438D02*
X120884398Y-89369819D01*
X120884398Y-89369819D02*
X121122493Y-89369819D01*
X121122493Y-89369819D02*
X121265350Y-89417438D01*
X121693922Y-89846009D02*
X122027255Y-89846009D01*
X122170112Y-90369819D02*
X121693922Y-90369819D01*
X121693922Y-90369819D02*
X121693922Y-89369819D01*
X121693922Y-89369819D02*
X122170112Y-89369819D01*
X122455827Y-89369819D02*
X123027255Y-89369819D01*
X122741541Y-90369819D02*
X122741541Y-89369819D01*
X149369819Y-65091792D02*
X148893628Y-65425125D01*
X149369819Y-65663220D02*
X148369819Y-65663220D01*
X148369819Y-65663220D02*
X148369819Y-65282268D01*
X148369819Y-65282268D02*
X148417438Y-65187030D01*
X148417438Y-65187030D02*
X148465057Y-65139411D01*
X148465057Y-65139411D02*
X148560295Y-65091792D01*
X148560295Y-65091792D02*
X148703152Y-65091792D01*
X148703152Y-65091792D02*
X148798390Y-65139411D01*
X148798390Y-65139411D02*
X148846009Y-65187030D01*
X148846009Y-65187030D02*
X148893628Y-65282268D01*
X148893628Y-65282268D02*
X148893628Y-65663220D01*
X148369819Y-64806077D02*
X148369819Y-64234649D01*
X149369819Y-64520363D02*
X148369819Y-64520363D01*
X149274580Y-63329887D02*
X149322200Y-63377506D01*
X149322200Y-63377506D02*
X149369819Y-63520363D01*
X149369819Y-63520363D02*
X149369819Y-63615601D01*
X149369819Y-63615601D02*
X149322200Y-63758458D01*
X149322200Y-63758458D02*
X149226961Y-63853696D01*
X149226961Y-63853696D02*
X149131723Y-63901315D01*
X149131723Y-63901315D02*
X148941247Y-63948934D01*
X148941247Y-63948934D02*
X148798390Y-63948934D01*
X148798390Y-63948934D02*
X148607914Y-63901315D01*
X148607914Y-63901315D02*
X148512676Y-63853696D01*
X148512676Y-63853696D02*
X148417438Y-63758458D01*
X148417438Y-63758458D02*
X148369819Y-63615601D01*
X148369819Y-63615601D02*
X148369819Y-63520363D01*
X148369819Y-63520363D02*
X148417438Y-63377506D01*
X148417438Y-63377506D02*
X148465057Y-63329887D01*
X172765350Y-69288152D02*
X172765350Y-69954819D01*
X172527255Y-68907200D02*
X172289160Y-69621485D01*
X172289160Y-69621485D02*
X172908207Y-69621485D01*
X106369819Y-66663220D02*
X105369819Y-66663220D01*
X105369819Y-66663220D02*
X106084104Y-66329887D01*
X106084104Y-66329887D02*
X105369819Y-65996554D01*
X105369819Y-65996554D02*
X106369819Y-65996554D01*
X106369819Y-65520363D02*
X105703152Y-65520363D01*
X105369819Y-65520363D02*
X105417438Y-65567982D01*
X105417438Y-65567982D02*
X105465057Y-65520363D01*
X105465057Y-65520363D02*
X105417438Y-65472744D01*
X105417438Y-65472744D02*
X105369819Y-65520363D01*
X105369819Y-65520363D02*
X105465057Y-65520363D01*
X106322200Y-64615602D02*
X106369819Y-64710840D01*
X106369819Y-64710840D02*
X106369819Y-64901316D01*
X106369819Y-64901316D02*
X106322200Y-64996554D01*
X106322200Y-64996554D02*
X106274580Y-65044173D01*
X106274580Y-65044173D02*
X106179342Y-65091792D01*
X106179342Y-65091792D02*
X105893628Y-65091792D01*
X105893628Y-65091792D02*
X105798390Y-65044173D01*
X105798390Y-65044173D02*
X105750771Y-64996554D01*
X105750771Y-64996554D02*
X105703152Y-64901316D01*
X105703152Y-64901316D02*
X105703152Y-64710840D01*
X105703152Y-64710840D02*
X105750771Y-64615602D01*
X106369819Y-64187030D02*
X105703152Y-64187030D01*
X105893628Y-64187030D02*
X105798390Y-64139411D01*
X105798390Y-64139411D02*
X105750771Y-64091792D01*
X105750771Y-64091792D02*
X105703152Y-63996554D01*
X105703152Y-63996554D02*
X105703152Y-63901316D01*
X106369819Y-63425125D02*
X106322200Y-63520363D01*
X106322200Y-63520363D02*
X106274580Y-63567982D01*
X106274580Y-63567982D02*
X106179342Y-63615601D01*
X106179342Y-63615601D02*
X105893628Y-63615601D01*
X105893628Y-63615601D02*
X105798390Y-63567982D01*
X105798390Y-63567982D02*
X105750771Y-63520363D01*
X105750771Y-63520363D02*
X105703152Y-63425125D01*
X105703152Y-63425125D02*
X105703152Y-63282268D01*
X105703152Y-63282268D02*
X105750771Y-63187030D01*
X105750771Y-63187030D02*
X105798390Y-63139411D01*
X105798390Y-63139411D02*
X105893628Y-63091792D01*
X105893628Y-63091792D02*
X106179342Y-63091792D01*
X106179342Y-63091792D02*
X106274580Y-63139411D01*
X106274580Y-63139411D02*
X106322200Y-63187030D01*
X106322200Y-63187030D02*
X106369819Y-63282268D01*
X106369819Y-63282268D02*
X106369819Y-63425125D01*
X106322200Y-62710839D02*
X106369819Y-62567982D01*
X106369819Y-62567982D02*
X106369819Y-62329887D01*
X106369819Y-62329887D02*
X106322200Y-62234649D01*
X106322200Y-62234649D02*
X106274580Y-62187030D01*
X106274580Y-62187030D02*
X106179342Y-62139411D01*
X106179342Y-62139411D02*
X106084104Y-62139411D01*
X106084104Y-62139411D02*
X105988866Y-62187030D01*
X105988866Y-62187030D02*
X105941247Y-62234649D01*
X105941247Y-62234649D02*
X105893628Y-62329887D01*
X105893628Y-62329887D02*
X105846009Y-62520363D01*
X105846009Y-62520363D02*
X105798390Y-62615601D01*
X105798390Y-62615601D02*
X105750771Y-62663220D01*
X105750771Y-62663220D02*
X105655533Y-62710839D01*
X105655533Y-62710839D02*
X105560295Y-62710839D01*
X105560295Y-62710839D02*
X105465057Y-62663220D01*
X105465057Y-62663220D02*
X105417438Y-62615601D01*
X105417438Y-62615601D02*
X105369819Y-62520363D01*
X105369819Y-62520363D02*
X105369819Y-62282268D01*
X105369819Y-62282268D02*
X105417438Y-62139411D01*
X106369819Y-61710839D02*
X105369819Y-61710839D01*
X105369819Y-61710839D02*
X105369819Y-61472744D01*
X105369819Y-61472744D02*
X105417438Y-61329887D01*
X105417438Y-61329887D02*
X105512676Y-61234649D01*
X105512676Y-61234649D02*
X105607914Y-61187030D01*
X105607914Y-61187030D02*
X105798390Y-61139411D01*
X105798390Y-61139411D02*
X105941247Y-61139411D01*
X105941247Y-61139411D02*
X106131723Y-61187030D01*
X106131723Y-61187030D02*
X106226961Y-61234649D01*
X106226961Y-61234649D02*
X106322200Y-61329887D01*
X106322200Y-61329887D02*
X106369819Y-61472744D01*
X106369819Y-61472744D02*
X106369819Y-61710839D01*
X147336779Y-86369819D02*
X147336779Y-85369819D01*
X147336779Y-85369819D02*
X147670112Y-86084104D01*
X147670112Y-86084104D02*
X148003445Y-85369819D01*
X148003445Y-85369819D02*
X148003445Y-86369819D01*
X148479636Y-85846009D02*
X148812969Y-85846009D01*
X148955826Y-86369819D02*
X148479636Y-86369819D01*
X148479636Y-86369819D02*
X148479636Y-85369819D01*
X148479636Y-85369819D02*
X148955826Y-85369819D01*
X149955826Y-86274580D02*
X149908207Y-86322200D01*
X149908207Y-86322200D02*
X149765350Y-86369819D01*
X149765350Y-86369819D02*
X149670112Y-86369819D01*
X149670112Y-86369819D02*
X149527255Y-86322200D01*
X149527255Y-86322200D02*
X149432017Y-86226961D01*
X149432017Y-86226961D02*
X149384398Y-86131723D01*
X149384398Y-86131723D02*
X149336779Y-85941247D01*
X149336779Y-85941247D02*
X149336779Y-85798390D01*
X149336779Y-85798390D02*
X149384398Y-85607914D01*
X149384398Y-85607914D02*
X149432017Y-85512676D01*
X149432017Y-85512676D02*
X149527255Y-85417438D01*
X149527255Y-85417438D02*
X149670112Y-85369819D01*
X149670112Y-85369819D02*
X149765350Y-85369819D01*
X149765350Y-85369819D02*
X149908207Y-85417438D01*
X149908207Y-85417438D02*
X149955826Y-85465057D01*
X150717731Y-85846009D02*
X150860588Y-85893628D01*
X150860588Y-85893628D02*
X150908207Y-85941247D01*
X150908207Y-85941247D02*
X150955826Y-86036485D01*
X150955826Y-86036485D02*
X150955826Y-86179342D01*
X150955826Y-86179342D02*
X150908207Y-86274580D01*
X150908207Y-86274580D02*
X150860588Y-86322200D01*
X150860588Y-86322200D02*
X150765350Y-86369819D01*
X150765350Y-86369819D02*
X150384398Y-86369819D01*
X150384398Y-86369819D02*
X150384398Y-85369819D01*
X150384398Y-85369819D02*
X150717731Y-85369819D01*
X150717731Y-85369819D02*
X150812969Y-85417438D01*
X150812969Y-85417438D02*
X150860588Y-85465057D01*
X150860588Y-85465057D02*
X150908207Y-85560295D01*
X150908207Y-85560295D02*
X150908207Y-85655533D01*
X150908207Y-85655533D02*
X150860588Y-85750771D01*
X150860588Y-85750771D02*
X150812969Y-85798390D01*
X150812969Y-85798390D02*
X150717731Y-85846009D01*
X150717731Y-85846009D02*
X150384398Y-85846009D01*
X152146303Y-86369819D02*
X152146303Y-85703152D01*
X152146303Y-85798390D02*
X152193922Y-85750771D01*
X152193922Y-85750771D02*
X152289160Y-85703152D01*
X152289160Y-85703152D02*
X152432017Y-85703152D01*
X152432017Y-85703152D02*
X152527255Y-85750771D01*
X152527255Y-85750771D02*
X152574874Y-85846009D01*
X152574874Y-85846009D02*
X152574874Y-86369819D01*
X152574874Y-85846009D02*
X152622493Y-85750771D01*
X152622493Y-85750771D02*
X152717731Y-85703152D01*
X152717731Y-85703152D02*
X152860588Y-85703152D01*
X152860588Y-85703152D02*
X152955827Y-85750771D01*
X152955827Y-85750771D02*
X153003446Y-85846009D01*
X153003446Y-85846009D02*
X153003446Y-86369819D01*
X153479636Y-86369819D02*
X153479636Y-85703152D01*
X153479636Y-85369819D02*
X153432017Y-85417438D01*
X153432017Y-85417438D02*
X153479636Y-85465057D01*
X153479636Y-85465057D02*
X153527255Y-85417438D01*
X153527255Y-85417438D02*
X153479636Y-85369819D01*
X153479636Y-85369819D02*
X153479636Y-85465057D01*
X154384397Y-86322200D02*
X154289159Y-86369819D01*
X154289159Y-86369819D02*
X154098683Y-86369819D01*
X154098683Y-86369819D02*
X154003445Y-86322200D01*
X154003445Y-86322200D02*
X153955826Y-86274580D01*
X153955826Y-86274580D02*
X153908207Y-86179342D01*
X153908207Y-86179342D02*
X153908207Y-85893628D01*
X153908207Y-85893628D02*
X153955826Y-85798390D01*
X153955826Y-85798390D02*
X154003445Y-85750771D01*
X154003445Y-85750771D02*
X154098683Y-85703152D01*
X154098683Y-85703152D02*
X154289159Y-85703152D01*
X154289159Y-85703152D02*
X154384397Y-85750771D01*
X154812969Y-86369819D02*
X154812969Y-85703152D01*
X154812969Y-85893628D02*
X154860588Y-85798390D01*
X154860588Y-85798390D02*
X154908207Y-85750771D01*
X154908207Y-85750771D02*
X155003445Y-85703152D01*
X155003445Y-85703152D02*
X155098683Y-85703152D01*
X155574874Y-86369819D02*
X155479636Y-86322200D01*
X155479636Y-86322200D02*
X155432017Y-86274580D01*
X155432017Y-86274580D02*
X155384398Y-86179342D01*
X155384398Y-86179342D02*
X155384398Y-85893628D01*
X155384398Y-85893628D02*
X155432017Y-85798390D01*
X155432017Y-85798390D02*
X155479636Y-85750771D01*
X155479636Y-85750771D02*
X155574874Y-85703152D01*
X155574874Y-85703152D02*
X155717731Y-85703152D01*
X155717731Y-85703152D02*
X155812969Y-85750771D01*
X155812969Y-85750771D02*
X155860588Y-85798390D01*
X155860588Y-85798390D02*
X155908207Y-85893628D01*
X155908207Y-85893628D02*
X155908207Y-86179342D01*
X155908207Y-86179342D02*
X155860588Y-86274580D01*
X155860588Y-86274580D02*
X155812969Y-86322200D01*
X155812969Y-86322200D02*
X155717731Y-86369819D01*
X155717731Y-86369819D02*
X155574874Y-86369819D01*
X156289160Y-86322200D02*
X156432017Y-86369819D01*
X156432017Y-86369819D02*
X156670112Y-86369819D01*
X156670112Y-86369819D02*
X156765350Y-86322200D01*
X156765350Y-86322200D02*
X156812969Y-86274580D01*
X156812969Y-86274580D02*
X156860588Y-86179342D01*
X156860588Y-86179342D02*
X156860588Y-86084104D01*
X156860588Y-86084104D02*
X156812969Y-85988866D01*
X156812969Y-85988866D02*
X156765350Y-85941247D01*
X156765350Y-85941247D02*
X156670112Y-85893628D01*
X156670112Y-85893628D02*
X156479636Y-85846009D01*
X156479636Y-85846009D02*
X156384398Y-85798390D01*
X156384398Y-85798390D02*
X156336779Y-85750771D01*
X156336779Y-85750771D02*
X156289160Y-85655533D01*
X156289160Y-85655533D02*
X156289160Y-85560295D01*
X156289160Y-85560295D02*
X156336779Y-85465057D01*
X156336779Y-85465057D02*
X156384398Y-85417438D01*
X156384398Y-85417438D02*
X156479636Y-85369819D01*
X156479636Y-85369819D02*
X156717731Y-85369819D01*
X156717731Y-85369819D02*
X156860588Y-85417438D01*
X157289160Y-86369819D02*
X157289160Y-85369819D01*
X157289160Y-85369819D02*
X157527255Y-85369819D01*
X157527255Y-85369819D02*
X157670112Y-85417438D01*
X157670112Y-85417438D02*
X157765350Y-85512676D01*
X157765350Y-85512676D02*
X157812969Y-85607914D01*
X157812969Y-85607914D02*
X157860588Y-85798390D01*
X157860588Y-85798390D02*
X157860588Y-85941247D01*
X157860588Y-85941247D02*
X157812969Y-86131723D01*
X157812969Y-86131723D02*
X157765350Y-86226961D01*
X157765350Y-86226961D02*
X157670112Y-86322200D01*
X157670112Y-86322200D02*
X157527255Y-86369819D01*
X157527255Y-86369819D02*
X157289160Y-86369819D01*
X158955827Y-85703152D02*
X159193922Y-86369819D01*
X159193922Y-86369819D02*
X159432017Y-85703152D01*
X160003446Y-85369819D02*
X160098684Y-85369819D01*
X160098684Y-85369819D02*
X160193922Y-85417438D01*
X160193922Y-85417438D02*
X160241541Y-85465057D01*
X160241541Y-85465057D02*
X160289160Y-85560295D01*
X160289160Y-85560295D02*
X160336779Y-85750771D01*
X160336779Y-85750771D02*
X160336779Y-85988866D01*
X160336779Y-85988866D02*
X160289160Y-86179342D01*
X160289160Y-86179342D02*
X160241541Y-86274580D01*
X160241541Y-86274580D02*
X160193922Y-86322200D01*
X160193922Y-86322200D02*
X160098684Y-86369819D01*
X160098684Y-86369819D02*
X160003446Y-86369819D01*
X160003446Y-86369819D02*
X159908208Y-86322200D01*
X159908208Y-86322200D02*
X159860589Y-86274580D01*
X159860589Y-86274580D02*
X159812970Y-86179342D01*
X159812970Y-86179342D02*
X159765351Y-85988866D01*
X159765351Y-85988866D02*
X159765351Y-85750771D01*
X159765351Y-85750771D02*
X159812970Y-85560295D01*
X159812970Y-85560295D02*
X159860589Y-85465057D01*
X159860589Y-85465057D02*
X159908208Y-85417438D01*
X159908208Y-85417438D02*
X160003446Y-85369819D01*
X160765351Y-86274580D02*
X160812970Y-86322200D01*
X160812970Y-86322200D02*
X160765351Y-86369819D01*
X160765351Y-86369819D02*
X160717732Y-86322200D01*
X160717732Y-86322200D02*
X160765351Y-86274580D01*
X160765351Y-86274580D02*
X160765351Y-86369819D01*
X161765350Y-86369819D02*
X161193922Y-86369819D01*
X161479636Y-86369819D02*
X161479636Y-85369819D01*
X161479636Y-85369819D02*
X161384398Y-85512676D01*
X161384398Y-85512676D02*
X161289160Y-85607914D01*
X161289160Y-85607914D02*
X161193922Y-85655533D01*
X185166666Y-51624819D02*
X185166666Y-52339104D01*
X185166666Y-52339104D02*
X185119047Y-52481961D01*
X185119047Y-52481961D02*
X185023809Y-52577200D01*
X185023809Y-52577200D02*
X184880952Y-52624819D01*
X184880952Y-52624819D02*
X184785714Y-52624819D01*
X186071428Y-51958152D02*
X186071428Y-52624819D01*
X185833333Y-51577200D02*
X185595238Y-52291485D01*
X185595238Y-52291485D02*
X186214285Y-52291485D01*
X191454819Y-72980475D02*
X190454819Y-72980475D01*
X190454819Y-72980475D02*
X190454819Y-72742380D01*
X190454819Y-72742380D02*
X190502438Y-72599523D01*
X190502438Y-72599523D02*
X190597676Y-72504285D01*
X190597676Y-72504285D02*
X190692914Y-72456666D01*
X190692914Y-72456666D02*
X190883390Y-72409047D01*
X190883390Y-72409047D02*
X191026247Y-72409047D01*
X191026247Y-72409047D02*
X191216723Y-72456666D01*
X191216723Y-72456666D02*
X191311961Y-72504285D01*
X191311961Y-72504285D02*
X191407200Y-72599523D01*
X191407200Y-72599523D02*
X191454819Y-72742380D01*
X191454819Y-72742380D02*
X191454819Y-72980475D01*
X191454819Y-71980475D02*
X190788152Y-71980475D01*
X190454819Y-71980475D02*
X190502438Y-72028094D01*
X190502438Y-72028094D02*
X190550057Y-71980475D01*
X190550057Y-71980475D02*
X190502438Y-71932856D01*
X190502438Y-71932856D02*
X190454819Y-71980475D01*
X190454819Y-71980475D02*
X190550057Y-71980475D01*
X190788152Y-71075714D02*
X191597676Y-71075714D01*
X191597676Y-71075714D02*
X191692914Y-71123333D01*
X191692914Y-71123333D02*
X191740533Y-71170952D01*
X191740533Y-71170952D02*
X191788152Y-71266190D01*
X191788152Y-71266190D02*
X191788152Y-71409047D01*
X191788152Y-71409047D02*
X191740533Y-71504285D01*
X191407200Y-71075714D02*
X191454819Y-71170952D01*
X191454819Y-71170952D02*
X191454819Y-71361428D01*
X191454819Y-71361428D02*
X191407200Y-71456666D01*
X191407200Y-71456666D02*
X191359580Y-71504285D01*
X191359580Y-71504285D02*
X191264342Y-71551904D01*
X191264342Y-71551904D02*
X190978628Y-71551904D01*
X190978628Y-71551904D02*
X190883390Y-71504285D01*
X190883390Y-71504285D02*
X190835771Y-71456666D01*
X190835771Y-71456666D02*
X190788152Y-71361428D01*
X190788152Y-71361428D02*
X190788152Y-71170952D01*
X190788152Y-71170952D02*
X190835771Y-71075714D01*
X191454819Y-70599523D02*
X190788152Y-70599523D01*
X190454819Y-70599523D02*
X190502438Y-70647142D01*
X190502438Y-70647142D02*
X190550057Y-70599523D01*
X190550057Y-70599523D02*
X190502438Y-70551904D01*
X190502438Y-70551904D02*
X190454819Y-70599523D01*
X190454819Y-70599523D02*
X190550057Y-70599523D01*
X190788152Y-70266190D02*
X190788152Y-69885238D01*
X190454819Y-70123333D02*
X191311961Y-70123333D01*
X191311961Y-70123333D02*
X191407200Y-70075714D01*
X191407200Y-70075714D02*
X191454819Y-69980476D01*
X191454819Y-69980476D02*
X191454819Y-69885238D01*
X191454819Y-69123333D02*
X190931009Y-69123333D01*
X190931009Y-69123333D02*
X190835771Y-69170952D01*
X190835771Y-69170952D02*
X190788152Y-69266190D01*
X190788152Y-69266190D02*
X190788152Y-69456666D01*
X190788152Y-69456666D02*
X190835771Y-69551904D01*
X191407200Y-69123333D02*
X191454819Y-69218571D01*
X191454819Y-69218571D02*
X191454819Y-69456666D01*
X191454819Y-69456666D02*
X191407200Y-69551904D01*
X191407200Y-69551904D02*
X191311961Y-69599523D01*
X191311961Y-69599523D02*
X191216723Y-69599523D01*
X191216723Y-69599523D02*
X191121485Y-69551904D01*
X191121485Y-69551904D02*
X191073866Y-69456666D01*
X191073866Y-69456666D02*
X191073866Y-69218571D01*
X191073866Y-69218571D02*
X191026247Y-69123333D01*
X191454819Y-68504285D02*
X191407200Y-68599523D01*
X191407200Y-68599523D02*
X191311961Y-68647142D01*
X191311961Y-68647142D02*
X190454819Y-68647142D01*
X191454819Y-93118094D02*
X190454819Y-93118094D01*
X190454819Y-93118094D02*
X190454819Y-92737142D01*
X190454819Y-92737142D02*
X190502438Y-92641904D01*
X190502438Y-92641904D02*
X190550057Y-92594285D01*
X190550057Y-92594285D02*
X190645295Y-92546666D01*
X190645295Y-92546666D02*
X190788152Y-92546666D01*
X190788152Y-92546666D02*
X190883390Y-92594285D01*
X190883390Y-92594285D02*
X190931009Y-92641904D01*
X190931009Y-92641904D02*
X190978628Y-92737142D01*
X190978628Y-92737142D02*
X190978628Y-93118094D01*
X191454819Y-91594285D02*
X191454819Y-92165713D01*
X191454819Y-91879999D02*
X190454819Y-91879999D01*
X190454819Y-91879999D02*
X190597676Y-91975237D01*
X190597676Y-91975237D02*
X190692914Y-92070475D01*
X190692914Y-92070475D02*
X190740533Y-92165713D01*
X137363809Y-94904819D02*
X137363809Y-93904819D01*
X137363809Y-93904819D02*
X137744761Y-93904819D01*
X137744761Y-93904819D02*
X137839999Y-93952438D01*
X137839999Y-93952438D02*
X137887618Y-94000057D01*
X137887618Y-94000057D02*
X137935237Y-94095295D01*
X137935237Y-94095295D02*
X137935237Y-94238152D01*
X137935237Y-94238152D02*
X137887618Y-94333390D01*
X137887618Y-94333390D02*
X137839999Y-94381009D01*
X137839999Y-94381009D02*
X137744761Y-94428628D01*
X137744761Y-94428628D02*
X137363809Y-94428628D01*
X138506666Y-94904819D02*
X138411428Y-94857200D01*
X138411428Y-94857200D02*
X138363809Y-94809580D01*
X138363809Y-94809580D02*
X138316190Y-94714342D01*
X138316190Y-94714342D02*
X138316190Y-94428628D01*
X138316190Y-94428628D02*
X138363809Y-94333390D01*
X138363809Y-94333390D02*
X138411428Y-94285771D01*
X138411428Y-94285771D02*
X138506666Y-94238152D01*
X138506666Y-94238152D02*
X138649523Y-94238152D01*
X138649523Y-94238152D02*
X138744761Y-94285771D01*
X138744761Y-94285771D02*
X138792380Y-94333390D01*
X138792380Y-94333390D02*
X138839999Y-94428628D01*
X138839999Y-94428628D02*
X138839999Y-94714342D01*
X138839999Y-94714342D02*
X138792380Y-94809580D01*
X138792380Y-94809580D02*
X138744761Y-94857200D01*
X138744761Y-94857200D02*
X138649523Y-94904819D01*
X138649523Y-94904819D02*
X138506666Y-94904819D01*
X139173333Y-94238152D02*
X139363809Y-94904819D01*
X139363809Y-94904819D02*
X139554285Y-94428628D01*
X139554285Y-94428628D02*
X139744761Y-94904819D01*
X139744761Y-94904819D02*
X139935237Y-94238152D01*
X140697142Y-94857200D02*
X140601904Y-94904819D01*
X140601904Y-94904819D02*
X140411428Y-94904819D01*
X140411428Y-94904819D02*
X140316190Y-94857200D01*
X140316190Y-94857200D02*
X140268571Y-94761961D01*
X140268571Y-94761961D02*
X140268571Y-94381009D01*
X140268571Y-94381009D02*
X140316190Y-94285771D01*
X140316190Y-94285771D02*
X140411428Y-94238152D01*
X140411428Y-94238152D02*
X140601904Y-94238152D01*
X140601904Y-94238152D02*
X140697142Y-94285771D01*
X140697142Y-94285771D02*
X140744761Y-94381009D01*
X140744761Y-94381009D02*
X140744761Y-94476247D01*
X140744761Y-94476247D02*
X140268571Y-94571485D01*
X141173333Y-94904819D02*
X141173333Y-94238152D01*
X141173333Y-94428628D02*
X141220952Y-94333390D01*
X141220952Y-94333390D02*
X141268571Y-94285771D01*
X141268571Y-94285771D02*
X141363809Y-94238152D01*
X141363809Y-94238152D02*
X141459047Y-94238152D01*
X127171905Y-94914819D02*
X127171905Y-93914819D01*
X127171905Y-93914819D02*
X127552857Y-93914819D01*
X127552857Y-93914819D02*
X127648095Y-93962438D01*
X127648095Y-93962438D02*
X127695714Y-94010057D01*
X127695714Y-94010057D02*
X127743333Y-94105295D01*
X127743333Y-94105295D02*
X127743333Y-94248152D01*
X127743333Y-94248152D02*
X127695714Y-94343390D01*
X127695714Y-94343390D02*
X127648095Y-94391009D01*
X127648095Y-94391009D02*
X127552857Y-94438628D01*
X127552857Y-94438628D02*
X127171905Y-94438628D01*
X128124286Y-94010057D02*
X128171905Y-93962438D01*
X128171905Y-93962438D02*
X128267143Y-93914819D01*
X128267143Y-93914819D02*
X128505238Y-93914819D01*
X128505238Y-93914819D02*
X128600476Y-93962438D01*
X128600476Y-93962438D02*
X128648095Y-94010057D01*
X128648095Y-94010057D02*
X128695714Y-94105295D01*
X128695714Y-94105295D02*
X128695714Y-94200533D01*
X128695714Y-94200533D02*
X128648095Y-94343390D01*
X128648095Y-94343390D02*
X128076667Y-94914819D01*
X128076667Y-94914819D02*
X128695714Y-94914819D01*
X157350476Y-94629104D02*
X157826666Y-94629104D01*
X157255238Y-94914819D02*
X157588571Y-93914819D01*
X157588571Y-93914819D02*
X157921904Y-94914819D01*
X158255238Y-94248152D02*
X158255238Y-94914819D01*
X158255238Y-94343390D02*
X158302857Y-94295771D01*
X158302857Y-94295771D02*
X158398095Y-94248152D01*
X158398095Y-94248152D02*
X158540952Y-94248152D01*
X158540952Y-94248152D02*
X158636190Y-94295771D01*
X158636190Y-94295771D02*
X158683809Y-94391009D01*
X158683809Y-94391009D02*
X158683809Y-94914819D01*
X159588571Y-94914819D02*
X159588571Y-94391009D01*
X159588571Y-94391009D02*
X159540952Y-94295771D01*
X159540952Y-94295771D02*
X159445714Y-94248152D01*
X159445714Y-94248152D02*
X159255238Y-94248152D01*
X159255238Y-94248152D02*
X159160000Y-94295771D01*
X159588571Y-94867200D02*
X159493333Y-94914819D01*
X159493333Y-94914819D02*
X159255238Y-94914819D01*
X159255238Y-94914819D02*
X159160000Y-94867200D01*
X159160000Y-94867200D02*
X159112381Y-94771961D01*
X159112381Y-94771961D02*
X159112381Y-94676723D01*
X159112381Y-94676723D02*
X159160000Y-94581485D01*
X159160000Y-94581485D02*
X159255238Y-94533866D01*
X159255238Y-94533866D02*
X159493333Y-94533866D01*
X159493333Y-94533866D02*
X159588571Y-94486247D01*
X160207619Y-94914819D02*
X160112381Y-94867200D01*
X160112381Y-94867200D02*
X160064762Y-94771961D01*
X160064762Y-94771961D02*
X160064762Y-93914819D01*
X160731429Y-94914819D02*
X160636191Y-94867200D01*
X160636191Y-94867200D02*
X160588572Y-94819580D01*
X160588572Y-94819580D02*
X160540953Y-94724342D01*
X160540953Y-94724342D02*
X160540953Y-94438628D01*
X160540953Y-94438628D02*
X160588572Y-94343390D01*
X160588572Y-94343390D02*
X160636191Y-94295771D01*
X160636191Y-94295771D02*
X160731429Y-94248152D01*
X160731429Y-94248152D02*
X160874286Y-94248152D01*
X160874286Y-94248152D02*
X160969524Y-94295771D01*
X160969524Y-94295771D02*
X161017143Y-94343390D01*
X161017143Y-94343390D02*
X161064762Y-94438628D01*
X161064762Y-94438628D02*
X161064762Y-94724342D01*
X161064762Y-94724342D02*
X161017143Y-94819580D01*
X161017143Y-94819580D02*
X160969524Y-94867200D01*
X160969524Y-94867200D02*
X160874286Y-94914819D01*
X160874286Y-94914819D02*
X160731429Y-94914819D01*
X161921905Y-94248152D02*
X161921905Y-95057676D01*
X161921905Y-95057676D02*
X161874286Y-95152914D01*
X161874286Y-95152914D02*
X161826667Y-95200533D01*
X161826667Y-95200533D02*
X161731429Y-95248152D01*
X161731429Y-95248152D02*
X161588572Y-95248152D01*
X161588572Y-95248152D02*
X161493334Y-95200533D01*
X161921905Y-94867200D02*
X161826667Y-94914819D01*
X161826667Y-94914819D02*
X161636191Y-94914819D01*
X161636191Y-94914819D02*
X161540953Y-94867200D01*
X161540953Y-94867200D02*
X161493334Y-94819580D01*
X161493334Y-94819580D02*
X161445715Y-94724342D01*
X161445715Y-94724342D02*
X161445715Y-94438628D01*
X161445715Y-94438628D02*
X161493334Y-94343390D01*
X161493334Y-94343390D02*
X161540953Y-94295771D01*
X161540953Y-94295771D02*
X161636191Y-94248152D01*
X161636191Y-94248152D02*
X161826667Y-94248152D01*
X161826667Y-94248152D02*
X161921905Y-94295771D01*
X150031905Y-94914819D02*
X150031905Y-93914819D01*
X150031905Y-93914819D02*
X150412857Y-93914819D01*
X150412857Y-93914819D02*
X150508095Y-93962438D01*
X150508095Y-93962438D02*
X150555714Y-94010057D01*
X150555714Y-94010057D02*
X150603333Y-94105295D01*
X150603333Y-94105295D02*
X150603333Y-94248152D01*
X150603333Y-94248152D02*
X150555714Y-94343390D01*
X150555714Y-94343390D02*
X150508095Y-94391009D01*
X150508095Y-94391009D02*
X150412857Y-94438628D01*
X150412857Y-94438628D02*
X150031905Y-94438628D01*
X150936667Y-93914819D02*
X151555714Y-93914819D01*
X151555714Y-93914819D02*
X151222381Y-94295771D01*
X151222381Y-94295771D02*
X151365238Y-94295771D01*
X151365238Y-94295771D02*
X151460476Y-94343390D01*
X151460476Y-94343390D02*
X151508095Y-94391009D01*
X151508095Y-94391009D02*
X151555714Y-94486247D01*
X151555714Y-94486247D02*
X151555714Y-94724342D01*
X151555714Y-94724342D02*
X151508095Y-94819580D01*
X151508095Y-94819580D02*
X151460476Y-94867200D01*
X151460476Y-94867200D02*
X151365238Y-94914819D01*
X151365238Y-94914819D02*
X151079524Y-94914819D01*
X151079524Y-94914819D02*
X150984286Y-94867200D01*
X150984286Y-94867200D02*
X150936667Y-94819580D01*
X180210476Y-94629104D02*
X180686666Y-94629104D01*
X180115238Y-94914819D02*
X180448571Y-93914819D01*
X180448571Y-93914819D02*
X180781904Y-94914819D01*
X181115238Y-94248152D02*
X181115238Y-94914819D01*
X181115238Y-94343390D02*
X181162857Y-94295771D01*
X181162857Y-94295771D02*
X181258095Y-94248152D01*
X181258095Y-94248152D02*
X181400952Y-94248152D01*
X181400952Y-94248152D02*
X181496190Y-94295771D01*
X181496190Y-94295771D02*
X181543809Y-94391009D01*
X181543809Y-94391009D02*
X181543809Y-94914819D01*
X182448571Y-94914819D02*
X182448571Y-94391009D01*
X182448571Y-94391009D02*
X182400952Y-94295771D01*
X182400952Y-94295771D02*
X182305714Y-94248152D01*
X182305714Y-94248152D02*
X182115238Y-94248152D01*
X182115238Y-94248152D02*
X182020000Y-94295771D01*
X182448571Y-94867200D02*
X182353333Y-94914819D01*
X182353333Y-94914819D02*
X182115238Y-94914819D01*
X182115238Y-94914819D02*
X182020000Y-94867200D01*
X182020000Y-94867200D02*
X181972381Y-94771961D01*
X181972381Y-94771961D02*
X181972381Y-94676723D01*
X181972381Y-94676723D02*
X182020000Y-94581485D01*
X182020000Y-94581485D02*
X182115238Y-94533866D01*
X182115238Y-94533866D02*
X182353333Y-94533866D01*
X182353333Y-94533866D02*
X182448571Y-94486247D01*
X183067619Y-94914819D02*
X182972381Y-94867200D01*
X182972381Y-94867200D02*
X182924762Y-94771961D01*
X182924762Y-94771961D02*
X182924762Y-93914819D01*
X183591429Y-94914819D02*
X183496191Y-94867200D01*
X183496191Y-94867200D02*
X183448572Y-94819580D01*
X183448572Y-94819580D02*
X183400953Y-94724342D01*
X183400953Y-94724342D02*
X183400953Y-94438628D01*
X183400953Y-94438628D02*
X183448572Y-94343390D01*
X183448572Y-94343390D02*
X183496191Y-94295771D01*
X183496191Y-94295771D02*
X183591429Y-94248152D01*
X183591429Y-94248152D02*
X183734286Y-94248152D01*
X183734286Y-94248152D02*
X183829524Y-94295771D01*
X183829524Y-94295771D02*
X183877143Y-94343390D01*
X183877143Y-94343390D02*
X183924762Y-94438628D01*
X183924762Y-94438628D02*
X183924762Y-94724342D01*
X183924762Y-94724342D02*
X183877143Y-94819580D01*
X183877143Y-94819580D02*
X183829524Y-94867200D01*
X183829524Y-94867200D02*
X183734286Y-94914819D01*
X183734286Y-94914819D02*
X183591429Y-94914819D01*
X184781905Y-94248152D02*
X184781905Y-95057676D01*
X184781905Y-95057676D02*
X184734286Y-95152914D01*
X184734286Y-95152914D02*
X184686667Y-95200533D01*
X184686667Y-95200533D02*
X184591429Y-95248152D01*
X184591429Y-95248152D02*
X184448572Y-95248152D01*
X184448572Y-95248152D02*
X184353334Y-95200533D01*
X184781905Y-94867200D02*
X184686667Y-94914819D01*
X184686667Y-94914819D02*
X184496191Y-94914819D01*
X184496191Y-94914819D02*
X184400953Y-94867200D01*
X184400953Y-94867200D02*
X184353334Y-94819580D01*
X184353334Y-94819580D02*
X184305715Y-94724342D01*
X184305715Y-94724342D02*
X184305715Y-94438628D01*
X184305715Y-94438628D02*
X184353334Y-94343390D01*
X184353334Y-94343390D02*
X184400953Y-94295771D01*
X184400953Y-94295771D02*
X184496191Y-94248152D01*
X184496191Y-94248152D02*
X184686667Y-94248152D01*
X184686667Y-94248152D02*
X184781905Y-94295771D01*
X172891905Y-94914819D02*
X172891905Y-93914819D01*
X172891905Y-93914819D02*
X173272857Y-93914819D01*
X173272857Y-93914819D02*
X173368095Y-93962438D01*
X173368095Y-93962438D02*
X173415714Y-94010057D01*
X173415714Y-94010057D02*
X173463333Y-94105295D01*
X173463333Y-94105295D02*
X173463333Y-94248152D01*
X173463333Y-94248152D02*
X173415714Y-94343390D01*
X173415714Y-94343390D02*
X173368095Y-94391009D01*
X173368095Y-94391009D02*
X173272857Y-94438628D01*
X173272857Y-94438628D02*
X172891905Y-94438628D01*
X174320476Y-94248152D02*
X174320476Y-94914819D01*
X174082381Y-93867200D02*
X173844286Y-94581485D01*
X173844286Y-94581485D02*
X174463333Y-94581485D01*
X128821238Y-52654819D02*
X128821238Y-51654819D01*
X128821238Y-51654819D02*
X129202190Y-51654819D01*
X129202190Y-51654819D02*
X129297428Y-51702438D01*
X129297428Y-51702438D02*
X129345047Y-51750057D01*
X129345047Y-51750057D02*
X129392666Y-51845295D01*
X129392666Y-51845295D02*
X129392666Y-51988152D01*
X129392666Y-51988152D02*
X129345047Y-52083390D01*
X129345047Y-52083390D02*
X129297428Y-52131009D01*
X129297428Y-52131009D02*
X129202190Y-52178628D01*
X129202190Y-52178628D02*
X128821238Y-52178628D01*
X129726000Y-51654819D02*
X129964095Y-52654819D01*
X129964095Y-52654819D02*
X130154571Y-51940533D01*
X130154571Y-51940533D02*
X130345047Y-52654819D01*
X130345047Y-52654819D02*
X130583143Y-51654819D01*
X130964095Y-52654819D02*
X130964095Y-51654819D01*
X130964095Y-51654819D02*
X131297428Y-52369104D01*
X131297428Y-52369104D02*
X131630761Y-51654819D01*
X131630761Y-51654819D02*
X131630761Y-52654819D01*
X118057905Y-52654819D02*
X118057905Y-51654819D01*
X118057905Y-51654819D02*
X118438857Y-51654819D01*
X118438857Y-51654819D02*
X118534095Y-51702438D01*
X118534095Y-51702438D02*
X118581714Y-51750057D01*
X118581714Y-51750057D02*
X118629333Y-51845295D01*
X118629333Y-51845295D02*
X118629333Y-51988152D01*
X118629333Y-51988152D02*
X118581714Y-52083390D01*
X118581714Y-52083390D02*
X118534095Y-52131009D01*
X118534095Y-52131009D02*
X118438857Y-52178628D01*
X118438857Y-52178628D02*
X118057905Y-52178628D01*
X119534095Y-51654819D02*
X119057905Y-51654819D01*
X119057905Y-51654819D02*
X119010286Y-52131009D01*
X119010286Y-52131009D02*
X119057905Y-52083390D01*
X119057905Y-52083390D02*
X119153143Y-52035771D01*
X119153143Y-52035771D02*
X119391238Y-52035771D01*
X119391238Y-52035771D02*
X119486476Y-52083390D01*
X119486476Y-52083390D02*
X119534095Y-52131009D01*
X119534095Y-52131009D02*
X119581714Y-52226247D01*
X119581714Y-52226247D02*
X119581714Y-52464342D01*
X119581714Y-52464342D02*
X119534095Y-52559580D01*
X119534095Y-52559580D02*
X119486476Y-52607200D01*
X119486476Y-52607200D02*
X119391238Y-52654819D01*
X119391238Y-52654819D02*
X119153143Y-52654819D01*
X119153143Y-52654819D02*
X119057905Y-52607200D01*
X119057905Y-52607200D02*
X119010286Y-52559580D01*
X153205238Y-52654819D02*
X153205238Y-51654819D01*
X153205238Y-51654819D02*
X153586190Y-51654819D01*
X153586190Y-51654819D02*
X153681428Y-51702438D01*
X153681428Y-51702438D02*
X153729047Y-51750057D01*
X153729047Y-51750057D02*
X153776666Y-51845295D01*
X153776666Y-51845295D02*
X153776666Y-51988152D01*
X153776666Y-51988152D02*
X153729047Y-52083390D01*
X153729047Y-52083390D02*
X153681428Y-52131009D01*
X153681428Y-52131009D02*
X153586190Y-52178628D01*
X153586190Y-52178628D02*
X153205238Y-52178628D01*
X154110000Y-51654819D02*
X154348095Y-52654819D01*
X154348095Y-52654819D02*
X154538571Y-51940533D01*
X154538571Y-51940533D02*
X154729047Y-52654819D01*
X154729047Y-52654819D02*
X154967143Y-51654819D01*
X155348095Y-52654819D02*
X155348095Y-51654819D01*
X155348095Y-51654819D02*
X155681428Y-52369104D01*
X155681428Y-52369104D02*
X156014761Y-51654819D01*
X156014761Y-51654819D02*
X156014761Y-52654819D01*
X144981905Y-52654819D02*
X144981905Y-51654819D01*
X144981905Y-51654819D02*
X145362857Y-51654819D01*
X145362857Y-51654819D02*
X145458095Y-51702438D01*
X145458095Y-51702438D02*
X145505714Y-51750057D01*
X145505714Y-51750057D02*
X145553333Y-51845295D01*
X145553333Y-51845295D02*
X145553333Y-51988152D01*
X145553333Y-51988152D02*
X145505714Y-52083390D01*
X145505714Y-52083390D02*
X145458095Y-52131009D01*
X145458095Y-52131009D02*
X145362857Y-52178628D01*
X145362857Y-52178628D02*
X144981905Y-52178628D01*
X146410476Y-51654819D02*
X146220000Y-51654819D01*
X146220000Y-51654819D02*
X146124762Y-51702438D01*
X146124762Y-51702438D02*
X146077143Y-51750057D01*
X146077143Y-51750057D02*
X145981905Y-51892914D01*
X145981905Y-51892914D02*
X145934286Y-52083390D01*
X145934286Y-52083390D02*
X145934286Y-52464342D01*
X145934286Y-52464342D02*
X145981905Y-52559580D01*
X145981905Y-52559580D02*
X146029524Y-52607200D01*
X146029524Y-52607200D02*
X146124762Y-52654819D01*
X146124762Y-52654819D02*
X146315238Y-52654819D01*
X146315238Y-52654819D02*
X146410476Y-52607200D01*
X146410476Y-52607200D02*
X146458095Y-52559580D01*
X146458095Y-52559580D02*
X146505714Y-52464342D01*
X146505714Y-52464342D02*
X146505714Y-52226247D01*
X146505714Y-52226247D02*
X146458095Y-52131009D01*
X146458095Y-52131009D02*
X146410476Y-52083390D01*
X146410476Y-52083390D02*
X146315238Y-52035771D01*
X146315238Y-52035771D02*
X146124762Y-52035771D01*
X146124762Y-52035771D02*
X146029524Y-52083390D01*
X146029524Y-52083390D02*
X145981905Y-52131009D01*
X145981905Y-52131009D02*
X145934286Y-52226247D01*
X172143809Y-52559580D02*
X172096190Y-52607200D01*
X172096190Y-52607200D02*
X171953333Y-52654819D01*
X171953333Y-52654819D02*
X171858095Y-52654819D01*
X171858095Y-52654819D02*
X171715238Y-52607200D01*
X171715238Y-52607200D02*
X171620000Y-52511961D01*
X171620000Y-52511961D02*
X171572381Y-52416723D01*
X171572381Y-52416723D02*
X171524762Y-52226247D01*
X171524762Y-52226247D02*
X171524762Y-52083390D01*
X171524762Y-52083390D02*
X171572381Y-51892914D01*
X171572381Y-51892914D02*
X171620000Y-51797676D01*
X171620000Y-51797676D02*
X171715238Y-51702438D01*
X171715238Y-51702438D02*
X171858095Y-51654819D01*
X171858095Y-51654819D02*
X171953333Y-51654819D01*
X171953333Y-51654819D02*
X172096190Y-51702438D01*
X172096190Y-51702438D02*
X172143809Y-51750057D01*
X172715238Y-52654819D02*
X172620000Y-52607200D01*
X172620000Y-52607200D02*
X172572381Y-52559580D01*
X172572381Y-52559580D02*
X172524762Y-52464342D01*
X172524762Y-52464342D02*
X172524762Y-52178628D01*
X172524762Y-52178628D02*
X172572381Y-52083390D01*
X172572381Y-52083390D02*
X172620000Y-52035771D01*
X172620000Y-52035771D02*
X172715238Y-51988152D01*
X172715238Y-51988152D02*
X172858095Y-51988152D01*
X172858095Y-51988152D02*
X172953333Y-52035771D01*
X172953333Y-52035771D02*
X173000952Y-52083390D01*
X173000952Y-52083390D02*
X173048571Y-52178628D01*
X173048571Y-52178628D02*
X173048571Y-52464342D01*
X173048571Y-52464342D02*
X173000952Y-52559580D01*
X173000952Y-52559580D02*
X172953333Y-52607200D01*
X172953333Y-52607200D02*
X172858095Y-52654819D01*
X172858095Y-52654819D02*
X172715238Y-52654819D01*
X173477143Y-52654819D02*
X173477143Y-51988152D01*
X173477143Y-52083390D02*
X173524762Y-52035771D01*
X173524762Y-52035771D02*
X173620000Y-51988152D01*
X173620000Y-51988152D02*
X173762857Y-51988152D01*
X173762857Y-51988152D02*
X173858095Y-52035771D01*
X173858095Y-52035771D02*
X173905714Y-52131009D01*
X173905714Y-52131009D02*
X173905714Y-52654819D01*
X173905714Y-52131009D02*
X173953333Y-52035771D01*
X173953333Y-52035771D02*
X174048571Y-51988152D01*
X174048571Y-51988152D02*
X174191428Y-51988152D01*
X174191428Y-51988152D02*
X174286667Y-52035771D01*
X174286667Y-52035771D02*
X174334286Y-52131009D01*
X174334286Y-52131009D02*
X174334286Y-52654819D01*
X174810476Y-52654819D02*
X174810476Y-51988152D01*
X174810476Y-52083390D02*
X174858095Y-52035771D01*
X174858095Y-52035771D02*
X174953333Y-51988152D01*
X174953333Y-51988152D02*
X175096190Y-51988152D01*
X175096190Y-51988152D02*
X175191428Y-52035771D01*
X175191428Y-52035771D02*
X175239047Y-52131009D01*
X175239047Y-52131009D02*
X175239047Y-52654819D01*
X175239047Y-52131009D02*
X175286666Y-52035771D01*
X175286666Y-52035771D02*
X175381904Y-51988152D01*
X175381904Y-51988152D02*
X175524761Y-51988152D01*
X175524761Y-51988152D02*
X175620000Y-52035771D01*
X175620000Y-52035771D02*
X175667619Y-52131009D01*
X175667619Y-52131009D02*
X175667619Y-52654819D01*
X167841905Y-52654819D02*
X167841905Y-51654819D01*
X167841905Y-51654819D02*
X168222857Y-51654819D01*
X168222857Y-51654819D02*
X168318095Y-51702438D01*
X168318095Y-51702438D02*
X168365714Y-51750057D01*
X168365714Y-51750057D02*
X168413333Y-51845295D01*
X168413333Y-51845295D02*
X168413333Y-51988152D01*
X168413333Y-51988152D02*
X168365714Y-52083390D01*
X168365714Y-52083390D02*
X168318095Y-52131009D01*
X168318095Y-52131009D02*
X168222857Y-52178628D01*
X168222857Y-52178628D02*
X167841905Y-52178628D01*
X168746667Y-51654819D02*
X169413333Y-51654819D01*
X169413333Y-51654819D02*
X168984762Y-52654819D01*
X215584819Y-59166666D02*
X215108628Y-59499999D01*
X215584819Y-59738094D02*
X214584819Y-59738094D01*
X214584819Y-59738094D02*
X214584819Y-59357142D01*
X214584819Y-59357142D02*
X214632438Y-59261904D01*
X214632438Y-59261904D02*
X214680057Y-59214285D01*
X214680057Y-59214285D02*
X214775295Y-59166666D01*
X214775295Y-59166666D02*
X214918152Y-59166666D01*
X214918152Y-59166666D02*
X215013390Y-59214285D01*
X215013390Y-59214285D02*
X215061009Y-59261904D01*
X215061009Y-59261904D02*
X215108628Y-59357142D01*
X215108628Y-59357142D02*
X215108628Y-59738094D01*
X214584819Y-58833332D02*
X214584819Y-58214285D01*
X214584819Y-58214285D02*
X214965771Y-58547618D01*
X214965771Y-58547618D02*
X214965771Y-58404761D01*
X214965771Y-58404761D02*
X215013390Y-58309523D01*
X215013390Y-58309523D02*
X215061009Y-58261904D01*
X215061009Y-58261904D02*
X215156247Y-58214285D01*
X215156247Y-58214285D02*
X215394342Y-58214285D01*
X215394342Y-58214285D02*
X215489580Y-58261904D01*
X215489580Y-58261904D02*
X215537200Y-58309523D01*
X215537200Y-58309523D02*
X215584819Y-58404761D01*
X215584819Y-58404761D02*
X215584819Y-58690475D01*
X215584819Y-58690475D02*
X215537200Y-58785713D01*
X215537200Y-58785713D02*
X215489580Y-58833332D01*
X215584819Y-88166666D02*
X215108628Y-88499999D01*
X215584819Y-88738094D02*
X214584819Y-88738094D01*
X214584819Y-88738094D02*
X214584819Y-88357142D01*
X214584819Y-88357142D02*
X214632438Y-88261904D01*
X214632438Y-88261904D02*
X214680057Y-88214285D01*
X214680057Y-88214285D02*
X214775295Y-88166666D01*
X214775295Y-88166666D02*
X214918152Y-88166666D01*
X214918152Y-88166666D02*
X215013390Y-88214285D01*
X215013390Y-88214285D02*
X215061009Y-88261904D01*
X215061009Y-88261904D02*
X215108628Y-88357142D01*
X215108628Y-88357142D02*
X215108628Y-88738094D01*
X215584819Y-87214285D02*
X215584819Y-87785713D01*
X215584819Y-87499999D02*
X214584819Y-87499999D01*
X214584819Y-87499999D02*
X214727676Y-87595237D01*
X214727676Y-87595237D02*
X214822914Y-87690475D01*
X214822914Y-87690475D02*
X214870533Y-87785713D01*
X126666666Y-64954819D02*
X126666666Y-65669104D01*
X126666666Y-65669104D02*
X126619047Y-65811961D01*
X126619047Y-65811961D02*
X126523809Y-65907200D01*
X126523809Y-65907200D02*
X126380952Y-65954819D01*
X126380952Y-65954819D02*
X126285714Y-65954819D01*
X127666666Y-65954819D02*
X127095238Y-65954819D01*
X127380952Y-65954819D02*
X127380952Y-64954819D01*
X127380952Y-64954819D02*
X127285714Y-65097676D01*
X127285714Y-65097676D02*
X127190476Y-65192914D01*
X127190476Y-65192914D02*
X127095238Y-65240533D01*
X119744167Y-78734700D02*
X119887024Y-78782319D01*
X119887024Y-78782319D02*
X120125119Y-78782319D01*
X120125119Y-78782319D02*
X120220357Y-78734700D01*
X120220357Y-78734700D02*
X120267976Y-78687080D01*
X120267976Y-78687080D02*
X120315595Y-78591842D01*
X120315595Y-78591842D02*
X120315595Y-78496604D01*
X120315595Y-78496604D02*
X120267976Y-78401366D01*
X120267976Y-78401366D02*
X120220357Y-78353747D01*
X120220357Y-78353747D02*
X120125119Y-78306128D01*
X120125119Y-78306128D02*
X119934643Y-78258509D01*
X119934643Y-78258509D02*
X119839405Y-78210890D01*
X119839405Y-78210890D02*
X119791786Y-78163271D01*
X119791786Y-78163271D02*
X119744167Y-78068033D01*
X119744167Y-78068033D02*
X119744167Y-77972795D01*
X119744167Y-77972795D02*
X119791786Y-77877557D01*
X119791786Y-77877557D02*
X119839405Y-77829938D01*
X119839405Y-77829938D02*
X119934643Y-77782319D01*
X119934643Y-77782319D02*
X120172738Y-77782319D01*
X120172738Y-77782319D02*
X120315595Y-77829938D01*
X120648929Y-77782319D02*
X120887024Y-78782319D01*
X120887024Y-78782319D02*
X121077500Y-78068033D01*
X121077500Y-78068033D02*
X121267976Y-78782319D01*
X121267976Y-78782319D02*
X121506072Y-77782319D01*
X121839405Y-77877557D02*
X121887024Y-77829938D01*
X121887024Y-77829938D02*
X121982262Y-77782319D01*
X121982262Y-77782319D02*
X122220357Y-77782319D01*
X122220357Y-77782319D02*
X122315595Y-77829938D01*
X122315595Y-77829938D02*
X122363214Y-77877557D01*
X122363214Y-77877557D02*
X122410833Y-77972795D01*
X122410833Y-77972795D02*
X122410833Y-78068033D01*
X122410833Y-78068033D02*
X122363214Y-78210890D01*
X122363214Y-78210890D02*
X121791786Y-78782319D01*
X121791786Y-78782319D02*
X122410833Y-78782319D01*
X224650952Y-83994819D02*
X224174762Y-83994819D01*
X224174762Y-83994819D02*
X224174762Y-82994819D01*
X224984286Y-83471009D02*
X225317619Y-83471009D01*
X225460476Y-83994819D02*
X224984286Y-83994819D01*
X224984286Y-83994819D02*
X224984286Y-82994819D01*
X224984286Y-82994819D02*
X225460476Y-82994819D01*
X225889048Y-83994819D02*
X225889048Y-82994819D01*
X225889048Y-82994819D02*
X226127143Y-82994819D01*
X226127143Y-82994819D02*
X226270000Y-83042438D01*
X226270000Y-83042438D02*
X226365238Y-83137676D01*
X226365238Y-83137676D02*
X226412857Y-83232914D01*
X226412857Y-83232914D02*
X226460476Y-83423390D01*
X226460476Y-83423390D02*
X226460476Y-83566247D01*
X226460476Y-83566247D02*
X226412857Y-83756723D01*
X226412857Y-83756723D02*
X226365238Y-83851961D01*
X226365238Y-83851961D02*
X226270000Y-83947200D01*
X226270000Y-83947200D02*
X226127143Y-83994819D01*
X226127143Y-83994819D02*
X225889048Y-83994819D01*
X227412857Y-83994819D02*
X226841429Y-83994819D01*
X227127143Y-83994819D02*
X227127143Y-82994819D01*
X227127143Y-82994819D02*
X227031905Y-83137676D01*
X227031905Y-83137676D02*
X226936667Y-83232914D01*
X226936667Y-83232914D02*
X226841429Y-83280533D01*
X206896666Y-91054819D02*
X206896666Y-91769104D01*
X206896666Y-91769104D02*
X206849047Y-91911961D01*
X206849047Y-91911961D02*
X206753809Y-92007200D01*
X206753809Y-92007200D02*
X206610952Y-92054819D01*
X206610952Y-92054819D02*
X206515714Y-92054819D01*
X207277619Y-91054819D02*
X207896666Y-91054819D01*
X207896666Y-91054819D02*
X207563333Y-91435771D01*
X207563333Y-91435771D02*
X207706190Y-91435771D01*
X207706190Y-91435771D02*
X207801428Y-91483390D01*
X207801428Y-91483390D02*
X207849047Y-91531009D01*
X207849047Y-91531009D02*
X207896666Y-91626247D01*
X207896666Y-91626247D02*
X207896666Y-91864342D01*
X207896666Y-91864342D02*
X207849047Y-91959580D01*
X207849047Y-91959580D02*
X207801428Y-92007200D01*
X207801428Y-92007200D02*
X207706190Y-92054819D01*
X207706190Y-92054819D02*
X207420476Y-92054819D01*
X207420476Y-92054819D02*
X207325238Y-92007200D01*
X207325238Y-92007200D02*
X207277619Y-91959580D01*
X137583333Y-81859580D02*
X137535714Y-81907200D01*
X137535714Y-81907200D02*
X137392857Y-81954819D01*
X137392857Y-81954819D02*
X137297619Y-81954819D01*
X137297619Y-81954819D02*
X137154762Y-81907200D01*
X137154762Y-81907200D02*
X137059524Y-81811961D01*
X137059524Y-81811961D02*
X137011905Y-81716723D01*
X137011905Y-81716723D02*
X136964286Y-81526247D01*
X136964286Y-81526247D02*
X136964286Y-81383390D01*
X136964286Y-81383390D02*
X137011905Y-81192914D01*
X137011905Y-81192914D02*
X137059524Y-81097676D01*
X137059524Y-81097676D02*
X137154762Y-81002438D01*
X137154762Y-81002438D02*
X137297619Y-80954819D01*
X137297619Y-80954819D02*
X137392857Y-80954819D01*
X137392857Y-80954819D02*
X137535714Y-81002438D01*
X137535714Y-81002438D02*
X137583333Y-81050057D01*
X138535714Y-81954819D02*
X137964286Y-81954819D01*
X138250000Y-81954819D02*
X138250000Y-80954819D01*
X138250000Y-80954819D02*
X138154762Y-81097676D01*
X138154762Y-81097676D02*
X138059524Y-81192914D01*
X138059524Y-81192914D02*
X137964286Y-81240533D01*
X138166666Y-52684819D02*
X138166666Y-53399104D01*
X138166666Y-53399104D02*
X138119047Y-53541961D01*
X138119047Y-53541961D02*
X138023809Y-53637200D01*
X138023809Y-53637200D02*
X137880952Y-53684819D01*
X137880952Y-53684819D02*
X137785714Y-53684819D01*
X138595238Y-52780057D02*
X138642857Y-52732438D01*
X138642857Y-52732438D02*
X138738095Y-52684819D01*
X138738095Y-52684819D02*
X138976190Y-52684819D01*
X138976190Y-52684819D02*
X139071428Y-52732438D01*
X139071428Y-52732438D02*
X139119047Y-52780057D01*
X139119047Y-52780057D02*
X139166666Y-52875295D01*
X139166666Y-52875295D02*
X139166666Y-52970533D01*
X139166666Y-52970533D02*
X139119047Y-53113390D01*
X139119047Y-53113390D02*
X138547619Y-53684819D01*
X138547619Y-53684819D02*
X139166666Y-53684819D01*
X177624167Y-80627200D02*
X177767024Y-80674819D01*
X177767024Y-80674819D02*
X178005119Y-80674819D01*
X178005119Y-80674819D02*
X178100357Y-80627200D01*
X178100357Y-80627200D02*
X178147976Y-80579580D01*
X178147976Y-80579580D02*
X178195595Y-80484342D01*
X178195595Y-80484342D02*
X178195595Y-80389104D01*
X178195595Y-80389104D02*
X178147976Y-80293866D01*
X178147976Y-80293866D02*
X178100357Y-80246247D01*
X178100357Y-80246247D02*
X178005119Y-80198628D01*
X178005119Y-80198628D02*
X177814643Y-80151009D01*
X177814643Y-80151009D02*
X177719405Y-80103390D01*
X177719405Y-80103390D02*
X177671786Y-80055771D01*
X177671786Y-80055771D02*
X177624167Y-79960533D01*
X177624167Y-79960533D02*
X177624167Y-79865295D01*
X177624167Y-79865295D02*
X177671786Y-79770057D01*
X177671786Y-79770057D02*
X177719405Y-79722438D01*
X177719405Y-79722438D02*
X177814643Y-79674819D01*
X177814643Y-79674819D02*
X178052738Y-79674819D01*
X178052738Y-79674819D02*
X178195595Y-79722438D01*
X178528929Y-79674819D02*
X178767024Y-80674819D01*
X178767024Y-80674819D02*
X178957500Y-79960533D01*
X178957500Y-79960533D02*
X179147976Y-80674819D01*
X179147976Y-80674819D02*
X179386072Y-79674819D01*
X180290833Y-80674819D02*
X179719405Y-80674819D01*
X180005119Y-80674819D02*
X180005119Y-79674819D01*
X180005119Y-79674819D02*
X179909881Y-79817676D01*
X179909881Y-79817676D02*
X179814643Y-79912914D01*
X179814643Y-79912914D02*
X179719405Y-79960533D01*
X215584819Y-73666666D02*
X215108628Y-73999999D01*
X215584819Y-74238094D02*
X214584819Y-74238094D01*
X214584819Y-74238094D02*
X214584819Y-73857142D01*
X214584819Y-73857142D02*
X214632438Y-73761904D01*
X214632438Y-73761904D02*
X214680057Y-73714285D01*
X214680057Y-73714285D02*
X214775295Y-73666666D01*
X214775295Y-73666666D02*
X214918152Y-73666666D01*
X214918152Y-73666666D02*
X215013390Y-73714285D01*
X215013390Y-73714285D02*
X215061009Y-73761904D01*
X215061009Y-73761904D02*
X215108628Y-73857142D01*
X215108628Y-73857142D02*
X215108628Y-74238094D01*
X214680057Y-73285713D02*
X214632438Y-73238094D01*
X214632438Y-73238094D02*
X214584819Y-73142856D01*
X214584819Y-73142856D02*
X214584819Y-72904761D01*
X214584819Y-72904761D02*
X214632438Y-72809523D01*
X214632438Y-72809523D02*
X214680057Y-72761904D01*
X214680057Y-72761904D02*
X214775295Y-72714285D01*
X214775295Y-72714285D02*
X214870533Y-72714285D01*
X214870533Y-72714285D02*
X215013390Y-72761904D01*
X215013390Y-72761904D02*
X215584819Y-73333332D01*
X215584819Y-73333332D02*
X215584819Y-72714285D01*
X224650952Y-55494819D02*
X224174762Y-55494819D01*
X224174762Y-55494819D02*
X224174762Y-54494819D01*
X224984286Y-54971009D02*
X225317619Y-54971009D01*
X225460476Y-55494819D02*
X224984286Y-55494819D01*
X224984286Y-55494819D02*
X224984286Y-54494819D01*
X224984286Y-54494819D02*
X225460476Y-54494819D01*
X225889048Y-55494819D02*
X225889048Y-54494819D01*
X225889048Y-54494819D02*
X226127143Y-54494819D01*
X226127143Y-54494819D02*
X226270000Y-54542438D01*
X226270000Y-54542438D02*
X226365238Y-54637676D01*
X226365238Y-54637676D02*
X226412857Y-54732914D01*
X226412857Y-54732914D02*
X226460476Y-54923390D01*
X226460476Y-54923390D02*
X226460476Y-55066247D01*
X226460476Y-55066247D02*
X226412857Y-55256723D01*
X226412857Y-55256723D02*
X226365238Y-55351961D01*
X226365238Y-55351961D02*
X226270000Y-55447200D01*
X226270000Y-55447200D02*
X226127143Y-55494819D01*
X226127143Y-55494819D02*
X225889048Y-55494819D01*
X226793810Y-54494819D02*
X227412857Y-54494819D01*
X227412857Y-54494819D02*
X227079524Y-54875771D01*
X227079524Y-54875771D02*
X227222381Y-54875771D01*
X227222381Y-54875771D02*
X227317619Y-54923390D01*
X227317619Y-54923390D02*
X227365238Y-54971009D01*
X227365238Y-54971009D02*
X227412857Y-55066247D01*
X227412857Y-55066247D02*
X227412857Y-55304342D01*
X227412857Y-55304342D02*
X227365238Y-55399580D01*
X227365238Y-55399580D02*
X227317619Y-55447200D01*
X227317619Y-55447200D02*
X227222381Y-55494819D01*
X227222381Y-55494819D02*
X226936667Y-55494819D01*
X226936667Y-55494819D02*
X226841429Y-55447200D01*
X226841429Y-55447200D02*
X226793810Y-55399580D01*
X224650952Y-69994819D02*
X224174762Y-69994819D01*
X224174762Y-69994819D02*
X224174762Y-68994819D01*
X224984286Y-69471009D02*
X225317619Y-69471009D01*
X225460476Y-69994819D02*
X224984286Y-69994819D01*
X224984286Y-69994819D02*
X224984286Y-68994819D01*
X224984286Y-68994819D02*
X225460476Y-68994819D01*
X225889048Y-69994819D02*
X225889048Y-68994819D01*
X225889048Y-68994819D02*
X226127143Y-68994819D01*
X226127143Y-68994819D02*
X226270000Y-69042438D01*
X226270000Y-69042438D02*
X226365238Y-69137676D01*
X226365238Y-69137676D02*
X226412857Y-69232914D01*
X226412857Y-69232914D02*
X226460476Y-69423390D01*
X226460476Y-69423390D02*
X226460476Y-69566247D01*
X226460476Y-69566247D02*
X226412857Y-69756723D01*
X226412857Y-69756723D02*
X226365238Y-69851961D01*
X226365238Y-69851961D02*
X226270000Y-69947200D01*
X226270000Y-69947200D02*
X226127143Y-69994819D01*
X226127143Y-69994819D02*
X225889048Y-69994819D01*
X226841429Y-69090057D02*
X226889048Y-69042438D01*
X226889048Y-69042438D02*
X226984286Y-68994819D01*
X226984286Y-68994819D02*
X227222381Y-68994819D01*
X227222381Y-68994819D02*
X227317619Y-69042438D01*
X227317619Y-69042438D02*
X227365238Y-69090057D01*
X227365238Y-69090057D02*
X227412857Y-69185295D01*
X227412857Y-69185295D02*
X227412857Y-69280533D01*
X227412857Y-69280533D02*
X227365238Y-69423390D01*
X227365238Y-69423390D02*
X226793810Y-69994819D01*
X226793810Y-69994819D02*
X227412857Y-69994819D01*
D11*
%TO.C,J4*%
X184170000Y-53170000D02*
X185500000Y-53170000D01*
X184170000Y-54500000D02*
X184170000Y-53170000D01*
X184170000Y-55770000D02*
X184170000Y-63450000D01*
X184170000Y-55770000D02*
X186830000Y-55770000D01*
X184170000Y-63450000D02*
X186830000Y-63450000D01*
X186830000Y-55770000D02*
X186830000Y-63450000D01*
%TO.C,P1*%
X192650000Y-91110000D02*
X192650000Y-47870000D01*
X192650000Y-93710000D02*
X192650000Y-92380000D01*
X193980000Y-93710000D02*
X192650000Y-93710000D01*
X195250000Y-91110000D02*
X192650000Y-91110000D01*
X195250000Y-93710000D02*
X195250000Y-91110000D01*
X197850000Y-47870000D02*
X192650000Y-47870000D01*
X197850000Y-93710000D02*
X195250000Y-93710000D01*
X197850000Y-93710000D02*
X197850000Y-47870000D01*
%TO.C,P2*%
X126610000Y-96130000D02*
X127940000Y-96130000D01*
X126610000Y-97460000D02*
X126610000Y-96130000D01*
X129210000Y-96130000D02*
X147050000Y-96130000D01*
X129210000Y-98790000D02*
X129210000Y-96130000D01*
X129210000Y-98790000D02*
X147050000Y-98790000D01*
X147050000Y-98790000D02*
X147050000Y-96130000D01*
%TO.C,P3*%
X149470000Y-96130000D02*
X150800000Y-96130000D01*
X149470000Y-97460000D02*
X149470000Y-96130000D01*
X152070000Y-96130000D02*
X169910000Y-96130000D01*
X152070000Y-98790000D02*
X152070000Y-96130000D01*
X152070000Y-98790000D02*
X169910000Y-98790000D01*
X169910000Y-98790000D02*
X169910000Y-96130000D01*
%TO.C,P4*%
X172330000Y-96130000D02*
X173660000Y-96130000D01*
X172330000Y-97460000D02*
X172330000Y-96130000D01*
X174930000Y-96130000D02*
X192770000Y-96130000D01*
X174930000Y-98790000D02*
X174930000Y-96130000D01*
X174930000Y-98790000D02*
X192770000Y-98790000D01*
X192770000Y-98790000D02*
X192770000Y-96130000D01*
%TO.C,P5*%
X117466000Y-47870000D02*
X118796000Y-47870000D01*
X117466000Y-49200000D02*
X117466000Y-47870000D01*
X120066000Y-47870000D02*
X142986000Y-47870000D01*
X120066000Y-50530000D02*
X120066000Y-47870000D01*
X120066000Y-50530000D02*
X142986000Y-50530000D01*
X142986000Y-50530000D02*
X142986000Y-47870000D01*
%TO.C,P6*%
X144390000Y-47870000D02*
X145720000Y-47870000D01*
X144390000Y-49200000D02*
X144390000Y-47870000D01*
X146990000Y-47870000D02*
X164830000Y-47870000D01*
X146990000Y-50530000D02*
X146990000Y-47870000D01*
X146990000Y-50530000D02*
X164830000Y-50530000D01*
X164830000Y-50530000D02*
X164830000Y-47870000D01*
%TO.C,P7*%
X167250000Y-47870000D02*
X168580000Y-47870000D01*
X167250000Y-49200000D02*
X167250000Y-47870000D01*
X169850000Y-47870000D02*
X187690000Y-47870000D01*
X169850000Y-50530000D02*
X169850000Y-47870000D01*
X169850000Y-50530000D02*
X187690000Y-50530000D01*
X187690000Y-50530000D02*
X187690000Y-47870000D01*
%TO.C,R3*%
X216130000Y-55730000D02*
X216130000Y-62270000D01*
X216130000Y-62270000D02*
X218870000Y-62270000D01*
X217500000Y-54960000D02*
X217500000Y-55730000D01*
X217500000Y-63040000D02*
X217500000Y-62270000D01*
X218870000Y-55730000D02*
X216130000Y-55730000D01*
X218870000Y-62270000D02*
X218870000Y-55730000D01*
%TO.C,R1*%
X216130000Y-84730000D02*
X216130000Y-91270000D01*
X216130000Y-91270000D02*
X218870000Y-91270000D01*
X217500000Y-83960000D02*
X217500000Y-84730000D01*
X217500000Y-92040000D02*
X217500000Y-91270000D01*
X218870000Y-84730000D02*
X216130000Y-84730000D01*
X218870000Y-91270000D02*
X218870000Y-84730000D01*
%TO.C,J1*%
X128670000Y-57270000D02*
X128670000Y-75110000D01*
X128670000Y-57270000D02*
X131330000Y-57270000D01*
X128670000Y-75110000D02*
X131330000Y-75110000D01*
X130000000Y-54670000D02*
X131330000Y-54670000D01*
X131330000Y-54670000D02*
X131330000Y-56000000D01*
X131330000Y-57270000D02*
X131330000Y-75110000D01*
%TO.C,SW2*%
X115807500Y-80107500D02*
X115807500Y-79107500D01*
X116057500Y-88797500D02*
X116057500Y-79357500D01*
X116807500Y-79107500D02*
X115807500Y-79107500D01*
X119377500Y-82377500D02*
X119377500Y-85677500D01*
X122677500Y-82377500D02*
X119377500Y-82377500D01*
X122677500Y-82377500D02*
X122677500Y-85677500D01*
X122677500Y-85677500D02*
X119377500Y-85677500D01*
X126097500Y-79357500D02*
X116057500Y-79357500D01*
X126097500Y-88797500D02*
X116057500Y-88797500D01*
X126097500Y-88797500D02*
X126097500Y-79357500D01*
%TO.C,LED1*%
X223210000Y-85955000D02*
X223210000Y-89045000D01*
X223210000Y-85955170D02*
G75*
G02*
X228760000Y-87500462I2560000J-1544830D01*
G01*
X228760000Y-87499538D02*
G75*
G02*
X223210000Y-89044830I-2990000J-462D01*
G01*
X228270000Y-87500000D02*
G75*
G02*
X223270000Y-87500000I-2500000J0D01*
G01*
X223270000Y-87500000D02*
G75*
G02*
X228270000Y-87500000I2500000J0D01*
G01*
%TO.C,J3*%
X213180000Y-86000000D02*
X213180000Y-85000000D01*
X213180000Y-85000000D02*
X212180000Y-85500000D01*
X212180000Y-85500000D02*
X213180000Y-86000000D01*
X211790000Y-90710000D02*
X202670000Y-90710000D01*
X211790000Y-73580000D02*
X210480000Y-73580000D01*
X211790000Y-52350000D02*
X211790000Y-90710000D01*
X210480000Y-89410000D02*
X203980000Y-89410000D01*
X210480000Y-73580000D02*
X210480000Y-89410000D01*
X210480000Y-69480000D02*
X211790000Y-69480000D01*
X210480000Y-69480000D02*
X210480000Y-69480000D01*
X210480000Y-53650000D02*
X210480000Y-69480000D01*
X203980000Y-89410000D02*
X203980000Y-53650000D01*
X203980000Y-53650000D02*
X210480000Y-53650000D01*
X202670000Y-90710000D02*
X202670000Y-52350000D01*
X202670000Y-52350000D02*
X211790000Y-52350000D01*
%TO.C,C1*%
X135130000Y-82630000D02*
X135130000Y-85370000D01*
X135130000Y-82630000D02*
X140370000Y-82630000D01*
X135130000Y-85370000D02*
X140370000Y-85370000D01*
X140370000Y-82630000D02*
X140370000Y-85370000D01*
%TO.C,J2*%
X137170000Y-57270000D02*
X137170000Y-75110000D01*
X137170000Y-57270000D02*
X139830000Y-57270000D01*
X137170000Y-75110000D02*
X139830000Y-75110000D01*
X138500000Y-54670000D02*
X139830000Y-54670000D01*
X139830000Y-54670000D02*
X139830000Y-56000000D01*
X139830000Y-57270000D02*
X139830000Y-75110000D01*
%TO.C,SW1*%
X174007500Y-79220000D02*
X174007500Y-66760000D01*
X176927500Y-68545000D02*
X176927500Y-69815000D01*
X176927500Y-69815000D02*
X180987500Y-69815000D01*
X176927500Y-71085000D02*
X176927500Y-72355000D01*
X176927500Y-72355000D02*
X180987500Y-72355000D01*
X176927500Y-73625000D02*
X176927500Y-74895000D01*
X176927500Y-74895000D02*
X180987500Y-74895000D01*
X176927500Y-76165000D02*
X176927500Y-77435000D01*
X176927500Y-77435000D02*
X180987500Y-77435000D01*
X179634167Y-69815000D02*
X179634167Y-68545000D01*
X179634167Y-72355000D02*
X179634167Y-71085000D01*
X179634167Y-74895000D02*
X179634167Y-73625000D01*
X179634167Y-77435000D02*
X179634167Y-76165000D01*
X180987500Y-68545000D02*
X176927500Y-68545000D01*
X180987500Y-68615000D02*
X179634167Y-68615000D01*
X180987500Y-68735000D02*
X179634167Y-68735000D01*
X180987500Y-68855000D02*
X179634167Y-68855000D01*
X180987500Y-68975000D02*
X179634167Y-68975000D01*
X180987500Y-69095000D02*
X179634167Y-69095000D01*
X180987500Y-69215000D02*
X179634167Y-69215000D01*
X180987500Y-69335000D02*
X179634167Y-69335000D01*
X180987500Y-69455000D02*
X179634167Y-69455000D01*
X180987500Y-69575000D02*
X179634167Y-69575000D01*
X180987500Y-69695000D02*
X179634167Y-69695000D01*
X180987500Y-69815000D02*
X180987500Y-68545000D01*
X180987500Y-71085000D02*
X176927500Y-71085000D01*
X180987500Y-71155000D02*
X179634167Y-71155000D01*
X180987500Y-71275000D02*
X179634167Y-71275000D01*
X180987500Y-71395000D02*
X179634167Y-71395000D01*
X180987500Y-71515000D02*
X179634167Y-71515000D01*
X180987500Y-71635000D02*
X179634167Y-71635000D01*
X180987500Y-71755000D02*
X179634167Y-71755000D01*
X180987500Y-71875000D02*
X179634167Y-71875000D01*
X180987500Y-71995000D02*
X179634167Y-71995000D01*
X180987500Y-72115000D02*
X179634167Y-72115000D01*
X180987500Y-72235000D02*
X179634167Y-72235000D01*
X180987500Y-72355000D02*
X180987500Y-71085000D01*
X180987500Y-73625000D02*
X176927500Y-73625000D01*
X180987500Y-73695000D02*
X179634167Y-73695000D01*
X180987500Y-73815000D02*
X179634167Y-73815000D01*
X180987500Y-73935000D02*
X179634167Y-73935000D01*
X180987500Y-74055000D02*
X179634167Y-74055000D01*
X180987500Y-74175000D02*
X179634167Y-74175000D01*
X180987500Y-74295000D02*
X179634167Y-74295000D01*
X180987500Y-74415000D02*
X179634167Y-74415000D01*
X180987500Y-74535000D02*
X179634167Y-74535000D01*
X180987500Y-74655000D02*
X179634167Y-74655000D01*
X180987500Y-74775000D02*
X179634167Y-74775000D01*
X180987500Y-74895000D02*
X180987500Y-73625000D01*
X180987500Y-76165000D02*
X176927500Y-76165000D01*
X180987500Y-76235000D02*
X179634167Y-76235000D01*
X180987500Y-76355000D02*
X179634167Y-76355000D01*
X180987500Y-76475000D02*
X179634167Y-76475000D01*
X180987500Y-76595000D02*
X179634167Y-76595000D01*
X180987500Y-76715000D02*
X179634167Y-76715000D01*
X180987500Y-76835000D02*
X179634167Y-76835000D01*
X180987500Y-76955000D02*
X179634167Y-76955000D01*
X180987500Y-77075000D02*
X179634167Y-77075000D01*
X180987500Y-77195000D02*
X179634167Y-77195000D01*
X180987500Y-77315000D02*
X179634167Y-77315000D01*
X180987500Y-77435000D02*
X180987500Y-76165000D01*
X183907500Y-66760000D02*
X174007500Y-66760000D01*
X183907500Y-79220000D02*
X174007500Y-79220000D01*
X183907500Y-79220000D02*
X183907500Y-66760000D01*
X184147500Y-79460000D02*
X182763500Y-79460000D01*
X184147500Y-79460000D02*
X184147500Y-78077000D01*
%TO.C,R2*%
X216130000Y-70230000D02*
X216130000Y-76770000D01*
X216130000Y-76770000D02*
X218870000Y-76770000D01*
X217500000Y-69460000D02*
X217500000Y-70230000D01*
X217500000Y-77540000D02*
X217500000Y-76770000D01*
X218870000Y-70230000D02*
X216130000Y-70230000D01*
X218870000Y-76770000D02*
X218870000Y-70230000D01*
%TO.C,LED3*%
X223210000Y-57455000D02*
X223210000Y-60545000D01*
X223210000Y-57455170D02*
G75*
G02*
X228760000Y-59000462I2560000J-1544830D01*
G01*
X228760000Y-58999538D02*
G75*
G02*
X223210000Y-60544830I-2990000J-462D01*
G01*
X228270000Y-59000000D02*
G75*
G02*
X223270000Y-59000000I-2500000J0D01*
G01*
X223270000Y-59000000D02*
G75*
G02*
X228270000Y-59000000I2500000J0D01*
G01*
%TO.C,LED2*%
X223210000Y-71955000D02*
X223210000Y-75045000D01*
X223210000Y-71955170D02*
G75*
G02*
X228760000Y-73500462I2560000J-1544830D01*
G01*
X228760000Y-73499538D02*
G75*
G02*
X223210000Y-75044830I-2990000J-462D01*
G01*
X228270000Y-73500000D02*
G75*
G02*
X223270000Y-73500000I-2500000J0D01*
G01*
X223270000Y-73500000D02*
G75*
G02*
X228270000Y-73500000I2500000J0D01*
G01*
%TD*%
%LPC*%
D12*
%TO.C,J4*%
X185500000Y-54500000D03*
D13*
X185500000Y-57040000D03*
X185500000Y-59580000D03*
X185500000Y-62120000D03*
%TD*%
D12*
%TO.C,P1*%
X193980000Y-92380000D03*
D13*
X196520000Y-92380000D03*
X193980000Y-89840000D03*
X196520000Y-89840000D03*
X193980000Y-87300000D03*
X196520000Y-87300000D03*
X193980000Y-84760000D03*
X196520000Y-84760000D03*
X193980000Y-82220000D03*
X196520000Y-82220000D03*
X193980000Y-79680000D03*
X196520000Y-79680000D03*
X193980000Y-77140000D03*
X196520000Y-77140000D03*
X193980000Y-74600000D03*
X196520000Y-74600000D03*
X193980000Y-72060000D03*
X196520000Y-72060000D03*
X193980000Y-69520000D03*
X196520000Y-69520000D03*
X193980000Y-66980000D03*
X196520000Y-66980000D03*
X193980000Y-64440000D03*
X196520000Y-64440000D03*
X193980000Y-61900000D03*
X196520000Y-61900000D03*
X193980000Y-59360000D03*
X196520000Y-59360000D03*
X193980000Y-56820000D03*
X196520000Y-56820000D03*
X193980000Y-54280000D03*
X196520000Y-54280000D03*
X193980000Y-51740000D03*
X196520000Y-51740000D03*
X193980000Y-49200000D03*
X196520000Y-49200000D03*
%TD*%
D12*
%TO.C,P2*%
X127940000Y-97460000D03*
D13*
X130480000Y-97460000D03*
X133020000Y-97460000D03*
X135560000Y-97460000D03*
X138100000Y-97460000D03*
X140640000Y-97460000D03*
X143180000Y-97460000D03*
X145720000Y-97460000D03*
%TD*%
D12*
%TO.C,P3*%
X150800000Y-97460000D03*
D13*
X153340000Y-97460000D03*
X155880000Y-97460000D03*
X158420000Y-97460000D03*
X160960000Y-97460000D03*
X163500000Y-97460000D03*
X166040000Y-97460000D03*
X168580000Y-97460000D03*
%TD*%
D12*
%TO.C,P4*%
X173660000Y-97460000D03*
D13*
X176200000Y-97460000D03*
X178740000Y-97460000D03*
X181280000Y-97460000D03*
X183820000Y-97460000D03*
X186360000Y-97460000D03*
X188900000Y-97460000D03*
X191440000Y-97460000D03*
%TD*%
D12*
%TO.C,P5*%
X118796000Y-49200000D03*
D13*
X121336000Y-49200000D03*
X123876000Y-49200000D03*
X126416000Y-49200000D03*
X128956000Y-49200000D03*
X131496000Y-49200000D03*
X134036000Y-49200000D03*
X136576000Y-49200000D03*
X139116000Y-49200000D03*
X141656000Y-49200000D03*
%TD*%
D12*
%TO.C,P6*%
X145720000Y-49200000D03*
D13*
X148260000Y-49200000D03*
X150800000Y-49200000D03*
X153340000Y-49200000D03*
X155880000Y-49200000D03*
X158420000Y-49200000D03*
X160960000Y-49200000D03*
X163500000Y-49200000D03*
%TD*%
D12*
%TO.C,P7*%
X168580000Y-49200000D03*
D13*
X171120000Y-49200000D03*
X173660000Y-49200000D03*
X176200000Y-49200000D03*
X178740000Y-49200000D03*
X181280000Y-49200000D03*
X183820000Y-49200000D03*
X186360000Y-49200000D03*
%TD*%
D14*
%TO.C,R3*%
X217500000Y-64080000D03*
D15*
X217500000Y-53920000D03*
%TD*%
D14*
%TO.C,R1*%
X217500000Y-93080000D03*
D15*
X217500000Y-82920000D03*
%TD*%
D12*
%TO.C,J1*%
X130000000Y-56000000D03*
D13*
X130000000Y-58540000D03*
X130000000Y-61080000D03*
X130000000Y-63620000D03*
X130000000Y-66160000D03*
X130000000Y-68700000D03*
X130000000Y-71240000D03*
X130000000Y-73780000D03*
%TD*%
D16*
%TO.C,MH6*%
X196520000Y-97460000D03*
%TD*%
D17*
%TO.C,SW2*%
X118577500Y-81077500D03*
D18*
X123577500Y-81077500D03*
X118577500Y-87077500D03*
X123577500Y-87077500D03*
%TD*%
D17*
%TO.C,LED1*%
X224500000Y-87500000D03*
D18*
X227040000Y-87500000D03*
%TD*%
D19*
%TO.C,J3*%
X205960000Y-57560000D03*
X208500000Y-57560000D03*
X205960000Y-60100000D03*
X208500000Y-60100000D03*
X205960000Y-62640000D03*
X208500000Y-62640000D03*
X205960000Y-65180000D03*
X208500000Y-65180000D03*
X205960000Y-67720000D03*
X208500000Y-67720000D03*
X205960000Y-70260000D03*
X208500000Y-70260000D03*
X205960000Y-72800000D03*
X208500000Y-72800000D03*
X205960000Y-75340000D03*
X208500000Y-75340000D03*
X205960000Y-77880000D03*
X208500000Y-77880000D03*
X205960000Y-80420000D03*
X208500000Y-80420000D03*
X205960000Y-82960000D03*
X208500000Y-82960000D03*
X205960000Y-85500000D03*
D20*
X208500000Y-85500000D03*
%TD*%
D16*
%TO.C,MH1*%
X115240000Y-49200000D03*
%TD*%
D14*
%TO.C,C1*%
X136500000Y-84000000D03*
X139000000Y-84000000D03*
%TD*%
D12*
%TO.C,J2*%
X138500000Y-56000000D03*
D13*
X138500000Y-58540000D03*
X138500000Y-61080000D03*
X138500000Y-63620000D03*
X138500000Y-66160000D03*
X138500000Y-68700000D03*
X138500000Y-71240000D03*
X138500000Y-73780000D03*
%TD*%
D21*
%TO.C,SW1*%
X182767500Y-76800000D03*
D15*
X182767500Y-74260000D03*
X182767500Y-71720000D03*
X182767500Y-69180000D03*
X175147500Y-69180000D03*
X175147500Y-71720000D03*
X175147500Y-74260000D03*
X175147500Y-76800000D03*
%TD*%
D14*
%TO.C,R2*%
X217500000Y-78580000D03*
D15*
X217500000Y-68420000D03*
%TD*%
D17*
%TO.C,LED3*%
X224500000Y-59000000D03*
D18*
X227040000Y-59000000D03*
%TD*%
D17*
%TO.C,LED2*%
X224500000Y-73500000D03*
D18*
X227040000Y-73500000D03*
%TD*%
D16*
%TO.C,MH2*%
X113970000Y-97460000D03*
%TD*%
%TO.C,MH3*%
X166040000Y-64440000D03*
%TD*%
%TO.C,MH4*%
X166040000Y-92380000D03*
%TD*%
%TO.C,MH5*%
X190170000Y-49200000D03*
%TD*%
%LPD*%
M02*
