M48
; DRILL file {KiCad 9.0.6} date 2026-02-15T07:32:39+1100
; FORMAT={-:-/ absolute / metric / decimal}
; #@! TF.CreationDate,2026-02-15T07:32:39+11:00
; #@! TF.GenerationSoftware,Kicad,Pcbnew,9.0.6
; #@! TF.FileFunction,Plated,1,2,PTH
FMAT,2
METRIC
; #@! TA.AperFunction,Plated,PTH,ViaDrill
T1C0.400
; #@! TA.AperFunction,Plated,PTH,ComponentDrill
T2C0.800
; #@! TA.AperFunction,Plated,PTH,ComponentDrill
T3C0.813
; #@! TA.AperFunction,Plated,PTH,ComponentDrill
T4C1.000
%
G90
G05
T1
X98.398Y-117.678
X102.488Y-140.761
X104.759Y-60.923
X108.377Y-59.799
X108.462Y-105.077
X109.671Y-128.192
X109.708Y-117.415
X112.535Y-125.257
X112.874Y-131.545
X113.082Y-98.973
X114.082Y-71.938
X114.483Y-95.832
X118.623Y-133.509
X118.674Y-71.692
X118.704Y-91.971
X119.024Y-70.441
X119.18Y-109.143
X119.881Y-123.227
X120.335Y-90.359
X120.388Y-118.485
X120.477Y-67.909
X121.096Y-111.32
X121.216Y-130.877
X121.425Y-47.462
X122.142Y-84.355
X122.471Y-61.78
X125.077Y-98.26
X125.272Y-103.385
X126.211Y-117.704
X126.448Y-67.84
X126.453Y-126.077
X126.578Y-107.199
X126.794Y-81.59
X127.464Y-75.466
X127.572Y-97.572
X127.641Y-118.685
X128.56Y-127.716
X128.627Y-113.831
X129.943Y-67.589
X130.036Y-129.87
X131.577Y-127.83
X132.119Y-125.184
X135.193Y-74.765
X135.602Y-73.159
X135.847Y-110.347
X136.061Y-63.433
X136.095Y-60.517
X136.814Y-115.626
X137.341Y-104.976
X137.402Y-68.995
X137.917Y-67.323
X138.494Y-72.754
X139.816Y-72.32
X140.196Y-95.949
X140.66Y-107.382
X140.916Y-105.738
X144.037Y-70.703
X144.276Y-91.458
X145.617Y-86.013
X146.971Y-109.328
X148.355Y-116.616
X151.657Y-123.225
X151.79Y-128.118
X151.839Y-90.595
X151.994Y-81.587
X152.201Y-116.589
X156.048Y-59.973
X158.33Y-137.753
X158.358Y-122.478
X159.894Y-121.525
X159.895Y-48.432
X159.895Y-103.286
X160.502Y-113.077
X162.893Y-72.61
X163.082Y-126.84
X165.986Y-70.07
X167.589Y-108.908
X167.589Y-140.761
X168.776Y-88.146
X171.436Y-48.487
X173.728Y-102.215
X173.956Y-91.769
X175.822Y-122.503
X175.928Y-90.549
X178.032Y-63.022
X187.113Y-84.12
X190.772Y-60.173
T2
X116.38Y-111.5
X116.38Y-114.04
X116.38Y-116.58
X116.38Y-119.12
X116.38Y-121.66
X116.38Y-124.2
X116.38Y-126.74
X116.38Y-129.28
X116.38Y-131.82
X116.38Y-134.36
X116.5Y-105.0
X118.0Y-55.0
X121.5Y-105.0
X123.0Y-55.0
X124.0Y-111.5
X124.0Y-114.04
X124.0Y-116.58
X124.0Y-119.12
X124.0Y-121.66
X124.0Y-124.2
X124.0Y-126.74
X124.0Y-129.28
X124.0Y-131.82
X124.0Y-134.36
X129.0Y-75.8
X129.0Y-78.34
X129.0Y-80.88
X129.0Y-83.42
X129.0Y-85.96
X129.0Y-88.5
X129.0Y-91.04
X129.0Y-93.58
X129.0Y-96.12
X132.76Y-55.5
X132.76Y-58.04
X132.76Y-60.58
X132.76Y-63.12
X132.76Y-65.66
X132.76Y-68.2
X132.76Y-70.74
X132.76Y-73.28
X132.76Y-75.82
X132.76Y-78.36
X132.76Y-80.9
X132.76Y-83.44
X132.76Y-85.98
X132.76Y-88.52
X132.76Y-91.06
X132.76Y-93.6
X132.76Y-96.14
X132.76Y-98.68
X132.76Y-101.22
X132.76Y-103.76
X133.5Y-50.5
X138.5Y-50.5
X148.0Y-55.5
X148.0Y-58.04
X148.0Y-60.58
X148.0Y-63.12
X148.0Y-65.66
X148.0Y-68.2
X148.0Y-70.74
X148.0Y-73.28
X148.0Y-75.82
X148.0Y-78.36
X148.0Y-80.9
X148.0Y-83.44
X148.0Y-85.98
X148.0Y-88.52
X148.0Y-91.06
X148.0Y-93.6
X148.0Y-96.14
X148.0Y-98.68
X148.0Y-101.22
X148.0Y-103.76
X151.0Y-50.5
X152.88Y-55.5
X152.88Y-58.04
X152.88Y-60.58
X152.88Y-63.12
X152.88Y-65.66
X152.88Y-68.2
X152.88Y-70.74
X152.88Y-73.28
X156.0Y-50.5
X156.26Y-98.5
X156.26Y-101.04
X156.26Y-103.58
X156.26Y-106.12
X156.26Y-108.66
X156.26Y-111.2
X156.26Y-113.74
X156.26Y-116.28
X156.26Y-118.82
X156.26Y-121.36
X156.26Y-123.9
X156.26Y-126.44
X156.26Y-128.98
X156.26Y-131.52
X156.26Y-134.06
X156.26Y-136.6
X158.0Y-93.5
X160.5Y-55.5
X160.5Y-58.04
X160.5Y-60.58
X160.5Y-63.12
X160.5Y-65.66
X160.5Y-68.2
X160.5Y-70.74
X160.5Y-73.28
X163.0Y-93.5
X171.5Y-98.5
X171.5Y-101.04
X171.5Y-103.58
X171.5Y-106.12
X171.5Y-108.66
X171.5Y-111.2
X171.5Y-113.74
X171.5Y-116.28
X171.5Y-118.82
X171.5Y-121.36
X171.5Y-123.9
X171.5Y-126.44
X171.5Y-128.98
X171.5Y-131.52
X171.5Y-134.06
X171.5Y-136.6
X174.5Y-93.5
X176.5Y-67.88
X176.5Y-70.42
X176.5Y-72.96
X176.5Y-75.5
X176.5Y-78.04
X176.5Y-80.58
X176.5Y-83.12
X176.5Y-85.66
X176.5Y-88.2
X177.26Y-98.5
X177.26Y-101.04
X177.26Y-103.58
X177.26Y-106.12
X177.26Y-108.66
X177.26Y-111.2
X177.26Y-113.74
X177.26Y-116.28
X177.26Y-118.82
X177.26Y-121.36
X177.26Y-123.9
X177.26Y-126.44
X177.26Y-128.98
X177.26Y-131.52
X177.26Y-134.06
X177.26Y-136.6
X179.5Y-93.5
X180.5Y-77.5
X181.88Y-63.0
X181.88Y-70.62
X182.38Y-82.5
X182.38Y-85.04
X182.38Y-87.58
X182.38Y-90.12
X185.5Y-77.5
X188.5Y-58.0
X189.5Y-63.0
X189.5Y-70.62
X190.0Y-82.5
X190.0Y-85.04
X190.0Y-87.58
X190.0Y-90.12
X192.5Y-98.5
X192.5Y-101.04
X192.5Y-103.58
X192.5Y-106.12
X192.5Y-108.66
X192.5Y-111.2
X192.5Y-113.74
X192.5Y-116.28
X192.5Y-118.82
X192.5Y-121.36
X192.5Y-123.9
X192.5Y-126.44
X192.5Y-128.98
X192.5Y-131.52
X192.5Y-134.06
X192.5Y-136.6
X193.5Y-58.0
T3
X177.69Y-50.92
X177.69Y-56.0
X185.31Y-50.92
X185.31Y-56.0
T4
X101.727Y-57.15
X101.727Y-59.69
X101.727Y-62.23
X101.727Y-64.77
X101.727Y-67.31
X101.727Y-69.85
X101.727Y-72.39
X101.727Y-74.93
X101.727Y-77.47
X101.727Y-80.01
X101.727Y-82.55
X101.727Y-85.09
X101.727Y-87.63
X101.727Y-90.17
X101.727Y-92.71
X101.727Y-95.25
X101.727Y-97.79
X101.727Y-100.33
X101.727Y-102.87
X101.727Y-105.41
X101.727Y-107.95
X101.727Y-110.49
X101.727Y-113.03
X101.727Y-115.57
X101.727Y-118.11
X101.727Y-120.65
X101.727Y-123.19
X101.727Y-125.73
X101.727Y-128.27
X101.727Y-130.81
X101.727Y-133.35
X101.727Y-135.89
X106.807Y-57.15
X106.807Y-59.69
X106.807Y-62.23
X106.807Y-64.77
X106.807Y-67.31
X106.807Y-69.85
X106.807Y-72.39
X106.807Y-74.93
X106.807Y-77.47
X106.807Y-80.01
X106.807Y-82.55
X106.807Y-85.09
X106.807Y-87.63
X106.807Y-90.17
X106.807Y-92.71
X106.807Y-95.25
X106.807Y-97.79
X106.807Y-100.33
X106.807Y-102.87
X106.807Y-105.41
X106.807Y-107.95
X106.807Y-110.49
X106.807Y-113.03
X106.807Y-115.57
X106.807Y-118.11
X106.807Y-120.65
X106.807Y-123.19
X106.807Y-125.73
X106.807Y-128.27
X106.807Y-130.81
X106.807Y-133.35
X106.807Y-135.89
X116.88Y-60.26
X116.88Y-62.8
X116.88Y-65.34
X116.88Y-67.88
X116.88Y-70.42
X116.88Y-72.96
X116.88Y-75.5
X116.88Y-78.04
X116.88Y-80.58
X116.88Y-83.12
X116.88Y-85.66
X116.88Y-88.2
X124.5Y-60.26
X124.5Y-62.8
X124.5Y-65.34
X124.5Y-67.88
X124.5Y-70.42
X124.5Y-72.96
X124.5Y-75.5
X124.5Y-78.04
X124.5Y-80.58
X124.5Y-83.12
X124.5Y-85.66
X124.5Y-88.2
X163.23Y-85.23
X165.77Y-85.23
X167.96Y-66.5
X167.96Y-69.04
X167.96Y-71.58
X168.31Y-85.23
X169.5Y-52.42
X169.5Y-54.96
X170.5Y-66.5
X170.5Y-69.04
X170.5Y-71.58
M30
