G04 #@! TF.GenerationSoftware,KiCad,Pcbnew,9.0.6*
G04 #@! TF.CreationDate,2025-12-29T15:57:50+11:00*
G04 #@! TF.ProjectId,MECB_8088_CPU,4d454342-5f38-4303-9838-5f4350552e6b,1.0*
G04 #@! TF.SameCoordinates,Original*
G04 #@! TF.FileFunction,Legend,Top*
G04 #@! TF.FilePolarity,Positive*
%FSLAX46Y46*%
G04 Gerber Fmt 4.6, Leading zero omitted, Abs format (unit mm)*
G04 Created by KiCad (PCBNEW 9.0.6) date 2025-12-29 15:57:50*
%MOMM*%
%LPD*%
G01*
G04 APERTURE LIST*
G04 Aperture macros list*
%AMRoundRect*
0 Rectangle with rounded corners*
0 $1 Rounding radius*
0 $2 $3 $4 $5 $6 $7 $8 $9 X,Y pos of 4 corners*
0 Add a 4 corners polygon primitive as box body*
4,1,4,$2,$3,$4,$5,$6,$7,$8,$9,$2,$3,0*
0 Add four circle primitives for the rounded corners*
1,1,$1+$1,$2,$3*
1,1,$1+$1,$4,$5*
1,1,$1+$1,$6,$7*
1,1,$1+$1,$8,$9*
0 Add four rect primitives between the rounded corners*
20,1,$1+$1,$2,$3,$4,$5,0*
20,1,$1+$1,$4,$5,$6,$7,0*
20,1,$1+$1,$6,$7,$8,$9,0*
20,1,$1+$1,$8,$9,$2,$3,0*%
G04 Aperture macros list end*
%ADD10C,0.150000*%
%ADD11C,0.120000*%
%ADD12RoundRect,0.250000X-0.950000X-0.550000X0.950000X-0.550000X0.950000X0.550000X-0.950000X0.550000X0*%
%ADD13O,2.400000X1.600000*%
%ADD14C,3.200000*%
%ADD15C,2.850000*%
%ADD16RoundRect,0.249550X0.525450X-0.525450X0.525450X0.525450X-0.525450X0.525450X-0.525450X-0.525450X0*%
%ADD17C,1.550000*%
%ADD18C,1.397000*%
%ADD19C,1.600000*%
%ADD20R,1.700000X1.700000*%
%ADD21C,1.700000*%
G04 APERTURE END LIST*
D10*
X172238095Y-51962438D02*
X172142857Y-51914819D01*
X172142857Y-51914819D02*
X172000000Y-51914819D01*
X172000000Y-51914819D02*
X171857143Y-51962438D01*
X171857143Y-51962438D02*
X171761905Y-52057676D01*
X171761905Y-52057676D02*
X171714286Y-52152914D01*
X171714286Y-52152914D02*
X171666667Y-52343390D01*
X171666667Y-52343390D02*
X171666667Y-52486247D01*
X171666667Y-52486247D02*
X171714286Y-52676723D01*
X171714286Y-52676723D02*
X171761905Y-52771961D01*
X171761905Y-52771961D02*
X171857143Y-52867200D01*
X171857143Y-52867200D02*
X172000000Y-52914819D01*
X172000000Y-52914819D02*
X172095238Y-52914819D01*
X172095238Y-52914819D02*
X172238095Y-52867200D01*
X172238095Y-52867200D02*
X172285714Y-52819580D01*
X172285714Y-52819580D02*
X172285714Y-52486247D01*
X172285714Y-52486247D02*
X172095238Y-52486247D01*
X172714286Y-52914819D02*
X172714286Y-51914819D01*
X172714286Y-51914819D02*
X173285714Y-52914819D01*
X173285714Y-52914819D02*
X173285714Y-51914819D01*
X173761905Y-52914819D02*
X173761905Y-51914819D01*
X173761905Y-51914819D02*
X174000000Y-51914819D01*
X174000000Y-51914819D02*
X174142857Y-51962438D01*
X174142857Y-51962438D02*
X174238095Y-52057676D01*
X174238095Y-52057676D02*
X174285714Y-52152914D01*
X174285714Y-52152914D02*
X174333333Y-52343390D01*
X174333333Y-52343390D02*
X174333333Y-52486247D01*
X174333333Y-52486247D02*
X174285714Y-52676723D01*
X174285714Y-52676723D02*
X174238095Y-52771961D01*
X174238095Y-52771961D02*
X174142857Y-52867200D01*
X174142857Y-52867200D02*
X174000000Y-52914819D01*
X174000000Y-52914819D02*
X173761905Y-52914819D01*
X158841429Y-84684819D02*
X159079524Y-85684819D01*
X159079524Y-85684819D02*
X159270000Y-84970533D01*
X159270000Y-84970533D02*
X159460476Y-85684819D01*
X159460476Y-85684819D02*
X159698572Y-84684819D01*
X160650952Y-85684819D02*
X160317619Y-85208628D01*
X160079524Y-85684819D02*
X160079524Y-84684819D01*
X160079524Y-84684819D02*
X160460476Y-84684819D01*
X160460476Y-84684819D02*
X160555714Y-84732438D01*
X160555714Y-84732438D02*
X160603333Y-84780057D01*
X160603333Y-84780057D02*
X160650952Y-84875295D01*
X160650952Y-84875295D02*
X160650952Y-85018152D01*
X160650952Y-85018152D02*
X160603333Y-85113390D01*
X160603333Y-85113390D02*
X160555714Y-85161009D01*
X160555714Y-85161009D02*
X160460476Y-85208628D01*
X160460476Y-85208628D02*
X160079524Y-85208628D01*
X171579523Y-85684819D02*
X171246190Y-85208628D01*
X171008095Y-85684819D02*
X171008095Y-84684819D01*
X171008095Y-84684819D02*
X171389047Y-84684819D01*
X171389047Y-84684819D02*
X171484285Y-84732438D01*
X171484285Y-84732438D02*
X171531904Y-84780057D01*
X171531904Y-84780057D02*
X171579523Y-84875295D01*
X171579523Y-84875295D02*
X171579523Y-85018152D01*
X171579523Y-85018152D02*
X171531904Y-85113390D01*
X171531904Y-85113390D02*
X171484285Y-85161009D01*
X171484285Y-85161009D02*
X171389047Y-85208628D01*
X171389047Y-85208628D02*
X171008095Y-85208628D01*
X172008095Y-85684819D02*
X172008095Y-84684819D01*
X172008095Y-84684819D02*
X172246190Y-84684819D01*
X172246190Y-84684819D02*
X172389047Y-84732438D01*
X172389047Y-84732438D02*
X172484285Y-84827676D01*
X172484285Y-84827676D02*
X172531904Y-84922914D01*
X172531904Y-84922914D02*
X172579523Y-85113390D01*
X172579523Y-85113390D02*
X172579523Y-85256247D01*
X172579523Y-85256247D02*
X172531904Y-85446723D01*
X172531904Y-85446723D02*
X172484285Y-85541961D01*
X172484285Y-85541961D02*
X172389047Y-85637200D01*
X172389047Y-85637200D02*
X172246190Y-85684819D01*
X172246190Y-85684819D02*
X172008095Y-85684819D01*
X163579523Y-88684819D02*
X163246190Y-88208628D01*
X163008095Y-88684819D02*
X163008095Y-87684819D01*
X163008095Y-87684819D02*
X163389047Y-87684819D01*
X163389047Y-87684819D02*
X163484285Y-87732438D01*
X163484285Y-87732438D02*
X163531904Y-87780057D01*
X163531904Y-87780057D02*
X163579523Y-87875295D01*
X163579523Y-87875295D02*
X163579523Y-88018152D01*
X163579523Y-88018152D02*
X163531904Y-88113390D01*
X163531904Y-88113390D02*
X163484285Y-88161009D01*
X163484285Y-88161009D02*
X163389047Y-88208628D01*
X163389047Y-88208628D02*
X163008095Y-88208628D01*
X164198571Y-87684819D02*
X164389047Y-87684819D01*
X164389047Y-87684819D02*
X164484285Y-87732438D01*
X164484285Y-87732438D02*
X164579523Y-87827676D01*
X164579523Y-87827676D02*
X164627142Y-88018152D01*
X164627142Y-88018152D02*
X164627142Y-88351485D01*
X164627142Y-88351485D02*
X164579523Y-88541961D01*
X164579523Y-88541961D02*
X164484285Y-88637200D01*
X164484285Y-88637200D02*
X164389047Y-88684819D01*
X164389047Y-88684819D02*
X164198571Y-88684819D01*
X164198571Y-88684819D02*
X164103333Y-88637200D01*
X164103333Y-88637200D02*
X164008095Y-88541961D01*
X164008095Y-88541961D02*
X163960476Y-88351485D01*
X163960476Y-88351485D02*
X163960476Y-88018152D01*
X163960476Y-88018152D02*
X164008095Y-87827676D01*
X164008095Y-87827676D02*
X164103333Y-87732438D01*
X164103333Y-87732438D02*
X164198571Y-87684819D01*
X165055714Y-88684819D02*
X165055714Y-87684819D01*
X165055714Y-87684819D02*
X165389047Y-88399104D01*
X165389047Y-88399104D02*
X165722380Y-87684819D01*
X165722380Y-87684819D02*
X165722380Y-88684819D01*
X166865238Y-87684819D02*
X167103333Y-88684819D01*
X167103333Y-88684819D02*
X167293809Y-87970533D01*
X167293809Y-87970533D02*
X167484285Y-88684819D01*
X167484285Y-88684819D02*
X167722381Y-87684819D01*
X168103333Y-88161009D02*
X168436666Y-88161009D01*
X168579523Y-88684819D02*
X168103333Y-88684819D01*
X168103333Y-88684819D02*
X168103333Y-87684819D01*
X168103333Y-87684819D02*
X168579523Y-87684819D01*
X166454819Y-54412381D02*
X165978628Y-54745714D01*
X166454819Y-54983809D02*
X165454819Y-54983809D01*
X165454819Y-54983809D02*
X165454819Y-54602857D01*
X165454819Y-54602857D02*
X165502438Y-54507619D01*
X165502438Y-54507619D02*
X165550057Y-54460000D01*
X165550057Y-54460000D02*
X165645295Y-54412381D01*
X165645295Y-54412381D02*
X165788152Y-54412381D01*
X165788152Y-54412381D02*
X165883390Y-54460000D01*
X165883390Y-54460000D02*
X165931009Y-54507619D01*
X165931009Y-54507619D02*
X165978628Y-54602857D01*
X165978628Y-54602857D02*
X165978628Y-54983809D01*
X165931009Y-53983809D02*
X165931009Y-53650476D01*
X166454819Y-53507619D02*
X166454819Y-53983809D01*
X166454819Y-53983809D02*
X165454819Y-53983809D01*
X165454819Y-53983809D02*
X165454819Y-53507619D01*
X166407200Y-53126666D02*
X166454819Y-52983809D01*
X166454819Y-52983809D02*
X166454819Y-52745714D01*
X166454819Y-52745714D02*
X166407200Y-52650476D01*
X166407200Y-52650476D02*
X166359580Y-52602857D01*
X166359580Y-52602857D02*
X166264342Y-52555238D01*
X166264342Y-52555238D02*
X166169104Y-52555238D01*
X166169104Y-52555238D02*
X166073866Y-52602857D01*
X166073866Y-52602857D02*
X166026247Y-52650476D01*
X166026247Y-52650476D02*
X165978628Y-52745714D01*
X165978628Y-52745714D02*
X165931009Y-52936190D01*
X165931009Y-52936190D02*
X165883390Y-53031428D01*
X165883390Y-53031428D02*
X165835771Y-53079047D01*
X165835771Y-53079047D02*
X165740533Y-53126666D01*
X165740533Y-53126666D02*
X165645295Y-53126666D01*
X165645295Y-53126666D02*
X165550057Y-53079047D01*
X165550057Y-53079047D02*
X165502438Y-53031428D01*
X165502438Y-53031428D02*
X165454819Y-52936190D01*
X165454819Y-52936190D02*
X165454819Y-52698095D01*
X165454819Y-52698095D02*
X165502438Y-52555238D01*
X165931009Y-52126666D02*
X165931009Y-51793333D01*
X166454819Y-51650476D02*
X166454819Y-52126666D01*
X166454819Y-52126666D02*
X165454819Y-52126666D01*
X165454819Y-52126666D02*
X165454819Y-51650476D01*
X165454819Y-51364761D02*
X165454819Y-50793333D01*
X166454819Y-51079047D02*
X165454819Y-51079047D01*
X155523809Y-143383390D02*
X155428571Y-143335771D01*
X155428571Y-143335771D02*
X155380952Y-143288152D01*
X155380952Y-143288152D02*
X155333333Y-143192914D01*
X155333333Y-143192914D02*
X155333333Y-143145295D01*
X155333333Y-143145295D02*
X155380952Y-143050057D01*
X155380952Y-143050057D02*
X155428571Y-143002438D01*
X155428571Y-143002438D02*
X155523809Y-142954819D01*
X155523809Y-142954819D02*
X155714285Y-142954819D01*
X155714285Y-142954819D02*
X155809523Y-143002438D01*
X155809523Y-143002438D02*
X155857142Y-143050057D01*
X155857142Y-143050057D02*
X155904761Y-143145295D01*
X155904761Y-143145295D02*
X155904761Y-143192914D01*
X155904761Y-143192914D02*
X155857142Y-143288152D01*
X155857142Y-143288152D02*
X155809523Y-143335771D01*
X155809523Y-143335771D02*
X155714285Y-143383390D01*
X155714285Y-143383390D02*
X155523809Y-143383390D01*
X155523809Y-143383390D02*
X155428571Y-143431009D01*
X155428571Y-143431009D02*
X155380952Y-143478628D01*
X155380952Y-143478628D02*
X155333333Y-143573866D01*
X155333333Y-143573866D02*
X155333333Y-143764342D01*
X155333333Y-143764342D02*
X155380952Y-143859580D01*
X155380952Y-143859580D02*
X155428571Y-143907200D01*
X155428571Y-143907200D02*
X155523809Y-143954819D01*
X155523809Y-143954819D02*
X155714285Y-143954819D01*
X155714285Y-143954819D02*
X155809523Y-143907200D01*
X155809523Y-143907200D02*
X155857142Y-143859580D01*
X155857142Y-143859580D02*
X155904761Y-143764342D01*
X155904761Y-143764342D02*
X155904761Y-143573866D01*
X155904761Y-143573866D02*
X155857142Y-143478628D01*
X155857142Y-143478628D02*
X155809523Y-143431009D01*
X155809523Y-143431009D02*
X155714285Y-143383390D01*
X156523809Y-142954819D02*
X156619047Y-142954819D01*
X156619047Y-142954819D02*
X156714285Y-143002438D01*
X156714285Y-143002438D02*
X156761904Y-143050057D01*
X156761904Y-143050057D02*
X156809523Y-143145295D01*
X156809523Y-143145295D02*
X156857142Y-143335771D01*
X156857142Y-143335771D02*
X156857142Y-143573866D01*
X156857142Y-143573866D02*
X156809523Y-143764342D01*
X156809523Y-143764342D02*
X156761904Y-143859580D01*
X156761904Y-143859580D02*
X156714285Y-143907200D01*
X156714285Y-143907200D02*
X156619047Y-143954819D01*
X156619047Y-143954819D02*
X156523809Y-143954819D01*
X156523809Y-143954819D02*
X156428571Y-143907200D01*
X156428571Y-143907200D02*
X156380952Y-143859580D01*
X156380952Y-143859580D02*
X156333333Y-143764342D01*
X156333333Y-143764342D02*
X156285714Y-143573866D01*
X156285714Y-143573866D02*
X156285714Y-143335771D01*
X156285714Y-143335771D02*
X156333333Y-143145295D01*
X156333333Y-143145295D02*
X156380952Y-143050057D01*
X156380952Y-143050057D02*
X156428571Y-143002438D01*
X156428571Y-143002438D02*
X156523809Y-142954819D01*
X157428571Y-143383390D02*
X157333333Y-143335771D01*
X157333333Y-143335771D02*
X157285714Y-143288152D01*
X157285714Y-143288152D02*
X157238095Y-143192914D01*
X157238095Y-143192914D02*
X157238095Y-143145295D01*
X157238095Y-143145295D02*
X157285714Y-143050057D01*
X157285714Y-143050057D02*
X157333333Y-143002438D01*
X157333333Y-143002438D02*
X157428571Y-142954819D01*
X157428571Y-142954819D02*
X157619047Y-142954819D01*
X157619047Y-142954819D02*
X157714285Y-143002438D01*
X157714285Y-143002438D02*
X157761904Y-143050057D01*
X157761904Y-143050057D02*
X157809523Y-143145295D01*
X157809523Y-143145295D02*
X157809523Y-143192914D01*
X157809523Y-143192914D02*
X157761904Y-143288152D01*
X157761904Y-143288152D02*
X157714285Y-143335771D01*
X157714285Y-143335771D02*
X157619047Y-143383390D01*
X157619047Y-143383390D02*
X157428571Y-143383390D01*
X157428571Y-143383390D02*
X157333333Y-143431009D01*
X157333333Y-143431009D02*
X157285714Y-143478628D01*
X157285714Y-143478628D02*
X157238095Y-143573866D01*
X157238095Y-143573866D02*
X157238095Y-143764342D01*
X157238095Y-143764342D02*
X157285714Y-143859580D01*
X157285714Y-143859580D02*
X157333333Y-143907200D01*
X157333333Y-143907200D02*
X157428571Y-143954819D01*
X157428571Y-143954819D02*
X157619047Y-143954819D01*
X157619047Y-143954819D02*
X157714285Y-143907200D01*
X157714285Y-143907200D02*
X157761904Y-143859580D01*
X157761904Y-143859580D02*
X157809523Y-143764342D01*
X157809523Y-143764342D02*
X157809523Y-143573866D01*
X157809523Y-143573866D02*
X157761904Y-143478628D01*
X157761904Y-143478628D02*
X157714285Y-143431009D01*
X157714285Y-143431009D02*
X157619047Y-143383390D01*
X158380952Y-143383390D02*
X158285714Y-143335771D01*
X158285714Y-143335771D02*
X158238095Y-143288152D01*
X158238095Y-143288152D02*
X158190476Y-143192914D01*
X158190476Y-143192914D02*
X158190476Y-143145295D01*
X158190476Y-143145295D02*
X158238095Y-143050057D01*
X158238095Y-143050057D02*
X158285714Y-143002438D01*
X158285714Y-143002438D02*
X158380952Y-142954819D01*
X158380952Y-142954819D02*
X158571428Y-142954819D01*
X158571428Y-142954819D02*
X158666666Y-143002438D01*
X158666666Y-143002438D02*
X158714285Y-143050057D01*
X158714285Y-143050057D02*
X158761904Y-143145295D01*
X158761904Y-143145295D02*
X158761904Y-143192914D01*
X158761904Y-143192914D02*
X158714285Y-143288152D01*
X158714285Y-143288152D02*
X158666666Y-143335771D01*
X158666666Y-143335771D02*
X158571428Y-143383390D01*
X158571428Y-143383390D02*
X158380952Y-143383390D01*
X158380952Y-143383390D02*
X158285714Y-143431009D01*
X158285714Y-143431009D02*
X158238095Y-143478628D01*
X158238095Y-143478628D02*
X158190476Y-143573866D01*
X158190476Y-143573866D02*
X158190476Y-143764342D01*
X158190476Y-143764342D02*
X158238095Y-143859580D01*
X158238095Y-143859580D02*
X158285714Y-143907200D01*
X158285714Y-143907200D02*
X158380952Y-143954819D01*
X158380952Y-143954819D02*
X158571428Y-143954819D01*
X158571428Y-143954819D02*
X158666666Y-143907200D01*
X158666666Y-143907200D02*
X158714285Y-143859580D01*
X158714285Y-143859580D02*
X158761904Y-143764342D01*
X158761904Y-143764342D02*
X158761904Y-143573866D01*
X158761904Y-143573866D02*
X158714285Y-143478628D01*
X158714285Y-143478628D02*
X158666666Y-143431009D01*
X158666666Y-143431009D02*
X158571428Y-143383390D01*
X160523809Y-143859580D02*
X160476190Y-143907200D01*
X160476190Y-143907200D02*
X160333333Y-143954819D01*
X160333333Y-143954819D02*
X160238095Y-143954819D01*
X160238095Y-143954819D02*
X160095238Y-143907200D01*
X160095238Y-143907200D02*
X160000000Y-143811961D01*
X160000000Y-143811961D02*
X159952381Y-143716723D01*
X159952381Y-143716723D02*
X159904762Y-143526247D01*
X159904762Y-143526247D02*
X159904762Y-143383390D01*
X159904762Y-143383390D02*
X159952381Y-143192914D01*
X159952381Y-143192914D02*
X160000000Y-143097676D01*
X160000000Y-143097676D02*
X160095238Y-143002438D01*
X160095238Y-143002438D02*
X160238095Y-142954819D01*
X160238095Y-142954819D02*
X160333333Y-142954819D01*
X160333333Y-142954819D02*
X160476190Y-143002438D01*
X160476190Y-143002438D02*
X160523809Y-143050057D01*
X160952381Y-143954819D02*
X160952381Y-142954819D01*
X160952381Y-142954819D02*
X161333333Y-142954819D01*
X161333333Y-142954819D02*
X161428571Y-143002438D01*
X161428571Y-143002438D02*
X161476190Y-143050057D01*
X161476190Y-143050057D02*
X161523809Y-143145295D01*
X161523809Y-143145295D02*
X161523809Y-143288152D01*
X161523809Y-143288152D02*
X161476190Y-143383390D01*
X161476190Y-143383390D02*
X161428571Y-143431009D01*
X161428571Y-143431009D02*
X161333333Y-143478628D01*
X161333333Y-143478628D02*
X160952381Y-143478628D01*
X161952381Y-142954819D02*
X161952381Y-143764342D01*
X161952381Y-143764342D02*
X162000000Y-143859580D01*
X162000000Y-143859580D02*
X162047619Y-143907200D01*
X162047619Y-143907200D02*
X162142857Y-143954819D01*
X162142857Y-143954819D02*
X162333333Y-143954819D01*
X162333333Y-143954819D02*
X162428571Y-143907200D01*
X162428571Y-143907200D02*
X162476190Y-143859580D01*
X162476190Y-143859580D02*
X162523809Y-143764342D01*
X162523809Y-143764342D02*
X162523809Y-142954819D01*
X164333333Y-143859580D02*
X164285714Y-143907200D01*
X164285714Y-143907200D02*
X164142857Y-143954819D01*
X164142857Y-143954819D02*
X164047619Y-143954819D01*
X164047619Y-143954819D02*
X163904762Y-143907200D01*
X163904762Y-143907200D02*
X163809524Y-143811961D01*
X163809524Y-143811961D02*
X163761905Y-143716723D01*
X163761905Y-143716723D02*
X163714286Y-143526247D01*
X163714286Y-143526247D02*
X163714286Y-143383390D01*
X163714286Y-143383390D02*
X163761905Y-143192914D01*
X163761905Y-143192914D02*
X163809524Y-143097676D01*
X163809524Y-143097676D02*
X163904762Y-143002438D01*
X163904762Y-143002438D02*
X164047619Y-142954819D01*
X164047619Y-142954819D02*
X164142857Y-142954819D01*
X164142857Y-142954819D02*
X164285714Y-143002438D01*
X164285714Y-143002438D02*
X164333333Y-143050057D01*
X165190476Y-143954819D02*
X165190476Y-143431009D01*
X165190476Y-143431009D02*
X165142857Y-143335771D01*
X165142857Y-143335771D02*
X165047619Y-143288152D01*
X165047619Y-143288152D02*
X164857143Y-143288152D01*
X164857143Y-143288152D02*
X164761905Y-143335771D01*
X165190476Y-143907200D02*
X165095238Y-143954819D01*
X165095238Y-143954819D02*
X164857143Y-143954819D01*
X164857143Y-143954819D02*
X164761905Y-143907200D01*
X164761905Y-143907200D02*
X164714286Y-143811961D01*
X164714286Y-143811961D02*
X164714286Y-143716723D01*
X164714286Y-143716723D02*
X164761905Y-143621485D01*
X164761905Y-143621485D02*
X164857143Y-143573866D01*
X164857143Y-143573866D02*
X165095238Y-143573866D01*
X165095238Y-143573866D02*
X165190476Y-143526247D01*
X165666667Y-143954819D02*
X165666667Y-143288152D01*
X165666667Y-143478628D02*
X165714286Y-143383390D01*
X165714286Y-143383390D02*
X165761905Y-143335771D01*
X165761905Y-143335771D02*
X165857143Y-143288152D01*
X165857143Y-143288152D02*
X165952381Y-143288152D01*
X166714286Y-143954819D02*
X166714286Y-142954819D01*
X166714286Y-143907200D02*
X166619048Y-143954819D01*
X166619048Y-143954819D02*
X166428572Y-143954819D01*
X166428572Y-143954819D02*
X166333334Y-143907200D01*
X166333334Y-143907200D02*
X166285715Y-143859580D01*
X166285715Y-143859580D02*
X166238096Y-143764342D01*
X166238096Y-143764342D02*
X166238096Y-143478628D01*
X166238096Y-143478628D02*
X166285715Y-143383390D01*
X166285715Y-143383390D02*
X166333334Y-143335771D01*
X166333334Y-143335771D02*
X166428572Y-143288152D01*
X166428572Y-143288152D02*
X166619048Y-143288152D01*
X166619048Y-143288152D02*
X166714286Y-143335771D01*
X167857144Y-143288152D02*
X168095239Y-143954819D01*
X168095239Y-143954819D02*
X168333334Y-143288152D01*
X168904763Y-142954819D02*
X169000001Y-142954819D01*
X169000001Y-142954819D02*
X169095239Y-143002438D01*
X169095239Y-143002438D02*
X169142858Y-143050057D01*
X169142858Y-143050057D02*
X169190477Y-143145295D01*
X169190477Y-143145295D02*
X169238096Y-143335771D01*
X169238096Y-143335771D02*
X169238096Y-143573866D01*
X169238096Y-143573866D02*
X169190477Y-143764342D01*
X169190477Y-143764342D02*
X169142858Y-143859580D01*
X169142858Y-143859580D02*
X169095239Y-143907200D01*
X169095239Y-143907200D02*
X169000001Y-143954819D01*
X169000001Y-143954819D02*
X168904763Y-143954819D01*
X168904763Y-143954819D02*
X168809525Y-143907200D01*
X168809525Y-143907200D02*
X168761906Y-143859580D01*
X168761906Y-143859580D02*
X168714287Y-143764342D01*
X168714287Y-143764342D02*
X168666668Y-143573866D01*
X168666668Y-143573866D02*
X168666668Y-143335771D01*
X168666668Y-143335771D02*
X168714287Y-143145295D01*
X168714287Y-143145295D02*
X168761906Y-143050057D01*
X168761906Y-143050057D02*
X168809525Y-143002438D01*
X168809525Y-143002438D02*
X168904763Y-142954819D01*
X169666668Y-143859580D02*
X169714287Y-143907200D01*
X169714287Y-143907200D02*
X169666668Y-143954819D01*
X169666668Y-143954819D02*
X169619049Y-143907200D01*
X169619049Y-143907200D02*
X169666668Y-143859580D01*
X169666668Y-143859580D02*
X169666668Y-143954819D01*
X170666667Y-143954819D02*
X170095239Y-143954819D01*
X170380953Y-143954819D02*
X170380953Y-142954819D01*
X170380953Y-142954819D02*
X170285715Y-143097676D01*
X170285715Y-143097676D02*
X170190477Y-143192914D01*
X170190477Y-143192914D02*
X170095239Y-143240533D01*
X137118095Y-52624819D02*
X137118095Y-53434342D01*
X137118095Y-53434342D02*
X137165714Y-53529580D01*
X137165714Y-53529580D02*
X137213333Y-53577200D01*
X137213333Y-53577200D02*
X137308571Y-53624819D01*
X137308571Y-53624819D02*
X137499047Y-53624819D01*
X137499047Y-53624819D02*
X137594285Y-53577200D01*
X137594285Y-53577200D02*
X137641904Y-53529580D01*
X137641904Y-53529580D02*
X137689523Y-53434342D01*
X137689523Y-53434342D02*
X137689523Y-52624819D01*
X138070476Y-52624819D02*
X138737142Y-52624819D01*
X138737142Y-52624819D02*
X138308571Y-53624819D01*
X103171666Y-137884819D02*
X103171666Y-138599104D01*
X103171666Y-138599104D02*
X103124047Y-138741961D01*
X103124047Y-138741961D02*
X103028809Y-138837200D01*
X103028809Y-138837200D02*
X102885952Y-138884819D01*
X102885952Y-138884819D02*
X102790714Y-138884819D01*
X104171666Y-138884819D02*
X103600238Y-138884819D01*
X103885952Y-138884819D02*
X103885952Y-137884819D01*
X103885952Y-137884819D02*
X103790714Y-138027676D01*
X103790714Y-138027676D02*
X103695476Y-138122914D01*
X103695476Y-138122914D02*
X103600238Y-138170533D01*
X180166667Y-49247200D02*
X180309524Y-49294819D01*
X180309524Y-49294819D02*
X180547619Y-49294819D01*
X180547619Y-49294819D02*
X180642857Y-49247200D01*
X180642857Y-49247200D02*
X180690476Y-49199580D01*
X180690476Y-49199580D02*
X180738095Y-49104342D01*
X180738095Y-49104342D02*
X180738095Y-49009104D01*
X180738095Y-49009104D02*
X180690476Y-48913866D01*
X180690476Y-48913866D02*
X180642857Y-48866247D01*
X180642857Y-48866247D02*
X180547619Y-48818628D01*
X180547619Y-48818628D02*
X180357143Y-48771009D01*
X180357143Y-48771009D02*
X180261905Y-48723390D01*
X180261905Y-48723390D02*
X180214286Y-48675771D01*
X180214286Y-48675771D02*
X180166667Y-48580533D01*
X180166667Y-48580533D02*
X180166667Y-48485295D01*
X180166667Y-48485295D02*
X180214286Y-48390057D01*
X180214286Y-48390057D02*
X180261905Y-48342438D01*
X180261905Y-48342438D02*
X180357143Y-48294819D01*
X180357143Y-48294819D02*
X180595238Y-48294819D01*
X180595238Y-48294819D02*
X180738095Y-48342438D01*
X181071429Y-48294819D02*
X181309524Y-49294819D01*
X181309524Y-49294819D02*
X181500000Y-48580533D01*
X181500000Y-48580533D02*
X181690476Y-49294819D01*
X181690476Y-49294819D02*
X181928572Y-48294819D01*
X182833333Y-49294819D02*
X182261905Y-49294819D01*
X182547619Y-49294819D02*
X182547619Y-48294819D01*
X182547619Y-48294819D02*
X182452381Y-48437676D01*
X182452381Y-48437676D02*
X182357143Y-48532914D01*
X182357143Y-48532914D02*
X182261905Y-48580533D01*
X182833333Y-75359580D02*
X182785714Y-75407200D01*
X182785714Y-75407200D02*
X182642857Y-75454819D01*
X182642857Y-75454819D02*
X182547619Y-75454819D01*
X182547619Y-75454819D02*
X182404762Y-75407200D01*
X182404762Y-75407200D02*
X182309524Y-75311961D01*
X182309524Y-75311961D02*
X182261905Y-75216723D01*
X182261905Y-75216723D02*
X182214286Y-75026247D01*
X182214286Y-75026247D02*
X182214286Y-74883390D01*
X182214286Y-74883390D02*
X182261905Y-74692914D01*
X182261905Y-74692914D02*
X182309524Y-74597676D01*
X182309524Y-74597676D02*
X182404762Y-74502438D01*
X182404762Y-74502438D02*
X182547619Y-74454819D01*
X182547619Y-74454819D02*
X182642857Y-74454819D01*
X182642857Y-74454819D02*
X182785714Y-74502438D01*
X182785714Y-74502438D02*
X182833333Y-74550057D01*
X183690476Y-74788152D02*
X183690476Y-75454819D01*
X183452381Y-74407200D02*
X183214286Y-75121485D01*
X183214286Y-75121485D02*
X183833333Y-75121485D01*
X163118095Y-95624819D02*
X163118095Y-96434342D01*
X163118095Y-96434342D02*
X163165714Y-96529580D01*
X163165714Y-96529580D02*
X163213333Y-96577200D01*
X163213333Y-96577200D02*
X163308571Y-96624819D01*
X163308571Y-96624819D02*
X163499047Y-96624819D01*
X163499047Y-96624819D02*
X163594285Y-96577200D01*
X163594285Y-96577200D02*
X163641904Y-96529580D01*
X163641904Y-96529580D02*
X163689523Y-96434342D01*
X163689523Y-96434342D02*
X163689523Y-95624819D01*
X164118095Y-95720057D02*
X164165714Y-95672438D01*
X164165714Y-95672438D02*
X164260952Y-95624819D01*
X164260952Y-95624819D02*
X164499047Y-95624819D01*
X164499047Y-95624819D02*
X164594285Y-95672438D01*
X164594285Y-95672438D02*
X164641904Y-95720057D01*
X164641904Y-95720057D02*
X164689523Y-95815295D01*
X164689523Y-95815295D02*
X164689523Y-95910533D01*
X164689523Y-95910533D02*
X164641904Y-96053390D01*
X164641904Y-96053390D02*
X164070476Y-96624819D01*
X164070476Y-96624819D02*
X164689523Y-96624819D01*
X160333333Y-91359580D02*
X160285714Y-91407200D01*
X160285714Y-91407200D02*
X160142857Y-91454819D01*
X160142857Y-91454819D02*
X160047619Y-91454819D01*
X160047619Y-91454819D02*
X159904762Y-91407200D01*
X159904762Y-91407200D02*
X159809524Y-91311961D01*
X159809524Y-91311961D02*
X159761905Y-91216723D01*
X159761905Y-91216723D02*
X159714286Y-91026247D01*
X159714286Y-91026247D02*
X159714286Y-90883390D01*
X159714286Y-90883390D02*
X159761905Y-90692914D01*
X159761905Y-90692914D02*
X159809524Y-90597676D01*
X159809524Y-90597676D02*
X159904762Y-90502438D01*
X159904762Y-90502438D02*
X160047619Y-90454819D01*
X160047619Y-90454819D02*
X160142857Y-90454819D01*
X160142857Y-90454819D02*
X160285714Y-90502438D01*
X160285714Y-90502438D02*
X160333333Y-90550057D01*
X160714286Y-90550057D02*
X160761905Y-90502438D01*
X160761905Y-90502438D02*
X160857143Y-90454819D01*
X160857143Y-90454819D02*
X161095238Y-90454819D01*
X161095238Y-90454819D02*
X161190476Y-90502438D01*
X161190476Y-90502438D02*
X161238095Y-90550057D01*
X161238095Y-90550057D02*
X161285714Y-90645295D01*
X161285714Y-90645295D02*
X161285714Y-90740533D01*
X161285714Y-90740533D02*
X161238095Y-90883390D01*
X161238095Y-90883390D02*
X160666667Y-91454819D01*
X160666667Y-91454819D02*
X161285714Y-91454819D01*
X176833333Y-91359580D02*
X176785714Y-91407200D01*
X176785714Y-91407200D02*
X176642857Y-91454819D01*
X176642857Y-91454819D02*
X176547619Y-91454819D01*
X176547619Y-91454819D02*
X176404762Y-91407200D01*
X176404762Y-91407200D02*
X176309524Y-91311961D01*
X176309524Y-91311961D02*
X176261905Y-91216723D01*
X176261905Y-91216723D02*
X176214286Y-91026247D01*
X176214286Y-91026247D02*
X176214286Y-90883390D01*
X176214286Y-90883390D02*
X176261905Y-90692914D01*
X176261905Y-90692914D02*
X176309524Y-90597676D01*
X176309524Y-90597676D02*
X176404762Y-90502438D01*
X176404762Y-90502438D02*
X176547619Y-90454819D01*
X176547619Y-90454819D02*
X176642857Y-90454819D01*
X176642857Y-90454819D02*
X176785714Y-90502438D01*
X176785714Y-90502438D02*
X176833333Y-90550057D01*
X177166667Y-90454819D02*
X177785714Y-90454819D01*
X177785714Y-90454819D02*
X177452381Y-90835771D01*
X177452381Y-90835771D02*
X177595238Y-90835771D01*
X177595238Y-90835771D02*
X177690476Y-90883390D01*
X177690476Y-90883390D02*
X177738095Y-90931009D01*
X177738095Y-90931009D02*
X177785714Y-91026247D01*
X177785714Y-91026247D02*
X177785714Y-91264342D01*
X177785714Y-91264342D02*
X177738095Y-91359580D01*
X177738095Y-91359580D02*
X177690476Y-91407200D01*
X177690476Y-91407200D02*
X177595238Y-91454819D01*
X177595238Y-91454819D02*
X177309524Y-91454819D01*
X177309524Y-91454819D02*
X177214286Y-91407200D01*
X177214286Y-91407200D02*
X177166667Y-91359580D01*
X119738095Y-90714819D02*
X119738095Y-91524342D01*
X119738095Y-91524342D02*
X119785714Y-91619580D01*
X119785714Y-91619580D02*
X119833333Y-91667200D01*
X119833333Y-91667200D02*
X119928571Y-91714819D01*
X119928571Y-91714819D02*
X120119047Y-91714819D01*
X120119047Y-91714819D02*
X120214285Y-91667200D01*
X120214285Y-91667200D02*
X120261904Y-91619580D01*
X120261904Y-91619580D02*
X120309523Y-91524342D01*
X120309523Y-91524342D02*
X120309523Y-90714819D01*
X121309523Y-91714819D02*
X120738095Y-91714819D01*
X121023809Y-91714819D02*
X121023809Y-90714819D01*
X121023809Y-90714819D02*
X120928571Y-90857676D01*
X120928571Y-90857676D02*
X120833333Y-90952914D01*
X120833333Y-90952914D02*
X120738095Y-91000533D01*
X168666666Y-49494819D02*
X168666666Y-50209104D01*
X168666666Y-50209104D02*
X168619047Y-50351961D01*
X168619047Y-50351961D02*
X168523809Y-50447200D01*
X168523809Y-50447200D02*
X168380952Y-50494819D01*
X168380952Y-50494819D02*
X168285714Y-50494819D01*
X169142857Y-50494819D02*
X169142857Y-49494819D01*
X169142857Y-49494819D02*
X169523809Y-49494819D01*
X169523809Y-49494819D02*
X169619047Y-49542438D01*
X169619047Y-49542438D02*
X169666666Y-49590057D01*
X169666666Y-49590057D02*
X169714285Y-49685295D01*
X169714285Y-49685295D02*
X169714285Y-49828152D01*
X169714285Y-49828152D02*
X169666666Y-49923390D01*
X169666666Y-49923390D02*
X169619047Y-49971009D01*
X169619047Y-49971009D02*
X169523809Y-50018628D01*
X169523809Y-50018628D02*
X169142857Y-50018628D01*
X170666666Y-50494819D02*
X170095238Y-50494819D01*
X170380952Y-50494819D02*
X170380952Y-49494819D01*
X170380952Y-49494819D02*
X170285714Y-49637676D01*
X170285714Y-49637676D02*
X170190476Y-49732914D01*
X170190476Y-49732914D02*
X170095238Y-49780533D01*
X185428095Y-79624819D02*
X185428095Y-80434342D01*
X185428095Y-80434342D02*
X185475714Y-80529580D01*
X185475714Y-80529580D02*
X185523333Y-80577200D01*
X185523333Y-80577200D02*
X185618571Y-80624819D01*
X185618571Y-80624819D02*
X185809047Y-80624819D01*
X185809047Y-80624819D02*
X185904285Y-80577200D01*
X185904285Y-80577200D02*
X185951904Y-80529580D01*
X185951904Y-80529580D02*
X185999523Y-80434342D01*
X185999523Y-80434342D02*
X185999523Y-79624819D01*
X186904285Y-79958152D02*
X186904285Y-80624819D01*
X186666190Y-79577200D02*
X186428095Y-80291485D01*
X186428095Y-80291485D02*
X187047142Y-80291485D01*
X190833333Y-55859580D02*
X190785714Y-55907200D01*
X190785714Y-55907200D02*
X190642857Y-55954819D01*
X190642857Y-55954819D02*
X190547619Y-55954819D01*
X190547619Y-55954819D02*
X190404762Y-55907200D01*
X190404762Y-55907200D02*
X190309524Y-55811961D01*
X190309524Y-55811961D02*
X190261905Y-55716723D01*
X190261905Y-55716723D02*
X190214286Y-55526247D01*
X190214286Y-55526247D02*
X190214286Y-55383390D01*
X190214286Y-55383390D02*
X190261905Y-55192914D01*
X190261905Y-55192914D02*
X190309524Y-55097676D01*
X190309524Y-55097676D02*
X190404762Y-55002438D01*
X190404762Y-55002438D02*
X190547619Y-54954819D01*
X190547619Y-54954819D02*
X190642857Y-54954819D01*
X190642857Y-54954819D02*
X190785714Y-55002438D01*
X190785714Y-55002438D02*
X190833333Y-55050057D01*
X191404762Y-55383390D02*
X191309524Y-55335771D01*
X191309524Y-55335771D02*
X191261905Y-55288152D01*
X191261905Y-55288152D02*
X191214286Y-55192914D01*
X191214286Y-55192914D02*
X191214286Y-55145295D01*
X191214286Y-55145295D02*
X191261905Y-55050057D01*
X191261905Y-55050057D02*
X191309524Y-55002438D01*
X191309524Y-55002438D02*
X191404762Y-54954819D01*
X191404762Y-54954819D02*
X191595238Y-54954819D01*
X191595238Y-54954819D02*
X191690476Y-55002438D01*
X191690476Y-55002438D02*
X191738095Y-55050057D01*
X191738095Y-55050057D02*
X191785714Y-55145295D01*
X191785714Y-55145295D02*
X191785714Y-55192914D01*
X191785714Y-55192914D02*
X191738095Y-55288152D01*
X191738095Y-55288152D02*
X191690476Y-55335771D01*
X191690476Y-55335771D02*
X191595238Y-55383390D01*
X191595238Y-55383390D02*
X191404762Y-55383390D01*
X191404762Y-55383390D02*
X191309524Y-55431009D01*
X191309524Y-55431009D02*
X191261905Y-55478628D01*
X191261905Y-55478628D02*
X191214286Y-55573866D01*
X191214286Y-55573866D02*
X191214286Y-55764342D01*
X191214286Y-55764342D02*
X191261905Y-55859580D01*
X191261905Y-55859580D02*
X191309524Y-55907200D01*
X191309524Y-55907200D02*
X191404762Y-55954819D01*
X191404762Y-55954819D02*
X191595238Y-55954819D01*
X191595238Y-55954819D02*
X191690476Y-55907200D01*
X191690476Y-55907200D02*
X191738095Y-55859580D01*
X191738095Y-55859580D02*
X191785714Y-55764342D01*
X191785714Y-55764342D02*
X191785714Y-55573866D01*
X191785714Y-55573866D02*
X191738095Y-55478628D01*
X191738095Y-55478628D02*
X191690476Y-55431009D01*
X191690476Y-55431009D02*
X191595238Y-55383390D01*
X185213809Y-60648628D02*
X185213809Y-61124819D01*
X184880476Y-60124819D02*
X185213809Y-60648628D01*
X185213809Y-60648628D02*
X185547142Y-60124819D01*
X186404285Y-61124819D02*
X185832857Y-61124819D01*
X186118571Y-61124819D02*
X186118571Y-60124819D01*
X186118571Y-60124819D02*
X186023333Y-60267676D01*
X186023333Y-60267676D02*
X185928095Y-60362914D01*
X185928095Y-60362914D02*
X185832857Y-60410533D01*
X120333333Y-52859580D02*
X120285714Y-52907200D01*
X120285714Y-52907200D02*
X120142857Y-52954819D01*
X120142857Y-52954819D02*
X120047619Y-52954819D01*
X120047619Y-52954819D02*
X119904762Y-52907200D01*
X119904762Y-52907200D02*
X119809524Y-52811961D01*
X119809524Y-52811961D02*
X119761905Y-52716723D01*
X119761905Y-52716723D02*
X119714286Y-52526247D01*
X119714286Y-52526247D02*
X119714286Y-52383390D01*
X119714286Y-52383390D02*
X119761905Y-52192914D01*
X119761905Y-52192914D02*
X119809524Y-52097676D01*
X119809524Y-52097676D02*
X119904762Y-52002438D01*
X119904762Y-52002438D02*
X120047619Y-51954819D01*
X120047619Y-51954819D02*
X120142857Y-51954819D01*
X120142857Y-51954819D02*
X120285714Y-52002438D01*
X120285714Y-52002438D02*
X120333333Y-52050057D01*
X121285714Y-52954819D02*
X120714286Y-52954819D01*
X121000000Y-52954819D02*
X121000000Y-51954819D01*
X121000000Y-51954819D02*
X120904762Y-52097676D01*
X120904762Y-52097676D02*
X120809524Y-52192914D01*
X120809524Y-52192914D02*
X120714286Y-52240533D01*
X118833333Y-102859580D02*
X118785714Y-102907200D01*
X118785714Y-102907200D02*
X118642857Y-102954819D01*
X118642857Y-102954819D02*
X118547619Y-102954819D01*
X118547619Y-102954819D02*
X118404762Y-102907200D01*
X118404762Y-102907200D02*
X118309524Y-102811961D01*
X118309524Y-102811961D02*
X118261905Y-102716723D01*
X118261905Y-102716723D02*
X118214286Y-102526247D01*
X118214286Y-102526247D02*
X118214286Y-102383390D01*
X118214286Y-102383390D02*
X118261905Y-102192914D01*
X118261905Y-102192914D02*
X118309524Y-102097676D01*
X118309524Y-102097676D02*
X118404762Y-102002438D01*
X118404762Y-102002438D02*
X118547619Y-101954819D01*
X118547619Y-101954819D02*
X118642857Y-101954819D01*
X118642857Y-101954819D02*
X118785714Y-102002438D01*
X118785714Y-102002438D02*
X118833333Y-102050057D01*
X119738095Y-101954819D02*
X119261905Y-101954819D01*
X119261905Y-101954819D02*
X119214286Y-102431009D01*
X119214286Y-102431009D02*
X119261905Y-102383390D01*
X119261905Y-102383390D02*
X119357143Y-102335771D01*
X119357143Y-102335771D02*
X119595238Y-102335771D01*
X119595238Y-102335771D02*
X119690476Y-102383390D01*
X119690476Y-102383390D02*
X119738095Y-102431009D01*
X119738095Y-102431009D02*
X119785714Y-102526247D01*
X119785714Y-102526247D02*
X119785714Y-102764342D01*
X119785714Y-102764342D02*
X119738095Y-102859580D01*
X119738095Y-102859580D02*
X119690476Y-102907200D01*
X119690476Y-102907200D02*
X119595238Y-102954819D01*
X119595238Y-102954819D02*
X119357143Y-102954819D01*
X119357143Y-102954819D02*
X119261905Y-102907200D01*
X119261905Y-102907200D02*
X119214286Y-102859580D01*
X166454819Y-68016666D02*
X165978628Y-68349999D01*
X166454819Y-68588094D02*
X165454819Y-68588094D01*
X165454819Y-68588094D02*
X165454819Y-68207142D01*
X165454819Y-68207142D02*
X165502438Y-68111904D01*
X165502438Y-68111904D02*
X165550057Y-68064285D01*
X165550057Y-68064285D02*
X165645295Y-68016666D01*
X165645295Y-68016666D02*
X165788152Y-68016666D01*
X165788152Y-68016666D02*
X165883390Y-68064285D01*
X165883390Y-68064285D02*
X165931009Y-68111904D01*
X165931009Y-68111904D02*
X165978628Y-68207142D01*
X165978628Y-68207142D02*
X165978628Y-68588094D01*
X166454819Y-67064285D02*
X166454819Y-67635713D01*
X166454819Y-67349999D02*
X165454819Y-67349999D01*
X165454819Y-67349999D02*
X165597676Y-67445237D01*
X165597676Y-67445237D02*
X165692914Y-67540475D01*
X165692914Y-67540475D02*
X165740533Y-67635713D01*
X184118095Y-95624819D02*
X184118095Y-96434342D01*
X184118095Y-96434342D02*
X184165714Y-96529580D01*
X184165714Y-96529580D02*
X184213333Y-96577200D01*
X184213333Y-96577200D02*
X184308571Y-96624819D01*
X184308571Y-96624819D02*
X184499047Y-96624819D01*
X184499047Y-96624819D02*
X184594285Y-96577200D01*
X184594285Y-96577200D02*
X184641904Y-96529580D01*
X184641904Y-96529580D02*
X184689523Y-96434342D01*
X184689523Y-96434342D02*
X184689523Y-95624819D01*
X185070476Y-95624819D02*
X185689523Y-95624819D01*
X185689523Y-95624819D02*
X185356190Y-96005771D01*
X185356190Y-96005771D02*
X185499047Y-96005771D01*
X185499047Y-96005771D02*
X185594285Y-96053390D01*
X185594285Y-96053390D02*
X185641904Y-96101009D01*
X185641904Y-96101009D02*
X185689523Y-96196247D01*
X185689523Y-96196247D02*
X185689523Y-96434342D01*
X185689523Y-96434342D02*
X185641904Y-96529580D01*
X185641904Y-96529580D02*
X185594285Y-96577200D01*
X185594285Y-96577200D02*
X185499047Y-96624819D01*
X185499047Y-96624819D02*
X185213333Y-96624819D01*
X185213333Y-96624819D02*
X185118095Y-96577200D01*
X185118095Y-96577200D02*
X185070476Y-96529580D01*
X121548095Y-107124819D02*
X121548095Y-107934342D01*
X121548095Y-107934342D02*
X121595714Y-108029580D01*
X121595714Y-108029580D02*
X121643333Y-108077200D01*
X121643333Y-108077200D02*
X121738571Y-108124819D01*
X121738571Y-108124819D02*
X121929047Y-108124819D01*
X121929047Y-108124819D02*
X122024285Y-108077200D01*
X122024285Y-108077200D02*
X122071904Y-108029580D01*
X122071904Y-108029580D02*
X122119523Y-107934342D01*
X122119523Y-107934342D02*
X122119523Y-107124819D01*
X123071904Y-107124819D02*
X122595714Y-107124819D01*
X122595714Y-107124819D02*
X122548095Y-107601009D01*
X122548095Y-107601009D02*
X122595714Y-107553390D01*
X122595714Y-107553390D02*
X122690952Y-107505771D01*
X122690952Y-107505771D02*
X122929047Y-107505771D01*
X122929047Y-107505771D02*
X123024285Y-107553390D01*
X123024285Y-107553390D02*
X123071904Y-107601009D01*
X123071904Y-107601009D02*
X123119523Y-107696247D01*
X123119523Y-107696247D02*
X123119523Y-107934342D01*
X123119523Y-107934342D02*
X123071904Y-108029580D01*
X123071904Y-108029580D02*
X123024285Y-108077200D01*
X123024285Y-108077200D02*
X122929047Y-108124819D01*
X122929047Y-108124819D02*
X122690952Y-108124819D01*
X122690952Y-108124819D02*
X122595714Y-108077200D01*
X122595714Y-108077200D02*
X122548095Y-108029580D01*
X151333333Y-48359580D02*
X151285714Y-48407200D01*
X151285714Y-48407200D02*
X151142857Y-48454819D01*
X151142857Y-48454819D02*
X151047619Y-48454819D01*
X151047619Y-48454819D02*
X150904762Y-48407200D01*
X150904762Y-48407200D02*
X150809524Y-48311961D01*
X150809524Y-48311961D02*
X150761905Y-48216723D01*
X150761905Y-48216723D02*
X150714286Y-48026247D01*
X150714286Y-48026247D02*
X150714286Y-47883390D01*
X150714286Y-47883390D02*
X150761905Y-47692914D01*
X150761905Y-47692914D02*
X150809524Y-47597676D01*
X150809524Y-47597676D02*
X150904762Y-47502438D01*
X150904762Y-47502438D02*
X151047619Y-47454819D01*
X151047619Y-47454819D02*
X151142857Y-47454819D01*
X151142857Y-47454819D02*
X151285714Y-47502438D01*
X151285714Y-47502438D02*
X151333333Y-47550057D01*
X152190476Y-47454819D02*
X152000000Y-47454819D01*
X152000000Y-47454819D02*
X151904762Y-47502438D01*
X151904762Y-47502438D02*
X151857143Y-47550057D01*
X151857143Y-47550057D02*
X151761905Y-47692914D01*
X151761905Y-47692914D02*
X151714286Y-47883390D01*
X151714286Y-47883390D02*
X151714286Y-48264342D01*
X151714286Y-48264342D02*
X151761905Y-48359580D01*
X151761905Y-48359580D02*
X151809524Y-48407200D01*
X151809524Y-48407200D02*
X151904762Y-48454819D01*
X151904762Y-48454819D02*
X152095238Y-48454819D01*
X152095238Y-48454819D02*
X152190476Y-48407200D01*
X152190476Y-48407200D02*
X152238095Y-48359580D01*
X152238095Y-48359580D02*
X152285714Y-48264342D01*
X152285714Y-48264342D02*
X152285714Y-48026247D01*
X152285714Y-48026247D02*
X152238095Y-47931009D01*
X152238095Y-47931009D02*
X152190476Y-47883390D01*
X152190476Y-47883390D02*
X152095238Y-47835771D01*
X152095238Y-47835771D02*
X151904762Y-47835771D01*
X151904762Y-47835771D02*
X151809524Y-47883390D01*
X151809524Y-47883390D02*
X151761905Y-47931009D01*
X151761905Y-47931009D02*
X151714286Y-48026247D01*
X153928095Y-52624819D02*
X153928095Y-53434342D01*
X153928095Y-53434342D02*
X153975714Y-53529580D01*
X153975714Y-53529580D02*
X154023333Y-53577200D01*
X154023333Y-53577200D02*
X154118571Y-53624819D01*
X154118571Y-53624819D02*
X154309047Y-53624819D01*
X154309047Y-53624819D02*
X154404285Y-53577200D01*
X154404285Y-53577200D02*
X154451904Y-53529580D01*
X154451904Y-53529580D02*
X154499523Y-53434342D01*
X154499523Y-53434342D02*
X154499523Y-52624819D01*
X155404285Y-52624819D02*
X155213809Y-52624819D01*
X155213809Y-52624819D02*
X155118571Y-52672438D01*
X155118571Y-52672438D02*
X155070952Y-52720057D01*
X155070952Y-52720057D02*
X154975714Y-52862914D01*
X154975714Y-52862914D02*
X154928095Y-53053390D01*
X154928095Y-53053390D02*
X154928095Y-53434342D01*
X154928095Y-53434342D02*
X154975714Y-53529580D01*
X154975714Y-53529580D02*
X155023333Y-53577200D01*
X155023333Y-53577200D02*
X155118571Y-53624819D01*
X155118571Y-53624819D02*
X155309047Y-53624819D01*
X155309047Y-53624819D02*
X155404285Y-53577200D01*
X155404285Y-53577200D02*
X155451904Y-53529580D01*
X155451904Y-53529580D02*
X155499523Y-53434342D01*
X155499523Y-53434342D02*
X155499523Y-53196247D01*
X155499523Y-53196247D02*
X155451904Y-53101009D01*
X155451904Y-53101009D02*
X155404285Y-53053390D01*
X155404285Y-53053390D02*
X155309047Y-53005771D01*
X155309047Y-53005771D02*
X155118571Y-53005771D01*
X155118571Y-53005771D02*
X155023333Y-53053390D01*
X155023333Y-53053390D02*
X154975714Y-53101009D01*
X154975714Y-53101009D02*
X154928095Y-53196247D01*
X164896666Y-81684819D02*
X164896666Y-82399104D01*
X164896666Y-82399104D02*
X164849047Y-82541961D01*
X164849047Y-82541961D02*
X164753809Y-82637200D01*
X164753809Y-82637200D02*
X164610952Y-82684819D01*
X164610952Y-82684819D02*
X164515714Y-82684819D01*
X165372857Y-82684819D02*
X165372857Y-81684819D01*
X165372857Y-81684819D02*
X165753809Y-81684819D01*
X165753809Y-81684819D02*
X165849047Y-81732438D01*
X165849047Y-81732438D02*
X165896666Y-81780057D01*
X165896666Y-81780057D02*
X165944285Y-81875295D01*
X165944285Y-81875295D02*
X165944285Y-82018152D01*
X165944285Y-82018152D02*
X165896666Y-82113390D01*
X165896666Y-82113390D02*
X165849047Y-82161009D01*
X165849047Y-82161009D02*
X165753809Y-82208628D01*
X165753809Y-82208628D02*
X165372857Y-82208628D01*
X166325238Y-81780057D02*
X166372857Y-81732438D01*
X166372857Y-81732438D02*
X166468095Y-81684819D01*
X166468095Y-81684819D02*
X166706190Y-81684819D01*
X166706190Y-81684819D02*
X166801428Y-81732438D01*
X166801428Y-81732438D02*
X166849047Y-81780057D01*
X166849047Y-81780057D02*
X166896666Y-81875295D01*
X166896666Y-81875295D02*
X166896666Y-81970533D01*
X166896666Y-81970533D02*
X166849047Y-82113390D01*
X166849047Y-82113390D02*
X166277619Y-82684819D01*
X166277619Y-82684819D02*
X166896666Y-82684819D01*
X133333333Y-48359580D02*
X133285714Y-48407200D01*
X133285714Y-48407200D02*
X133142857Y-48454819D01*
X133142857Y-48454819D02*
X133047619Y-48454819D01*
X133047619Y-48454819D02*
X132904762Y-48407200D01*
X132904762Y-48407200D02*
X132809524Y-48311961D01*
X132809524Y-48311961D02*
X132761905Y-48216723D01*
X132761905Y-48216723D02*
X132714286Y-48026247D01*
X132714286Y-48026247D02*
X132714286Y-47883390D01*
X132714286Y-47883390D02*
X132761905Y-47692914D01*
X132761905Y-47692914D02*
X132809524Y-47597676D01*
X132809524Y-47597676D02*
X132904762Y-47502438D01*
X132904762Y-47502438D02*
X133047619Y-47454819D01*
X133047619Y-47454819D02*
X133142857Y-47454819D01*
X133142857Y-47454819D02*
X133285714Y-47502438D01*
X133285714Y-47502438D02*
X133333333Y-47550057D01*
X133666667Y-47454819D02*
X134333333Y-47454819D01*
X134333333Y-47454819D02*
X133904762Y-48454819D01*
D11*
X131820000Y-54170000D02*
X131820000Y-105090000D01*
X131820000Y-105090000D02*
X143940000Y-105090000D01*
X136880000Y-54170000D02*
X131820000Y-54170000D01*
X143940000Y-54170000D02*
X138880000Y-54170000D01*
X143940000Y-105090000D02*
X143940000Y-54170000D01*
X128820000Y-54110000D02*
X146940000Y-54110000D01*
X146940000Y-105150000D01*
X128820000Y-105150000D01*
X128820000Y-54110000D01*
X138880000Y-54170000D02*
G75*
G02*
X136880000Y-54170000I-1000000J0D01*
G01*
X96427000Y-49260000D02*
X101987000Y-49260000D01*
X96427000Y-143780000D02*
X101987000Y-143780000D01*
X100987000Y-56280000D02*
X100987000Y-54780000D01*
X100987000Y-58820000D02*
X100987000Y-58019000D01*
X100987000Y-61360000D02*
X100987000Y-60559000D01*
X100987000Y-63900000D02*
X100987000Y-63099000D01*
X100987000Y-66440000D02*
X100987000Y-65639000D01*
X100987000Y-68980000D02*
X100987000Y-68179000D01*
X100987000Y-71520000D02*
X100987000Y-70719000D01*
X100987000Y-74060000D02*
X100987000Y-73259000D01*
X100987000Y-76600000D02*
X100987000Y-75799000D01*
X100987000Y-79140000D02*
X100987000Y-78339000D01*
X100987000Y-81680000D02*
X100987000Y-80879000D01*
X100987000Y-84220000D02*
X100987000Y-83419000D01*
X100987000Y-86760000D02*
X100987000Y-85959000D01*
X100987000Y-89300000D02*
X100987000Y-88499000D01*
X100987000Y-91840000D02*
X100987000Y-91039000D01*
X100987000Y-94380000D02*
X100987000Y-93579000D01*
X100987000Y-96920000D02*
X100987000Y-96119000D01*
X100987000Y-99460000D02*
X100987000Y-98659000D01*
X100987000Y-102000000D02*
X100987000Y-101199000D01*
X100987000Y-104540000D02*
X100987000Y-103739000D01*
X100987000Y-107080000D02*
X100987000Y-106279000D01*
X100987000Y-109620000D02*
X100987000Y-108819000D01*
X100987000Y-112160000D02*
X100987000Y-111359000D01*
X100987000Y-114700000D02*
X100987000Y-113899000D01*
X100987000Y-117240000D02*
X100987000Y-116439000D01*
X100987000Y-119780000D02*
X100987000Y-118979000D01*
X100987000Y-122320000D02*
X100987000Y-121519000D01*
X100987000Y-124860000D02*
X100987000Y-124059000D01*
X100987000Y-127400000D02*
X100987000Y-126599000D01*
X100987000Y-129940000D02*
X100987000Y-129139000D01*
X100987000Y-132480000D02*
X100987000Y-131679000D01*
X100987000Y-134795000D02*
X100987000Y-134219000D01*
X100987000Y-138261000D02*
X100987000Y-136985000D01*
X101427000Y-137585000D02*
X102027000Y-137585000D01*
X101727000Y-136985000D02*
X101427000Y-137585000D01*
X101987000Y-49260000D02*
X101987000Y-54780000D01*
X101987000Y-54780000D02*
X100987000Y-54780000D01*
X101987000Y-138260000D02*
X100987000Y-138260000D01*
X101987000Y-143780000D02*
X101987000Y-138260000D01*
X102027000Y-137585000D02*
X101727000Y-136985000D01*
X177690000Y-49650000D02*
X177690000Y-49950000D01*
X177690000Y-49650000D02*
X185310000Y-49650000D01*
X177690000Y-51890000D02*
X177690000Y-55030000D01*
X177690000Y-56970000D02*
X177690000Y-57270000D01*
X185310000Y-49650000D02*
X185310000Y-49950000D01*
X185310000Y-51890000D02*
X185310000Y-55030000D01*
X185310000Y-56970000D02*
X185310000Y-57270000D01*
X185310000Y-57270000D02*
X177690000Y-57270000D01*
X184040000Y-53460000D02*
G75*
G02*
X178960000Y-53460000I-2540000J0D01*
G01*
X178960000Y-53460000D02*
G75*
G02*
X184040000Y-53460000I2540000J0D01*
G01*
X180380000Y-76130000D02*
X185620000Y-76130000D01*
X180380000Y-76467000D02*
X180380000Y-76130000D01*
X180380000Y-78870000D02*
X180380000Y-78533000D01*
X185620000Y-76130000D02*
X185620000Y-76467000D01*
X185620000Y-78533000D02*
X185620000Y-78870000D01*
X185620000Y-78870000D02*
X180380000Y-78870000D01*
X157820000Y-97170000D02*
X157820000Y-137930000D01*
X157820000Y-137930000D02*
X169940000Y-137930000D01*
X162880000Y-97170000D02*
X157820000Y-97170000D01*
X169940000Y-97170000D02*
X164880000Y-97170000D01*
X169940000Y-137930000D02*
X169940000Y-97170000D01*
X154820000Y-97110000D02*
X172940000Y-97110000D01*
X172940000Y-137990000D01*
X154820000Y-137990000D01*
X154820000Y-97110000D01*
X164880000Y-97170000D02*
G75*
G02*
X162880000Y-97170000I-1000000J0D01*
G01*
X157880000Y-92130000D02*
X163120000Y-92130000D01*
X157880000Y-92467000D02*
X157880000Y-92130000D01*
X157880000Y-94870000D02*
X157880000Y-94533000D01*
X163120000Y-92130000D02*
X163120000Y-92467000D01*
X163120000Y-94533000D02*
X163120000Y-94870000D01*
X163120000Y-94870000D02*
X157880000Y-94870000D01*
X174380000Y-92130000D02*
X179620000Y-92130000D01*
X174380000Y-92467000D02*
X174380000Y-92130000D01*
X174380000Y-94870000D02*
X174380000Y-94533000D01*
X179620000Y-92130000D02*
X179620000Y-92467000D01*
X179620000Y-94533000D02*
X179620000Y-94870000D01*
X179620000Y-94870000D02*
X174380000Y-94870000D01*
X118440000Y-58930000D02*
X118440000Y-89530000D01*
X118440000Y-89530000D02*
X122940000Y-89530000D01*
X119690000Y-58930000D02*
X118440000Y-58930000D01*
X122940000Y-58930000D02*
X121690000Y-58930000D01*
X122940000Y-89530000D02*
X122940000Y-58930000D01*
X115440000Y-58870000D02*
X125940000Y-58870000D01*
X125940000Y-89590000D01*
X115440000Y-89590000D01*
X115440000Y-58870000D01*
X121690000Y-58930000D02*
G75*
G02*
X119690000Y-58930000I-1000000J0D01*
G01*
X168120000Y-51040000D02*
X169500000Y-51040000D01*
X168120000Y-52420000D02*
X168120000Y-51040000D01*
X168120000Y-53690000D02*
X168120000Y-56340000D01*
X168120000Y-53690000D02*
X170880000Y-53690000D01*
X168120000Y-56340000D02*
X170880000Y-56340000D01*
X170880000Y-53690000D02*
X170880000Y-56340000D01*
X183940000Y-81170000D02*
X183940000Y-91450000D01*
X183940000Y-91450000D02*
X188440000Y-91450000D01*
X185190000Y-81170000D02*
X183940000Y-81170000D01*
X188440000Y-81170000D02*
X187190000Y-81170000D01*
X188440000Y-91450000D02*
X188440000Y-81170000D01*
X180940000Y-81110000D02*
X191440000Y-81110000D01*
X191440000Y-91510000D01*
X180940000Y-91510000D01*
X180940000Y-81110000D01*
X187190000Y-81170000D02*
G75*
G02*
X185190000Y-81170000I-1000000J0D01*
G01*
X188380000Y-56630000D02*
X193620000Y-56630000D01*
X188380000Y-56967000D02*
X188380000Y-56630000D01*
X188380000Y-59370000D02*
X188380000Y-59033000D01*
X193620000Y-56630000D02*
X193620000Y-56967000D01*
X193620000Y-59033000D02*
X193620000Y-59370000D01*
X193620000Y-59370000D02*
X188380000Y-59370000D01*
X183440000Y-61670000D02*
X183440000Y-71950000D01*
X183440000Y-71950000D02*
X187940000Y-71950000D01*
X184690000Y-61670000D02*
X183440000Y-61670000D01*
X187940000Y-61670000D02*
X186690000Y-61670000D01*
X187940000Y-71950000D02*
X187940000Y-61670000D01*
X180440000Y-61610000D02*
X190940000Y-61610000D01*
X190940000Y-72010000D01*
X180440000Y-72010000D01*
X180440000Y-61610000D01*
X186690000Y-61670000D02*
G75*
G02*
X184690000Y-61670000I-1000000J0D01*
G01*
X117880000Y-53630000D02*
X123120000Y-53630000D01*
X117880000Y-53967000D02*
X117880000Y-53630000D01*
X117880000Y-56370000D02*
X117880000Y-56033000D01*
X123120000Y-53630000D02*
X123120000Y-53967000D01*
X123120000Y-56033000D02*
X123120000Y-56370000D01*
X123120000Y-56370000D02*
X117880000Y-56370000D01*
X116380000Y-103630000D02*
X121620000Y-103630000D01*
X116380000Y-103967000D02*
X116380000Y-103630000D01*
X116380000Y-106370000D02*
X116380000Y-106033000D01*
X121620000Y-103630000D02*
X121620000Y-103967000D01*
X121620000Y-106033000D02*
X121620000Y-106370000D01*
X121620000Y-106370000D02*
X116380000Y-106370000D01*
X169500000Y-62540000D02*
X169500000Y-63230000D01*
X169500000Y-73160000D02*
X169500000Y-72470000D01*
X171220000Y-63230000D02*
X167780000Y-63230000D01*
X167780000Y-72470000D01*
X171220000Y-72470000D01*
X171220000Y-63230000D01*
X178820000Y-97170000D02*
X178820000Y-137930000D01*
X178820000Y-137930000D02*
X190940000Y-137930000D01*
X183880000Y-97170000D02*
X178820000Y-97170000D01*
X190940000Y-97170000D02*
X185880000Y-97170000D01*
X190940000Y-137930000D02*
X190940000Y-97170000D01*
X175820000Y-97110000D02*
X193940000Y-97110000D01*
X193940000Y-137990000D01*
X175820000Y-137990000D01*
X175820000Y-97110000D01*
X185880000Y-97170000D02*
G75*
G02*
X183880000Y-97170000I-1000000J0D01*
G01*
X120060000Y-108670000D02*
X120060000Y-134190000D01*
X120060000Y-134190000D02*
X124560000Y-134190000D01*
X121310000Y-108670000D02*
X120060000Y-108670000D01*
X124560000Y-108670000D02*
X123310000Y-108670000D01*
X124560000Y-134190000D02*
X124560000Y-108670000D01*
X117060000Y-108610000D02*
X127560000Y-108610000D01*
X127560000Y-134250000D01*
X117060000Y-134250000D01*
X117060000Y-108610000D01*
X123310000Y-108670000D02*
G75*
G02*
X121310000Y-108670000I-1000000J0D01*
G01*
X148880000Y-49130000D02*
X154120000Y-49130000D01*
X148880000Y-49467000D02*
X148880000Y-49130000D01*
X148880000Y-51870000D02*
X148880000Y-51533000D01*
X154120000Y-49130000D02*
X154120000Y-49467000D01*
X154120000Y-51533000D02*
X154120000Y-51870000D01*
X154120000Y-51870000D02*
X148880000Y-51870000D01*
X152440000Y-54170000D02*
X152440000Y-74610000D01*
X152440000Y-74610000D02*
X156940000Y-74610000D01*
X153690000Y-54170000D02*
X152440000Y-54170000D01*
X156940000Y-54170000D02*
X155690000Y-54170000D01*
X156940000Y-74610000D02*
X156940000Y-54170000D01*
X149440000Y-54110000D02*
X159940000Y-54110000D01*
X159940000Y-74670000D01*
X149440000Y-74670000D01*
X149440000Y-54110000D01*
X155690000Y-54170000D02*
G75*
G02*
X153690000Y-54170000I-1000000J0D01*
G01*
X161850000Y-86610000D02*
X161850000Y-85230000D01*
X163230000Y-86610000D02*
X161850000Y-86610000D01*
X164500000Y-83850000D02*
X169690000Y-83850000D01*
X164500000Y-86610000D02*
X164500000Y-83850000D01*
X164500000Y-86610000D02*
X169690000Y-86610000D01*
X169690000Y-86610000D02*
X169690000Y-83850000D01*
X130880000Y-49130000D02*
X136120000Y-49130000D01*
X130880000Y-49467000D02*
X130880000Y-49130000D01*
X130880000Y-51870000D02*
X130880000Y-51533000D01*
X136120000Y-49130000D02*
X136120000Y-49467000D01*
X136120000Y-51533000D02*
X136120000Y-51870000D01*
X136120000Y-51870000D02*
X130880000Y-51870000D01*
%LPC*%
D12*
X130260000Y-55500000D03*
D13*
X130260000Y-58040000D03*
X130260000Y-60580000D03*
X130260000Y-63120000D03*
X130260000Y-65660000D03*
X130260000Y-68200000D03*
X130260000Y-70740000D03*
X130260000Y-73280000D03*
X130260000Y-75820000D03*
X130260000Y-78360000D03*
X130260000Y-80900000D03*
X130260000Y-83440000D03*
X130260000Y-85980000D03*
X130260000Y-88520000D03*
X130260000Y-91060000D03*
X130260000Y-93600000D03*
X130260000Y-96140000D03*
X130260000Y-98680000D03*
X130260000Y-101220000D03*
X130260000Y-103760000D03*
X145500000Y-103760000D03*
X145500000Y-101220000D03*
X145500000Y-98680000D03*
X145500000Y-96140000D03*
X145500000Y-93600000D03*
X145500000Y-91060000D03*
X145500000Y-88520000D03*
X145500000Y-85980000D03*
X145500000Y-83440000D03*
X145500000Y-80900000D03*
X145500000Y-78360000D03*
X145500000Y-75820000D03*
X145500000Y-73280000D03*
X145500000Y-70740000D03*
X145500000Y-68200000D03*
X145500000Y-65660000D03*
X145500000Y-63120000D03*
X145500000Y-60580000D03*
X145500000Y-58040000D03*
X145500000Y-55500000D03*
D14*
X192532000Y-50419000D03*
X192532000Y-142621000D03*
X106172000Y-50419000D03*
X106172000Y-142621000D03*
D15*
X99187000Y-140970000D03*
X99187000Y-52070000D03*
D16*
X101727000Y-135890000D03*
D17*
X101727000Y-133350000D03*
X101727000Y-130810000D03*
X101727000Y-128270000D03*
X101727000Y-125730000D03*
X101727000Y-123190000D03*
X101727000Y-120650000D03*
X101727000Y-118110000D03*
X101727000Y-115570000D03*
X101727000Y-113030000D03*
X101727000Y-110490000D03*
X101727000Y-107950000D03*
X101727000Y-105410000D03*
X101727000Y-102870000D03*
X101727000Y-100330000D03*
X101727000Y-97790000D03*
X101727000Y-95250000D03*
X101727000Y-92710000D03*
X101727000Y-90170000D03*
X101727000Y-87630000D03*
X101727000Y-85090000D03*
X101727000Y-82550000D03*
X101727000Y-80010000D03*
X101727000Y-77470000D03*
X101727000Y-74930000D03*
X101727000Y-72390000D03*
X101727000Y-69850000D03*
X101727000Y-67310000D03*
X101727000Y-64770000D03*
X101727000Y-62230000D03*
X101727000Y-59690000D03*
X101727000Y-57150000D03*
X106807000Y-135890000D03*
X106807000Y-133350000D03*
X106807000Y-130810000D03*
X106807000Y-128270000D03*
X106807000Y-125730000D03*
X106807000Y-123190000D03*
X106807000Y-120650000D03*
X106807000Y-118110000D03*
X106807000Y-115570000D03*
X106807000Y-113030000D03*
X106807000Y-110490000D03*
X106807000Y-107950000D03*
X106807000Y-105410000D03*
X106807000Y-102870000D03*
X106807000Y-100330000D03*
X106807000Y-97790000D03*
X106807000Y-95250000D03*
X106807000Y-92710000D03*
X106807000Y-90170000D03*
X106807000Y-87630000D03*
X106807000Y-85090000D03*
X106807000Y-82550000D03*
X106807000Y-80010000D03*
X106807000Y-77470000D03*
X106807000Y-74930000D03*
X106807000Y-72390000D03*
X106807000Y-69850000D03*
X106807000Y-67310000D03*
X106807000Y-64770000D03*
X106807000Y-62230000D03*
X106807000Y-59690000D03*
X106807000Y-57150000D03*
D18*
X177690000Y-50920000D03*
X185310000Y-50920000D03*
X177690000Y-56000000D03*
X185310000Y-56000000D03*
D19*
X180500000Y-77500000D03*
X185500000Y-77500000D03*
D12*
X156260000Y-98500000D03*
D13*
X156260000Y-101040000D03*
X156260000Y-103580000D03*
X156260000Y-106120000D03*
X156260000Y-108660000D03*
X156260000Y-111200000D03*
X156260000Y-113740000D03*
X156260000Y-116280000D03*
X156260000Y-118820000D03*
X156260000Y-121360000D03*
X156260000Y-123900000D03*
X156260000Y-126440000D03*
X156260000Y-128980000D03*
X156260000Y-131520000D03*
X156260000Y-134060000D03*
X156260000Y-136600000D03*
X171500000Y-136600000D03*
X171500000Y-134060000D03*
X171500000Y-131520000D03*
X171500000Y-128980000D03*
X171500000Y-126440000D03*
X171500000Y-123900000D03*
X171500000Y-121360000D03*
X171500000Y-118820000D03*
X171500000Y-116280000D03*
X171500000Y-113740000D03*
X171500000Y-111200000D03*
X171500000Y-108660000D03*
X171500000Y-106120000D03*
X171500000Y-103580000D03*
X171500000Y-101040000D03*
X171500000Y-98500000D03*
D19*
X158000000Y-93500000D03*
X163000000Y-93500000D03*
X174500000Y-93500000D03*
X179500000Y-93500000D03*
D12*
X116880000Y-60260000D03*
D13*
X116880000Y-62800000D03*
X116880000Y-65340000D03*
X116880000Y-67880000D03*
X116880000Y-70420000D03*
X116880000Y-72960000D03*
X116880000Y-75500000D03*
X116880000Y-78040000D03*
X116880000Y-80580000D03*
X116880000Y-83120000D03*
X116880000Y-85660000D03*
X116880000Y-88200000D03*
X124500000Y-88200000D03*
X124500000Y-85660000D03*
X124500000Y-83120000D03*
X124500000Y-80580000D03*
X124500000Y-78040000D03*
X124500000Y-75500000D03*
X124500000Y-72960000D03*
X124500000Y-70420000D03*
X124500000Y-67880000D03*
X124500000Y-65340000D03*
X124500000Y-62800000D03*
X124500000Y-60260000D03*
D20*
X169500000Y-52420000D03*
D21*
X169500000Y-54960000D03*
D12*
X182380000Y-82500000D03*
D13*
X182380000Y-85040000D03*
X182380000Y-87580000D03*
X182380000Y-90120000D03*
X190000000Y-90120000D03*
X190000000Y-87580000D03*
X190000000Y-85040000D03*
X190000000Y-82500000D03*
D19*
X188500000Y-58000000D03*
X193500000Y-58000000D03*
D12*
X181880000Y-63000000D03*
D13*
X181880000Y-70620000D03*
X189500000Y-70620000D03*
X189500000Y-63000000D03*
D19*
X118000000Y-55000000D03*
X123000000Y-55000000D03*
X116500000Y-105000000D03*
X121500000Y-105000000D03*
X169500000Y-61500000D03*
X169500000Y-74200000D03*
D12*
X177260000Y-98500000D03*
D13*
X177260000Y-101040000D03*
X177260000Y-103580000D03*
X177260000Y-106120000D03*
X177260000Y-108660000D03*
X177260000Y-111200000D03*
X177260000Y-113740000D03*
X177260000Y-116280000D03*
X177260000Y-118820000D03*
X177260000Y-121360000D03*
X177260000Y-123900000D03*
X177260000Y-126440000D03*
X177260000Y-128980000D03*
X177260000Y-131520000D03*
X177260000Y-134060000D03*
X177260000Y-136600000D03*
X192500000Y-136600000D03*
X192500000Y-134060000D03*
X192500000Y-131520000D03*
X192500000Y-128980000D03*
X192500000Y-126440000D03*
X192500000Y-123900000D03*
X192500000Y-121360000D03*
X192500000Y-118820000D03*
X192500000Y-116280000D03*
X192500000Y-113740000D03*
X192500000Y-111200000D03*
X192500000Y-108660000D03*
X192500000Y-106120000D03*
X192500000Y-103580000D03*
X192500000Y-101040000D03*
X192500000Y-98500000D03*
D12*
X118500000Y-110000000D03*
D13*
X118500000Y-112540000D03*
X118500000Y-115080000D03*
X118500000Y-117620000D03*
X118500000Y-120160000D03*
X118500000Y-122700000D03*
X118500000Y-125240000D03*
X118500000Y-127780000D03*
X118500000Y-130320000D03*
X118500000Y-132860000D03*
X126120000Y-132860000D03*
X126120000Y-130320000D03*
X126120000Y-127780000D03*
X126120000Y-125240000D03*
X126120000Y-122700000D03*
X126120000Y-120160000D03*
X126120000Y-117620000D03*
X126120000Y-115080000D03*
X126120000Y-112540000D03*
X126120000Y-110000000D03*
D19*
X154000000Y-50500000D03*
X149000000Y-50500000D03*
D12*
X150880000Y-55500000D03*
D13*
X150880000Y-58040000D03*
X150880000Y-60580000D03*
X150880000Y-63120000D03*
X150880000Y-65660000D03*
X150880000Y-68200000D03*
X150880000Y-70740000D03*
X150880000Y-73280000D03*
X158500000Y-73280000D03*
X158500000Y-70740000D03*
X158500000Y-68200000D03*
X158500000Y-65660000D03*
X158500000Y-63120000D03*
X158500000Y-60580000D03*
X158500000Y-58040000D03*
X158500000Y-55500000D03*
D20*
X163230000Y-85230000D03*
D21*
X165770000Y-85230000D03*
X168310000Y-85230000D03*
D19*
X131000000Y-50500000D03*
X136000000Y-50500000D03*
%LPD*%
M02*
