M48
; DRILL file {KiCad 9.0.6} date 2025-12-29T15:57:46+1100
; FORMAT={-:-/ absolute / metric / decimal}
; #@! TF.CreationDate,2025-12-29T15:57:46+11:00
; #@! TF.GenerationSoftware,Kicad,Pcbnew,9.0.6
; #@! TF.FileFunction,Plated,1,2,PTH
FMAT,2
METRIC
; #@! TA.AperFunction,Plated,PTH,ViaDrill
T1C0.400
; #@! TA.AperFunction,Plated,PTH,ComponentDrill
T2C0.800
; #@! TA.AperFunction,Plated,PTH,ComponentDrill
T3C0.813
; #@! TA.AperFunction,Plated,PTH,ComponentDrill
T4C1.000
%
G90
G05
T1
X105.073Y-59.413
X105.073Y-127.846
X108.249Y-67.791
X108.675Y-81.888
X110.493Y-68.085
X113.731Y-107.283
X114.842Y-60.59
X115.289Y-123.808
X117.014Y-95.014
X120.148Y-60.675
X120.211Y-131.799
X120.235Y-72.627
X121.019Y-59.785
X121.636Y-67.034
X121.823Y-63.218
X121.924Y-98.942
X122.287Y-77.853
X122.315Y-69.283
X122.52Y-116.392
X123.88Y-125.741
X124.101Y-132.201
X124.407Y-126.93
X124.627Y-113.81
X126.703Y-90.594
X126.791Y-68.7
X127.496Y-75.981
X127.704Y-84.021
X128.184Y-80.8
X128.192Y-97.345
X128.824Y-79.454
X128.837Y-116.921
X129.181Y-118.675
X131.814Y-128.067
X132.261Y-123.138
X133.137Y-110.347
X133.678Y-67.419
X133.96Y-75.831
X134.075Y-108.963
X134.076Y-83.408
X134.076Y-88.064
X134.39Y-121.087
X134.546Y-115.481
X137.225Y-122.078
X137.837Y-81.615
X143.133Y-112.922
X143.442Y-57.365
X144.507Y-126.931
X145.184Y-112.104
X147.193Y-138.405
X147.217Y-87.351
X148.191Y-120.924
X148.317Y-57.474
X148.355Y-137.845
X148.393Y-94.406
X148.845Y-69.094
X149.233Y-78.361
X149.4Y-82.222
X151.307Y-93.702
X151.429Y-116.442
X151.768Y-86.902
X151.777Y-118.232
X153.386Y-105.459
X153.934Y-130.121
X154.465Y-117.852
X154.781Y-84.273
X155.469Y-92.009
X158.701Y-79.219
X160.624Y-101.243
X163.265Y-56.604
X163.522Y-95.8
X167.368Y-124.881
X167.589Y-138.517
X167.589Y-140.8
X168.889Y-118.724
X175.004Y-90.52
X175.23Y-124.286
X175.759Y-82.223
X184.806Y-86.678
X192.152Y-72.531
X195.271Y-83.055
T2
X116.5Y-105.0
X118.0Y-55.0
X118.5Y-110.0
X118.5Y-112.54
X118.5Y-115.08
X118.5Y-117.62
X118.5Y-120.16
X118.5Y-122.7
X118.5Y-125.24
X118.5Y-127.78
X118.5Y-130.32
X118.5Y-132.86
X121.5Y-105.0
X123.0Y-55.0
X126.12Y-110.0
X126.12Y-112.54
X126.12Y-115.08
X126.12Y-117.62
X126.12Y-120.16
X126.12Y-122.7
X126.12Y-125.24
X126.12Y-127.78
X126.12Y-130.32
X126.12Y-132.86
X130.26Y-55.5
X130.26Y-58.04
X130.26Y-60.58
X130.26Y-63.12
X130.26Y-65.66
X130.26Y-68.2
X130.26Y-70.74
X130.26Y-73.28
X130.26Y-75.82
X130.26Y-78.36
X130.26Y-80.9
X130.26Y-83.44
X130.26Y-85.98
X130.26Y-88.52
X130.26Y-91.06
X130.26Y-93.6
X130.26Y-96.14
X130.26Y-98.68
X130.26Y-101.22
X130.26Y-103.76
X131.0Y-50.5
X136.0Y-50.5
X145.5Y-55.5
X145.5Y-58.04
X145.5Y-60.58
X145.5Y-63.12
X145.5Y-65.66
X145.5Y-68.2
X145.5Y-70.74
X145.5Y-73.28
X145.5Y-75.82
X145.5Y-78.36
X145.5Y-80.9
X145.5Y-83.44
X145.5Y-85.98
X145.5Y-88.52
X145.5Y-91.06
X145.5Y-93.6
X145.5Y-96.14
X145.5Y-98.68
X145.5Y-101.22
X145.5Y-103.76
X149.0Y-50.5
X150.88Y-55.5
X150.88Y-58.04
X150.88Y-60.58
X150.88Y-63.12
X150.88Y-65.66
X150.88Y-68.2
X150.88Y-70.74
X150.88Y-73.28
X154.0Y-50.5
X156.26Y-98.5
X156.26Y-101.04
X156.26Y-103.58
X156.26Y-106.12
X156.26Y-108.66
X156.26Y-111.2
X156.26Y-113.74
X156.26Y-116.28
X156.26Y-118.82
X156.26Y-121.36
X156.26Y-123.9
X156.26Y-126.44
X156.26Y-128.98
X156.26Y-131.52
X156.26Y-134.06
X156.26Y-136.6
X158.0Y-93.5
X158.5Y-55.5
X158.5Y-58.04
X158.5Y-60.58
X158.5Y-63.12
X158.5Y-65.66
X158.5Y-68.2
X158.5Y-70.74
X158.5Y-73.28
X163.0Y-93.5
X169.5Y-61.5
X169.5Y-74.2
X171.5Y-98.5
X171.5Y-101.04
X171.5Y-103.58
X171.5Y-106.12
X171.5Y-108.66
X171.5Y-111.2
X171.5Y-113.74
X171.5Y-116.28
X171.5Y-118.82
X171.5Y-121.36
X171.5Y-123.9
X171.5Y-126.44
X171.5Y-128.98
X171.5Y-131.52
X171.5Y-134.06
X171.5Y-136.6
X174.5Y-93.5
X177.26Y-98.5
X177.26Y-101.04
X177.26Y-103.58
X177.26Y-106.12
X177.26Y-108.66
X177.26Y-111.2
X177.26Y-113.74
X177.26Y-116.28
X177.26Y-118.82
X177.26Y-121.36
X177.26Y-123.9
X177.26Y-126.44
X177.26Y-128.98
X177.26Y-131.52
X177.26Y-134.06
X177.26Y-136.6
X179.5Y-93.5
X180.5Y-77.5
X181.88Y-63.0
X181.88Y-70.62
X182.38Y-82.5
X182.38Y-85.04
X182.38Y-87.58
X182.38Y-90.12
X185.5Y-77.5
X188.5Y-58.0
X189.5Y-63.0
X189.5Y-70.62
X190.0Y-82.5
X190.0Y-85.04
X190.0Y-87.58
X190.0Y-90.12
X192.5Y-98.5
X192.5Y-101.04
X192.5Y-103.58
X192.5Y-106.12
X192.5Y-108.66
X192.5Y-111.2
X192.5Y-113.74
X192.5Y-116.28
X192.5Y-118.82
X192.5Y-121.36
X192.5Y-123.9
X192.5Y-126.44
X192.5Y-128.98
X192.5Y-131.52
X192.5Y-134.06
X192.5Y-136.6
X193.5Y-58.0
T3
X177.69Y-50.92
X177.69Y-56.0
X185.31Y-50.92
X185.31Y-56.0
T4
X101.727Y-57.15
X101.727Y-59.69
X101.727Y-62.23
X101.727Y-64.77
X101.727Y-67.31
X101.727Y-69.85
X101.727Y-72.39
X101.727Y-74.93
X101.727Y-77.47
X101.727Y-80.01
X101.727Y-82.55
X101.727Y-85.09
X101.727Y-87.63
X101.727Y-90.17
X101.727Y-92.71
X101.727Y-95.25
X101.727Y-97.79
X101.727Y-100.33
X101.727Y-102.87
X101.727Y-105.41
X101.727Y-107.95
X101.727Y-110.49
X101.727Y-113.03
X101.727Y-115.57
X101.727Y-118.11
X101.727Y-120.65
X101.727Y-123.19
X101.727Y-125.73
X101.727Y-128.27
X101.727Y-130.81
X101.727Y-133.35
X101.727Y-135.89
X106.807Y-57.15
X106.807Y-59.69
X106.807Y-62.23
X106.807Y-64.77
X106.807Y-67.31
X106.807Y-69.85
X106.807Y-72.39
X106.807Y-74.93
X106.807Y-77.47
X106.807Y-80.01
X106.807Y-82.55
X106.807Y-85.09
X106.807Y-87.63
X106.807Y-90.17
X106.807Y-92.71
X106.807Y-95.25
X106.807Y-97.79
X106.807Y-100.33
X106.807Y-102.87
X106.807Y-105.41
X106.807Y-107.95
X106.807Y-110.49
X106.807Y-113.03
X106.807Y-115.57
X106.807Y-118.11
X106.807Y-120.65
X106.807Y-123.19
X106.807Y-125.73
X106.807Y-128.27
X106.807Y-130.81
X106.807Y-133.35
X106.807Y-135.89
X116.88Y-60.26
X116.88Y-62.8
X116.88Y-65.34
X116.88Y-67.88
X116.88Y-70.42
X116.88Y-72.96
X116.88Y-75.5
X116.88Y-78.04
X116.88Y-80.58
X116.88Y-83.12
X116.88Y-85.66
X116.88Y-88.2
X124.5Y-60.26
X124.5Y-62.8
X124.5Y-65.34
X124.5Y-67.88
X124.5Y-70.42
X124.5Y-72.96
X124.5Y-75.5
X124.5Y-78.04
X124.5Y-80.58
X124.5Y-83.12
X124.5Y-85.66
X124.5Y-88.2
X163.23Y-85.23
X165.77Y-85.23
X168.31Y-85.23
X169.5Y-52.42
X169.5Y-54.96
M30
