M48
; DRILL file {KiCad 9.0.5} date 2025-12-18T09:10:14+1100
; FORMAT={-:-/ absolute / metric / decimal}
; #@! TF.CreationDate,2025-12-18T09:10:14+11:00
; #@! TF.GenerationSoftware,Kicad,Pcbnew,9.0.5
; #@! TF.FileFunction,Plated,1,2,PTH
FMAT,2
METRIC
; #@! TA.AperFunction,Plated,PTH,ViaDrill
T1C0.400
; #@! TA.AperFunction,Plated,PTH,ComponentDrill
T2C0.800
; #@! TA.AperFunction,Plated,PTH,ComponentDrill
T3C0.813
; #@! TA.AperFunction,Plated,PTH,ComponentDrill
T4C1.000
%
G90
G05
T1
X103.308Y-77.538
X109.668Y-127.853
X110.136Y-82.587
X110.153Y-136.644
X110.18Y-66.463
X110.18Y-125.886
X113.731Y-75.361
X114.805Y-74.288
X115.067Y-88.265
X116.095Y-68.537
X116.663Y-101.512
X116.783Y-67.165
X117.307Y-109.387
X122.372Y-75.667
X122.372Y-78.759
X122.446Y-105.416
X123.62Y-107.577
X125.094Y-78.088
X129.926Y-113.171
X132.966Y-87.001
X135.578Y-122.89
X136.225Y-83.055
X141.522Y-83.134
X141.527Y-106.126
X141.527Y-116.8
X141.654Y-79.344
X141.844Y-84.466
X141.944Y-86.283
X141.96Y-92.1
X142.029Y-118.85
X142.055Y-90.749
X143.064Y-92.291
X143.495Y-111.402
X144.507Y-121.803
X144.534Y-114.219
X145.045Y-84.016
X146.634Y-124.897
X146.965Y-126.748
X147.781Y-74.562
X148.355Y-138.204
X148.915Y-125.558
X149.476Y-132.125
X150.761Y-79.215
X152.201Y-134.174
X152.475Y-59.826
X153.335Y-110.769
X153.817Y-130.754
X155.963Y-82.51
X156.048Y-137.038
X163.243Y-128.144
X164.183Y-133.066
X171.436Y-90.749
X175.219Y-75.263
T2
X119.38Y-57.5
X119.38Y-60.04
X119.38Y-62.58
X119.38Y-65.12
X119.38Y-67.66
X119.38Y-70.2
X119.38Y-72.74
X119.38Y-75.28
X119.38Y-77.82
X119.38Y-80.36
X119.38Y-82.9
X119.38Y-85.44
X119.76Y-100.68
X119.76Y-103.22
X119.76Y-105.76
X119.76Y-108.3
X119.76Y-110.84
X119.76Y-113.38
X119.76Y-115.92
X119.76Y-118.46
X119.76Y-121.0
X119.76Y-123.54
X119.76Y-126.08
X119.76Y-128.62
X119.76Y-131.16
X119.76Y-133.7
X119.76Y-136.24
X119.76Y-138.78
X120.5Y-51.0
X120.5Y-94.0
X125.5Y-51.0
X125.5Y-94.0
X127.0Y-57.5
X127.0Y-60.04
X127.0Y-62.58
X127.0Y-65.12
X127.0Y-67.66
X127.0Y-70.2
X127.0Y-72.74
X127.0Y-75.28
X127.0Y-77.82
X127.0Y-80.36
X127.0Y-82.9
X127.0Y-85.44
X127.38Y-100.68
X127.38Y-103.22
X127.38Y-105.76
X127.38Y-108.3
X127.38Y-110.84
X127.38Y-113.38
X127.38Y-115.92
X127.38Y-118.46
X127.38Y-121.0
X127.38Y-123.54
X127.38Y-126.08
X127.38Y-128.62
X127.38Y-131.16
X127.38Y-133.7
X127.38Y-136.24
X127.38Y-138.78
X138.76Y-55.84
X138.76Y-58.38
X138.76Y-60.92
X138.76Y-63.46
X138.76Y-66.0
X138.76Y-68.54
X138.76Y-71.08
X138.76Y-73.62
X138.76Y-76.16
X138.76Y-78.7
X138.76Y-81.24
X138.76Y-83.78
X138.76Y-86.32
X138.76Y-88.86
X138.76Y-91.4
X138.76Y-93.94
X138.76Y-96.48
X138.76Y-99.02
X138.76Y-101.56
X138.76Y-104.1
X139.5Y-50.6
X144.5Y-50.6
X154.0Y-55.84
X154.0Y-58.38
X154.0Y-60.92
X154.0Y-63.46
X154.0Y-66.0
X154.0Y-68.54
X154.0Y-71.08
X154.0Y-73.62
X154.0Y-76.16
X154.0Y-78.7
X154.0Y-81.24
X154.0Y-83.78
X154.0Y-86.32
X154.0Y-88.86
X154.0Y-91.4
X154.0Y-93.94
X154.0Y-96.48
X154.0Y-99.02
X154.0Y-101.56
X154.0Y-104.1
X161.5Y-106.5
X161.5Y-109.04
X161.5Y-111.58
X161.5Y-114.12
X161.5Y-116.66
X161.5Y-119.2
X161.5Y-121.74
X161.5Y-124.28
X161.5Y-126.82
X161.5Y-129.36
X161.5Y-131.9
X161.5Y-134.44
X161.5Y-136.98
X161.5Y-139.52
X163.0Y-64.5
X163.0Y-67.04
X163.0Y-69.58
X163.0Y-72.12
X163.0Y-74.66
X163.0Y-77.2
X163.0Y-79.74
X163.0Y-82.28
X163.0Y-84.82
X163.0Y-101.0
X168.0Y-101.0
X173.5Y-72.5
X173.88Y-79.0
X173.88Y-81.54
X173.88Y-84.08
X173.88Y-86.62
X176.74Y-106.5
X176.74Y-109.04
X176.74Y-111.58
X176.74Y-114.12
X176.74Y-116.66
X176.74Y-119.2
X176.74Y-121.74
X176.74Y-124.28
X176.74Y-126.82
X176.74Y-129.36
X176.74Y-131.9
X176.74Y-134.44
X176.74Y-136.98
X176.74Y-139.52
X178.5Y-72.5
X181.5Y-79.0
X181.5Y-81.54
X181.5Y-84.08
X181.5Y-86.62
T3
X182.38Y-60.92
X182.38Y-66.0
X190.0Y-60.92
X190.0Y-66.0
T4
X101.727Y-57.15
X101.727Y-59.69
X101.727Y-62.23
X101.727Y-64.77
X101.727Y-67.31
X101.727Y-69.85
X101.727Y-72.39
X101.727Y-74.93
X101.727Y-77.47
X101.727Y-80.01
X101.727Y-82.55
X101.727Y-85.09
X101.727Y-87.63
X101.727Y-90.17
X101.727Y-92.71
X101.727Y-95.25
X101.727Y-97.79
X101.727Y-100.33
X101.727Y-102.87
X101.727Y-105.41
X101.727Y-107.95
X101.727Y-110.49
X101.727Y-113.03
X101.727Y-115.57
X101.727Y-118.11
X101.727Y-120.65
X101.727Y-123.19
X101.727Y-125.73
X101.727Y-128.27
X101.727Y-130.81
X101.727Y-133.35
X101.727Y-135.89
X106.807Y-57.15
X106.807Y-59.69
X106.807Y-62.23
X106.807Y-64.77
X106.807Y-67.31
X106.807Y-69.85
X106.807Y-72.39
X106.807Y-74.93
X106.807Y-77.47
X106.807Y-80.01
X106.807Y-82.55
X106.807Y-85.09
X106.807Y-87.63
X106.807Y-90.17
X106.807Y-92.71
X106.807Y-95.25
X106.807Y-97.79
X106.807Y-100.33
X106.807Y-102.87
X106.807Y-105.41
X106.807Y-107.95
X106.807Y-110.49
X106.807Y-113.03
X106.807Y-115.57
X106.807Y-118.11
X106.807Y-120.65
X106.807Y-123.19
X106.807Y-125.73
X106.807Y-128.27
X106.807Y-130.81
X106.807Y-133.35
X106.807Y-135.89
X184.5Y-106.92
X184.5Y-109.46
X184.5Y-112.0
X188.5Y-82.96
X188.5Y-85.5
M30
