G04 #@! TF.GenerationSoftware,KiCad,Pcbnew,9.0.5*
G04 #@! TF.CreationDate,2025-12-18T09:10:18+11:00*
G04 #@! TF.ProjectId,MECB_6800_CPU,4d454342-5f36-4383-9030-5f4350552e6b,1.0*
G04 #@! TF.SameCoordinates,Original*
G04 #@! TF.FileFunction,Soldermask,Top*
G04 #@! TF.FilePolarity,Negative*
%FSLAX46Y46*%
G04 Gerber Fmt 4.6, Leading zero omitted, Abs format (unit mm)*
G04 Created by KiCad (PCBNEW 9.0.5) date 2025-12-18 09:10:18*
%MOMM*%
%LPD*%
G01*
G04 APERTURE LIST*
G04 Aperture macros list*
%AMRoundRect*
0 Rectangle with rounded corners*
0 $1 Rounding radius*
0 $2 $3 $4 $5 $6 $7 $8 $9 X,Y pos of 4 corners*
0 Add a 4 corners polygon primitive as box body*
4,1,4,$2,$3,$4,$5,$6,$7,$8,$9,$2,$3,0*
0 Add four circle primitives for the rounded corners*
1,1,$1+$1,$2,$3*
1,1,$1+$1,$4,$5*
1,1,$1+$1,$6,$7*
1,1,$1+$1,$8,$9*
0 Add four rect primitives between the rounded corners*
20,1,$1+$1,$2,$3,$4,$5,0*
20,1,$1+$1,$4,$5,$6,$7,0*
20,1,$1+$1,$6,$7,$8,$9,0*
20,1,$1+$1,$8,$9,$2,$3,0*%
G04 Aperture macros list end*
%ADD10R,1.600000X1.600000*%
%ADD11O,1.600000X1.600000*%
%ADD12C,3.200000*%
%ADD13C,2.850000*%
%ADD14RoundRect,0.249550X0.525450X-0.525450X0.525450X0.525450X-0.525450X0.525450X-0.525450X-0.525450X0*%
%ADD15C,1.550000*%
%ADD16RoundRect,0.250000X-0.950000X-0.550000X0.950000X-0.550000X0.950000X0.550000X-0.950000X0.550000X0*%
%ADD17O,2.400000X1.600000*%
%ADD18C,1.600000*%
%ADD19C,1.397000*%
%ADD20R,1.700000X1.700000*%
%ADD21C,1.700000*%
G04 APERTURE END LIST*
D10*
X119760000Y-100680000D03*
D11*
X119760000Y-103220000D03*
X119760000Y-105760000D03*
X119760000Y-108300000D03*
X119760000Y-110840000D03*
X119760000Y-113380000D03*
X119760000Y-115920000D03*
X119760000Y-118460000D03*
X119760000Y-121000000D03*
X119760000Y-123540000D03*
X119760000Y-126080000D03*
X119760000Y-128620000D03*
X119760000Y-131160000D03*
X119760000Y-133700000D03*
X119760000Y-136240000D03*
X119760000Y-138780000D03*
X127380000Y-138780000D03*
X127380000Y-136240000D03*
X127380000Y-133700000D03*
X127380000Y-131160000D03*
X127380000Y-128620000D03*
X127380000Y-126080000D03*
X127380000Y-123540000D03*
X127380000Y-121000000D03*
X127380000Y-118460000D03*
X127380000Y-115920000D03*
X127380000Y-113380000D03*
X127380000Y-110840000D03*
X127380000Y-108300000D03*
X127380000Y-105760000D03*
X127380000Y-103220000D03*
X127380000Y-100680000D03*
D12*
X192532000Y-50419000D03*
X192532000Y-142621000D03*
X106172000Y-50419000D03*
X106172000Y-142621000D03*
D13*
X99187000Y-140970000D03*
X99187000Y-52070000D03*
D14*
X101727000Y-135890000D03*
D15*
X101727000Y-133350000D03*
X101727000Y-130810000D03*
X101727000Y-128270000D03*
X101727000Y-125730000D03*
X101727000Y-123190000D03*
X101727000Y-120650000D03*
X101727000Y-118110000D03*
X101727000Y-115570000D03*
X101727000Y-113030000D03*
X101727000Y-110490000D03*
X101727000Y-107950000D03*
X101727000Y-105410000D03*
X101727000Y-102870000D03*
X101727000Y-100330000D03*
X101727000Y-97790000D03*
X101727000Y-95250000D03*
X101727000Y-92710000D03*
X101727000Y-90170000D03*
X101727000Y-87630000D03*
X101727000Y-85090000D03*
X101727000Y-82550000D03*
X101727000Y-80010000D03*
X101727000Y-77470000D03*
X101727000Y-74930000D03*
X101727000Y-72390000D03*
X101727000Y-69850000D03*
X101727000Y-67310000D03*
X101727000Y-64770000D03*
X101727000Y-62230000D03*
X101727000Y-59690000D03*
X101727000Y-57150000D03*
X106807000Y-135890000D03*
X106807000Y-133350000D03*
X106807000Y-130810000D03*
X106807000Y-128270000D03*
X106807000Y-125730000D03*
X106807000Y-123190000D03*
X106807000Y-120650000D03*
X106807000Y-118110000D03*
X106807000Y-115570000D03*
X106807000Y-113030000D03*
X106807000Y-110490000D03*
X106807000Y-107950000D03*
X106807000Y-105410000D03*
X106807000Y-102870000D03*
X106807000Y-100330000D03*
X106807000Y-97790000D03*
X106807000Y-95250000D03*
X106807000Y-92710000D03*
X106807000Y-90170000D03*
X106807000Y-87630000D03*
X106807000Y-85090000D03*
X106807000Y-82550000D03*
X106807000Y-80010000D03*
X106807000Y-77470000D03*
X106807000Y-74930000D03*
X106807000Y-72390000D03*
X106807000Y-69850000D03*
X106807000Y-67310000D03*
X106807000Y-64770000D03*
X106807000Y-62230000D03*
X106807000Y-59690000D03*
X106807000Y-57150000D03*
D16*
X161500000Y-106500000D03*
D17*
X161500000Y-109040000D03*
X161500000Y-111580000D03*
X161500000Y-114120000D03*
X161500000Y-116660000D03*
X161500000Y-119200000D03*
X161500000Y-121740000D03*
X161500000Y-124280000D03*
X161500000Y-126820000D03*
X161500000Y-129360000D03*
X161500000Y-131900000D03*
X161500000Y-134440000D03*
X161500000Y-136980000D03*
X161500000Y-139520000D03*
X176740000Y-139520000D03*
X176740000Y-136980000D03*
X176740000Y-134440000D03*
X176740000Y-131900000D03*
X176740000Y-129360000D03*
X176740000Y-126820000D03*
X176740000Y-124280000D03*
X176740000Y-121740000D03*
X176740000Y-119200000D03*
X176740000Y-116660000D03*
X176740000Y-114120000D03*
X176740000Y-111580000D03*
X176740000Y-109040000D03*
X176740000Y-106500000D03*
D16*
X173880000Y-79000000D03*
D17*
X173880000Y-81540000D03*
X173880000Y-84080000D03*
X173880000Y-86620000D03*
X181500000Y-86620000D03*
X181500000Y-84080000D03*
X181500000Y-81540000D03*
X181500000Y-79000000D03*
D18*
X139500000Y-50600000D03*
X144500000Y-50600000D03*
X120500000Y-51000000D03*
X125500000Y-51000000D03*
D16*
X138760000Y-55840000D03*
D17*
X138760000Y-58380000D03*
X138760000Y-60920000D03*
X138760000Y-63460000D03*
X138760000Y-66000000D03*
X138760000Y-68540000D03*
X138760000Y-71080000D03*
X138760000Y-73620000D03*
X138760000Y-76160000D03*
X138760000Y-78700000D03*
X138760000Y-81240000D03*
X138760000Y-83780000D03*
X138760000Y-86320000D03*
X138760000Y-88860000D03*
X138760000Y-91400000D03*
X138760000Y-93940000D03*
X138760000Y-96480000D03*
X138760000Y-99020000D03*
X138760000Y-101560000D03*
X138760000Y-104100000D03*
X154000000Y-104100000D03*
X154000000Y-101560000D03*
X154000000Y-99020000D03*
X154000000Y-96480000D03*
X154000000Y-93940000D03*
X154000000Y-91400000D03*
X154000000Y-88860000D03*
X154000000Y-86320000D03*
X154000000Y-83780000D03*
X154000000Y-81240000D03*
X154000000Y-78700000D03*
X154000000Y-76160000D03*
X154000000Y-73620000D03*
X154000000Y-71080000D03*
X154000000Y-68540000D03*
X154000000Y-66000000D03*
X154000000Y-63460000D03*
X154000000Y-60920000D03*
X154000000Y-58380000D03*
X154000000Y-55840000D03*
D19*
X182380000Y-60920000D03*
X190000000Y-60920000D03*
X182380000Y-66000000D03*
X190000000Y-66000000D03*
D18*
X173500000Y-72500000D03*
X178500000Y-72500000D03*
D20*
X184500000Y-106920000D03*
D21*
X184500000Y-109460000D03*
X184500000Y-112000000D03*
D20*
X188500000Y-82960000D03*
D21*
X188500000Y-85500000D03*
D18*
X120500000Y-94000000D03*
X125500000Y-94000000D03*
D10*
X163000000Y-64500000D03*
D18*
X163000000Y-67040000D03*
X163000000Y-69580000D03*
X163000000Y-72120000D03*
X163000000Y-74660000D03*
X163000000Y-77200000D03*
X163000000Y-79740000D03*
X163000000Y-82280000D03*
X163000000Y-84820000D03*
X163000000Y-101000000D03*
X168000000Y-101000000D03*
D16*
X119380000Y-57500000D03*
D17*
X119380000Y-60040000D03*
X119380000Y-62580000D03*
X119380000Y-65120000D03*
X119380000Y-67660000D03*
X119380000Y-70200000D03*
X119380000Y-72740000D03*
X119380000Y-75280000D03*
X119380000Y-77820000D03*
X119380000Y-80360000D03*
X119380000Y-82900000D03*
X119380000Y-85440000D03*
X127000000Y-85440000D03*
X127000000Y-82900000D03*
X127000000Y-80360000D03*
X127000000Y-77820000D03*
X127000000Y-75280000D03*
X127000000Y-72740000D03*
X127000000Y-70200000D03*
X127000000Y-67660000D03*
X127000000Y-65120000D03*
X127000000Y-62580000D03*
X127000000Y-60040000D03*
X127000000Y-57500000D03*
M02*
