G04 #@! TF.GenerationSoftware,KiCad,Pcbnew,9.0.5*
G04 #@! TF.CreationDate,2025-12-18T09:10:18+11:00*
G04 #@! TF.ProjectId,MECB_6800_CPU,4d454342-5f36-4383-9030-5f4350552e6b,1.0*
G04 #@! TF.SameCoordinates,Original*
G04 #@! TF.FileFunction,Legend,Top*
G04 #@! TF.FilePolarity,Positive*
%FSLAX46Y46*%
G04 Gerber Fmt 4.6, Leading zero omitted, Abs format (unit mm)*
G04 Created by KiCad (PCBNEW 9.0.5) date 2025-12-18 09:10:18*
%MOMM*%
%LPD*%
G01*
G04 APERTURE LIST*
G04 Aperture macros list*
%AMRoundRect*
0 Rectangle with rounded corners*
0 $1 Rounding radius*
0 $2 $3 $4 $5 $6 $7 $8 $9 X,Y pos of 4 corners*
0 Add a 4 corners polygon primitive as box body*
4,1,4,$2,$3,$4,$5,$6,$7,$8,$9,$2,$3,0*
0 Add four circle primitives for the rounded corners*
1,1,$1+$1,$2,$3*
1,1,$1+$1,$4,$5*
1,1,$1+$1,$6,$7*
1,1,$1+$1,$8,$9*
0 Add four rect primitives between the rounded corners*
20,1,$1+$1,$2,$3,$4,$5,0*
20,1,$1+$1,$4,$5,$6,$7,0*
20,1,$1+$1,$6,$7,$8,$9,0*
20,1,$1+$1,$8,$9,$2,$3,0*%
G04 Aperture macros list end*
%ADD10C,0.150000*%
%ADD11C,0.120000*%
%ADD12R,1.600000X1.600000*%
%ADD13O,1.600000X1.600000*%
%ADD14C,3.200000*%
%ADD15C,2.850000*%
%ADD16RoundRect,0.249550X0.525450X-0.525450X0.525450X0.525450X-0.525450X0.525450X-0.525450X-0.525450X0*%
%ADD17C,1.550000*%
%ADD18RoundRect,0.250000X-0.950000X-0.550000X0.950000X-0.550000X0.950000X0.550000X-0.950000X0.550000X0*%
%ADD19O,2.400000X1.600000*%
%ADD20C,1.600000*%
%ADD21C,1.397000*%
%ADD22R,1.700000X1.700000*%
%ADD23C,1.700000*%
G04 APERTURE END LIST*
D10*
X187761904Y-88954819D02*
X187428571Y-88478628D01*
X187190476Y-88954819D02*
X187190476Y-87954819D01*
X187190476Y-87954819D02*
X187571428Y-87954819D01*
X187571428Y-87954819D02*
X187666666Y-88002438D01*
X187666666Y-88002438D02*
X187714285Y-88050057D01*
X187714285Y-88050057D02*
X187761904Y-88145295D01*
X187761904Y-88145295D02*
X187761904Y-88288152D01*
X187761904Y-88288152D02*
X187714285Y-88383390D01*
X187714285Y-88383390D02*
X187666666Y-88431009D01*
X187666666Y-88431009D02*
X187571428Y-88478628D01*
X187571428Y-88478628D02*
X187190476Y-88478628D01*
X188571428Y-88907200D02*
X188476190Y-88954819D01*
X188476190Y-88954819D02*
X188285714Y-88954819D01*
X188285714Y-88954819D02*
X188190476Y-88907200D01*
X188190476Y-88907200D02*
X188142857Y-88811961D01*
X188142857Y-88811961D02*
X188142857Y-88431009D01*
X188142857Y-88431009D02*
X188190476Y-88335771D01*
X188190476Y-88335771D02*
X188285714Y-88288152D01*
X188285714Y-88288152D02*
X188476190Y-88288152D01*
X188476190Y-88288152D02*
X188571428Y-88335771D01*
X188571428Y-88335771D02*
X188619047Y-88431009D01*
X188619047Y-88431009D02*
X188619047Y-88526247D01*
X188619047Y-88526247D02*
X188142857Y-88621485D01*
X189000000Y-88907200D02*
X189095238Y-88954819D01*
X189095238Y-88954819D02*
X189285714Y-88954819D01*
X189285714Y-88954819D02*
X189380952Y-88907200D01*
X189380952Y-88907200D02*
X189428571Y-88811961D01*
X189428571Y-88811961D02*
X189428571Y-88764342D01*
X189428571Y-88764342D02*
X189380952Y-88669104D01*
X189380952Y-88669104D02*
X189285714Y-88621485D01*
X189285714Y-88621485D02*
X189142857Y-88621485D01*
X189142857Y-88621485D02*
X189047619Y-88573866D01*
X189047619Y-88573866D02*
X189000000Y-88478628D01*
X189000000Y-88478628D02*
X189000000Y-88431009D01*
X189000000Y-88431009D02*
X189047619Y-88335771D01*
X189047619Y-88335771D02*
X189142857Y-88288152D01*
X189142857Y-88288152D02*
X189285714Y-88288152D01*
X189285714Y-88288152D02*
X189380952Y-88335771D01*
X190238095Y-88907200D02*
X190142857Y-88954819D01*
X190142857Y-88954819D02*
X189952381Y-88954819D01*
X189952381Y-88954819D02*
X189857143Y-88907200D01*
X189857143Y-88907200D02*
X189809524Y-88811961D01*
X189809524Y-88811961D02*
X189809524Y-88431009D01*
X189809524Y-88431009D02*
X189857143Y-88335771D01*
X189857143Y-88335771D02*
X189952381Y-88288152D01*
X189952381Y-88288152D02*
X190142857Y-88288152D01*
X190142857Y-88288152D02*
X190238095Y-88335771D01*
X190238095Y-88335771D02*
X190285714Y-88431009D01*
X190285714Y-88431009D02*
X190285714Y-88526247D01*
X190285714Y-88526247D02*
X189809524Y-88621485D01*
X190571429Y-88288152D02*
X190952381Y-88288152D01*
X190714286Y-87954819D02*
X190714286Y-88811961D01*
X190714286Y-88811961D02*
X190761905Y-88907200D01*
X190761905Y-88907200D02*
X190857143Y-88954819D01*
X190857143Y-88954819D02*
X190952381Y-88954819D01*
X191002438Y-83761904D02*
X190954819Y-83857142D01*
X190954819Y-83857142D02*
X190954819Y-83999999D01*
X190954819Y-83999999D02*
X191002438Y-84142856D01*
X191002438Y-84142856D02*
X191097676Y-84238094D01*
X191097676Y-84238094D02*
X191192914Y-84285713D01*
X191192914Y-84285713D02*
X191383390Y-84333332D01*
X191383390Y-84333332D02*
X191526247Y-84333332D01*
X191526247Y-84333332D02*
X191716723Y-84285713D01*
X191716723Y-84285713D02*
X191811961Y-84238094D01*
X191811961Y-84238094D02*
X191907200Y-84142856D01*
X191907200Y-84142856D02*
X191954819Y-83999999D01*
X191954819Y-83999999D02*
X191954819Y-83904761D01*
X191954819Y-83904761D02*
X191907200Y-83761904D01*
X191907200Y-83761904D02*
X191859580Y-83714285D01*
X191859580Y-83714285D02*
X191526247Y-83714285D01*
X191526247Y-83714285D02*
X191526247Y-83904761D01*
X191954819Y-83285713D02*
X190954819Y-83285713D01*
X190954819Y-83285713D02*
X191954819Y-82714285D01*
X191954819Y-82714285D02*
X190954819Y-82714285D01*
X191954819Y-82238094D02*
X190954819Y-82238094D01*
X190954819Y-82238094D02*
X190954819Y-81999999D01*
X190954819Y-81999999D02*
X191002438Y-81857142D01*
X191002438Y-81857142D02*
X191097676Y-81761904D01*
X191097676Y-81761904D02*
X191192914Y-81714285D01*
X191192914Y-81714285D02*
X191383390Y-81666666D01*
X191383390Y-81666666D02*
X191526247Y-81666666D01*
X191526247Y-81666666D02*
X191716723Y-81714285D01*
X191716723Y-81714285D02*
X191811961Y-81761904D01*
X191811961Y-81761904D02*
X191907200Y-81857142D01*
X191907200Y-81857142D02*
X191954819Y-81999999D01*
X191954819Y-81999999D02*
X191954819Y-82238094D01*
X188071429Y-106454819D02*
X188309524Y-107454819D01*
X188309524Y-107454819D02*
X188500000Y-106740533D01*
X188500000Y-106740533D02*
X188690476Y-107454819D01*
X188690476Y-107454819D02*
X188928572Y-106454819D01*
X189880952Y-107454819D02*
X189547619Y-106978628D01*
X189309524Y-107454819D02*
X189309524Y-106454819D01*
X189309524Y-106454819D02*
X189690476Y-106454819D01*
X189690476Y-106454819D02*
X189785714Y-106502438D01*
X189785714Y-106502438D02*
X189833333Y-106550057D01*
X189833333Y-106550057D02*
X189880952Y-106645295D01*
X189880952Y-106645295D02*
X189880952Y-106788152D01*
X189880952Y-106788152D02*
X189833333Y-106883390D01*
X189833333Y-106883390D02*
X189785714Y-106931009D01*
X189785714Y-106931009D02*
X189690476Y-106978628D01*
X189690476Y-106978628D02*
X189309524Y-106978628D01*
X184761904Y-69454819D02*
X184428571Y-68978628D01*
X184190476Y-69454819D02*
X184190476Y-68454819D01*
X184190476Y-68454819D02*
X184571428Y-68454819D01*
X184571428Y-68454819D02*
X184666666Y-68502438D01*
X184666666Y-68502438D02*
X184714285Y-68550057D01*
X184714285Y-68550057D02*
X184761904Y-68645295D01*
X184761904Y-68645295D02*
X184761904Y-68788152D01*
X184761904Y-68788152D02*
X184714285Y-68883390D01*
X184714285Y-68883390D02*
X184666666Y-68931009D01*
X184666666Y-68931009D02*
X184571428Y-68978628D01*
X184571428Y-68978628D02*
X184190476Y-68978628D01*
X185571428Y-69407200D02*
X185476190Y-69454819D01*
X185476190Y-69454819D02*
X185285714Y-69454819D01*
X185285714Y-69454819D02*
X185190476Y-69407200D01*
X185190476Y-69407200D02*
X185142857Y-69311961D01*
X185142857Y-69311961D02*
X185142857Y-68931009D01*
X185142857Y-68931009D02*
X185190476Y-68835771D01*
X185190476Y-68835771D02*
X185285714Y-68788152D01*
X185285714Y-68788152D02*
X185476190Y-68788152D01*
X185476190Y-68788152D02*
X185571428Y-68835771D01*
X185571428Y-68835771D02*
X185619047Y-68931009D01*
X185619047Y-68931009D02*
X185619047Y-69026247D01*
X185619047Y-69026247D02*
X185142857Y-69121485D01*
X186000000Y-69407200D02*
X186095238Y-69454819D01*
X186095238Y-69454819D02*
X186285714Y-69454819D01*
X186285714Y-69454819D02*
X186380952Y-69407200D01*
X186380952Y-69407200D02*
X186428571Y-69311961D01*
X186428571Y-69311961D02*
X186428571Y-69264342D01*
X186428571Y-69264342D02*
X186380952Y-69169104D01*
X186380952Y-69169104D02*
X186285714Y-69121485D01*
X186285714Y-69121485D02*
X186142857Y-69121485D01*
X186142857Y-69121485D02*
X186047619Y-69073866D01*
X186047619Y-69073866D02*
X186000000Y-68978628D01*
X186000000Y-68978628D02*
X186000000Y-68931009D01*
X186000000Y-68931009D02*
X186047619Y-68835771D01*
X186047619Y-68835771D02*
X186142857Y-68788152D01*
X186142857Y-68788152D02*
X186285714Y-68788152D01*
X186285714Y-68788152D02*
X186380952Y-68835771D01*
X187238095Y-69407200D02*
X187142857Y-69454819D01*
X187142857Y-69454819D02*
X186952381Y-69454819D01*
X186952381Y-69454819D02*
X186857143Y-69407200D01*
X186857143Y-69407200D02*
X186809524Y-69311961D01*
X186809524Y-69311961D02*
X186809524Y-68931009D01*
X186809524Y-68931009D02*
X186857143Y-68835771D01*
X186857143Y-68835771D02*
X186952381Y-68788152D01*
X186952381Y-68788152D02*
X187142857Y-68788152D01*
X187142857Y-68788152D02*
X187238095Y-68835771D01*
X187238095Y-68835771D02*
X187285714Y-68931009D01*
X187285714Y-68931009D02*
X187285714Y-69026247D01*
X187285714Y-69026247D02*
X186809524Y-69121485D01*
X187571429Y-68788152D02*
X187952381Y-68788152D01*
X187714286Y-68454819D02*
X187714286Y-69311961D01*
X187714286Y-69311961D02*
X187761905Y-69407200D01*
X187761905Y-69407200D02*
X187857143Y-69454819D01*
X187857143Y-69454819D02*
X187952381Y-69454819D01*
X188809523Y-112454819D02*
X188476190Y-111978628D01*
X188238095Y-112454819D02*
X188238095Y-111454819D01*
X188238095Y-111454819D02*
X188619047Y-111454819D01*
X188619047Y-111454819D02*
X188714285Y-111502438D01*
X188714285Y-111502438D02*
X188761904Y-111550057D01*
X188761904Y-111550057D02*
X188809523Y-111645295D01*
X188809523Y-111645295D02*
X188809523Y-111788152D01*
X188809523Y-111788152D02*
X188761904Y-111883390D01*
X188761904Y-111883390D02*
X188714285Y-111931009D01*
X188714285Y-111931009D02*
X188619047Y-111978628D01*
X188619047Y-111978628D02*
X188238095Y-111978628D01*
X189238095Y-112454819D02*
X189238095Y-111454819D01*
X189238095Y-111454819D02*
X189476190Y-111454819D01*
X189476190Y-111454819D02*
X189619047Y-111502438D01*
X189619047Y-111502438D02*
X189714285Y-111597676D01*
X189714285Y-111597676D02*
X189761904Y-111692914D01*
X189761904Y-111692914D02*
X189809523Y-111883390D01*
X189809523Y-111883390D02*
X189809523Y-112026247D01*
X189809523Y-112026247D02*
X189761904Y-112216723D01*
X189761904Y-112216723D02*
X189714285Y-112311961D01*
X189714285Y-112311961D02*
X189619047Y-112407200D01*
X189619047Y-112407200D02*
X189476190Y-112454819D01*
X189476190Y-112454819D02*
X189238095Y-112454819D01*
X191954819Y-130690476D02*
X191954819Y-130880952D01*
X191954819Y-130880952D02*
X192002438Y-130976190D01*
X192002438Y-130976190D02*
X192050057Y-131023809D01*
X192050057Y-131023809D02*
X192192914Y-131119047D01*
X192192914Y-131119047D02*
X192383390Y-131166666D01*
X192383390Y-131166666D02*
X192764342Y-131166666D01*
X192764342Y-131166666D02*
X192859580Y-131119047D01*
X192859580Y-131119047D02*
X192907200Y-131071428D01*
X192907200Y-131071428D02*
X192954819Y-130976190D01*
X192954819Y-130976190D02*
X192954819Y-130785714D01*
X192954819Y-130785714D02*
X192907200Y-130690476D01*
X192907200Y-130690476D02*
X192859580Y-130642857D01*
X192859580Y-130642857D02*
X192764342Y-130595238D01*
X192764342Y-130595238D02*
X192526247Y-130595238D01*
X192526247Y-130595238D02*
X192431009Y-130642857D01*
X192431009Y-130642857D02*
X192383390Y-130690476D01*
X192383390Y-130690476D02*
X192335771Y-130785714D01*
X192335771Y-130785714D02*
X192335771Y-130976190D01*
X192335771Y-130976190D02*
X192383390Y-131071428D01*
X192383390Y-131071428D02*
X192431009Y-131119047D01*
X192431009Y-131119047D02*
X192526247Y-131166666D01*
X192383390Y-130023809D02*
X192335771Y-130119047D01*
X192335771Y-130119047D02*
X192288152Y-130166666D01*
X192288152Y-130166666D02*
X192192914Y-130214285D01*
X192192914Y-130214285D02*
X192145295Y-130214285D01*
X192145295Y-130214285D02*
X192050057Y-130166666D01*
X192050057Y-130166666D02*
X192002438Y-130119047D01*
X192002438Y-130119047D02*
X191954819Y-130023809D01*
X191954819Y-130023809D02*
X191954819Y-129833333D01*
X191954819Y-129833333D02*
X192002438Y-129738095D01*
X192002438Y-129738095D02*
X192050057Y-129690476D01*
X192050057Y-129690476D02*
X192145295Y-129642857D01*
X192145295Y-129642857D02*
X192192914Y-129642857D01*
X192192914Y-129642857D02*
X192288152Y-129690476D01*
X192288152Y-129690476D02*
X192335771Y-129738095D01*
X192335771Y-129738095D02*
X192383390Y-129833333D01*
X192383390Y-129833333D02*
X192383390Y-130023809D01*
X192383390Y-130023809D02*
X192431009Y-130119047D01*
X192431009Y-130119047D02*
X192478628Y-130166666D01*
X192478628Y-130166666D02*
X192573866Y-130214285D01*
X192573866Y-130214285D02*
X192764342Y-130214285D01*
X192764342Y-130214285D02*
X192859580Y-130166666D01*
X192859580Y-130166666D02*
X192907200Y-130119047D01*
X192907200Y-130119047D02*
X192954819Y-130023809D01*
X192954819Y-130023809D02*
X192954819Y-129833333D01*
X192954819Y-129833333D02*
X192907200Y-129738095D01*
X192907200Y-129738095D02*
X192859580Y-129690476D01*
X192859580Y-129690476D02*
X192764342Y-129642857D01*
X192764342Y-129642857D02*
X192573866Y-129642857D01*
X192573866Y-129642857D02*
X192478628Y-129690476D01*
X192478628Y-129690476D02*
X192431009Y-129738095D01*
X192431009Y-129738095D02*
X192383390Y-129833333D01*
X191954819Y-129023809D02*
X191954819Y-128928571D01*
X191954819Y-128928571D02*
X192002438Y-128833333D01*
X192002438Y-128833333D02*
X192050057Y-128785714D01*
X192050057Y-128785714D02*
X192145295Y-128738095D01*
X192145295Y-128738095D02*
X192335771Y-128690476D01*
X192335771Y-128690476D02*
X192573866Y-128690476D01*
X192573866Y-128690476D02*
X192764342Y-128738095D01*
X192764342Y-128738095D02*
X192859580Y-128785714D01*
X192859580Y-128785714D02*
X192907200Y-128833333D01*
X192907200Y-128833333D02*
X192954819Y-128928571D01*
X192954819Y-128928571D02*
X192954819Y-129023809D01*
X192954819Y-129023809D02*
X192907200Y-129119047D01*
X192907200Y-129119047D02*
X192859580Y-129166666D01*
X192859580Y-129166666D02*
X192764342Y-129214285D01*
X192764342Y-129214285D02*
X192573866Y-129261904D01*
X192573866Y-129261904D02*
X192335771Y-129261904D01*
X192335771Y-129261904D02*
X192145295Y-129214285D01*
X192145295Y-129214285D02*
X192050057Y-129166666D01*
X192050057Y-129166666D02*
X192002438Y-129119047D01*
X192002438Y-129119047D02*
X191954819Y-129023809D01*
X191954819Y-128071428D02*
X191954819Y-127976190D01*
X191954819Y-127976190D02*
X192002438Y-127880952D01*
X192002438Y-127880952D02*
X192050057Y-127833333D01*
X192050057Y-127833333D02*
X192145295Y-127785714D01*
X192145295Y-127785714D02*
X192335771Y-127738095D01*
X192335771Y-127738095D02*
X192573866Y-127738095D01*
X192573866Y-127738095D02*
X192764342Y-127785714D01*
X192764342Y-127785714D02*
X192859580Y-127833333D01*
X192859580Y-127833333D02*
X192907200Y-127880952D01*
X192907200Y-127880952D02*
X192954819Y-127976190D01*
X192954819Y-127976190D02*
X192954819Y-128071428D01*
X192954819Y-128071428D02*
X192907200Y-128166666D01*
X192907200Y-128166666D02*
X192859580Y-128214285D01*
X192859580Y-128214285D02*
X192764342Y-128261904D01*
X192764342Y-128261904D02*
X192573866Y-128309523D01*
X192573866Y-128309523D02*
X192335771Y-128309523D01*
X192335771Y-128309523D02*
X192145295Y-128261904D01*
X192145295Y-128261904D02*
X192050057Y-128214285D01*
X192050057Y-128214285D02*
X192002438Y-128166666D01*
X192002438Y-128166666D02*
X191954819Y-128071428D01*
X192859580Y-125976190D02*
X192907200Y-126023809D01*
X192907200Y-126023809D02*
X192954819Y-126166666D01*
X192954819Y-126166666D02*
X192954819Y-126261904D01*
X192954819Y-126261904D02*
X192907200Y-126404761D01*
X192907200Y-126404761D02*
X192811961Y-126499999D01*
X192811961Y-126499999D02*
X192716723Y-126547618D01*
X192716723Y-126547618D02*
X192526247Y-126595237D01*
X192526247Y-126595237D02*
X192383390Y-126595237D01*
X192383390Y-126595237D02*
X192192914Y-126547618D01*
X192192914Y-126547618D02*
X192097676Y-126499999D01*
X192097676Y-126499999D02*
X192002438Y-126404761D01*
X192002438Y-126404761D02*
X191954819Y-126261904D01*
X191954819Y-126261904D02*
X191954819Y-126166666D01*
X191954819Y-126166666D02*
X192002438Y-126023809D01*
X192002438Y-126023809D02*
X192050057Y-125976190D01*
X192954819Y-125547618D02*
X191954819Y-125547618D01*
X191954819Y-125547618D02*
X191954819Y-125166666D01*
X191954819Y-125166666D02*
X192002438Y-125071428D01*
X192002438Y-125071428D02*
X192050057Y-125023809D01*
X192050057Y-125023809D02*
X192145295Y-124976190D01*
X192145295Y-124976190D02*
X192288152Y-124976190D01*
X192288152Y-124976190D02*
X192383390Y-125023809D01*
X192383390Y-125023809D02*
X192431009Y-125071428D01*
X192431009Y-125071428D02*
X192478628Y-125166666D01*
X192478628Y-125166666D02*
X192478628Y-125547618D01*
X191954819Y-124547618D02*
X192764342Y-124547618D01*
X192764342Y-124547618D02*
X192859580Y-124499999D01*
X192859580Y-124499999D02*
X192907200Y-124452380D01*
X192907200Y-124452380D02*
X192954819Y-124357142D01*
X192954819Y-124357142D02*
X192954819Y-124166666D01*
X192954819Y-124166666D02*
X192907200Y-124071428D01*
X192907200Y-124071428D02*
X192859580Y-124023809D01*
X192859580Y-124023809D02*
X192764342Y-123976190D01*
X192764342Y-123976190D02*
X191954819Y-123976190D01*
X192859580Y-122166666D02*
X192907200Y-122214285D01*
X192907200Y-122214285D02*
X192954819Y-122357142D01*
X192954819Y-122357142D02*
X192954819Y-122452380D01*
X192954819Y-122452380D02*
X192907200Y-122595237D01*
X192907200Y-122595237D02*
X192811961Y-122690475D01*
X192811961Y-122690475D02*
X192716723Y-122738094D01*
X192716723Y-122738094D02*
X192526247Y-122785713D01*
X192526247Y-122785713D02*
X192383390Y-122785713D01*
X192383390Y-122785713D02*
X192192914Y-122738094D01*
X192192914Y-122738094D02*
X192097676Y-122690475D01*
X192097676Y-122690475D02*
X192002438Y-122595237D01*
X192002438Y-122595237D02*
X191954819Y-122452380D01*
X191954819Y-122452380D02*
X191954819Y-122357142D01*
X191954819Y-122357142D02*
X192002438Y-122214285D01*
X192002438Y-122214285D02*
X192050057Y-122166666D01*
X192954819Y-121309523D02*
X192431009Y-121309523D01*
X192431009Y-121309523D02*
X192335771Y-121357142D01*
X192335771Y-121357142D02*
X192288152Y-121452380D01*
X192288152Y-121452380D02*
X192288152Y-121642856D01*
X192288152Y-121642856D02*
X192335771Y-121738094D01*
X192907200Y-121309523D02*
X192954819Y-121404761D01*
X192954819Y-121404761D02*
X192954819Y-121642856D01*
X192954819Y-121642856D02*
X192907200Y-121738094D01*
X192907200Y-121738094D02*
X192811961Y-121785713D01*
X192811961Y-121785713D02*
X192716723Y-121785713D01*
X192716723Y-121785713D02*
X192621485Y-121738094D01*
X192621485Y-121738094D02*
X192573866Y-121642856D01*
X192573866Y-121642856D02*
X192573866Y-121404761D01*
X192573866Y-121404761D02*
X192526247Y-121309523D01*
X192954819Y-120833332D02*
X192288152Y-120833332D01*
X192478628Y-120833332D02*
X192383390Y-120785713D01*
X192383390Y-120785713D02*
X192335771Y-120738094D01*
X192335771Y-120738094D02*
X192288152Y-120642856D01*
X192288152Y-120642856D02*
X192288152Y-120547618D01*
X192954819Y-119785713D02*
X191954819Y-119785713D01*
X192907200Y-119785713D02*
X192954819Y-119880951D01*
X192954819Y-119880951D02*
X192954819Y-120071427D01*
X192954819Y-120071427D02*
X192907200Y-120166665D01*
X192907200Y-120166665D02*
X192859580Y-120214284D01*
X192859580Y-120214284D02*
X192764342Y-120261903D01*
X192764342Y-120261903D02*
X192478628Y-120261903D01*
X192478628Y-120261903D02*
X192383390Y-120214284D01*
X192383390Y-120214284D02*
X192335771Y-120166665D01*
X192335771Y-120166665D02*
X192288152Y-120071427D01*
X192288152Y-120071427D02*
X192288152Y-119880951D01*
X192288152Y-119880951D02*
X192335771Y-119785713D01*
X192288152Y-118642855D02*
X192954819Y-118404760D01*
X192954819Y-118404760D02*
X192288152Y-118166665D01*
X192954819Y-117261903D02*
X192954819Y-117833331D01*
X192954819Y-117547617D02*
X191954819Y-117547617D01*
X191954819Y-117547617D02*
X192097676Y-117642855D01*
X192097676Y-117642855D02*
X192192914Y-117738093D01*
X192192914Y-117738093D02*
X192240533Y-117833331D01*
X192859580Y-116833331D02*
X192907200Y-116785712D01*
X192907200Y-116785712D02*
X192954819Y-116833331D01*
X192954819Y-116833331D02*
X192907200Y-116880950D01*
X192907200Y-116880950D02*
X192859580Y-116833331D01*
X192859580Y-116833331D02*
X192954819Y-116833331D01*
X191954819Y-116166665D02*
X191954819Y-116071427D01*
X191954819Y-116071427D02*
X192002438Y-115976189D01*
X192002438Y-115976189D02*
X192050057Y-115928570D01*
X192050057Y-115928570D02*
X192145295Y-115880951D01*
X192145295Y-115880951D02*
X192335771Y-115833332D01*
X192335771Y-115833332D02*
X192573866Y-115833332D01*
X192573866Y-115833332D02*
X192764342Y-115880951D01*
X192764342Y-115880951D02*
X192859580Y-115928570D01*
X192859580Y-115928570D02*
X192907200Y-115976189D01*
X192907200Y-115976189D02*
X192954819Y-116071427D01*
X192954819Y-116071427D02*
X192954819Y-116166665D01*
X192954819Y-116166665D02*
X192907200Y-116261903D01*
X192907200Y-116261903D02*
X192859580Y-116309522D01*
X192859580Y-116309522D02*
X192764342Y-116357141D01*
X192764342Y-116357141D02*
X192573866Y-116404760D01*
X192573866Y-116404760D02*
X192335771Y-116404760D01*
X192335771Y-116404760D02*
X192145295Y-116357141D01*
X192145295Y-116357141D02*
X192050057Y-116309522D01*
X192050057Y-116309522D02*
X192002438Y-116261903D01*
X192002438Y-116261903D02*
X191954819Y-116166665D01*
X122808095Y-97744819D02*
X122808095Y-98554342D01*
X122808095Y-98554342D02*
X122855714Y-98649580D01*
X122855714Y-98649580D02*
X122903333Y-98697200D01*
X122903333Y-98697200D02*
X122998571Y-98744819D01*
X122998571Y-98744819D02*
X123189047Y-98744819D01*
X123189047Y-98744819D02*
X123284285Y-98697200D01*
X123284285Y-98697200D02*
X123331904Y-98649580D01*
X123331904Y-98649580D02*
X123379523Y-98554342D01*
X123379523Y-98554342D02*
X123379523Y-97744819D01*
X124331904Y-97744819D02*
X123855714Y-97744819D01*
X123855714Y-97744819D02*
X123808095Y-98221009D01*
X123808095Y-98221009D02*
X123855714Y-98173390D01*
X123855714Y-98173390D02*
X123950952Y-98125771D01*
X123950952Y-98125771D02*
X124189047Y-98125771D01*
X124189047Y-98125771D02*
X124284285Y-98173390D01*
X124284285Y-98173390D02*
X124331904Y-98221009D01*
X124331904Y-98221009D02*
X124379523Y-98316247D01*
X124379523Y-98316247D02*
X124379523Y-98554342D01*
X124379523Y-98554342D02*
X124331904Y-98649580D01*
X124331904Y-98649580D02*
X124284285Y-98697200D01*
X124284285Y-98697200D02*
X124189047Y-98744819D01*
X124189047Y-98744819D02*
X123950952Y-98744819D01*
X123950952Y-98744819D02*
X123855714Y-98697200D01*
X123855714Y-98697200D02*
X123808095Y-98649580D01*
X103171666Y-137884819D02*
X103171666Y-138599104D01*
X103171666Y-138599104D02*
X103124047Y-138741961D01*
X103124047Y-138741961D02*
X103028809Y-138837200D01*
X103028809Y-138837200D02*
X102885952Y-138884819D01*
X102885952Y-138884819D02*
X102790714Y-138884819D01*
X104171666Y-138884819D02*
X103600238Y-138884819D01*
X103885952Y-138884819D02*
X103885952Y-137884819D01*
X103885952Y-137884819D02*
X103790714Y-138027676D01*
X103790714Y-138027676D02*
X103695476Y-138122914D01*
X103695476Y-138122914D02*
X103600238Y-138170533D01*
X168358095Y-103624819D02*
X168358095Y-104434342D01*
X168358095Y-104434342D02*
X168405714Y-104529580D01*
X168405714Y-104529580D02*
X168453333Y-104577200D01*
X168453333Y-104577200D02*
X168548571Y-104624819D01*
X168548571Y-104624819D02*
X168739047Y-104624819D01*
X168739047Y-104624819D02*
X168834285Y-104577200D01*
X168834285Y-104577200D02*
X168881904Y-104529580D01*
X168881904Y-104529580D02*
X168929523Y-104434342D01*
X168929523Y-104434342D02*
X168929523Y-103624819D01*
X169834285Y-103958152D02*
X169834285Y-104624819D01*
X169596190Y-103577200D02*
X169358095Y-104291485D01*
X169358095Y-104291485D02*
X169977142Y-104291485D01*
X176928095Y-76124819D02*
X176928095Y-76934342D01*
X176928095Y-76934342D02*
X176975714Y-77029580D01*
X176975714Y-77029580D02*
X177023333Y-77077200D01*
X177023333Y-77077200D02*
X177118571Y-77124819D01*
X177118571Y-77124819D02*
X177309047Y-77124819D01*
X177309047Y-77124819D02*
X177404285Y-77077200D01*
X177404285Y-77077200D02*
X177451904Y-77029580D01*
X177451904Y-77029580D02*
X177499523Y-76934342D01*
X177499523Y-76934342D02*
X177499523Y-76124819D01*
X177928095Y-76220057D02*
X177975714Y-76172438D01*
X177975714Y-76172438D02*
X178070952Y-76124819D01*
X178070952Y-76124819D02*
X178309047Y-76124819D01*
X178309047Y-76124819D02*
X178404285Y-76172438D01*
X178404285Y-76172438D02*
X178451904Y-76220057D01*
X178451904Y-76220057D02*
X178499523Y-76315295D01*
X178499523Y-76315295D02*
X178499523Y-76410533D01*
X178499523Y-76410533D02*
X178451904Y-76553390D01*
X178451904Y-76553390D02*
X177880476Y-77124819D01*
X177880476Y-77124819D02*
X178499523Y-77124819D01*
X141833333Y-48459580D02*
X141785714Y-48507200D01*
X141785714Y-48507200D02*
X141642857Y-48554819D01*
X141642857Y-48554819D02*
X141547619Y-48554819D01*
X141547619Y-48554819D02*
X141404762Y-48507200D01*
X141404762Y-48507200D02*
X141309524Y-48411961D01*
X141309524Y-48411961D02*
X141261905Y-48316723D01*
X141261905Y-48316723D02*
X141214286Y-48126247D01*
X141214286Y-48126247D02*
X141214286Y-47983390D01*
X141214286Y-47983390D02*
X141261905Y-47792914D01*
X141261905Y-47792914D02*
X141309524Y-47697676D01*
X141309524Y-47697676D02*
X141404762Y-47602438D01*
X141404762Y-47602438D02*
X141547619Y-47554819D01*
X141547619Y-47554819D02*
X141642857Y-47554819D01*
X141642857Y-47554819D02*
X141785714Y-47602438D01*
X141785714Y-47602438D02*
X141833333Y-47650057D01*
X142166667Y-47554819D02*
X142785714Y-47554819D01*
X142785714Y-47554819D02*
X142452381Y-47935771D01*
X142452381Y-47935771D02*
X142595238Y-47935771D01*
X142595238Y-47935771D02*
X142690476Y-47983390D01*
X142690476Y-47983390D02*
X142738095Y-48031009D01*
X142738095Y-48031009D02*
X142785714Y-48126247D01*
X142785714Y-48126247D02*
X142785714Y-48364342D01*
X142785714Y-48364342D02*
X142738095Y-48459580D01*
X142738095Y-48459580D02*
X142690476Y-48507200D01*
X142690476Y-48507200D02*
X142595238Y-48554819D01*
X142595238Y-48554819D02*
X142309524Y-48554819D01*
X142309524Y-48554819D02*
X142214286Y-48507200D01*
X142214286Y-48507200D02*
X142166667Y-48459580D01*
X122833333Y-48859580D02*
X122785714Y-48907200D01*
X122785714Y-48907200D02*
X122642857Y-48954819D01*
X122642857Y-48954819D02*
X122547619Y-48954819D01*
X122547619Y-48954819D02*
X122404762Y-48907200D01*
X122404762Y-48907200D02*
X122309524Y-48811961D01*
X122309524Y-48811961D02*
X122261905Y-48716723D01*
X122261905Y-48716723D02*
X122214286Y-48526247D01*
X122214286Y-48526247D02*
X122214286Y-48383390D01*
X122214286Y-48383390D02*
X122261905Y-48192914D01*
X122261905Y-48192914D02*
X122309524Y-48097676D01*
X122309524Y-48097676D02*
X122404762Y-48002438D01*
X122404762Y-48002438D02*
X122547619Y-47954819D01*
X122547619Y-47954819D02*
X122642857Y-47954819D01*
X122642857Y-47954819D02*
X122785714Y-48002438D01*
X122785714Y-48002438D02*
X122833333Y-48050057D01*
X123785714Y-48954819D02*
X123214286Y-48954819D01*
X123500000Y-48954819D02*
X123500000Y-47954819D01*
X123500000Y-47954819D02*
X123404762Y-48097676D01*
X123404762Y-48097676D02*
X123309524Y-48192914D01*
X123309524Y-48192914D02*
X123214286Y-48240533D01*
X145618095Y-52964819D02*
X145618095Y-53774342D01*
X145618095Y-53774342D02*
X145665714Y-53869580D01*
X145665714Y-53869580D02*
X145713333Y-53917200D01*
X145713333Y-53917200D02*
X145808571Y-53964819D01*
X145808571Y-53964819D02*
X145999047Y-53964819D01*
X145999047Y-53964819D02*
X146094285Y-53917200D01*
X146094285Y-53917200D02*
X146141904Y-53869580D01*
X146141904Y-53869580D02*
X146189523Y-53774342D01*
X146189523Y-53774342D02*
X146189523Y-52964819D01*
X146570476Y-52964819D02*
X147189523Y-52964819D01*
X147189523Y-52964819D02*
X146856190Y-53345771D01*
X146856190Y-53345771D02*
X146999047Y-53345771D01*
X146999047Y-53345771D02*
X147094285Y-53393390D01*
X147094285Y-53393390D02*
X147141904Y-53441009D01*
X147141904Y-53441009D02*
X147189523Y-53536247D01*
X147189523Y-53536247D02*
X147189523Y-53774342D01*
X147189523Y-53774342D02*
X147141904Y-53869580D01*
X147141904Y-53869580D02*
X147094285Y-53917200D01*
X147094285Y-53917200D02*
X146999047Y-53964819D01*
X146999047Y-53964819D02*
X146713333Y-53964819D01*
X146713333Y-53964819D02*
X146618095Y-53917200D01*
X146618095Y-53917200D02*
X146570476Y-53869580D01*
X184856667Y-59247200D02*
X184999524Y-59294819D01*
X184999524Y-59294819D02*
X185237619Y-59294819D01*
X185237619Y-59294819D02*
X185332857Y-59247200D01*
X185332857Y-59247200D02*
X185380476Y-59199580D01*
X185380476Y-59199580D02*
X185428095Y-59104342D01*
X185428095Y-59104342D02*
X185428095Y-59009104D01*
X185428095Y-59009104D02*
X185380476Y-58913866D01*
X185380476Y-58913866D02*
X185332857Y-58866247D01*
X185332857Y-58866247D02*
X185237619Y-58818628D01*
X185237619Y-58818628D02*
X185047143Y-58771009D01*
X185047143Y-58771009D02*
X184951905Y-58723390D01*
X184951905Y-58723390D02*
X184904286Y-58675771D01*
X184904286Y-58675771D02*
X184856667Y-58580533D01*
X184856667Y-58580533D02*
X184856667Y-58485295D01*
X184856667Y-58485295D02*
X184904286Y-58390057D01*
X184904286Y-58390057D02*
X184951905Y-58342438D01*
X184951905Y-58342438D02*
X185047143Y-58294819D01*
X185047143Y-58294819D02*
X185285238Y-58294819D01*
X185285238Y-58294819D02*
X185428095Y-58342438D01*
X185761429Y-58294819D02*
X185999524Y-59294819D01*
X185999524Y-59294819D02*
X186190000Y-58580533D01*
X186190000Y-58580533D02*
X186380476Y-59294819D01*
X186380476Y-59294819D02*
X186618572Y-58294819D01*
X187523333Y-59294819D02*
X186951905Y-59294819D01*
X187237619Y-59294819D02*
X187237619Y-58294819D01*
X187237619Y-58294819D02*
X187142381Y-58437676D01*
X187142381Y-58437676D02*
X187047143Y-58532914D01*
X187047143Y-58532914D02*
X186951905Y-58580533D01*
X175833333Y-70359580D02*
X175785714Y-70407200D01*
X175785714Y-70407200D02*
X175642857Y-70454819D01*
X175642857Y-70454819D02*
X175547619Y-70454819D01*
X175547619Y-70454819D02*
X175404762Y-70407200D01*
X175404762Y-70407200D02*
X175309524Y-70311961D01*
X175309524Y-70311961D02*
X175261905Y-70216723D01*
X175261905Y-70216723D02*
X175214286Y-70026247D01*
X175214286Y-70026247D02*
X175214286Y-69883390D01*
X175214286Y-69883390D02*
X175261905Y-69692914D01*
X175261905Y-69692914D02*
X175309524Y-69597676D01*
X175309524Y-69597676D02*
X175404762Y-69502438D01*
X175404762Y-69502438D02*
X175547619Y-69454819D01*
X175547619Y-69454819D02*
X175642857Y-69454819D01*
X175642857Y-69454819D02*
X175785714Y-69502438D01*
X175785714Y-69502438D02*
X175833333Y-69550057D01*
X176214286Y-69550057D02*
X176261905Y-69502438D01*
X176261905Y-69502438D02*
X176357143Y-69454819D01*
X176357143Y-69454819D02*
X176595238Y-69454819D01*
X176595238Y-69454819D02*
X176690476Y-69502438D01*
X176690476Y-69502438D02*
X176738095Y-69550057D01*
X176738095Y-69550057D02*
X176785714Y-69645295D01*
X176785714Y-69645295D02*
X176785714Y-69740533D01*
X176785714Y-69740533D02*
X176738095Y-69883390D01*
X176738095Y-69883390D02*
X176166667Y-70454819D01*
X176166667Y-70454819D02*
X176785714Y-70454819D01*
X183666666Y-103994819D02*
X183666666Y-104709104D01*
X183666666Y-104709104D02*
X183619047Y-104851961D01*
X183619047Y-104851961D02*
X183523809Y-104947200D01*
X183523809Y-104947200D02*
X183380952Y-104994819D01*
X183380952Y-104994819D02*
X183285714Y-104994819D01*
X184142857Y-104994819D02*
X184142857Y-103994819D01*
X184142857Y-103994819D02*
X184523809Y-103994819D01*
X184523809Y-103994819D02*
X184619047Y-104042438D01*
X184619047Y-104042438D02*
X184666666Y-104090057D01*
X184666666Y-104090057D02*
X184714285Y-104185295D01*
X184714285Y-104185295D02*
X184714285Y-104328152D01*
X184714285Y-104328152D02*
X184666666Y-104423390D01*
X184666666Y-104423390D02*
X184619047Y-104471009D01*
X184619047Y-104471009D02*
X184523809Y-104518628D01*
X184523809Y-104518628D02*
X184142857Y-104518628D01*
X185095238Y-104090057D02*
X185142857Y-104042438D01*
X185142857Y-104042438D02*
X185238095Y-103994819D01*
X185238095Y-103994819D02*
X185476190Y-103994819D01*
X185476190Y-103994819D02*
X185571428Y-104042438D01*
X185571428Y-104042438D02*
X185619047Y-104090057D01*
X185619047Y-104090057D02*
X185666666Y-104185295D01*
X185666666Y-104185295D02*
X185666666Y-104280533D01*
X185666666Y-104280533D02*
X185619047Y-104423390D01*
X185619047Y-104423390D02*
X185047619Y-104994819D01*
X185047619Y-104994819D02*
X185666666Y-104994819D01*
X187666666Y-80034819D02*
X187666666Y-80749104D01*
X187666666Y-80749104D02*
X187619047Y-80891961D01*
X187619047Y-80891961D02*
X187523809Y-80987200D01*
X187523809Y-80987200D02*
X187380952Y-81034819D01*
X187380952Y-81034819D02*
X187285714Y-81034819D01*
X188142857Y-81034819D02*
X188142857Y-80034819D01*
X188142857Y-80034819D02*
X188523809Y-80034819D01*
X188523809Y-80034819D02*
X188619047Y-80082438D01*
X188619047Y-80082438D02*
X188666666Y-80130057D01*
X188666666Y-80130057D02*
X188714285Y-80225295D01*
X188714285Y-80225295D02*
X188714285Y-80368152D01*
X188714285Y-80368152D02*
X188666666Y-80463390D01*
X188666666Y-80463390D02*
X188619047Y-80511009D01*
X188619047Y-80511009D02*
X188523809Y-80558628D01*
X188523809Y-80558628D02*
X188142857Y-80558628D01*
X189666666Y-81034819D02*
X189095238Y-81034819D01*
X189380952Y-81034819D02*
X189380952Y-80034819D01*
X189380952Y-80034819D02*
X189285714Y-80177676D01*
X189285714Y-80177676D02*
X189190476Y-80272914D01*
X189190476Y-80272914D02*
X189095238Y-80320533D01*
X122833333Y-91859580D02*
X122785714Y-91907200D01*
X122785714Y-91907200D02*
X122642857Y-91954819D01*
X122642857Y-91954819D02*
X122547619Y-91954819D01*
X122547619Y-91954819D02*
X122404762Y-91907200D01*
X122404762Y-91907200D02*
X122309524Y-91811961D01*
X122309524Y-91811961D02*
X122261905Y-91716723D01*
X122261905Y-91716723D02*
X122214286Y-91526247D01*
X122214286Y-91526247D02*
X122214286Y-91383390D01*
X122214286Y-91383390D02*
X122261905Y-91192914D01*
X122261905Y-91192914D02*
X122309524Y-91097676D01*
X122309524Y-91097676D02*
X122404762Y-91002438D01*
X122404762Y-91002438D02*
X122547619Y-90954819D01*
X122547619Y-90954819D02*
X122642857Y-90954819D01*
X122642857Y-90954819D02*
X122785714Y-91002438D01*
X122785714Y-91002438D02*
X122833333Y-91050057D01*
X123738095Y-90954819D02*
X123261905Y-90954819D01*
X123261905Y-90954819D02*
X123214286Y-91431009D01*
X123214286Y-91431009D02*
X123261905Y-91383390D01*
X123261905Y-91383390D02*
X123357143Y-91335771D01*
X123357143Y-91335771D02*
X123595238Y-91335771D01*
X123595238Y-91335771D02*
X123690476Y-91383390D01*
X123690476Y-91383390D02*
X123738095Y-91431009D01*
X123738095Y-91431009D02*
X123785714Y-91526247D01*
X123785714Y-91526247D02*
X123785714Y-91764342D01*
X123785714Y-91764342D02*
X123738095Y-91859580D01*
X123738095Y-91859580D02*
X123690476Y-91907200D01*
X123690476Y-91907200D02*
X123595238Y-91954819D01*
X123595238Y-91954819D02*
X123357143Y-91954819D01*
X123357143Y-91954819D02*
X123261905Y-91907200D01*
X123261905Y-91907200D02*
X123214286Y-91859580D01*
X165764819Y-76620476D02*
X165288628Y-76953809D01*
X165764819Y-77191904D02*
X164764819Y-77191904D01*
X164764819Y-77191904D02*
X164764819Y-76810952D01*
X164764819Y-76810952D02*
X164812438Y-76715714D01*
X164812438Y-76715714D02*
X164860057Y-76668095D01*
X164860057Y-76668095D02*
X164955295Y-76620476D01*
X164955295Y-76620476D02*
X165098152Y-76620476D01*
X165098152Y-76620476D02*
X165193390Y-76668095D01*
X165193390Y-76668095D02*
X165241009Y-76715714D01*
X165241009Y-76715714D02*
X165288628Y-76810952D01*
X165288628Y-76810952D02*
X165288628Y-77191904D01*
X165764819Y-76191904D02*
X164764819Y-76191904D01*
X164764819Y-76191904D02*
X165764819Y-75620476D01*
X165764819Y-75620476D02*
X164764819Y-75620476D01*
X165764819Y-74620476D02*
X165764819Y-75191904D01*
X165764819Y-74906190D02*
X164764819Y-74906190D01*
X164764819Y-74906190D02*
X164907676Y-75001428D01*
X164907676Y-75001428D02*
X165002914Y-75096666D01*
X165002914Y-75096666D02*
X165050533Y-75191904D01*
X165333333Y-98859580D02*
X165285714Y-98907200D01*
X165285714Y-98907200D02*
X165142857Y-98954819D01*
X165142857Y-98954819D02*
X165047619Y-98954819D01*
X165047619Y-98954819D02*
X164904762Y-98907200D01*
X164904762Y-98907200D02*
X164809524Y-98811961D01*
X164809524Y-98811961D02*
X164761905Y-98716723D01*
X164761905Y-98716723D02*
X164714286Y-98526247D01*
X164714286Y-98526247D02*
X164714286Y-98383390D01*
X164714286Y-98383390D02*
X164761905Y-98192914D01*
X164761905Y-98192914D02*
X164809524Y-98097676D01*
X164809524Y-98097676D02*
X164904762Y-98002438D01*
X164904762Y-98002438D02*
X165047619Y-97954819D01*
X165047619Y-97954819D02*
X165142857Y-97954819D01*
X165142857Y-97954819D02*
X165285714Y-98002438D01*
X165285714Y-98002438D02*
X165333333Y-98050057D01*
X166190476Y-98288152D02*
X166190476Y-98954819D01*
X165952381Y-97907200D02*
X165714286Y-98621485D01*
X165714286Y-98621485D02*
X166333333Y-98621485D01*
X122428095Y-54624819D02*
X122428095Y-55434342D01*
X122428095Y-55434342D02*
X122475714Y-55529580D01*
X122475714Y-55529580D02*
X122523333Y-55577200D01*
X122523333Y-55577200D02*
X122618571Y-55624819D01*
X122618571Y-55624819D02*
X122809047Y-55624819D01*
X122809047Y-55624819D02*
X122904285Y-55577200D01*
X122904285Y-55577200D02*
X122951904Y-55529580D01*
X122951904Y-55529580D02*
X122999523Y-55434342D01*
X122999523Y-55434342D02*
X122999523Y-54624819D01*
X123999523Y-55624819D02*
X123428095Y-55624819D01*
X123713809Y-55624819D02*
X123713809Y-54624819D01*
X123713809Y-54624819D02*
X123618571Y-54767676D01*
X123618571Y-54767676D02*
X123523333Y-54862914D01*
X123523333Y-54862914D02*
X123428095Y-54910533D01*
D11*
X120800000Y-99290000D02*
X120800000Y-140170000D01*
X120800000Y-140170000D02*
X126340000Y-140170000D01*
X122570000Y-99290000D02*
X120800000Y-99290000D01*
X126340000Y-99290000D02*
X124570000Y-99290000D01*
X126340000Y-140170000D02*
X126340000Y-99290000D01*
X124570000Y-99290000D02*
G75*
G02*
X122570000Y-99290000I-1000000J0D01*
G01*
X96427000Y-49260000D02*
X101987000Y-49260000D01*
X96427000Y-143780000D02*
X101987000Y-143780000D01*
X100987000Y-56280000D02*
X100987000Y-54780000D01*
X100987000Y-58820000D02*
X100987000Y-58019000D01*
X100987000Y-61360000D02*
X100987000Y-60559000D01*
X100987000Y-63900000D02*
X100987000Y-63099000D01*
X100987000Y-66440000D02*
X100987000Y-65639000D01*
X100987000Y-68980000D02*
X100987000Y-68179000D01*
X100987000Y-71520000D02*
X100987000Y-70719000D01*
X100987000Y-74060000D02*
X100987000Y-73259000D01*
X100987000Y-76600000D02*
X100987000Y-75799000D01*
X100987000Y-79140000D02*
X100987000Y-78339000D01*
X100987000Y-81680000D02*
X100987000Y-80879000D01*
X100987000Y-84220000D02*
X100987000Y-83419000D01*
X100987000Y-86760000D02*
X100987000Y-85959000D01*
X100987000Y-89300000D02*
X100987000Y-88499000D01*
X100987000Y-91840000D02*
X100987000Y-91039000D01*
X100987000Y-94380000D02*
X100987000Y-93579000D01*
X100987000Y-96920000D02*
X100987000Y-96119000D01*
X100987000Y-99460000D02*
X100987000Y-98659000D01*
X100987000Y-102000000D02*
X100987000Y-101199000D01*
X100987000Y-104540000D02*
X100987000Y-103739000D01*
X100987000Y-107080000D02*
X100987000Y-106279000D01*
X100987000Y-109620000D02*
X100987000Y-108819000D01*
X100987000Y-112160000D02*
X100987000Y-111359000D01*
X100987000Y-114700000D02*
X100987000Y-113899000D01*
X100987000Y-117240000D02*
X100987000Y-116439000D01*
X100987000Y-119780000D02*
X100987000Y-118979000D01*
X100987000Y-122320000D02*
X100987000Y-121519000D01*
X100987000Y-124860000D02*
X100987000Y-124059000D01*
X100987000Y-127400000D02*
X100987000Y-126599000D01*
X100987000Y-129940000D02*
X100987000Y-129139000D01*
X100987000Y-132480000D02*
X100987000Y-131679000D01*
X100987000Y-134795000D02*
X100987000Y-134219000D01*
X100987000Y-138261000D02*
X100987000Y-136985000D01*
X101427000Y-137585000D02*
X102027000Y-137585000D01*
X101727000Y-136985000D02*
X101427000Y-137585000D01*
X101987000Y-49260000D02*
X101987000Y-54780000D01*
X101987000Y-54780000D02*
X100987000Y-54780000D01*
X101987000Y-138260000D02*
X100987000Y-138260000D01*
X101987000Y-143780000D02*
X101987000Y-138260000D01*
X102027000Y-137585000D02*
X101727000Y-136985000D01*
X163060000Y-105170000D02*
X163060000Y-140850000D01*
X163060000Y-140850000D02*
X175180000Y-140850000D01*
X168120000Y-105170000D02*
X163060000Y-105170000D01*
X175180000Y-105170000D02*
X170120000Y-105170000D01*
X175180000Y-140850000D02*
X175180000Y-105170000D01*
X160060000Y-105110000D02*
X178180000Y-105110000D01*
X178180000Y-140910000D01*
X160060000Y-140910000D01*
X160060000Y-105110000D01*
X170120000Y-105170000D02*
G75*
G02*
X168120000Y-105170000I-1000000J0D01*
G01*
X175440000Y-77670000D02*
X175440000Y-87950000D01*
X175440000Y-87950000D02*
X179940000Y-87950000D01*
X176690000Y-77670000D02*
X175440000Y-77670000D01*
X179940000Y-77670000D02*
X178690000Y-77670000D01*
X179940000Y-87950000D02*
X179940000Y-77670000D01*
X172440000Y-77610000D02*
X182940000Y-77610000D01*
X182940000Y-88010000D01*
X172440000Y-88010000D01*
X172440000Y-77610000D01*
X178690000Y-77670000D02*
G75*
G02*
X176690000Y-77670000I-1000000J0D01*
G01*
X139380000Y-49230000D02*
X144620000Y-49230000D01*
X139380000Y-49567000D02*
X139380000Y-49230000D01*
X139380000Y-51970000D02*
X139380000Y-51633000D01*
X144620000Y-49230000D02*
X144620000Y-49567000D01*
X144620000Y-51633000D02*
X144620000Y-51970000D01*
X144620000Y-51970000D02*
X139380000Y-51970000D01*
X120380000Y-49630000D02*
X125620000Y-49630000D01*
X120380000Y-49967000D02*
X120380000Y-49630000D01*
X120380000Y-52370000D02*
X120380000Y-52033000D01*
X125620000Y-49630000D02*
X125620000Y-49967000D01*
X125620000Y-52033000D02*
X125620000Y-52370000D01*
X125620000Y-52370000D02*
X120380000Y-52370000D01*
X140320000Y-54510000D02*
X140320000Y-105430000D01*
X140320000Y-105430000D02*
X152440000Y-105430000D01*
X145380000Y-54510000D02*
X140320000Y-54510000D01*
X152440000Y-54510000D02*
X147380000Y-54510000D01*
X152440000Y-105430000D02*
X152440000Y-54510000D01*
X137320000Y-54450000D02*
X155440000Y-54450000D01*
X155440000Y-105490000D01*
X137320000Y-105490000D01*
X137320000Y-54450000D01*
X147380000Y-54510000D02*
G75*
G02*
X145380000Y-54510000I-1000000J0D01*
G01*
X182380000Y-59650000D02*
X182380000Y-59950000D01*
X182380000Y-59650000D02*
X190000000Y-59650000D01*
X182380000Y-61890000D02*
X182380000Y-65030000D01*
X182380000Y-66970000D02*
X182380000Y-67270000D01*
X190000000Y-59650000D02*
X190000000Y-59950000D01*
X190000000Y-61890000D02*
X190000000Y-65030000D01*
X190000000Y-66970000D02*
X190000000Y-67270000D01*
X190000000Y-67270000D02*
X182380000Y-67270000D01*
X188730000Y-63460000D02*
G75*
G02*
X183650000Y-63460000I-2540000J0D01*
G01*
X183650000Y-63460000D02*
G75*
G02*
X188730000Y-63460000I2540000J0D01*
G01*
X173380000Y-71130000D02*
X178620000Y-71130000D01*
X173380000Y-71467000D02*
X173380000Y-71130000D01*
X173380000Y-73870000D02*
X173380000Y-73533000D01*
X178620000Y-71130000D02*
X178620000Y-71467000D01*
X178620000Y-73533000D02*
X178620000Y-73870000D01*
X178620000Y-73870000D02*
X173380000Y-73870000D01*
X183120000Y-105540000D02*
X184500000Y-105540000D01*
X183120000Y-106920000D02*
X183120000Y-105540000D01*
X183120000Y-108190000D02*
X183120000Y-113380000D01*
X183120000Y-108190000D02*
X185880000Y-108190000D01*
X183120000Y-113380000D02*
X185880000Y-113380000D01*
X185880000Y-108190000D02*
X185880000Y-113380000D01*
X187120000Y-81580000D02*
X188500000Y-81580000D01*
X187120000Y-82960000D02*
X187120000Y-81580000D01*
X187120000Y-84230000D02*
X187120000Y-86880000D01*
X187120000Y-84230000D02*
X189880000Y-84230000D01*
X187120000Y-86880000D02*
X189880000Y-86880000D01*
X189880000Y-84230000D02*
X189880000Y-86880000D01*
X120380000Y-92630000D02*
X125620000Y-92630000D01*
X120380000Y-92967000D02*
X120380000Y-92630000D01*
X120380000Y-95370000D02*
X120380000Y-95033000D01*
X125620000Y-92630000D02*
X125620000Y-92967000D01*
X125620000Y-95033000D02*
X125620000Y-95370000D01*
X125620000Y-95370000D02*
X120380000Y-95370000D01*
X161690000Y-63150000D02*
X161690000Y-86170000D01*
X161690000Y-86170000D02*
X164310000Y-86170000D01*
X164310000Y-63150000D02*
X161690000Y-63150000D01*
X164310000Y-65770000D02*
X161690000Y-65770000D01*
X164310000Y-86170000D02*
X164310000Y-63150000D01*
X162880000Y-99630000D02*
X168120000Y-99630000D01*
X162880000Y-99967000D02*
X162880000Y-99630000D01*
X162880000Y-102370000D02*
X162880000Y-102033000D01*
X168120000Y-99630000D02*
X168120000Y-99967000D01*
X168120000Y-102033000D02*
X168120000Y-102370000D01*
X168120000Y-102370000D02*
X162880000Y-102370000D01*
X120940000Y-56170000D02*
X120940000Y-86770000D01*
X120940000Y-86770000D02*
X125440000Y-86770000D01*
X122190000Y-56170000D02*
X120940000Y-56170000D01*
X125440000Y-56170000D02*
X124190000Y-56170000D01*
X125440000Y-86770000D02*
X125440000Y-56170000D01*
X117940000Y-56110000D02*
X128440000Y-56110000D01*
X128440000Y-86830000D01*
X117940000Y-86830000D01*
X117940000Y-56110000D01*
X124190000Y-56170000D02*
G75*
G02*
X122190000Y-56170000I-1000000J0D01*
G01*
%LPC*%
D12*
X119760000Y-100680000D03*
D13*
X119760000Y-103220000D03*
X119760000Y-105760000D03*
X119760000Y-108300000D03*
X119760000Y-110840000D03*
X119760000Y-113380000D03*
X119760000Y-115920000D03*
X119760000Y-118460000D03*
X119760000Y-121000000D03*
X119760000Y-123540000D03*
X119760000Y-126080000D03*
X119760000Y-128620000D03*
X119760000Y-131160000D03*
X119760000Y-133700000D03*
X119760000Y-136240000D03*
X119760000Y-138780000D03*
X127380000Y-138780000D03*
X127380000Y-136240000D03*
X127380000Y-133700000D03*
X127380000Y-131160000D03*
X127380000Y-128620000D03*
X127380000Y-126080000D03*
X127380000Y-123540000D03*
X127380000Y-121000000D03*
X127380000Y-118460000D03*
X127380000Y-115920000D03*
X127380000Y-113380000D03*
X127380000Y-110840000D03*
X127380000Y-108300000D03*
X127380000Y-105760000D03*
X127380000Y-103220000D03*
X127380000Y-100680000D03*
D14*
X192532000Y-50419000D03*
X192532000Y-142621000D03*
X106172000Y-50419000D03*
X106172000Y-142621000D03*
D15*
X99187000Y-140970000D03*
X99187000Y-52070000D03*
D16*
X101727000Y-135890000D03*
D17*
X101727000Y-133350000D03*
X101727000Y-130810000D03*
X101727000Y-128270000D03*
X101727000Y-125730000D03*
X101727000Y-123190000D03*
X101727000Y-120650000D03*
X101727000Y-118110000D03*
X101727000Y-115570000D03*
X101727000Y-113030000D03*
X101727000Y-110490000D03*
X101727000Y-107950000D03*
X101727000Y-105410000D03*
X101727000Y-102870000D03*
X101727000Y-100330000D03*
X101727000Y-97790000D03*
X101727000Y-95250000D03*
X101727000Y-92710000D03*
X101727000Y-90170000D03*
X101727000Y-87630000D03*
X101727000Y-85090000D03*
X101727000Y-82550000D03*
X101727000Y-80010000D03*
X101727000Y-77470000D03*
X101727000Y-74930000D03*
X101727000Y-72390000D03*
X101727000Y-69850000D03*
X101727000Y-67310000D03*
X101727000Y-64770000D03*
X101727000Y-62230000D03*
X101727000Y-59690000D03*
X101727000Y-57150000D03*
X106807000Y-135890000D03*
X106807000Y-133350000D03*
X106807000Y-130810000D03*
X106807000Y-128270000D03*
X106807000Y-125730000D03*
X106807000Y-123190000D03*
X106807000Y-120650000D03*
X106807000Y-118110000D03*
X106807000Y-115570000D03*
X106807000Y-113030000D03*
X106807000Y-110490000D03*
X106807000Y-107950000D03*
X106807000Y-105410000D03*
X106807000Y-102870000D03*
X106807000Y-100330000D03*
X106807000Y-97790000D03*
X106807000Y-95250000D03*
X106807000Y-92710000D03*
X106807000Y-90170000D03*
X106807000Y-87630000D03*
X106807000Y-85090000D03*
X106807000Y-82550000D03*
X106807000Y-80010000D03*
X106807000Y-77470000D03*
X106807000Y-74930000D03*
X106807000Y-72390000D03*
X106807000Y-69850000D03*
X106807000Y-67310000D03*
X106807000Y-64770000D03*
X106807000Y-62230000D03*
X106807000Y-59690000D03*
X106807000Y-57150000D03*
D18*
X161500000Y-106500000D03*
D19*
X161500000Y-109040000D03*
X161500000Y-111580000D03*
X161500000Y-114120000D03*
X161500000Y-116660000D03*
X161500000Y-119200000D03*
X161500000Y-121740000D03*
X161500000Y-124280000D03*
X161500000Y-126820000D03*
X161500000Y-129360000D03*
X161500000Y-131900000D03*
X161500000Y-134440000D03*
X161500000Y-136980000D03*
X161500000Y-139520000D03*
X176740000Y-139520000D03*
X176740000Y-136980000D03*
X176740000Y-134440000D03*
X176740000Y-131900000D03*
X176740000Y-129360000D03*
X176740000Y-126820000D03*
X176740000Y-124280000D03*
X176740000Y-121740000D03*
X176740000Y-119200000D03*
X176740000Y-116660000D03*
X176740000Y-114120000D03*
X176740000Y-111580000D03*
X176740000Y-109040000D03*
X176740000Y-106500000D03*
D18*
X173880000Y-79000000D03*
D19*
X173880000Y-81540000D03*
X173880000Y-84080000D03*
X173880000Y-86620000D03*
X181500000Y-86620000D03*
X181500000Y-84080000D03*
X181500000Y-81540000D03*
X181500000Y-79000000D03*
D20*
X139500000Y-50600000D03*
X144500000Y-50600000D03*
X120500000Y-51000000D03*
X125500000Y-51000000D03*
D18*
X138760000Y-55840000D03*
D19*
X138760000Y-58380000D03*
X138760000Y-60920000D03*
X138760000Y-63460000D03*
X138760000Y-66000000D03*
X138760000Y-68540000D03*
X138760000Y-71080000D03*
X138760000Y-73620000D03*
X138760000Y-76160000D03*
X138760000Y-78700000D03*
X138760000Y-81240000D03*
X138760000Y-83780000D03*
X138760000Y-86320000D03*
X138760000Y-88860000D03*
X138760000Y-91400000D03*
X138760000Y-93940000D03*
X138760000Y-96480000D03*
X138760000Y-99020000D03*
X138760000Y-101560000D03*
X138760000Y-104100000D03*
X154000000Y-104100000D03*
X154000000Y-101560000D03*
X154000000Y-99020000D03*
X154000000Y-96480000D03*
X154000000Y-93940000D03*
X154000000Y-91400000D03*
X154000000Y-88860000D03*
X154000000Y-86320000D03*
X154000000Y-83780000D03*
X154000000Y-81240000D03*
X154000000Y-78700000D03*
X154000000Y-76160000D03*
X154000000Y-73620000D03*
X154000000Y-71080000D03*
X154000000Y-68540000D03*
X154000000Y-66000000D03*
X154000000Y-63460000D03*
X154000000Y-60920000D03*
X154000000Y-58380000D03*
X154000000Y-55840000D03*
D21*
X182380000Y-60920000D03*
X190000000Y-60920000D03*
X182380000Y-66000000D03*
X190000000Y-66000000D03*
D20*
X173500000Y-72500000D03*
X178500000Y-72500000D03*
D22*
X184500000Y-106920000D03*
D23*
X184500000Y-109460000D03*
X184500000Y-112000000D03*
D22*
X188500000Y-82960000D03*
D23*
X188500000Y-85500000D03*
D20*
X120500000Y-94000000D03*
X125500000Y-94000000D03*
D12*
X163000000Y-64500000D03*
D20*
X163000000Y-67040000D03*
X163000000Y-69580000D03*
X163000000Y-72120000D03*
X163000000Y-74660000D03*
X163000000Y-77200000D03*
X163000000Y-79740000D03*
X163000000Y-82280000D03*
X163000000Y-84820000D03*
X163000000Y-101000000D03*
X168000000Y-101000000D03*
D18*
X119380000Y-57500000D03*
D19*
X119380000Y-60040000D03*
X119380000Y-62580000D03*
X119380000Y-65120000D03*
X119380000Y-67660000D03*
X119380000Y-70200000D03*
X119380000Y-72740000D03*
X119380000Y-75280000D03*
X119380000Y-77820000D03*
X119380000Y-80360000D03*
X119380000Y-82900000D03*
X119380000Y-85440000D03*
X127000000Y-85440000D03*
X127000000Y-82900000D03*
X127000000Y-80360000D03*
X127000000Y-77820000D03*
X127000000Y-75280000D03*
X127000000Y-72740000D03*
X127000000Y-70200000D03*
X127000000Y-67660000D03*
X127000000Y-65120000D03*
X127000000Y-62580000D03*
X127000000Y-60040000D03*
X127000000Y-57500000D03*
%LPD*%
M02*
