G04 #@! TF.GenerationSoftware,KiCad,Pcbnew,9.0.6*
G04 #@! TF.CreationDate,2026-03-09T09:25:51+11:00*
G04 #@! TF.ProjectId,MECB_IDE,4d454342-5f49-4444-952e-6b696361645f,1.0*
G04 #@! TF.SameCoordinates,Original*
G04 #@! TF.FileFunction,Soldermask,Bot*
G04 #@! TF.FilePolarity,Negative*
%FSLAX46Y46*%
G04 Gerber Fmt 4.6, Leading zero omitted, Abs format (unit mm)*
G04 Created by KiCad (PCBNEW 9.0.6) date 2026-03-09 09:25:51*
%MOMM*%
%LPD*%
G01*
G04 APERTURE LIST*
G04 Aperture macros list*
%AMRoundRect*
0 Rectangle with rounded corners*
0 $1 Rounding radius*
0 $2 $3 $4 $5 $6 $7 $8 $9 X,Y pos of 4 corners*
0 Add a 4 corners polygon primitive as box body*
4,1,4,$2,$3,$4,$5,$6,$7,$8,$9,$2,$3,0*
0 Add four circle primitives for the rounded corners*
1,1,$1+$1,$2,$3*
1,1,$1+$1,$4,$5*
1,1,$1+$1,$6,$7*
1,1,$1+$1,$8,$9*
0 Add four rect primitives between the rounded corners*
20,1,$1+$1,$2,$3,$4,$5,0*
20,1,$1+$1,$4,$5,$6,$7,0*
20,1,$1+$1,$6,$7,$8,$9,0*
20,1,$1+$1,$8,$9,$2,$3,0*%
G04 Aperture macros list end*
%ADD10C,3.200000*%
%ADD11R,1.350000X1.350000*%
%ADD12C,1.350000*%
%ADD13R,3.500000X3.500000*%
%ADD14RoundRect,0.750000X0.750000X1.000000X-0.750000X1.000000X-0.750000X-1.000000X0.750000X-1.000000X0*%
%ADD15RoundRect,0.875000X0.875000X0.875000X-0.875000X0.875000X-0.875000X-0.875000X0.875000X-0.875000X0*%
%ADD16C,2.850000*%
%ADD17RoundRect,0.249550X0.525450X-0.525450X0.525450X0.525450X-0.525450X0.525450X-0.525450X-0.525450X0*%
%ADD18C,1.550000*%
%ADD19RoundRect,0.250000X-0.950000X-0.550000X0.950000X-0.550000X0.950000X0.550000X-0.950000X0.550000X0*%
%ADD20O,2.400000X1.600000*%
%ADD21C,1.600000*%
%ADD22R,1.700000X1.700000*%
%ADD23C,1.700000*%
%ADD24R,1.800000X1.800000*%
%ADD25C,1.800000*%
%ADD26RoundRect,0.250000X0.600000X0.600000X-0.600000X0.600000X-0.600000X-0.600000X0.600000X-0.600000X0*%
G04 APERTURE END LIST*
D10*
X192532000Y-50419000D03*
X192532000Y-142621000D03*
X106172000Y-50419000D03*
X106172000Y-142621000D03*
D11*
X190000000Y-119240000D03*
D12*
X188000000Y-119240000D03*
X190000000Y-117240000D03*
X188000000Y-117240000D03*
X190000000Y-115240000D03*
X188000000Y-115240000D03*
X190000000Y-113240000D03*
X188000000Y-113240000D03*
X190000000Y-111240000D03*
X188000000Y-111240000D03*
X190000000Y-109240000D03*
X188000000Y-109240000D03*
X190000000Y-107240000D03*
X188000000Y-107240000D03*
X190000000Y-105240000D03*
X188000000Y-105240000D03*
X190000000Y-103240000D03*
X188000000Y-103240000D03*
X190000000Y-101240000D03*
X188000000Y-101240000D03*
X190000000Y-99240000D03*
X188000000Y-99240000D03*
X190000000Y-97240000D03*
X188000000Y-97240000D03*
X190000000Y-95240000D03*
X188000000Y-95240000D03*
X190000000Y-93240000D03*
X188000000Y-93240000D03*
X190000000Y-91240000D03*
X188000000Y-91240000D03*
X190000000Y-89240000D03*
X188000000Y-89240000D03*
X190000000Y-87240000D03*
X188000000Y-87240000D03*
X190000000Y-85240000D03*
X188000000Y-85240000D03*
X190000000Y-83240000D03*
X188000000Y-83240000D03*
X190000000Y-81240000D03*
X188000000Y-81240000D03*
X190000000Y-79240000D03*
X188000000Y-79240000D03*
X190000000Y-77240000D03*
X188000000Y-77240000D03*
D13*
X186000000Y-61000000D03*
D14*
X192000000Y-61000000D03*
D15*
X189000000Y-56300000D03*
D16*
X99187000Y-140970000D03*
X99187000Y-52070000D03*
D17*
X101727000Y-135890000D03*
D18*
X101727000Y-133350000D03*
X101727000Y-130810000D03*
X101727000Y-128270000D03*
X101727000Y-125730000D03*
X101727000Y-123190000D03*
X101727000Y-120650000D03*
X101727000Y-118110000D03*
X101727000Y-115570000D03*
X101727000Y-113030000D03*
X101727000Y-110490000D03*
X101727000Y-107950000D03*
X101727000Y-105410000D03*
X101727000Y-102870000D03*
X101727000Y-100330000D03*
X101727000Y-97790000D03*
X101727000Y-95250000D03*
X101727000Y-92710000D03*
X101727000Y-90170000D03*
X101727000Y-87630000D03*
X101727000Y-85090000D03*
X101727000Y-82550000D03*
X101727000Y-80010000D03*
X101727000Y-77470000D03*
X101727000Y-74930000D03*
X101727000Y-72390000D03*
X101727000Y-69850000D03*
X101727000Y-67310000D03*
X101727000Y-64770000D03*
X101727000Y-62230000D03*
X101727000Y-59690000D03*
X101727000Y-57150000D03*
X106807000Y-135890000D03*
X106807000Y-133350000D03*
X106807000Y-130810000D03*
X106807000Y-128270000D03*
X106807000Y-125730000D03*
X106807000Y-123190000D03*
X106807000Y-120650000D03*
X106807000Y-118110000D03*
X106807000Y-115570000D03*
X106807000Y-113030000D03*
X106807000Y-110490000D03*
X106807000Y-107950000D03*
X106807000Y-105410000D03*
X106807000Y-102870000D03*
X106807000Y-100330000D03*
X106807000Y-97790000D03*
X106807000Y-95250000D03*
X106807000Y-92710000D03*
X106807000Y-90170000D03*
X106807000Y-87630000D03*
X106807000Y-85090000D03*
X106807000Y-82550000D03*
X106807000Y-80010000D03*
X106807000Y-77470000D03*
X106807000Y-74930000D03*
X106807000Y-72390000D03*
X106807000Y-69850000D03*
X106807000Y-67310000D03*
X106807000Y-64770000D03*
X106807000Y-62230000D03*
X106807000Y-59690000D03*
X106807000Y-57150000D03*
D19*
X115760000Y-91740000D03*
D20*
X115760000Y-94280000D03*
X115760000Y-96820000D03*
X115760000Y-99360000D03*
X115760000Y-101900000D03*
X115760000Y-104440000D03*
X115760000Y-106980000D03*
X115760000Y-109520000D03*
X115760000Y-112060000D03*
X115760000Y-114600000D03*
X115760000Y-117140000D03*
X115760000Y-119680000D03*
X115760000Y-122220000D03*
X115760000Y-124760000D03*
X115760000Y-127300000D03*
X115760000Y-129840000D03*
X115760000Y-132380000D03*
X115760000Y-134920000D03*
X115760000Y-137460000D03*
X115760000Y-140000000D03*
X131000000Y-140000000D03*
X131000000Y-137460000D03*
X131000000Y-134920000D03*
X131000000Y-132380000D03*
X131000000Y-129840000D03*
X131000000Y-127300000D03*
X131000000Y-124760000D03*
X131000000Y-122220000D03*
X131000000Y-119680000D03*
X131000000Y-117140000D03*
X131000000Y-114600000D03*
X131000000Y-112060000D03*
X131000000Y-109520000D03*
X131000000Y-106980000D03*
X131000000Y-104440000D03*
X131000000Y-101900000D03*
X131000000Y-99360000D03*
X131000000Y-96820000D03*
X131000000Y-94280000D03*
X131000000Y-91740000D03*
D19*
X115880000Y-55800000D03*
D20*
X115880000Y-58340000D03*
X115880000Y-60880000D03*
X115880000Y-63420000D03*
X115880000Y-65960000D03*
X115880000Y-68500000D03*
X115880000Y-71040000D03*
X115880000Y-73580000D03*
X115880000Y-76120000D03*
X115880000Y-78660000D03*
X115880000Y-81200000D03*
X115880000Y-83740000D03*
X123500000Y-83740000D03*
X123500000Y-81200000D03*
X123500000Y-78660000D03*
X123500000Y-76120000D03*
X123500000Y-73580000D03*
X123500000Y-71040000D03*
X123500000Y-68500000D03*
X123500000Y-65960000D03*
X123500000Y-63420000D03*
X123500000Y-60880000D03*
X123500000Y-58340000D03*
X123500000Y-55800000D03*
D21*
X128500000Y-86500000D03*
X133500000Y-86500000D03*
X114000000Y-50500000D03*
X119000000Y-50500000D03*
D19*
X142380000Y-114500000D03*
D20*
X142380000Y-117040000D03*
X142380000Y-119580000D03*
X142380000Y-122120000D03*
X142380000Y-124660000D03*
X142380000Y-127200000D03*
X142380000Y-129740000D03*
X150000000Y-129740000D03*
X150000000Y-127200000D03*
X150000000Y-124660000D03*
X150000000Y-122120000D03*
X150000000Y-119580000D03*
X150000000Y-117040000D03*
X150000000Y-114500000D03*
D21*
X148000000Y-109000000D03*
X153000000Y-109000000D03*
X140650000Y-75000000D03*
X153350000Y-75000000D03*
X140650000Y-79750000D03*
X153350000Y-79750000D03*
X140650000Y-70250000D03*
X153350000Y-70250000D03*
D22*
X164500000Y-124460000D03*
D23*
X164500000Y-127000000D03*
D21*
X140650000Y-65500000D03*
X153350000Y-65500000D03*
D24*
X191665000Y-133270000D03*
D25*
X191665000Y-130730000D03*
D26*
X179500000Y-123240000D03*
D23*
X176960000Y-123240000D03*
X179500000Y-120700000D03*
X176960000Y-120700000D03*
X179500000Y-118160000D03*
X176960000Y-118160000D03*
X179500000Y-115620000D03*
X176960000Y-115620000D03*
X179500000Y-113080000D03*
X176960000Y-113080000D03*
X179500000Y-110540000D03*
X176960000Y-110540000D03*
X179500000Y-108000000D03*
X176960000Y-108000000D03*
X179500000Y-105460000D03*
X176960000Y-105460000D03*
X179500000Y-102920000D03*
X176960000Y-102920000D03*
X179500000Y-100380000D03*
X176960000Y-100380000D03*
X179500000Y-97840000D03*
X176960000Y-97840000D03*
X179500000Y-95300000D03*
X176960000Y-95300000D03*
X179500000Y-92760000D03*
X176960000Y-92760000D03*
X179500000Y-90220000D03*
X176960000Y-90220000D03*
X179500000Y-87680000D03*
X176960000Y-87680000D03*
X179500000Y-85140000D03*
X176960000Y-85140000D03*
X179500000Y-82600000D03*
X176960000Y-82600000D03*
X179500000Y-80060000D03*
X176960000Y-80060000D03*
X179500000Y-77520000D03*
X176960000Y-77520000D03*
X179500000Y-74980000D03*
X176960000Y-74980000D03*
M02*
