M48
; DRILL file {KiCad 9.0.6} date 2026-03-09T09:25:43+1100
; FORMAT={-:-/ absolute / metric / decimal}
; #@! TF.CreationDate,2026-03-09T09:25:43+11:00
; #@! TF.GenerationSoftware,Kicad,Pcbnew,9.0.6
; #@! TF.FileFunction,Plated,1,2,PTH
FMAT,2
METRIC
; #@! TA.AperFunction,Plated,PTH,ViaDrill
T1C0.400
; #@! TA.AperFunction,Plated,PTH,ComponentDrill
T2C0.800
; #@! TA.AperFunction,Plated,PTH,ComponentDrill
T3C0.900
; #@! TA.AperFunction,Plated,PTH,ComponentDrill
T4C1.000
%
G90
G05
T1
X103.308Y-76.716
X104.953Y-78.159
X105.662Y-71.29
X109.931Y-102.244
X110.714Y-87.622
X111.41Y-118.221
X112.243Y-83.828
X112.354Y-82.062
X112.647Y-126.588
X112.883Y-122.117
X113.521Y-72.47
X114.087Y-118.787
X118.576Y-135.018
X118.93Y-104.898
X121.425Y-109.984
X122.697Y-90.749
X128.009Y-124.854
X128.498Y-140.761
X128.953Y-108.54
X134.281Y-104.823
X134.322Y-94.828
X134.462Y-106.713
X134.789Y-116.879
X135.788Y-103.796
X136.814Y-76.269
X139.767Y-113.18
X143.556Y-110.826
X147.271Y-122.03
X149.975Y-93.594
X152.201Y-86.901
X152.201Y-139.75
X152.736Y-102.468
X153.489Y-96.66
X156.325Y-74.389
X159.895Y-133.65
X164.01Y-117.411
X166.039Y-90.22
X166.673Y-105.553
X167.442Y-129.367
X167.669Y-125.004
X168.985Y-103.469
X169.037Y-127.297
X169.807Y-86.837
X170.088Y-137.634
X170.616Y-125.222
X170.633Y-128.728
X171.435Y-133.068
X171.436Y-140.77
X171.835Y-100.945
X172.227Y-137.216
X172.596Y-133.174
X172.879Y-102.598
X173.301Y-108.471
X173.719Y-116.471
X173.867Y-126.126
X175.237Y-134.627
X179.13Y-71.453
X179.13Y-136.913
X182.006Y-84.199
X182.622Y-117.484
X182.977Y-70.458
X182.982Y-98.323
X184.139Y-69.961
X185.756Y-118.357
X186.564Y-67.729
X186.681Y-74.681
X189.909Y-66.322
X190.671Y-136.913
X190.673Y-67.666
X191.01Y-69.02
X191.356Y-79.467
X192.454Y-106.137
X192.853Y-107.299
X194.721Y-86.901
X194.849Y-98.444
T2
X114.0Y-50.5
X115.76Y-91.74
X115.76Y-94.28
X115.76Y-96.82
X115.76Y-99.36
X115.76Y-101.9
X115.76Y-104.44
X115.76Y-106.98
X115.76Y-109.52
X115.76Y-112.06
X115.76Y-114.6
X115.76Y-117.14
X115.76Y-119.68
X115.76Y-122.22
X115.76Y-124.76
X115.76Y-127.3
X115.76Y-129.84
X115.76Y-132.38
X115.76Y-134.92
X115.76Y-137.46
X115.76Y-140.0
X115.88Y-55.8
X115.88Y-58.34
X115.88Y-60.88
X115.88Y-63.42
X115.88Y-65.96
X115.88Y-68.5
X115.88Y-71.04
X115.88Y-73.58
X115.88Y-76.12
X115.88Y-78.66
X115.88Y-81.2
X115.88Y-83.74
X119.0Y-50.5
X123.5Y-55.8
X123.5Y-58.34
X123.5Y-60.88
X123.5Y-63.42
X123.5Y-65.96
X123.5Y-68.5
X123.5Y-71.04
X123.5Y-73.58
X123.5Y-76.12
X123.5Y-78.66
X123.5Y-81.2
X123.5Y-83.74
X128.5Y-86.5
X131.0Y-91.74
X131.0Y-94.28
X131.0Y-96.82
X131.0Y-99.36
X131.0Y-101.9
X131.0Y-104.44
X131.0Y-106.98
X131.0Y-109.52
X131.0Y-112.06
X131.0Y-114.6
X131.0Y-117.14
X131.0Y-119.68
X131.0Y-122.22
X131.0Y-124.76
X131.0Y-127.3
X131.0Y-129.84
X131.0Y-132.38
X131.0Y-134.92
X131.0Y-137.46
X131.0Y-140.0
X133.5Y-86.5
X140.65Y-65.5
X140.65Y-70.25
X140.65Y-75.0
X140.65Y-79.75
X142.38Y-114.5
X142.38Y-117.04
X142.38Y-119.58
X142.38Y-122.12
X142.38Y-124.66
X142.38Y-127.2
X142.38Y-129.74
X148.0Y-109.0
X150.0Y-114.5
X150.0Y-117.04
X150.0Y-119.58
X150.0Y-122.12
X150.0Y-124.66
X150.0Y-127.2
X150.0Y-129.74
X153.0Y-109.0
X153.35Y-65.5
X153.35Y-70.25
X153.35Y-75.0
X153.35Y-79.75
X188.0Y-77.24
X188.0Y-79.24
X188.0Y-81.24
X188.0Y-83.24
X188.0Y-85.24
X188.0Y-87.24
X188.0Y-89.24
X188.0Y-91.24
X188.0Y-93.24
X188.0Y-95.24
X188.0Y-97.24
X188.0Y-99.24
X188.0Y-101.24
X188.0Y-103.24
X188.0Y-105.24
X188.0Y-107.24
X188.0Y-109.24
X188.0Y-111.24
X188.0Y-113.24
X188.0Y-115.24
X188.0Y-117.24
X188.0Y-119.24
X190.0Y-77.24
X190.0Y-79.24
X190.0Y-81.24
X190.0Y-83.24
X190.0Y-85.24
X190.0Y-87.24
X190.0Y-89.24
X190.0Y-91.24
X190.0Y-93.24
X190.0Y-95.24
X190.0Y-97.24
X190.0Y-99.24
X190.0Y-101.24
X190.0Y-103.24
X190.0Y-105.24
X190.0Y-107.24
X190.0Y-109.24
X190.0Y-111.24
X190.0Y-113.24
X190.0Y-115.24
X190.0Y-117.24
X190.0Y-119.24
T3
X191.665Y-130.73
X191.665Y-133.27
T4
X101.727Y-57.15
X101.727Y-59.69
X101.727Y-62.23
X101.727Y-64.77
X101.727Y-67.31
X101.727Y-69.85
X101.727Y-72.39
X101.727Y-74.93
X101.727Y-77.47
X101.727Y-80.01
X101.727Y-82.55
X101.727Y-85.09
X101.727Y-87.63
X101.727Y-90.17
X101.727Y-92.71
X101.727Y-95.25
X101.727Y-97.79
X101.727Y-100.33
X101.727Y-102.87
X101.727Y-105.41
X101.727Y-107.95
X101.727Y-110.49
X101.727Y-113.03
X101.727Y-115.57
X101.727Y-118.11
X101.727Y-120.65
X101.727Y-123.19
X101.727Y-125.73
X101.727Y-128.27
X101.727Y-130.81
X101.727Y-133.35
X101.727Y-135.89
X106.807Y-57.15
X106.807Y-59.69
X106.807Y-62.23
X106.807Y-64.77
X106.807Y-67.31
X106.807Y-69.85
X106.807Y-72.39
X106.807Y-74.93
X106.807Y-77.47
X106.807Y-80.01
X106.807Y-82.55
X106.807Y-85.09
X106.807Y-87.63
X106.807Y-90.17
X106.807Y-92.71
X106.807Y-95.25
X106.807Y-97.79
X106.807Y-100.33
X106.807Y-102.87
X106.807Y-105.41
X106.807Y-107.95
X106.807Y-110.49
X106.807Y-113.03
X106.807Y-115.57
X106.807Y-118.11
X106.807Y-120.65
X106.807Y-123.19
X106.807Y-125.73
X106.807Y-128.27
X106.807Y-130.81
X106.807Y-133.35
X106.807Y-135.89
X164.5Y-124.46
X164.5Y-127.0
X176.96Y-74.98
X176.96Y-77.52
X176.96Y-80.06
X176.96Y-82.6
X176.96Y-85.14
X176.96Y-87.68
X176.96Y-90.22
X176.96Y-92.76
X176.96Y-95.3
X176.96Y-97.84
X176.96Y-100.38
X176.96Y-102.92
X176.96Y-105.46
X176.96Y-108.0
X176.96Y-110.54
X176.96Y-113.08
X176.96Y-115.62
X176.96Y-118.16
X176.96Y-120.7
X176.96Y-123.24
X179.5Y-74.98
X179.5Y-77.52
X179.5Y-80.06
X179.5Y-82.6
X179.5Y-85.14
X179.5Y-87.68
X179.5Y-90.22
X179.5Y-92.76
X179.5Y-95.3
X179.5Y-97.84
X179.5Y-100.38
X179.5Y-102.92
X179.5Y-105.46
X179.5Y-108.0
X179.5Y-110.54
X179.5Y-113.08
X179.5Y-115.62
X179.5Y-118.16
X179.5Y-120.7
X179.5Y-123.24
T4
G00X186.0Y-62.0
M15
G01X186.0Y-60.0
M16
G05
G00X190.0Y-56.3
M15
G01X188.0Y-56.3
M16
G05
G00X192.0Y-62.0
M15
G01X192.0Y-60.0
M16
G05
M30
