M48
; DRILL file {KiCad 9.0.6} date 2026-01-24T19:03:03+1100
; FORMAT={-:-/ absolute / metric / decimal}
; #@! TF.CreationDate,2026-01-24T19:03:03+11:00
; #@! TF.GenerationSoftware,Kicad,Pcbnew,9.0.6
; #@! TF.FileFunction,Plated,1,2,PTH
FMAT,2
METRIC
; #@! TA.AperFunction,Plated,PTH,ViaDrill
T1C0.400
; #@! TA.AperFunction,Plated,PTH,ComponentDrill
T2C0.800
; #@! TA.AperFunction,Plated,PTH,ComponentDrill
T3C0.813
; #@! TA.AperFunction,Plated,PTH,ComponentDrill
T4C1.000
%
G90
G05
T1
X104.531Y-123.034
X105.073Y-59.973
X108.366Y-126.262
X108.589Y-111.694
X109.037Y-130.001
X109.537Y-127.79
X109.941Y-102.255
X110.569Y-120.697
X110.832Y-63.814
X113.731Y-113.831
X115.768Y-113.062
X117.578Y-98.444
X118.933Y-92.488
X119.326Y-79.93
X120.076Y-82.732
X120.593Y-91.764
X120.779Y-89.243
X120.931Y-79.845
X121.373Y-94.544
X121.48Y-70.069
X122.032Y-85.931
X122.826Y-116.615
X122.869Y-79.31
X122.964Y-131.721
X123.101Y-114.144
X123.366Y-125.196
X123.77Y-129.916
X123.969Y-116.624
X125.272Y-138.405
X125.303Y-101.842
X126.448Y-60.666
X127.474Y-124.118
X127.807Y-70.715
X128.666Y-67.386
X129.119Y-57.257
X129.439Y-113.831
X129.966Y-68.492
X134.249Y-79.454
X134.362Y-104.715
X135.788Y-137.845
X136.301Y-130.791
X136.814Y-140.761
X137.839Y-94.596
X137.839Y-127.898
X139.554Y-83.644
X140.055Y-110.687
X140.189Y-114.509
X140.299Y-112.753
X140.66Y-135.668
X140.685Y-122.106
X141.471Y-89.245
X141.982Y-83.394
X143.311Y-62.439
X144.506Y-113.414
X144.507Y-116.624
X144.507Y-120.494
X145.037Y-71.372
X147.193Y-126.58
X148.355Y-125.737
X150.634Y-67.285
X152.203Y-137.844
X152.317Y-123.719
X152.452Y-106.962
X153.709Y-128.627
X155.449Y-90.749
X156.981Y-74.379
X158.361Y-115.031
X159.093Y-138.45
X162.551Y-88.056
X163.942Y-88.056
X164.733Y-92.959
X169.16Y-133.577
X169.48Y-56.93
X170.861Y-65.181
X171.436Y-140.761
X171.565Y-50.72
X173.907Y-133.826
X178.785Y-85.581
X192.279Y-83.687
T2
X116.5Y-105.0
X118.0Y-55.0
X118.5Y-110.0
X118.5Y-112.54
X118.5Y-115.08
X118.5Y-117.62
X118.5Y-120.16
X118.5Y-122.7
X118.5Y-125.24
X118.5Y-127.78
X118.5Y-130.32
X118.5Y-132.86
X121.5Y-105.0
X123.0Y-55.0
X126.12Y-110.0
X126.12Y-112.54
X126.12Y-115.08
X126.12Y-117.62
X126.12Y-120.16
X126.12Y-122.7
X126.12Y-125.24
X126.12Y-127.78
X126.12Y-130.32
X126.12Y-132.86
X129.0Y-75.8
X129.0Y-78.34
X129.0Y-80.88
X129.0Y-83.42
X129.0Y-85.96
X129.0Y-88.5
X129.0Y-91.04
X129.0Y-93.58
X129.0Y-96.12
X132.76Y-55.5
X132.76Y-58.04
X132.76Y-60.58
X132.76Y-63.12
X132.76Y-65.66
X132.76Y-68.2
X132.76Y-70.74
X132.76Y-73.28
X132.76Y-75.82
X132.76Y-78.36
X132.76Y-80.9
X132.76Y-83.44
X132.76Y-85.98
X132.76Y-88.52
X132.76Y-91.06
X132.76Y-93.6
X132.76Y-96.14
X132.76Y-98.68
X132.76Y-101.22
X132.76Y-103.76
X133.5Y-50.5
X138.5Y-50.5
X148.0Y-55.5
X148.0Y-58.04
X148.0Y-60.58
X148.0Y-63.12
X148.0Y-65.66
X148.0Y-68.2
X148.0Y-70.74
X148.0Y-73.28
X148.0Y-75.82
X148.0Y-78.36
X148.0Y-80.9
X148.0Y-83.44
X148.0Y-85.98
X148.0Y-88.52
X148.0Y-91.06
X148.0Y-93.6
X148.0Y-96.14
X148.0Y-98.68
X148.0Y-101.22
X148.0Y-103.76
X151.0Y-50.5
X152.88Y-55.5
X152.88Y-58.04
X152.88Y-60.58
X152.88Y-63.12
X152.88Y-65.66
X152.88Y-68.2
X152.88Y-70.74
X152.88Y-73.28
X156.0Y-50.5
X156.26Y-98.5
X156.26Y-101.04
X156.26Y-103.58
X156.26Y-106.12
X156.26Y-108.66
X156.26Y-111.2
X156.26Y-113.74
X156.26Y-116.28
X156.26Y-118.82
X156.26Y-121.36
X156.26Y-123.9
X156.26Y-126.44
X156.26Y-128.98
X156.26Y-131.52
X156.26Y-134.06
X156.26Y-136.6
X158.0Y-93.5
X160.5Y-55.5
X160.5Y-58.04
X160.5Y-60.58
X160.5Y-63.12
X160.5Y-65.66
X160.5Y-68.2
X160.5Y-70.74
X160.5Y-73.28
X163.0Y-93.5
X166.0Y-61.5
X166.0Y-74.2
X170.5Y-61.5
X170.5Y-74.2
X171.5Y-98.5
X171.5Y-101.04
X171.5Y-103.58
X171.5Y-106.12
X171.5Y-108.66
X171.5Y-111.2
X171.5Y-113.74
X171.5Y-116.28
X171.5Y-118.82
X171.5Y-121.36
X171.5Y-123.9
X171.5Y-126.44
X171.5Y-128.98
X171.5Y-131.52
X171.5Y-134.06
X171.5Y-136.6
X174.5Y-93.5
X175.0Y-61.5
X175.0Y-74.2
X177.26Y-98.5
X177.26Y-101.04
X177.26Y-103.58
X177.26Y-106.12
X177.26Y-108.66
X177.26Y-111.2
X177.26Y-113.74
X177.26Y-116.28
X177.26Y-118.82
X177.26Y-121.36
X177.26Y-123.9
X177.26Y-126.44
X177.26Y-128.98
X177.26Y-131.52
X177.26Y-134.06
X177.26Y-136.6
X179.5Y-93.5
X180.5Y-77.5
X181.88Y-63.0
X181.88Y-70.62
X182.38Y-82.5
X182.38Y-85.04
X182.38Y-87.58
X182.38Y-90.12
X185.5Y-77.5
X188.5Y-58.0
X189.5Y-63.0
X189.5Y-70.62
X190.0Y-82.5
X190.0Y-85.04
X190.0Y-87.58
X190.0Y-90.12
X192.5Y-98.5
X192.5Y-101.04
X192.5Y-103.58
X192.5Y-106.12
X192.5Y-108.66
X192.5Y-111.2
X192.5Y-113.74
X192.5Y-116.28
X192.5Y-118.82
X192.5Y-121.36
X192.5Y-123.9
X192.5Y-126.44
X192.5Y-128.98
X192.5Y-131.52
X192.5Y-134.06
X192.5Y-136.6
X193.5Y-58.0
T3
X177.69Y-50.92
X177.69Y-56.0
X185.31Y-50.92
X185.31Y-56.0
T4
X101.727Y-57.15
X101.727Y-59.69
X101.727Y-62.23
X101.727Y-64.77
X101.727Y-67.31
X101.727Y-69.85
X101.727Y-72.39
X101.727Y-74.93
X101.727Y-77.47
X101.727Y-80.01
X101.727Y-82.55
X101.727Y-85.09
X101.727Y-87.63
X101.727Y-90.17
X101.727Y-92.71
X101.727Y-95.25
X101.727Y-97.79
X101.727Y-100.33
X101.727Y-102.87
X101.727Y-105.41
X101.727Y-107.95
X101.727Y-110.49
X101.727Y-113.03
X101.727Y-115.57
X101.727Y-118.11
X101.727Y-120.65
X101.727Y-123.19
X101.727Y-125.73
X101.727Y-128.27
X101.727Y-130.81
X101.727Y-133.35
X101.727Y-135.89
X106.807Y-57.15
X106.807Y-59.69
X106.807Y-62.23
X106.807Y-64.77
X106.807Y-67.31
X106.807Y-69.85
X106.807Y-72.39
X106.807Y-74.93
X106.807Y-77.47
X106.807Y-80.01
X106.807Y-82.55
X106.807Y-85.09
X106.807Y-87.63
X106.807Y-90.17
X106.807Y-92.71
X106.807Y-95.25
X106.807Y-97.79
X106.807Y-100.33
X106.807Y-102.87
X106.807Y-105.41
X106.807Y-107.95
X106.807Y-110.49
X106.807Y-113.03
X106.807Y-115.57
X106.807Y-118.11
X106.807Y-120.65
X106.807Y-123.19
X106.807Y-125.73
X106.807Y-128.27
X106.807Y-130.81
X106.807Y-133.35
X106.807Y-135.89
X116.88Y-60.26
X116.88Y-62.8
X116.88Y-65.34
X116.88Y-67.88
X116.88Y-70.42
X116.88Y-72.96
X116.88Y-75.5
X116.88Y-78.04
X116.88Y-80.58
X116.88Y-83.12
X116.88Y-85.66
X116.88Y-88.2
X124.5Y-60.26
X124.5Y-62.8
X124.5Y-65.34
X124.5Y-67.88
X124.5Y-70.42
X124.5Y-72.96
X124.5Y-75.5
X124.5Y-78.04
X124.5Y-80.58
X124.5Y-83.12
X124.5Y-85.66
X124.5Y-88.2
X163.23Y-85.23
X165.77Y-85.23
X168.31Y-85.23
X169.5Y-52.42
X169.5Y-54.96
M30
