G04 #@! TF.GenerationSoftware,KiCad,Pcbnew,9.0.6*
G04 #@! TF.CreationDate,2026-01-24T19:03:13+11:00*
G04 #@! TF.ProjectId,MECB_8088_CPU,4d454342-5f38-4303-9838-5f4350552e6b,1.0*
G04 #@! TF.SameCoordinates,Original*
G04 #@! TF.FileFunction,Legend,Bot*
G04 #@! TF.FilePolarity,Positive*
%FSLAX46Y46*%
G04 Gerber Fmt 4.6, Leading zero omitted, Abs format (unit mm)*
G04 Created by KiCad (PCBNEW 9.0.6) date 2026-01-24 19:03:13*
%MOMM*%
%LPD*%
G01*
G04 APERTURE LIST*
G04 Aperture macros list*
%AMRoundRect*
0 Rectangle with rounded corners*
0 $1 Rounding radius*
0 $2 $3 $4 $5 $6 $7 $8 $9 X,Y pos of 4 corners*
0 Add a 4 corners polygon primitive as box body*
4,1,4,$2,$3,$4,$5,$6,$7,$8,$9,$2,$3,0*
0 Add four circle primitives for the rounded corners*
1,1,$1+$1,$2,$3*
1,1,$1+$1,$4,$5*
1,1,$1+$1,$6,$7*
1,1,$1+$1,$8,$9*
0 Add four rect primitives between the rounded corners*
20,1,$1+$1,$2,$3,$4,$5,0*
20,1,$1+$1,$4,$5,$6,$7,0*
20,1,$1+$1,$6,$7,$8,$9,0*
20,1,$1+$1,$8,$9,$2,$3,0*%
G04 Aperture macros list end*
%ADD10C,3.200000*%
%ADD11C,2.850000*%
%ADD12RoundRect,0.249550X0.525450X-0.525450X0.525450X0.525450X-0.525450X0.525450X-0.525450X-0.525450X0*%
%ADD13C,1.550000*%
%ADD14C,1.397000*%
%ADD15C,1.600000*%
%ADD16RoundRect,0.250000X-0.950000X-0.550000X0.950000X-0.550000X0.950000X0.550000X-0.950000X0.550000X0*%
%ADD17O,2.400000X1.600000*%
%ADD18R,1.600000X1.600000*%
%ADD19R,1.700000X1.700000*%
%ADD20C,1.700000*%
G04 APERTURE END LIST*
%LPC*%
D10*
X192532000Y-50419000D03*
X192532000Y-142621000D03*
X106172000Y-50419000D03*
X106172000Y-142621000D03*
D11*
X99187000Y-140970000D03*
X99187000Y-52070000D03*
D12*
X101727000Y-135890000D03*
D13*
X101727000Y-133350000D03*
X101727000Y-130810000D03*
X101727000Y-128270000D03*
X101727000Y-125730000D03*
X101727000Y-123190000D03*
X101727000Y-120650000D03*
X101727000Y-118110000D03*
X101727000Y-115570000D03*
X101727000Y-113030000D03*
X101727000Y-110490000D03*
X101727000Y-107950000D03*
X101727000Y-105410000D03*
X101727000Y-102870000D03*
X101727000Y-100330000D03*
X101727000Y-97790000D03*
X101727000Y-95250000D03*
X101727000Y-92710000D03*
X101727000Y-90170000D03*
X101727000Y-87630000D03*
X101727000Y-85090000D03*
X101727000Y-82550000D03*
X101727000Y-80010000D03*
X101727000Y-77470000D03*
X101727000Y-74930000D03*
X101727000Y-72390000D03*
X101727000Y-69850000D03*
X101727000Y-67310000D03*
X101727000Y-64770000D03*
X101727000Y-62230000D03*
X101727000Y-59690000D03*
X101727000Y-57150000D03*
X106807000Y-135890000D03*
X106807000Y-133350000D03*
X106807000Y-130810000D03*
X106807000Y-128270000D03*
X106807000Y-125730000D03*
X106807000Y-123190000D03*
X106807000Y-120650000D03*
X106807000Y-118110000D03*
X106807000Y-115570000D03*
X106807000Y-113030000D03*
X106807000Y-110490000D03*
X106807000Y-107950000D03*
X106807000Y-105410000D03*
X106807000Y-102870000D03*
X106807000Y-100330000D03*
X106807000Y-97790000D03*
X106807000Y-95250000D03*
X106807000Y-92710000D03*
X106807000Y-90170000D03*
X106807000Y-87630000D03*
X106807000Y-85090000D03*
X106807000Y-82550000D03*
X106807000Y-80010000D03*
X106807000Y-77470000D03*
X106807000Y-74930000D03*
X106807000Y-72390000D03*
X106807000Y-69850000D03*
X106807000Y-67310000D03*
X106807000Y-64770000D03*
X106807000Y-62230000D03*
X106807000Y-59690000D03*
X106807000Y-57150000D03*
D14*
X177690000Y-50920000D03*
X185310000Y-50920000D03*
X177690000Y-56000000D03*
X185310000Y-56000000D03*
D15*
X180500000Y-77500000D03*
X185500000Y-77500000D03*
D16*
X156260000Y-98500000D03*
D17*
X156260000Y-101040000D03*
X156260000Y-103580000D03*
X156260000Y-106120000D03*
X156260000Y-108660000D03*
X156260000Y-111200000D03*
X156260000Y-113740000D03*
X156260000Y-116280000D03*
X156260000Y-118820000D03*
X156260000Y-121360000D03*
X156260000Y-123900000D03*
X156260000Y-126440000D03*
X156260000Y-128980000D03*
X156260000Y-131520000D03*
X156260000Y-134060000D03*
X156260000Y-136600000D03*
X171500000Y-136600000D03*
X171500000Y-134060000D03*
X171500000Y-131520000D03*
X171500000Y-128980000D03*
X171500000Y-126440000D03*
X171500000Y-123900000D03*
X171500000Y-121360000D03*
X171500000Y-118820000D03*
X171500000Y-116280000D03*
X171500000Y-113740000D03*
X171500000Y-111200000D03*
X171500000Y-108660000D03*
X171500000Y-106120000D03*
X171500000Y-103580000D03*
X171500000Y-101040000D03*
X171500000Y-98500000D03*
D18*
X129000000Y-96120000D03*
D15*
X129000000Y-93580000D03*
X129000000Y-91040000D03*
X129000000Y-88500000D03*
X129000000Y-85960000D03*
X129000000Y-83420000D03*
X129000000Y-80880000D03*
X129000000Y-78340000D03*
X129000000Y-75800000D03*
X158000000Y-93500000D03*
X163000000Y-93500000D03*
X174500000Y-93500000D03*
X179500000Y-93500000D03*
D16*
X116880000Y-60260000D03*
D17*
X116880000Y-62800000D03*
X116880000Y-65340000D03*
X116880000Y-67880000D03*
X116880000Y-70420000D03*
X116880000Y-72960000D03*
X116880000Y-75500000D03*
X116880000Y-78040000D03*
X116880000Y-80580000D03*
X116880000Y-83120000D03*
X116880000Y-85660000D03*
X116880000Y-88200000D03*
X124500000Y-88200000D03*
X124500000Y-85660000D03*
X124500000Y-83120000D03*
X124500000Y-80580000D03*
X124500000Y-78040000D03*
X124500000Y-75500000D03*
X124500000Y-72960000D03*
X124500000Y-70420000D03*
X124500000Y-67880000D03*
X124500000Y-65340000D03*
X124500000Y-62800000D03*
X124500000Y-60260000D03*
D19*
X169500000Y-52420000D03*
D20*
X169500000Y-54960000D03*
D16*
X182380000Y-82500000D03*
D17*
X182380000Y-85040000D03*
X182380000Y-87580000D03*
X182380000Y-90120000D03*
X190000000Y-90120000D03*
X190000000Y-87580000D03*
X190000000Y-85040000D03*
X190000000Y-82500000D03*
D15*
X188500000Y-58000000D03*
X193500000Y-58000000D03*
D16*
X181880000Y-63000000D03*
D17*
X181880000Y-70620000D03*
X189500000Y-70620000D03*
X189500000Y-63000000D03*
D15*
X118000000Y-55000000D03*
X123000000Y-55000000D03*
X116500000Y-105000000D03*
X121500000Y-105000000D03*
X166000000Y-61500000D03*
X166000000Y-74200000D03*
D16*
X177260000Y-98500000D03*
D17*
X177260000Y-101040000D03*
X177260000Y-103580000D03*
X177260000Y-106120000D03*
X177260000Y-108660000D03*
X177260000Y-111200000D03*
X177260000Y-113740000D03*
X177260000Y-116280000D03*
X177260000Y-118820000D03*
X177260000Y-121360000D03*
X177260000Y-123900000D03*
X177260000Y-126440000D03*
X177260000Y-128980000D03*
X177260000Y-131520000D03*
X177260000Y-134060000D03*
X177260000Y-136600000D03*
X192500000Y-136600000D03*
X192500000Y-134060000D03*
X192500000Y-131520000D03*
X192500000Y-128980000D03*
X192500000Y-126440000D03*
X192500000Y-123900000D03*
X192500000Y-121360000D03*
X192500000Y-118820000D03*
X192500000Y-116280000D03*
X192500000Y-113740000D03*
X192500000Y-111200000D03*
X192500000Y-108660000D03*
X192500000Y-106120000D03*
X192500000Y-103580000D03*
X192500000Y-101040000D03*
X192500000Y-98500000D03*
D16*
X118500000Y-110000000D03*
D17*
X118500000Y-112540000D03*
X118500000Y-115080000D03*
X118500000Y-117620000D03*
X118500000Y-120160000D03*
X118500000Y-122700000D03*
X118500000Y-125240000D03*
X118500000Y-127780000D03*
X118500000Y-130320000D03*
X118500000Y-132860000D03*
X126120000Y-132860000D03*
X126120000Y-130320000D03*
X126120000Y-127780000D03*
X126120000Y-125240000D03*
X126120000Y-122700000D03*
X126120000Y-120160000D03*
X126120000Y-117620000D03*
X126120000Y-115080000D03*
X126120000Y-112540000D03*
X126120000Y-110000000D03*
D15*
X156000000Y-50500000D03*
X151000000Y-50500000D03*
D16*
X132760000Y-55500000D03*
D17*
X132760000Y-58040000D03*
X132760000Y-60580000D03*
X132760000Y-63120000D03*
X132760000Y-65660000D03*
X132760000Y-68200000D03*
X132760000Y-70740000D03*
X132760000Y-73280000D03*
X132760000Y-75820000D03*
X132760000Y-78360000D03*
X132760000Y-80900000D03*
X132760000Y-83440000D03*
X132760000Y-85980000D03*
X132760000Y-88520000D03*
X132760000Y-91060000D03*
X132760000Y-93600000D03*
X132760000Y-96140000D03*
X132760000Y-98680000D03*
X132760000Y-101220000D03*
X132760000Y-103760000D03*
X148000000Y-103760000D03*
X148000000Y-101220000D03*
X148000000Y-98680000D03*
X148000000Y-96140000D03*
X148000000Y-93600000D03*
X148000000Y-91060000D03*
X148000000Y-88520000D03*
X148000000Y-85980000D03*
X148000000Y-83440000D03*
X148000000Y-80900000D03*
X148000000Y-78360000D03*
X148000000Y-75820000D03*
X148000000Y-73280000D03*
X148000000Y-70740000D03*
X148000000Y-68200000D03*
X148000000Y-65660000D03*
X148000000Y-63120000D03*
X148000000Y-60580000D03*
X148000000Y-58040000D03*
X148000000Y-55500000D03*
D15*
X170500000Y-61500000D03*
X170500000Y-74200000D03*
D16*
X152880000Y-55500000D03*
D17*
X152880000Y-58040000D03*
X152880000Y-60580000D03*
X152880000Y-63120000D03*
X152880000Y-65660000D03*
X152880000Y-68200000D03*
X152880000Y-70740000D03*
X152880000Y-73280000D03*
X160500000Y-73280000D03*
X160500000Y-70740000D03*
X160500000Y-68200000D03*
X160500000Y-65660000D03*
X160500000Y-63120000D03*
X160500000Y-60580000D03*
X160500000Y-58040000D03*
X160500000Y-55500000D03*
D19*
X163230000Y-85230000D03*
D20*
X165770000Y-85230000D03*
X168310000Y-85230000D03*
D15*
X133500000Y-50500000D03*
X138500000Y-50500000D03*
X175000000Y-61500000D03*
X175000000Y-74200000D03*
%LPD*%
M02*
