M48
; DRILL file {KiCad 9.0.5} date 2025-10-15T15:43:09+1100
; FORMAT={-:-/ absolute / metric / decimal}
; #@! TF.CreationDate,2025-10-15T15:43:09+11:00
; #@! TF.GenerationSoftware,Kicad,Pcbnew,9.0.5
; #@! TF.FileFunction,Plated,1,2,PTH
FMAT,2
METRIC
; #@! TA.AperFunction,Plated,PTH,ViaDrill
T1C0.400
; #@! TA.AperFunction,Plated,PTH,ComponentDrill
T2C0.800
; #@! TA.AperFunction,Plated,PTH,ComponentDrill
T3C0.813
; #@! TA.AperFunction,Plated,PTH,ComponentDrill
T4C1.000
%
G90
G05
T1
X98.398Y-94.322
X98.398Y-121.525
X104.525Y-92.426
X105.073Y-110.679
X105.075Y-68.612
X108.176Y-103.612
X108.574Y-121.157
X108.766Y-107.835
X108.986Y-71.851
X109.392Y-92.86
X109.394Y-95.807
X109.612Y-112.239
X109.662Y-56.083
X110.456Y-85.486
X110.583Y-93.136
X110.825Y-135.232
X111.18Y-64.607
X112.645Y-51.991
X112.962Y-101.31
X113.565Y-109.748
X113.715Y-91.477
X116.15Y-100.286
X116.963Y-85.703
X117.314Y-62.929
X117.489Y-66.819
X117.975Y-91.567
X118.043Y-59.732
X118.432Y-74.34
X118.72Y-57.152
X119.128Y-121.122
X119.272Y-64.218
X119.961Y-85.052
X121.102Y-87.94
X121.363Y-94.729
X124.611Y-53.75
X124.906Y-95.109
X125.272Y-140.143
X125.953Y-124.338
X126.902Y-95.405
X127.046Y-76.427
X128.011Y-121.919
X128.131Y-117.742
X128.294Y-59.181
X129.119Y-140.026
X129.352Y-85.968
X129.941Y-72.099
X130.185Y-55.604
X130.507Y-105.429
X130.839Y-103.827
X131.136Y-120.347
X131.324Y-68.634
X131.981Y-55.604
X132.29Y-91.557
X132.88Y-57.25
X132.901Y-89.49
X133.741Y-77.618
X134.068Y-92.209
X134.138Y-80.916
X134.215Y-82.846
X134.239Y-91.056
X134.332Y-94.252
X134.567Y-66.234
X135.451Y-131.737
X135.504Y-98.23
X135.542Y-112.691
X135.789Y-103.32
X136.824Y-92.138
X137.482Y-110.948
X140.025Y-107.326
X140.66Y-142.218
X140.923Y-70.694
X142.584Y-50.546
X143.126Y-71.588
X143.346Y-142.123
X144.127Y-77.108
X144.127Y-93.923
X144.437Y-122.99
X144.507Y-141.625
X144.599Y-105.978
X147.482Y-86.271
X147.962Y-65.09
X150.354Y-89.132
X151.04Y-117.027
X151.31Y-103.227
X151.582Y-106.742
X151.593Y-60.216
X152.201Y-51.666
X154.445Y-78.034
X154.445Y-79.222
X155.201Y-55.864
X155.735Y-129.194
X157.934Y-76.683
X158.286Y-58.629
X159.817Y-102.882
X160.466Y-82.943
X160.468Y-80.688
X161.237Y-60.057
X161.542Y-75.321
X164.522Y-72.023
X165.968Y-85.044
X166.527Y-81.398
X175.113Y-95.127
X175.269Y-52.265
X187.197Y-73.596
T2
X115.38Y-59.1
X115.38Y-61.64
X115.38Y-64.18
X115.38Y-66.72
X115.38Y-69.26
X115.38Y-71.8
X115.38Y-74.34
X115.38Y-76.88
X115.38Y-79.42
X115.38Y-81.96
X115.38Y-84.5
X115.38Y-87.04
X116.0Y-102.08
X118.0Y-53.88
X118.5Y-102.08
X120.5Y-53.88
X123.0Y-59.1
X123.0Y-61.64
X123.0Y-64.18
X123.0Y-66.72
X123.0Y-69.26
X123.0Y-71.8
X123.0Y-74.34
X123.0Y-76.88
X123.0Y-79.42
X123.0Y-81.96
X123.0Y-84.5
X123.0Y-87.04
X128.0Y-51.8
X128.0Y-64.5
X128.0Y-71.0
X128.0Y-83.7
X132.76Y-100.9
X132.76Y-103.44
X132.76Y-105.98
X132.76Y-108.52
X132.76Y-111.06
X132.76Y-113.6
X132.76Y-116.14
X132.76Y-118.68
X132.76Y-121.22
X132.76Y-123.76
X132.76Y-126.3
X132.76Y-128.84
X132.76Y-131.38
X132.76Y-133.92
X132.76Y-136.46
X132.76Y-139.0
X133.0Y-95.9
X135.0Y-49.5
X135.5Y-95.9
X135.96Y-57.8
X135.96Y-60.34
X135.96Y-62.88
X135.96Y-65.42
X135.96Y-67.96
X135.96Y-70.5
X135.96Y-73.04
X137.5Y-49.5
X138.5Y-55.26
X138.5Y-57.8
X138.5Y-60.34
X138.5Y-62.88
X138.5Y-65.42
X138.5Y-67.96
X138.5Y-70.5
X138.5Y-73.04
X138.5Y-75.58
X141.04Y-55.26
X141.04Y-57.8
X141.04Y-73.04
X141.04Y-75.58
X143.58Y-55.26
X143.58Y-57.8
X143.58Y-73.04
X143.58Y-75.58
X146.12Y-55.26
X146.12Y-57.8
X146.12Y-73.04
X146.12Y-75.58
X148.0Y-100.9
X148.0Y-103.44
X148.0Y-105.98
X148.0Y-108.52
X148.0Y-111.06
X148.0Y-113.6
X148.0Y-116.14
X148.0Y-118.68
X148.0Y-121.22
X148.0Y-123.76
X148.0Y-126.3
X148.0Y-128.84
X148.0Y-131.38
X148.0Y-133.92
X148.0Y-136.46
X148.0Y-139.0
X148.66Y-55.26
X148.66Y-57.8
X148.66Y-73.04
X148.66Y-75.58
X151.2Y-55.26
X151.2Y-57.8
X151.2Y-73.04
X151.2Y-75.58
X153.74Y-55.26
X153.74Y-57.8
X153.74Y-60.34
X153.74Y-62.88
X153.74Y-65.42
X153.74Y-67.96
X153.74Y-70.5
X153.74Y-73.04
X153.74Y-75.58
X156.28Y-57.8
X156.28Y-60.34
X156.28Y-62.88
X156.28Y-65.42
X156.28Y-67.96
X156.28Y-70.5
X156.28Y-73.04
X161.26Y-101.48
X161.26Y-104.02
X161.26Y-106.56
X161.26Y-109.1
X161.26Y-111.64
X161.26Y-114.18
X161.26Y-116.72
X161.26Y-119.26
X161.26Y-121.8
X161.26Y-124.34
X161.26Y-126.88
X161.26Y-129.42
X161.26Y-131.96
X161.26Y-134.5
X161.26Y-137.04
X161.26Y-139.58
X162.01Y-96.48
X163.0Y-58.18
X163.0Y-60.72
X163.0Y-63.26
X163.0Y-65.8
X163.0Y-68.34
X163.0Y-70.88
X163.0Y-73.42
X163.0Y-75.96
X163.0Y-78.5
X164.51Y-96.48
X169.38Y-71.38
X169.38Y-73.92
X169.38Y-76.46
X169.38Y-79.0
X169.38Y-81.54
X169.38Y-84.08
X169.38Y-86.62
X171.0Y-67.5
X173.5Y-67.5
X176.5Y-101.48
X176.5Y-104.02
X176.5Y-106.56
X176.5Y-109.1
X176.5Y-111.64
X176.5Y-114.18
X176.5Y-116.72
X176.5Y-119.26
X176.5Y-121.8
X176.5Y-124.34
X176.5Y-126.88
X176.5Y-129.42
X176.5Y-131.96
X176.5Y-134.5
X176.5Y-137.04
X176.5Y-139.58
X177.0Y-71.38
X177.0Y-73.92
X177.0Y-76.46
X177.0Y-79.0
X177.0Y-81.54
X177.0Y-84.08
X177.0Y-86.62
X182.0Y-88.0
X182.38Y-95.0
X182.38Y-97.54
X182.38Y-100.08
X182.38Y-102.62
X182.88Y-73.5
X182.88Y-81.12
X183.0Y-68.5
X184.5Y-88.0
X185.5Y-68.5
X190.0Y-95.0
X190.0Y-97.54
X190.0Y-100.08
X190.0Y-102.62
X190.5Y-73.5
X190.5Y-81.12
T3
X178.69Y-52.96
X178.69Y-58.04
X186.31Y-52.96
X186.31Y-58.04
T4
X101.727Y-57.15
X101.727Y-59.69
X101.727Y-62.23
X101.727Y-64.77
X101.727Y-67.31
X101.727Y-69.85
X101.727Y-72.39
X101.727Y-74.93
X101.727Y-77.47
X101.727Y-80.01
X101.727Y-82.55
X101.727Y-85.09
X101.727Y-87.63
X101.727Y-90.17
X101.727Y-92.71
X101.727Y-95.25
X101.727Y-97.79
X101.727Y-100.33
X101.727Y-102.87
X101.727Y-105.41
X101.727Y-107.95
X101.727Y-110.49
X101.727Y-113.03
X101.727Y-115.57
X101.727Y-118.11
X101.727Y-120.65
X101.727Y-123.19
X101.727Y-125.73
X101.727Y-128.27
X101.727Y-130.81
X101.727Y-133.35
X101.727Y-135.89
X106.807Y-57.15
X106.807Y-59.69
X106.807Y-62.23
X106.807Y-64.77
X106.807Y-67.31
X106.807Y-69.85
X106.807Y-72.39
X106.807Y-74.93
X106.807Y-77.47
X106.807Y-80.01
X106.807Y-82.55
X106.807Y-85.09
X106.807Y-87.63
X106.807Y-90.17
X106.807Y-92.71
X106.807Y-95.25
X106.807Y-97.79
X106.807Y-100.33
X106.807Y-102.87
X106.807Y-105.41
X106.807Y-107.95
X106.807Y-110.49
X106.807Y-113.03
X106.807Y-115.57
X106.807Y-118.11
X106.807Y-120.65
X106.807Y-123.19
X106.807Y-125.73
X106.807Y-128.27
X106.807Y-130.81
X106.807Y-133.35
X106.807Y-135.89
X115.38Y-106.26
X115.38Y-108.8
X115.38Y-111.34
X115.38Y-113.88
X115.38Y-116.42
X115.38Y-118.96
X115.38Y-121.5
X115.38Y-124.04
X115.38Y-126.58
X115.38Y-129.12
X115.38Y-131.66
X115.38Y-134.2
X123.0Y-106.26
X123.0Y-108.8
X123.0Y-111.34
X123.0Y-113.88
X123.0Y-116.42
X123.0Y-118.96
X123.0Y-121.5
X123.0Y-124.04
X123.0Y-126.58
X123.0Y-129.12
X123.0Y-131.66
X123.0Y-134.2
X170.5Y-54.46
X170.5Y-57.0
X190.5Y-112.5
X190.5Y-115.04
X190.5Y-117.58
M30
