G04 #@! TF.GenerationSoftware,KiCad,Pcbnew,9.0.5*
G04 #@! TF.CreationDate,2025-10-15T15:43:07+11:00*
G04 #@! TF.ProjectId,MECB_68008_CPU,4d454342-5f36-4383-9030-385f4350552e,1.0*
G04 #@! TF.SameCoordinates,Original*
G04 #@! TF.FileFunction,Legend,Bot*
G04 #@! TF.FilePolarity,Positive*
%FSLAX46Y46*%
G04 Gerber Fmt 4.6, Leading zero omitted, Abs format (unit mm)*
G04 Created by KiCad (PCBNEW 9.0.5) date 2025-10-15 15:43:07*
%MOMM*%
%LPD*%
G01*
G04 APERTURE LIST*
G04 Aperture macros list*
%AMRoundRect*
0 Rectangle with rounded corners*
0 $1 Rounding radius*
0 $2 $3 $4 $5 $6 $7 $8 $9 X,Y pos of 4 corners*
0 Add a 4 corners polygon primitive as box body*
4,1,4,$2,$3,$4,$5,$6,$7,$8,$9,$2,$3,0*
0 Add four circle primitives for the rounded corners*
1,1,$1+$1,$2,$3*
1,1,$1+$1,$4,$5*
1,1,$1+$1,$6,$7*
1,1,$1+$1,$8,$9*
0 Add four rect primitives between the rounded corners*
20,1,$1+$1,$2,$3,$4,$5,0*
20,1,$1+$1,$4,$5,$6,$7,0*
20,1,$1+$1,$6,$7,$8,$9,0*
20,1,$1+$1,$8,$9,$2,$3,0*%
G04 Aperture macros list end*
%ADD10C,3.200000*%
%ADD11C,2.850000*%
%ADD12RoundRect,0.249550X0.525450X-0.525450X0.525450X0.525450X-0.525450X0.525450X-0.525450X-0.525450X0*%
%ADD13C,1.550000*%
%ADD14C,1.397000*%
%ADD15C,1.600000*%
%ADD16R,1.600000X1.600000*%
%ADD17RoundRect,0.250000X-0.950000X-0.550000X0.950000X-0.550000X0.950000X0.550000X-0.950000X0.550000X0*%
%ADD18O,2.400000X1.600000*%
%ADD19R,1.700000X1.700000*%
%ADD20C,1.700000*%
%ADD21R,1.422400X1.422400*%
%ADD22C,1.422400*%
G04 APERTURE END LIST*
%LPC*%
D10*
X192532000Y-50419000D03*
X192532000Y-142621000D03*
X106172000Y-50419000D03*
X106172000Y-142621000D03*
D11*
X99187000Y-140970000D03*
X99187000Y-52070000D03*
D12*
X101727000Y-135890000D03*
D13*
X101727000Y-133350000D03*
X101727000Y-130810000D03*
X101727000Y-128270000D03*
X101727000Y-125730000D03*
X101727000Y-123190000D03*
X101727000Y-120650000D03*
X101727000Y-118110000D03*
X101727000Y-115570000D03*
X101727000Y-113030000D03*
X101727000Y-110490000D03*
X101727000Y-107950000D03*
X101727000Y-105410000D03*
X101727000Y-102870000D03*
X101727000Y-100330000D03*
X101727000Y-97790000D03*
X101727000Y-95250000D03*
X101727000Y-92710000D03*
X101727000Y-90170000D03*
X101727000Y-87630000D03*
X101727000Y-85090000D03*
X101727000Y-82550000D03*
X101727000Y-80010000D03*
X101727000Y-77470000D03*
X101727000Y-74930000D03*
X101727000Y-72390000D03*
X101727000Y-69850000D03*
X101727000Y-67310000D03*
X101727000Y-64770000D03*
X101727000Y-62230000D03*
X101727000Y-59690000D03*
X101727000Y-57150000D03*
X106807000Y-135890000D03*
X106807000Y-133350000D03*
X106807000Y-130810000D03*
X106807000Y-128270000D03*
X106807000Y-125730000D03*
X106807000Y-123190000D03*
X106807000Y-120650000D03*
X106807000Y-118110000D03*
X106807000Y-115570000D03*
X106807000Y-113030000D03*
X106807000Y-110490000D03*
X106807000Y-107950000D03*
X106807000Y-105410000D03*
X106807000Y-102870000D03*
X106807000Y-100330000D03*
X106807000Y-97790000D03*
X106807000Y-95250000D03*
X106807000Y-92710000D03*
X106807000Y-90170000D03*
X106807000Y-87630000D03*
X106807000Y-85090000D03*
X106807000Y-82550000D03*
X106807000Y-80010000D03*
X106807000Y-77470000D03*
X106807000Y-74930000D03*
X106807000Y-72390000D03*
X106807000Y-69850000D03*
X106807000Y-67310000D03*
X106807000Y-64770000D03*
X106807000Y-62230000D03*
X106807000Y-59690000D03*
X106807000Y-57150000D03*
D14*
X178690000Y-52960000D03*
X186310000Y-52960000D03*
X178690000Y-58040000D03*
X186310000Y-58040000D03*
D15*
X183000000Y-68500000D03*
X185500000Y-68500000D03*
X128000000Y-83700000D03*
X128000000Y-71000000D03*
D16*
X163000000Y-78500000D03*
D15*
X163000000Y-75960000D03*
X163000000Y-73420000D03*
X163000000Y-70880000D03*
X163000000Y-68340000D03*
X163000000Y-65800000D03*
X163000000Y-63260000D03*
X163000000Y-60720000D03*
X163000000Y-58180000D03*
X182000000Y-88000000D03*
X184500000Y-88000000D03*
D17*
X161260000Y-101480000D03*
D18*
X161260000Y-104020000D03*
X161260000Y-106560000D03*
X161260000Y-109100000D03*
X161260000Y-111640000D03*
X161260000Y-114180000D03*
X161260000Y-116720000D03*
X161260000Y-119260000D03*
X161260000Y-121800000D03*
X161260000Y-124340000D03*
X161260000Y-126880000D03*
X161260000Y-129420000D03*
X161260000Y-131960000D03*
X161260000Y-134500000D03*
X161260000Y-137040000D03*
X161260000Y-139580000D03*
X176500000Y-139580000D03*
X176500000Y-137040000D03*
X176500000Y-134500000D03*
X176500000Y-131960000D03*
X176500000Y-129420000D03*
X176500000Y-126880000D03*
X176500000Y-124340000D03*
X176500000Y-121800000D03*
X176500000Y-119260000D03*
X176500000Y-116720000D03*
X176500000Y-114180000D03*
X176500000Y-111640000D03*
X176500000Y-109100000D03*
X176500000Y-106560000D03*
X176500000Y-104020000D03*
X176500000Y-101480000D03*
D15*
X162010000Y-96480000D03*
X164510000Y-96480000D03*
X135000000Y-49500000D03*
X137500000Y-49500000D03*
D17*
X115380000Y-106260000D03*
D18*
X115380000Y-108800000D03*
X115380000Y-111340000D03*
X115380000Y-113880000D03*
X115380000Y-116420000D03*
X115380000Y-118960000D03*
X115380000Y-121500000D03*
X115380000Y-124040000D03*
X115380000Y-126580000D03*
X115380000Y-129120000D03*
X115380000Y-131660000D03*
X115380000Y-134200000D03*
X123000000Y-134200000D03*
X123000000Y-131660000D03*
X123000000Y-129120000D03*
X123000000Y-126580000D03*
X123000000Y-124040000D03*
X123000000Y-121500000D03*
X123000000Y-118960000D03*
X123000000Y-116420000D03*
X123000000Y-113880000D03*
X123000000Y-111340000D03*
X123000000Y-108800000D03*
X123000000Y-106260000D03*
D19*
X170500000Y-54460000D03*
D20*
X170500000Y-57000000D03*
D15*
X171000000Y-67500000D03*
X173500000Y-67500000D03*
D17*
X182380000Y-95000000D03*
D18*
X182380000Y-97540000D03*
X182380000Y-100080000D03*
X182380000Y-102620000D03*
X190000000Y-102620000D03*
X190000000Y-100080000D03*
X190000000Y-97540000D03*
X190000000Y-95000000D03*
D17*
X182880000Y-73500000D03*
D18*
X182880000Y-81120000D03*
X190500000Y-81120000D03*
X190500000Y-73500000D03*
D15*
X116000000Y-102080000D03*
X118500000Y-102080000D03*
X118000000Y-53880000D03*
X120500000Y-53880000D03*
X128000000Y-51800000D03*
X128000000Y-64500000D03*
X133000000Y-95900000D03*
X135500000Y-95900000D03*
D17*
X115380000Y-59100000D03*
D18*
X115380000Y-61640000D03*
X115380000Y-64180000D03*
X115380000Y-66720000D03*
X115380000Y-69260000D03*
X115380000Y-71800000D03*
X115380000Y-74340000D03*
X115380000Y-76880000D03*
X115380000Y-79420000D03*
X115380000Y-81960000D03*
X115380000Y-84500000D03*
X115380000Y-87040000D03*
X123000000Y-87040000D03*
X123000000Y-84500000D03*
X123000000Y-81960000D03*
X123000000Y-79420000D03*
X123000000Y-76880000D03*
X123000000Y-74340000D03*
X123000000Y-71800000D03*
X123000000Y-69260000D03*
X123000000Y-66720000D03*
X123000000Y-64180000D03*
X123000000Y-61640000D03*
X123000000Y-59100000D03*
D17*
X132760000Y-100900000D03*
D18*
X132760000Y-103440000D03*
X132760000Y-105980000D03*
X132760000Y-108520000D03*
X132760000Y-111060000D03*
X132760000Y-113600000D03*
X132760000Y-116140000D03*
X132760000Y-118680000D03*
X132760000Y-121220000D03*
X132760000Y-123760000D03*
X132760000Y-126300000D03*
X132760000Y-128840000D03*
X132760000Y-131380000D03*
X132760000Y-133920000D03*
X132760000Y-136460000D03*
X132760000Y-139000000D03*
X148000000Y-139000000D03*
X148000000Y-136460000D03*
X148000000Y-133920000D03*
X148000000Y-131380000D03*
X148000000Y-128840000D03*
X148000000Y-126300000D03*
X148000000Y-123760000D03*
X148000000Y-121220000D03*
X148000000Y-118680000D03*
X148000000Y-116140000D03*
X148000000Y-113600000D03*
X148000000Y-111060000D03*
X148000000Y-108520000D03*
X148000000Y-105980000D03*
X148000000Y-103440000D03*
X148000000Y-100900000D03*
D17*
X169380000Y-71380000D03*
D18*
X169380000Y-73920000D03*
X169380000Y-76460000D03*
X169380000Y-79000000D03*
X169380000Y-81540000D03*
X169380000Y-84080000D03*
X169380000Y-86620000D03*
X177000000Y-86620000D03*
X177000000Y-84080000D03*
X177000000Y-81540000D03*
X177000000Y-79000000D03*
X177000000Y-76460000D03*
X177000000Y-73920000D03*
X177000000Y-71380000D03*
D21*
X135960000Y-65420000D03*
D22*
X138500000Y-65420000D03*
X135960000Y-67960000D03*
X138500000Y-67960000D03*
X135960000Y-70500000D03*
X138500000Y-70500000D03*
X135960000Y-73040000D03*
X138500000Y-75580000D03*
X138500000Y-73040000D03*
X141040000Y-75580000D03*
X141040000Y-73040000D03*
X143580000Y-75580000D03*
X143580000Y-73040000D03*
X146120000Y-75580000D03*
X146120000Y-73040000D03*
X148660000Y-75580000D03*
X148660000Y-73040000D03*
X151200000Y-75580000D03*
X151200000Y-73040000D03*
X153740000Y-75580000D03*
X156280000Y-73040000D03*
X153740000Y-73040000D03*
X156280000Y-70500000D03*
X153740000Y-70500000D03*
X156280000Y-67960000D03*
X153740000Y-67960000D03*
X156280000Y-65420000D03*
X153740000Y-65420000D03*
X156280000Y-62880000D03*
X153740000Y-62880000D03*
X156280000Y-60340000D03*
X153740000Y-60340000D03*
X156280000Y-57800000D03*
X153740000Y-55260000D03*
X153740000Y-57800000D03*
X151200000Y-55260000D03*
X151200000Y-57800000D03*
X148660000Y-55260000D03*
X148660000Y-57800000D03*
X146120000Y-55260000D03*
X146120000Y-57800000D03*
X143580000Y-55260000D03*
X143580000Y-57800000D03*
X141040000Y-55260000D03*
X141040000Y-57800000D03*
X138500000Y-55260000D03*
X135960000Y-57800000D03*
X138500000Y-57800000D03*
X135960000Y-60340000D03*
X138500000Y-60340000D03*
X135960000Y-62880000D03*
X138500000Y-62880000D03*
D19*
X190500000Y-112500000D03*
D20*
X190500000Y-115040000D03*
X190500000Y-117580000D03*
%LPD*%
M02*
