M48
; DRILL file {KiCad 9.0.5} date 2025-11-17T14:43:09+1100
; FORMAT={-:-/ absolute / metric / decimal}
; #@! TF.CreationDate,2025-11-17T14:43:09+11:00
; #@! TF.GenerationSoftware,Kicad,Pcbnew,9.0.5
; #@! TF.FileFunction,Plated,1,2,PTH
FMAT,2
METRIC
; #@! TA.AperFunction,Plated,PTH,ViaDrill
T1C0.400
; #@! TA.AperFunction,Plated,PTH,ComponentDrill
T2C0.800
; #@! TA.AperFunction,Plated,PTH,ComponentDrill
T3C0.813
; #@! TA.AperFunction,Plated,PTH,ComponentDrill
T4C1.000
%
G90
G05
T1
X98.195Y-121.525
X98.398Y-109.984
X100.78Y-83.99
X101.836Y-140.895
X102.191Y-144.552
X103.181Y-88.067
X104.31Y-67.766
X104.813Y-78.621
X105.073Y-125.63
X107.999Y-140.523
X108.161Y-127.559
X108.501Y-105.224
X108.685Y-121.245
X108.713Y-131.822
X108.876Y-80.002
X108.946Y-91.709
X109.006Y-61.649
X109.143Y-63.083
X109.585Y-103.794
X110.273Y-90.941
X110.994Y-108.875
X112.672Y-126.33
X113.413Y-107.82
X113.649Y-112.237
X114.588Y-102.286
X115.185Y-84.719
X117.153Y-105.455
X118.674Y-64.07
X118.973Y-91.825
X119.173Y-98.444
X119.211Y-99.605
X119.694Y-120.255
X119.706Y-89.82
X119.889Y-61.478
X120.287Y-70.674
X120.975Y-64.521
X121.618Y-105.967
X121.984Y-133.281
X122.43Y-69.113
X122.508Y-112.595
X122.819Y-79.281
X124.015Y-56.536
X125.272Y-139.799
X125.53Y-48.272
X126.448Y-132.392
X126.638Y-76.821
X126.926Y-66.788
X127.32Y-88.047
X127.541Y-106.52
X127.641Y-48.684
X128.013Y-112.421
X128.254Y-74.979
X128.254Y-86.277
X128.806Y-62.323
X129.158Y-124.803
X129.301Y-70.545
X129.306Y-67.805
X130.103Y-112.473
X130.198Y-119.036
X130.338Y-89.668
X130.568Y-61.598
X130.612Y-121.861
X130.714Y-59.399
X132.81Y-121.682
X132.965Y-140.01
X133.253Y-113.767
X134.042Y-111.902
X135.421Y-120.084
X135.426Y-109.447
X135.817Y-110.878
X136.031Y-114.974
X136.657Y-90.754
X137.657Y-69.076
X137.983Y-94.883
X138.309Y-67.582
X138.35Y-55.219
X138.424Y-78.937
X139.142Y-106.081
X139.267Y-116.266
X140.416Y-64.62
X140.617Y-53.13
X140.66Y-140.944
X140.809Y-67.299
X140.897Y-115.428
X141.08Y-109.81
X141.403Y-51.701
X141.925Y-83.375
X142.318Y-108.297
X143.149Y-47.549
X144.255Y-85.737
X144.507Y-137.648
X144.89Y-86.895
X146.905Y-122.63
X147.037Y-70.389
X148.017Y-82.415
X150.504Y-107.762
X150.857Y-102.766
X150.982Y-100.103
X152.924Y-133.924
X153.11Y-95.487
X153.279Y-89.595
X154.283Y-105.95
X154.567Y-123.318
X154.569Y-86.367
X155.94Y-126.569
X157.374Y-74.708
X157.663Y-102.979
X157.719Y-123.649
X158.684Y-72.813
X159.636Y-63.892
X160.724Y-86.902
X160.77Y-95.289
X161.054Y-108.239
X161.335Y-73.563
X163.742Y-140.759
X166.462Y-102.601
X166.528Y-108.773
X167.591Y-140.762
X167.738Y-100.169
X169.701Y-131.406
X170.536Y-106.655
X171.654Y-59.551
X173.978Y-54.518
X174.722Y-51.261
X175.988Y-137.12
X176.661Y-125.372
T2
X116.88Y-107.06
X116.88Y-109.6
X116.88Y-112.14
X116.88Y-114.68
X116.88Y-117.22
X116.88Y-119.76
X116.88Y-122.3
X116.88Y-124.84
X116.88Y-127.38
X116.88Y-129.92
X116.88Y-132.46
X116.88Y-135.0
X118.0Y-55.0
X118.19Y-102.06
X123.0Y-55.0
X123.19Y-102.06
X124.5Y-107.06
X124.5Y-109.6
X124.5Y-112.14
X124.5Y-114.68
X124.5Y-117.22
X124.5Y-119.76
X124.5Y-122.3
X124.5Y-124.84
X124.5Y-127.38
X124.5Y-129.92
X124.5Y-132.46
X124.5Y-135.0
X133.46Y-59.72
X133.46Y-62.26
X133.46Y-64.8
X133.46Y-67.34
X133.46Y-69.88
X133.46Y-72.42
X133.46Y-74.96
X136.0Y-57.18
X136.0Y-59.72
X136.0Y-62.26
X136.0Y-64.8
X136.0Y-67.34
X136.0Y-69.88
X136.0Y-72.42
X136.0Y-74.96
X136.0Y-77.5
X137.76Y-49.84
X138.54Y-57.18
X138.54Y-59.72
X138.54Y-74.96
X138.54Y-77.5
X141.08Y-57.18
X141.08Y-59.72
X141.08Y-74.96
X141.08Y-77.5
X142.76Y-49.84
X143.62Y-57.18
X143.62Y-59.72
X143.62Y-74.96
X143.62Y-77.5
X146.16Y-57.18
X146.16Y-59.72
X146.16Y-74.96
X146.16Y-77.5
X148.0Y-93.5
X148.7Y-57.18
X148.7Y-59.72
X148.7Y-74.96
X148.7Y-77.5
X148.76Y-98.5
X148.76Y-101.04
X148.76Y-103.58
X148.76Y-106.12
X148.76Y-108.66
X148.76Y-111.2
X148.76Y-113.74
X148.76Y-116.28
X148.76Y-118.82
X148.76Y-121.36
X148.76Y-123.9
X148.76Y-126.44
X148.76Y-128.98
X148.76Y-131.52
X148.76Y-134.06
X148.76Y-136.6
X151.24Y-57.18
X151.24Y-59.72
X151.24Y-62.26
X151.24Y-64.8
X151.24Y-67.34
X151.24Y-69.88
X151.24Y-72.42
X151.24Y-74.96
X151.24Y-77.5
X153.0Y-93.5
X153.78Y-59.72
X153.78Y-62.26
X153.78Y-64.8
X153.78Y-67.34
X153.78Y-69.88
X153.78Y-72.42
X153.78Y-74.96
X163.0Y-58.0
X163.0Y-60.54
X163.0Y-63.08
X163.0Y-65.62
X163.0Y-68.16
X163.0Y-70.7
X163.0Y-73.24
X163.0Y-75.78
X163.0Y-78.32
X164.0Y-98.5
X164.0Y-101.04
X164.0Y-103.58
X164.0Y-106.12
X164.0Y-108.66
X164.0Y-111.2
X164.0Y-113.74
X164.0Y-116.28
X164.0Y-118.82
X164.0Y-121.36
X164.0Y-123.9
X164.0Y-126.44
X164.0Y-128.98
X164.0Y-131.52
X164.0Y-134.06
X164.0Y-136.6
X169.5Y-61.5
X169.5Y-74.2
X172.76Y-98.4
X172.76Y-100.94
X172.76Y-103.48
X172.76Y-106.02
X172.76Y-108.56
X172.76Y-111.1
X172.76Y-113.64
X172.76Y-116.18
X172.76Y-118.72
X172.76Y-121.26
X172.76Y-123.8
X172.76Y-126.34
X172.76Y-128.88
X172.76Y-131.42
X172.76Y-133.96
X172.76Y-136.5
X173.0Y-93.5
X178.0Y-93.5
X180.5Y-77.5
X181.88Y-63.0
X181.88Y-70.62
X182.38Y-82.5
X182.38Y-85.04
X182.38Y-87.58
X182.38Y-90.12
X185.5Y-77.5
X188.0Y-98.4
X188.0Y-100.94
X188.0Y-103.48
X188.0Y-106.02
X188.0Y-108.56
X188.0Y-111.1
X188.0Y-113.64
X188.0Y-116.18
X188.0Y-118.72
X188.0Y-121.26
X188.0Y-123.8
X188.0Y-126.34
X188.0Y-128.88
X188.0Y-131.42
X188.0Y-133.96
X188.0Y-136.5
X189.5Y-63.0
X189.5Y-70.62
X190.0Y-82.5
X190.0Y-85.04
X190.0Y-87.58
X190.0Y-90.12
T3
X177.69Y-50.92
X177.69Y-56.0
X185.31Y-50.92
X185.31Y-56.0
T4
X101.727Y-57.15
X101.727Y-59.69
X101.727Y-62.23
X101.727Y-64.77
X101.727Y-67.31
X101.727Y-69.85
X101.727Y-72.39
X101.727Y-74.93
X101.727Y-77.47
X101.727Y-80.01
X101.727Y-82.55
X101.727Y-85.09
X101.727Y-87.63
X101.727Y-90.17
X101.727Y-92.71
X101.727Y-95.25
X101.727Y-97.79
X101.727Y-100.33
X101.727Y-102.87
X101.727Y-105.41
X101.727Y-107.95
X101.727Y-110.49
X101.727Y-113.03
X101.727Y-115.57
X101.727Y-118.11
X101.727Y-120.65
X101.727Y-123.19
X101.727Y-125.73
X101.727Y-128.27
X101.727Y-130.81
X101.727Y-133.35
X101.727Y-135.89
X106.807Y-57.15
X106.807Y-59.69
X106.807Y-62.23
X106.807Y-64.77
X106.807Y-67.31
X106.807Y-69.85
X106.807Y-72.39
X106.807Y-74.93
X106.807Y-77.47
X106.807Y-80.01
X106.807Y-82.55
X106.807Y-85.09
X106.807Y-87.63
X106.807Y-90.17
X106.807Y-92.71
X106.807Y-95.25
X106.807Y-97.79
X106.807Y-100.33
X106.807Y-102.87
X106.807Y-105.41
X106.807Y-107.95
X106.807Y-110.49
X106.807Y-113.03
X106.807Y-115.57
X106.807Y-118.11
X106.807Y-120.65
X106.807Y-123.19
X106.807Y-125.73
X106.807Y-128.27
X106.807Y-130.81
X106.807Y-133.35
X106.807Y-135.89
X116.88Y-60.26
X116.88Y-62.8
X116.88Y-65.34
X116.88Y-67.88
X116.88Y-70.42
X116.88Y-72.96
X116.88Y-75.5
X116.88Y-78.04
X116.88Y-80.58
X116.88Y-83.12
X116.88Y-85.66
X116.88Y-88.2
X124.5Y-60.26
X124.5Y-62.8
X124.5Y-65.34
X124.5Y-67.88
X124.5Y-70.42
X124.5Y-72.96
X124.5Y-75.5
X124.5Y-78.04
X124.5Y-80.58
X124.5Y-83.12
X124.5Y-85.66
X124.5Y-88.2
X163.23Y-85.23
X165.77Y-85.23
X168.31Y-85.23
X169.5Y-52.42
X169.5Y-54.96
M30
